ISO-10303-21;
HEADER;
FILE_DESCRIPTION(('FreeCAD Model'),'2;1');
FILE_NAME('Open CASCADE Shape Model','2026-10-09T09:05:22',('FreeCAD'),(
    'FreeCAD'),'Open CASCADE STEP processor 7.8','FreeCAD','Unknown');
FILE_SCHEMA(('AUTOMOTIVE_DESIGN { 1 0 10303 214 1 1 1 1 }'));
ENDSEC;
DATA;
#1 = APPLICATION_PROTOCOL_DEFINITION('international standard',
  'automotive_design',2000,#2);
#2 = APPLICATION_CONTEXT(
  'core data for automotive mechanical design processes');
#3 = SHAPE_DEFINITION_REPRESENTATION(#4,#10);
#4 = PRODUCT_DEFINITION_SHAPE('','',#5);
#5 = PRODUCT_DEFINITION('design','',#6,#9);
#6 = PRODUCT_DEFINITION_FORMATION('','',#7);
#7 = PRODUCT('Open CASCADE STEP translator 7.8 3',
  'Open CASCADE STEP translator 7.8 3','',(#8));
#8 = PRODUCT_CONTEXT('',#2,'mechanical');
#9 = PRODUCT_DEFINITION_CONTEXT('part definition',#2,'design');
#10 = ADVANCED_BREP_SHAPE_REPRESENTATION('',(#11,#15),#942);
#11 = AXIS2_PLACEMENT_3D('',#12,#13,#14);
#12 = CARTESIAN_POINT('',(0.,0.,0.));
#13 = DIRECTION('',(0.,0.,1.));
#14 = DIRECTION('',(1.,0.,-0.));
#15 = MANIFOLD_SOLID_BREP('',#16);
#16 = CLOSED_SHELL('',(#17,#50,#109,#173,#244,#268,#292,#334,#382,#399,
    #424,#449,#474,#499,#524,#536,#600,#624,#717,#729,#754,#771,#782,
    #793,#818,#843,#868,#893,#918));
#17 = ADVANCED_FACE('',(#18),#45,.F.);
#18 = FACE_BOUND('',#19,.T.);
#19 = EDGE_LOOP('',(#20,#30,#37,#38));
#20 = ORIENTED_EDGE('',*,*,#21,.T.);
#21 = EDGE_CURVE('',#22,#24,#26,.T.);
#22 = VERTEX_POINT('',#23);
#23 = CARTESIAN_POINT('',(49.2,16.5,202.5));
#24 = VERTEX_POINT('',#25);
#25 = CARTESIAN_POINT('',(49.2,15.9,202.5));
#26 = LINE('',#27,#28);
#27 = CARTESIAN_POINT('',(49.2,16.5,202.5));
#28 = VECTOR('',#29,1.);
#29 = DIRECTION('',(0.,-1.,0.));
#30 = ORIENTED_EDGE('',*,*,#31,.T.);
#31 = EDGE_CURVE('',#24,#24,#32,.T.);
#32 = CIRCLE('',#33,8.2);
#33 = AXIS2_PLACEMENT_3D('',#34,#35,#36);
#34 = CARTESIAN_POINT('',(41.,15.9,202.5));
#35 = DIRECTION('',(-0.,-1.,0.));
#36 = DIRECTION('',(1.,-0.,1.2E-16));
#37 = ORIENTED_EDGE('',*,*,#21,.F.);
#38 = ORIENTED_EDGE('',*,*,#39,.F.);
#39 = EDGE_CURVE('',#22,#22,#40,.T.);
#40 = CIRCLE('',#41,8.2);
#41 = AXIS2_PLACEMENT_3D('',#42,#43,#44);
#42 = CARTESIAN_POINT('',(41.,16.5,202.5));
#43 = DIRECTION('',(-0.,-1.,0.));
#44 = DIRECTION('',(1.,-0.,1.2E-16));
#45 = CYLINDRICAL_SURFACE('',#46,8.2);
#46 = AXIS2_PLACEMENT_3D('',#47,#48,#49);
#47 = CARTESIAN_POINT('',(41.,16.5,202.5));
#48 = DIRECTION('',(0.,1.,0.));
#49 = DIRECTION('',(1.,0.,1.2E-16));
#50 = ADVANCED_FACE('',(#51,#101),#104,.T.);
#51 = FACE_BOUND('',#52,.T.);
#52 = EDGE_LOOP('',(#53,#63,#71,#79,#87,#95));
#53 = ORIENTED_EDGE('',*,*,#54,.F.);
#54 = EDGE_CURVE('',#55,#57,#59,.T.);
#55 = VERTEX_POINT('',#56);
#56 = CARTESIAN_POINT('',(53.,16.5,190.5));
#57 = VERTEX_POINT('',#58);
#58 = CARTESIAN_POINT('',(53.,16.5,219.83923723882));
#59 = LINE('',#60,#61);
#60 = CARTESIAN_POINT('',(53.,16.5,190.5));
#61 = VECTOR('',#62,1.);
#62 = DIRECTION('',(-1.2E-16,5.6E-16,1.));
#63 = ORIENTED_EDGE('',*,*,#64,.F.);
#64 = EDGE_CURVE('',#65,#55,#67,.T.);
#65 = VERTEX_POINT('',#66);
#66 = CARTESIAN_POINT('',(29.,16.5,190.5));
#67 = LINE('',#68,#69);
#68 = CARTESIAN_POINT('',(29.,16.5,190.5));
#69 = VECTOR('',#70,1.);
#70 = DIRECTION('',(1.,0.,1.2E-16));
#71 = ORIENTED_EDGE('',*,*,#72,.T.);
#72 = EDGE_CURVE('',#65,#73,#75,.T.);
#73 = VERTEX_POINT('',#74);
#74 = CARTESIAN_POINT('',(29.,16.5,223.75));
#75 = LINE('',#76,#77);
#76 = CARTESIAN_POINT('',(29.,16.5,190.5));
#77 = VECTOR('',#78,1.);
#78 = DIRECTION('',(-1.2E-16,5.6E-16,1.));
#79 = ORIENTED_EDGE('',*,*,#80,.T.);
#80 = EDGE_CURVE('',#73,#81,#83,.T.);
#81 = VERTEX_POINT('',#82);
#82 = CARTESIAN_POINT('',(30.899997711182,16.5,223.75));
#83 = LINE('',#84,#85);
#84 = CARTESIAN_POINT('',(29.,16.5,223.75));
#85 = VECTOR('',#86,1.);
#86 = DIRECTION('',(1.,0.,1.2E-16));
#87 = ORIENTED_EDGE('',*,*,#88,.F.);
#88 = EDGE_CURVE('',#89,#81,#91,.T.);
#89 = VERTEX_POINT('',#90);
#90 = CARTESIAN_POINT('',(30.899997711182,16.5,219.83923723882));
#91 = LINE('',#92,#93);
#92 = CARTESIAN_POINT('',(30.899997711182,16.5,214.73889915582));
#93 = VECTOR('',#94,1.);
#94 = DIRECTION('',(0.,0.,1.));
#95 = ORIENTED_EDGE('',*,*,#96,.T.);
#96 = EDGE_CURVE('',#89,#57,#97,.T.);
#97 = LINE('',#98,#99);
#98 = CARTESIAN_POINT('',(29.949998855591,16.5,219.83923723882));
#99 = VECTOR('',#100,1.);
#100 = DIRECTION('',(1.,0.,0.));
#101 = FACE_BOUND('',#102,.T.);
#102 = EDGE_LOOP('',(#103));
#103 = ORIENTED_EDGE('',*,*,#39,.T.);
#104 = PLANE('',#105);
#105 = AXIS2_PLACEMENT_3D('',#106,#107,#108);
#106 = CARTESIAN_POINT('',(29.,16.5,190.5));
#107 = DIRECTION('',(0.,1.,0.));
#108 = DIRECTION('',(-1.2E-16,0.,1.));
#109 = ADVANCED_FACE('',(#110,#113,#124,#135,#146,#157),#168,.F.);
#110 = FACE_BOUND('',#111,.F.);
#111 = EDGE_LOOP('',(#112));
#112 = ORIENTED_EDGE('',*,*,#31,.T.);
#113 = FACE_BOUND('',#114,.F.);
#114 = EDGE_LOOP('',(#115));
#115 = ORIENTED_EDGE('',*,*,#116,.T.);
#116 = EDGE_CURVE('',#117,#117,#119,.T.);
#117 = VERTEX_POINT('',#118);
#118 = CARTESIAN_POINT('',(37.607359312881,15.9,198.25735931288));
#119 = CIRCLE('',#120,0.85);
#120 = AXIS2_PLACEMENT_3D('',#121,#122,#123);
#121 = CARTESIAN_POINT('',(36.757359312881,15.9,198.25735931288));
#122 = DIRECTION('',(0.,1.,0.));
#123 = DIRECTION('',(1.,-0.,1.2E-16));
#124 = FACE_BOUND('',#125,.F.);
#125 = EDGE_LOOP('',(#126));
#126 = ORIENTED_EDGE('',*,*,#127,.T.);
#127 = EDGE_CURVE('',#128,#128,#130,.T.);
#128 = VERTEX_POINT('',#129);
#129 = CARTESIAN_POINT('',(46.092640687119,15.9,198.25735931288));
#130 = CIRCLE('',#131,0.85);
#131 = AXIS2_PLACEMENT_3D('',#132,#133,#134);
#132 = CARTESIAN_POINT('',(45.242640687119,15.9,198.25735931288));
#133 = DIRECTION('',(0.,1.,0.));
#134 = DIRECTION('',(1.,-0.,1.2E-16));
#135 = FACE_BOUND('',#136,.F.);
#136 = EDGE_LOOP('',(#137));
#137 = ORIENTED_EDGE('',*,*,#138,.T.);
#138 = EDGE_CURVE('',#139,#139,#141,.T.);
#139 = VERTEX_POINT('',#140);
#140 = CARTESIAN_POINT('',(37.607359312881,15.9,206.74264068711));
#141 = CIRCLE('',#142,0.85);
#142 = AXIS2_PLACEMENT_3D('',#143,#144,#145);
#143 = CARTESIAN_POINT('',(36.757359312881,15.9,206.74264068711));
#144 = DIRECTION('',(0.,1.,0.));
#145 = DIRECTION('',(1.,-0.,1.2E-16));
#146 = FACE_BOUND('',#147,.F.);
#147 = EDGE_LOOP('',(#148));
#148 = ORIENTED_EDGE('',*,*,#149,.T.);
#149 = EDGE_CURVE('',#150,#150,#152,.T.);
#150 = VERTEX_POINT('',#151);
#151 = CARTESIAN_POINT('',(45.,15.9,202.5));
#152 = CIRCLE('',#153,4.);
#153 = AXIS2_PLACEMENT_3D('',#154,#155,#156);
#154 = CARTESIAN_POINT('',(41.,15.9,202.5));
#155 = DIRECTION('',(0.,1.,0.));
#156 = DIRECTION('',(1.,-0.,1.2E-16));
#157 = FACE_BOUND('',#158,.F.);
#158 = EDGE_LOOP('',(#159));
#159 = ORIENTED_EDGE('',*,*,#160,.T.);
#160 = EDGE_CURVE('',#161,#161,#163,.T.);
#161 = VERTEX_POINT('',#162);
#162 = CARTESIAN_POINT('',(46.092640687119,15.9,206.74264068711));
#163 = CIRCLE('',#164,0.85);
#164 = AXIS2_PLACEMENT_3D('',#165,#166,#167);
#165 = CARTESIAN_POINT('',(45.242640687119,15.9,206.74264068711));
#166 = DIRECTION('',(0.,1.,0.));
#167 = DIRECTION('',(1.,-0.,1.2E-16));
#168 = PLANE('',#169);
#169 = AXIS2_PLACEMENT_3D('',#170,#171,#172);
#170 = CARTESIAN_POINT('',(41.,15.9,202.5));
#171 = DIRECTION('',(0.,-1.,0.));
#172 = DIRECTION('',(1.,-0.,1.2E-16));
#173 = ADVANCED_FACE('',(#174),#239,.T.);
#174 = FACE_BOUND('',#175,.T.);
#175 = EDGE_LOOP('',(#176,#186,#194,#202,#210,#218,#224,#225,#233));
#176 = ORIENTED_EDGE('',*,*,#177,.F.);
#177 = EDGE_CURVE('',#178,#180,#182,.T.);
#178 = VERTEX_POINT('',#179);
#179 = CARTESIAN_POINT('',(53.,-12.,223.75));
#180 = VERTEX_POINT('',#181);
#181 = CARTESIAN_POINT('',(53.,9.728782930434,223.75));
#182 = LINE('',#183,#184);
#183 = CARTESIAN_POINT('',(53.,-12.,223.75));
#184 = VECTOR('',#185,1.);
#185 = DIRECTION('',(0.,1.,0.));
#186 = ORIENTED_EDGE('',*,*,#187,.F.);
#187 = EDGE_CURVE('',#188,#178,#190,.T.);
#188 = VERTEX_POINT('',#189);
#189 = CARTESIAN_POINT('',(53.,-12.,219.75));
#190 = LINE('',#191,#192);
#191 = CARTESIAN_POINT('',(53.,-12.,219.75));
#192 = VECTOR('',#193,1.);
#193 = DIRECTION('',(-1.2E-16,0.,1.));
#194 = ORIENTED_EDGE('',*,*,#195,.T.);
#195 = EDGE_CURVE('',#188,#196,#198,.T.);
#196 = VERTEX_POINT('',#197);
#197 = CARTESIAN_POINT('',(53.,4.060992907801,219.75));
#198 = LINE('',#199,#200);
#199 = CARTESIAN_POINT('',(53.,-12.,219.75));
#200 = VECTOR('',#201,1.);
#201 = DIRECTION('',(0.,1.,0.));
#202 = ORIENTED_EDGE('',*,*,#203,.T.);
#203 = EDGE_CURVE('',#196,#204,#206,.T.);
#204 = VERTEX_POINT('',#205);
#205 = CARTESIAN_POINT('',(53.,12.5,212.83197674418));
#206 = LINE('',#207,#208);
#207 = CARTESIAN_POINT('',(53.,4.,219.8));
#208 = VECTOR('',#209,1.);
#209 = DIRECTION('',(8.E-17,0.77335596598,-0.633972041879));
#210 = ORIENTED_EDGE('',*,*,#211,.F.);
#211 = EDGE_CURVE('',#212,#204,#214,.T.);
#212 = VERTEX_POINT('',#213);
#213 = CARTESIAN_POINT('',(53.,12.5,190.5));
#214 = LINE('',#215,#216);
#215 = CARTESIAN_POINT('',(53.,12.5,190.5));
#216 = VECTOR('',#217,1.);
#217 = DIRECTION('',(-1.2E-16,1.1E-16,1.));
#218 = ORIENTED_EDGE('',*,*,#219,.T.);
#219 = EDGE_CURVE('',#212,#55,#220,.T.);
#220 = LINE('',#221,#222);
#221 = CARTESIAN_POINT('',(53.,12.5,190.5));
#222 = VECTOR('',#223,1.);
#223 = DIRECTION('',(0.,1.,0.));
#224 = ORIENTED_EDGE('',*,*,#54,.T.);
#225 = ORIENTED_EDGE('',*,*,#226,.T.);
#226 = EDGE_CURVE('',#57,#227,#229,.T.);
#227 = VERTEX_POINT('',#228);
#228 = CARTESIAN_POINT('',(53.,9.440255207033,223.1312503004));
#229 = LINE('',#230,#231);
#230 = CARTESIAN_POINT('',(53.,10.791281516505,222.50125638593));
#231 = VECTOR('',#232,1.);
#232 = DIRECTION('',(-5.E-17,-0.906307787037,0.422618261741));
#233 = ORIENTED_EDGE('',*,*,#234,.T.);
#234 = EDGE_CURVE('',#227,#180,#235,.T.);
#235 = LINE('',#236,#237);
#236 = CARTESIAN_POINT('',(53.,7.268570641795,218.47405772109));
#237 = VECTOR('',#238,1.);
#238 = DIRECTION('',(-1.1E-16,0.422618261741,0.906307787037));
#239 = PLANE('',#240);
#240 = AXIS2_PLACEMENT_3D('',#241,#242,#243);
#241 = CARTESIAN_POINT('',(53.,7.798938695503,212.55687731282));
#242 = DIRECTION('',(1.,0.,1.2E-16));
#243 = DIRECTION('',(-1.2E-16,0.,1.));
#244 = ADVANCED_FACE('',(#245),#263,.T.);
#245 = FACE_BOUND('',#246,.T.);
#246 = EDGE_LOOP('',(#247,#255,#261,#262));
#247 = ORIENTED_EDGE('',*,*,#248,.F.);
#248 = EDGE_CURVE('',#249,#89,#251,.T.);
#249 = VERTEX_POINT('',#250);
#250 = CARTESIAN_POINT('',(30.899997711182,9.440255207033,223.1312503004
    ));
#251 = LINE('',#252,#253);
#252 = CARTESIAN_POINT('',(30.899997711182,9.440255207033,223.1312503004
    ));
#253 = VECTOR('',#254,1.);
#254 = DIRECTION('',(0.,0.906307787037,-0.422618261741));
#255 = ORIENTED_EDGE('',*,*,#256,.T.);
#256 = EDGE_CURVE('',#249,#227,#257,.T.);
#257 = LINE('',#258,#259);
#258 = CARTESIAN_POINT('',(30.899997711182,9.440255207033,223.1312503004
    ));
#259 = VECTOR('',#260,1.);
#260 = DIRECTION('',(1.,0.,0.));
#261 = ORIENTED_EDGE('',*,*,#226,.F.);
#262 = ORIENTED_EDGE('',*,*,#96,.F.);
#263 = PLANE('',#264);
#264 = AXIS2_PLACEMENT_3D('',#265,#266,#267);
#265 = CARTESIAN_POINT('',(30.899997711182,9.440255207033,223.1312503004
    ));
#266 = DIRECTION('',(0.,0.422618261741,0.906307787037));
#267 = DIRECTION('',(1.,0.,0.));
#268 = ADVANCED_FACE('',(#269),#287,.F.);
#269 = FACE_BOUND('',#270,.F.);
#270 = EDGE_LOOP('',(#271,#272,#280,#286));
#271 = ORIENTED_EDGE('',*,*,#248,.F.);
#272 = ORIENTED_EDGE('',*,*,#273,.T.);
#273 = EDGE_CURVE('',#249,#274,#276,.T.);
#274 = VERTEX_POINT('',#275);
#275 = CARTESIAN_POINT('',(30.899997711182,9.728782930434,223.75));
#276 = LINE('',#277,#278);
#277 = CARTESIAN_POINT('',(30.899997711182,9.440255207033,223.1312503004
    ));
#278 = VECTOR('',#279,1.);
#279 = DIRECTION('',(0.,0.422618261741,0.906307787037));
#280 = ORIENTED_EDGE('',*,*,#281,.F.);
#281 = EDGE_CURVE('',#81,#274,#282,.T.);
#282 = LINE('',#283,#284);
#283 = CARTESIAN_POINT('',(30.899997711182,13.680103856717,223.75));
#284 = VECTOR('',#285,1.);
#285 = DIRECTION('',(0.,-1.,0.));
#286 = ORIENTED_EDGE('',*,*,#88,.F.);
#287 = PLANE('',#288);
#288 = AXIS2_PLACEMENT_3D('',#289,#290,#291);
#289 = CARTESIAN_POINT('',(30.899997711182,25.110207713433,
    238.97779831165));
#290 = DIRECTION('',(-1.,-0.,-0.));
#291 = DIRECTION('',(0.,0.,-1.));
#292 = ADVANCED_FACE('',(#293,#318),#329,.T.);
#293 = FACE_BOUND('',#294,.T.);
#294 = EDGE_LOOP('',(#295,#303,#309,#310,#316,#317));
#295 = ORIENTED_EDGE('',*,*,#296,.F.);
#296 = EDGE_CURVE('',#297,#73,#299,.T.);
#297 = VERTEX_POINT('',#298);
#298 = CARTESIAN_POINT('',(29.,-12.,223.75));
#299 = LINE('',#300,#301);
#300 = CARTESIAN_POINT('',(29.,12.5,223.75));
#301 = VECTOR('',#302,1.);
#302 = DIRECTION('',(0.,1.,-5.6E-16));
#303 = ORIENTED_EDGE('',*,*,#304,.T.);
#304 = EDGE_CURVE('',#297,#178,#305,.T.);
#305 = LINE('',#306,#307);
#306 = CARTESIAN_POINT('',(29.,-12.,223.75));
#307 = VECTOR('',#308,1.);
#308 = DIRECTION('',(1.,0.,1.2E-16));
#309 = ORIENTED_EDGE('',*,*,#177,.T.);
#310 = ORIENTED_EDGE('',*,*,#311,.T.);
#311 = EDGE_CURVE('',#180,#274,#312,.T.);
#312 = LINE('',#313,#314);
#313 = CARTESIAN_POINT('',(35.949998855591,9.728782930434,223.75));
#314 = VECTOR('',#315,1.);
#315 = DIRECTION('',(-1.,0.,0.));
#316 = ORIENTED_EDGE('',*,*,#281,.F.);
#317 = ORIENTED_EDGE('',*,*,#80,.F.);
#318 = FACE_BOUND('',#319,.T.);
#319 = EDGE_LOOP('',(#320));
#320 = ORIENTED_EDGE('',*,*,#321,.T.);
#321 = EDGE_CURVE('',#322,#322,#324,.T.);
#322 = VERTEX_POINT('',#323);
#323 = CARTESIAN_POINT('',(32.8,-1.7763568394E-15,223.75));
#324 = CIRCLE('',#325,8.2);
#325 = AXIS2_PLACEMENT_3D('',#326,#327,#328);
#326 = CARTESIAN_POINT('',(41.,8.881784197001E-16,223.75));
#327 = DIRECTION('',(1.2E-16,0.,-1.));
#328 = DIRECTION('',(-1.,0.,-1.2E-16));
#329 = PLANE('',#330);
#330 = AXIS2_PLACEMENT_3D('',#331,#332,#333);
#331 = CARTESIAN_POINT('',(41.,2.25,223.75));
#332 = DIRECTION('',(-1.2E-16,0.,1.));
#333 = DIRECTION('',(1.,0.,1.2E-16));
#334 = ADVANCED_FACE('',(#335),#377,.T.);
#335 = FACE_BOUND('',#336,.T.);
#336 = EDGE_LOOP('',(#337,#347,#353,#354,#355,#363,#371));
#337 = ORIENTED_EDGE('',*,*,#338,.F.);
#338 = EDGE_CURVE('',#339,#341,#343,.T.);
#339 = VERTEX_POINT('',#340);
#340 = CARTESIAN_POINT('',(29.,-12.,219.75));
#341 = VERTEX_POINT('',#342);
#342 = CARTESIAN_POINT('',(29.,4.060992907801,219.75));
#343 = LINE('',#344,#345);
#344 = CARTESIAN_POINT('',(29.,-12.,219.75));
#345 = VECTOR('',#346,1.);
#346 = DIRECTION('',(0.,1.,0.));
#347 = ORIENTED_EDGE('',*,*,#348,.T.);
#348 = EDGE_CURVE('',#339,#297,#349,.T.);
#349 = LINE('',#350,#351);
#350 = CARTESIAN_POINT('',(29.,-12.,219.75));
#351 = VECTOR('',#352,1.);
#352 = DIRECTION('',(-1.2E-16,0.,1.));
#353 = ORIENTED_EDGE('',*,*,#296,.T.);
#354 = ORIENTED_EDGE('',*,*,#72,.F.);
#355 = ORIENTED_EDGE('',*,*,#356,.F.);
#356 = EDGE_CURVE('',#357,#65,#359,.T.);
#357 = VERTEX_POINT('',#358);
#358 = CARTESIAN_POINT('',(29.,12.5,190.5));
#359 = LINE('',#360,#361);
#360 = CARTESIAN_POINT('',(29.,12.5,190.5));
#361 = VECTOR('',#362,1.);
#362 = DIRECTION('',(0.,1.,0.));
#363 = ORIENTED_EDGE('',*,*,#364,.T.);
#364 = EDGE_CURVE('',#357,#365,#367,.T.);
#365 = VERTEX_POINT('',#366);
#366 = CARTESIAN_POINT('',(29.,12.5,212.83197674418));
#367 = LINE('',#368,#369);
#368 = CARTESIAN_POINT('',(29.,12.5,190.5));
#369 = VECTOR('',#370,1.);
#370 = DIRECTION('',(-1.2E-16,1.1E-16,1.));
#371 = ORIENTED_EDGE('',*,*,#372,.F.);
#372 = EDGE_CURVE('',#341,#365,#373,.T.);
#373 = LINE('',#374,#375);
#374 = CARTESIAN_POINT('',(29.,4.,219.8));
#375 = VECTOR('',#376,1.);
#376 = DIRECTION('',(8.E-17,0.77335596598,-0.633972041879));
#377 = PLANE('',#378);
#378 = AXIS2_PLACEMENT_3D('',#379,#380,#381);
#379 = CARTESIAN_POINT('',(29.,7.798938695503,212.55687731282));
#380 = DIRECTION('',(-1.,0.,-1.2E-16));
#381 = DIRECTION('',(1.2E-16,0.,-1.));
#382 = ADVANCED_FACE('',(#383),#394,.F.);
#383 = FACE_BOUND('',#384,.T.);
#384 = EDGE_LOOP('',(#385,#386,#387,#393));
#385 = ORIENTED_EDGE('',*,*,#64,.T.);
#386 = ORIENTED_EDGE('',*,*,#219,.F.);
#387 = ORIENTED_EDGE('',*,*,#388,.F.);
#388 = EDGE_CURVE('',#357,#212,#389,.T.);
#389 = LINE('',#390,#391);
#390 = CARTESIAN_POINT('',(29.,12.5,190.5));
#391 = VECTOR('',#392,1.);
#392 = DIRECTION('',(1.,0.,1.2E-16));
#393 = ORIENTED_EDGE('',*,*,#356,.T.);
#394 = PLANE('',#395);
#395 = AXIS2_PLACEMENT_3D('',#396,#397,#398);
#396 = CARTESIAN_POINT('',(29.,12.5,190.5));
#397 = DIRECTION('',(-1.2E-16,0.,1.));
#398 = DIRECTION('',(1.,0.,1.2E-16));
#399 = ADVANCED_FACE('',(#400),#419,.F.);
#400 = FACE_BOUND('',#401,.T.);
#401 = EDGE_LOOP('',(#402,#403,#411,#418));
#402 = ORIENTED_EDGE('',*,*,#116,.T.);
#403 = ORIENTED_EDGE('',*,*,#404,.T.);
#404 = EDGE_CURVE('',#117,#405,#407,.T.);
#405 = VERTEX_POINT('',#406);
#406 = CARTESIAN_POINT('',(37.607359312881,12.5,198.25735931288));
#407 = LINE('',#408,#409);
#408 = CARTESIAN_POINT('',(37.607359312881,16.5,198.25735931288));
#409 = VECTOR('',#410,1.);
#410 = DIRECTION('',(0.,-1.,0.));
#411 = ORIENTED_EDGE('',*,*,#412,.T.);
#412 = EDGE_CURVE('',#405,#405,#413,.T.);
#413 = CIRCLE('',#414,0.85);
#414 = AXIS2_PLACEMENT_3D('',#415,#416,#417);
#415 = CARTESIAN_POINT('',(36.757359312881,12.5,198.25735931288));
#416 = DIRECTION('',(-0.,-1.,0.));
#417 = DIRECTION('',(1.,-0.,1.2E-16));
#418 = ORIENTED_EDGE('',*,*,#404,.F.);
#419 = CYLINDRICAL_SURFACE('',#420,0.85);
#420 = AXIS2_PLACEMENT_3D('',#421,#422,#423);
#421 = CARTESIAN_POINT('',(36.757359312881,16.5,198.25735931288));
#422 = DIRECTION('',(0.,1.,0.));
#423 = DIRECTION('',(1.,0.,1.2E-16));
#424 = ADVANCED_FACE('',(#425),#444,.F.);
#425 = FACE_BOUND('',#426,.T.);
#426 = EDGE_LOOP('',(#427,#428,#436,#443));
#427 = ORIENTED_EDGE('',*,*,#127,.T.);
#428 = ORIENTED_EDGE('',*,*,#429,.T.);
#429 = EDGE_CURVE('',#128,#430,#432,.T.);
#430 = VERTEX_POINT('',#431);
#431 = CARTESIAN_POINT('',(46.092640687119,12.5,198.25735931288));
#432 = LINE('',#433,#434);
#433 = CARTESIAN_POINT('',(46.092640687119,16.5,198.25735931288));
#434 = VECTOR('',#435,1.);
#435 = DIRECTION('',(0.,-1.,0.));
#436 = ORIENTED_EDGE('',*,*,#437,.T.);
#437 = EDGE_CURVE('',#430,#430,#438,.T.);
#438 = CIRCLE('',#439,0.85);
#439 = AXIS2_PLACEMENT_3D('',#440,#441,#442);
#440 = CARTESIAN_POINT('',(45.242640687119,12.5,198.25735931288));
#441 = DIRECTION('',(-0.,-1.,0.));
#442 = DIRECTION('',(1.,-0.,1.2E-16));
#443 = ORIENTED_EDGE('',*,*,#429,.F.);
#444 = CYLINDRICAL_SURFACE('',#445,0.85);
#445 = AXIS2_PLACEMENT_3D('',#446,#447,#448);
#446 = CARTESIAN_POINT('',(45.242640687119,16.5,198.25735931288));
#447 = DIRECTION('',(0.,1.,0.));
#448 = DIRECTION('',(1.,0.,1.2E-16));
#449 = ADVANCED_FACE('',(#450),#469,.F.);
#450 = FACE_BOUND('',#451,.T.);
#451 = EDGE_LOOP('',(#452,#453,#461,#468));
#452 = ORIENTED_EDGE('',*,*,#138,.T.);
#453 = ORIENTED_EDGE('',*,*,#454,.T.);
#454 = EDGE_CURVE('',#139,#455,#457,.T.);
#455 = VERTEX_POINT('',#456);
#456 = CARTESIAN_POINT('',(37.607359312881,12.5,206.74264068711));
#457 = LINE('',#458,#459);
#458 = CARTESIAN_POINT('',(37.607359312881,16.5,206.74264068711));
#459 = VECTOR('',#460,1.);
#460 = DIRECTION('',(0.,-1.,0.));
#461 = ORIENTED_EDGE('',*,*,#462,.T.);
#462 = EDGE_CURVE('',#455,#455,#463,.T.);
#463 = CIRCLE('',#464,0.85);
#464 = AXIS2_PLACEMENT_3D('',#465,#466,#467);
#465 = CARTESIAN_POINT('',(36.757359312881,12.5,206.74264068711));
#466 = DIRECTION('',(-0.,-1.,0.));
#467 = DIRECTION('',(1.,-0.,1.2E-16));
#468 = ORIENTED_EDGE('',*,*,#454,.F.);
#469 = CYLINDRICAL_SURFACE('',#470,0.85);
#470 = AXIS2_PLACEMENT_3D('',#471,#472,#473);
#471 = CARTESIAN_POINT('',(36.757359312881,16.5,206.74264068711));
#472 = DIRECTION('',(0.,1.,0.));
#473 = DIRECTION('',(1.,0.,1.2E-16));
#474 = ADVANCED_FACE('',(#475),#494,.F.);
#475 = FACE_BOUND('',#476,.T.);
#476 = EDGE_LOOP('',(#477,#478,#486,#493));
#477 = ORIENTED_EDGE('',*,*,#149,.T.);
#478 = ORIENTED_EDGE('',*,*,#479,.T.);
#479 = EDGE_CURVE('',#150,#480,#482,.T.);
#480 = VERTEX_POINT('',#481);
#481 = CARTESIAN_POINT('',(45.,12.5,202.5));
#482 = LINE('',#483,#484);
#483 = CARTESIAN_POINT('',(45.,16.5,202.5));
#484 = VECTOR('',#485,1.);
#485 = DIRECTION('',(0.,-1.,0.));
#486 = ORIENTED_EDGE('',*,*,#487,.T.);
#487 = EDGE_CURVE('',#480,#480,#488,.T.);
#488 = CIRCLE('',#489,4.);
#489 = AXIS2_PLACEMENT_3D('',#490,#491,#492);
#490 = CARTESIAN_POINT('',(41.,12.5,202.5));
#491 = DIRECTION('',(-0.,-1.,0.));
#492 = DIRECTION('',(1.,-0.,1.2E-16));
#493 = ORIENTED_EDGE('',*,*,#479,.F.);
#494 = CYLINDRICAL_SURFACE('',#495,4.);
#495 = AXIS2_PLACEMENT_3D('',#496,#497,#498);
#496 = CARTESIAN_POINT('',(41.,16.5,202.5));
#497 = DIRECTION('',(0.,1.,0.));
#498 = DIRECTION('',(1.,0.,1.2E-16));
#499 = ADVANCED_FACE('',(#500),#519,.F.);
#500 = FACE_BOUND('',#501,.T.);
#501 = EDGE_LOOP('',(#502,#503,#511,#518));
#502 = ORIENTED_EDGE('',*,*,#160,.T.);
#503 = ORIENTED_EDGE('',*,*,#504,.T.);
#504 = EDGE_CURVE('',#161,#505,#507,.T.);
#505 = VERTEX_POINT('',#506);
#506 = CARTESIAN_POINT('',(46.092640687119,12.5,206.74264068711));
#507 = LINE('',#508,#509);
#508 = CARTESIAN_POINT('',(46.092640687119,16.5,206.74264068711));
#509 = VECTOR('',#510,1.);
#510 = DIRECTION('',(0.,-1.,0.));
#511 = ORIENTED_EDGE('',*,*,#512,.T.);
#512 = EDGE_CURVE('',#505,#505,#513,.T.);
#513 = CIRCLE('',#514,0.85);
#514 = AXIS2_PLACEMENT_3D('',#515,#516,#517);
#515 = CARTESIAN_POINT('',(45.242640687119,12.5,206.74264068711));
#516 = DIRECTION('',(-0.,-1.,0.));
#517 = DIRECTION('',(1.,-0.,1.2E-16));
#518 = ORIENTED_EDGE('',*,*,#504,.F.);
#519 = CYLINDRICAL_SURFACE('',#520,0.85);
#520 = AXIS2_PLACEMENT_3D('',#521,#522,#523);
#521 = CARTESIAN_POINT('',(45.242640687119,16.5,206.74264068711));
#522 = DIRECTION('',(0.,1.,0.));
#523 = DIRECTION('',(1.,0.,1.2E-16));
#524 = ADVANCED_FACE('',(#525),#531,.T.);
#525 = FACE_BOUND('',#526,.T.);
#526 = EDGE_LOOP('',(#527,#528,#529,#530));
#527 = ORIENTED_EDGE('',*,*,#234,.F.);
#528 = ORIENTED_EDGE('',*,*,#256,.F.);
#529 = ORIENTED_EDGE('',*,*,#273,.T.);
#530 = ORIENTED_EDGE('',*,*,#311,.F.);
#531 = PLANE('',#532);
#532 = AXIS2_PLACEMENT_3D('',#533,#534,#535);
#533 = CARTESIAN_POINT('',(30.899997711182,9.440255207033,223.1312503004
    ));
#534 = DIRECTION('',(0.,0.906307787037,-0.422618261741));
#535 = DIRECTION('',(0.,0.422618261741,0.906307787037));
#536 = ADVANCED_FACE('',(#537,#580,#583,#586,#589,#592),#595,.F.);
#537 = FACE_BOUND('',#538,.F.);
#538 = EDGE_LOOP('',(#539,#540,#541,#549,#557,#565,#573,#579));
#539 = ORIENTED_EDGE('',*,*,#388,.F.);
#540 = ORIENTED_EDGE('',*,*,#364,.T.);
#541 = ORIENTED_EDGE('',*,*,#542,.T.);
#542 = EDGE_CURVE('',#365,#543,#545,.T.);
#543 = VERTEX_POINT('',#544);
#544 = CARTESIAN_POINT('',(32.,12.5,212.83197674418));
#545 = LINE('',#546,#547);
#546 = CARTESIAN_POINT('',(29.,12.5,212.83197674418));
#547 = VECTOR('',#548,1.);
#548 = DIRECTION('',(1.,0.,2.2E-16));
#549 = ORIENTED_EDGE('',*,*,#550,.F.);
#550 = EDGE_CURVE('',#551,#543,#553,.T.);
#551 = VERTEX_POINT('',#552);
#552 = CARTESIAN_POINT('',(32.,12.5,219.75));
#553 = LINE('',#554,#555);
#554 = CARTESIAN_POINT('',(32.,12.5,203.95370447466));
#555 = VECTOR('',#556,1.);
#556 = DIRECTION('',(5.E-16,0.,-1.));
#557 = ORIENTED_EDGE('',*,*,#558,.T.);
#558 = EDGE_CURVE('',#551,#559,#561,.T.);
#559 = VERTEX_POINT('',#560);
#560 = CARTESIAN_POINT('',(50.,12.5,219.75));
#561 = LINE('',#562,#563);
#562 = CARTESIAN_POINT('',(29.,12.5,219.75));
#563 = VECTOR('',#564,1.);
#564 = DIRECTION('',(1.,0.,1.2E-16));
#565 = ORIENTED_EDGE('',*,*,#566,.T.);
#566 = EDGE_CURVE('',#559,#567,#569,.T.);
#567 = VERTEX_POINT('',#568);
#568 = CARTESIAN_POINT('',(50.,12.5,212.83197674418));
#569 = LINE('',#570,#571);
#570 = CARTESIAN_POINT('',(50.,12.5,203.95370447466));
#571 = VECTOR('',#572,1.);
#572 = DIRECTION('',(0.,0.,-1.));
#573 = ORIENTED_EDGE('',*,*,#574,.T.);
#574 = EDGE_CURVE('',#567,#204,#575,.T.);
#575 = LINE('',#576,#577);
#576 = CARTESIAN_POINT('',(39.5,12.5,212.83197674418));
#577 = VECTOR('',#578,1.);
#578 = DIRECTION('',(1.,0.,2.2E-16));
#579 = ORIENTED_EDGE('',*,*,#211,.F.);
#580 = FACE_BOUND('',#581,.F.);
#581 = EDGE_LOOP('',(#582));
#582 = ORIENTED_EDGE('',*,*,#412,.T.);
#583 = FACE_BOUND('',#584,.F.);
#584 = EDGE_LOOP('',(#585));
#585 = ORIENTED_EDGE('',*,*,#462,.T.);
#586 = FACE_BOUND('',#587,.F.);
#587 = EDGE_LOOP('',(#588));
#588 = ORIENTED_EDGE('',*,*,#487,.T.);
#589 = FACE_BOUND('',#590,.F.);
#590 = EDGE_LOOP('',(#591));
#591 = ORIENTED_EDGE('',*,*,#437,.T.);
#592 = FACE_BOUND('',#593,.F.);
#593 = EDGE_LOOP('',(#594));
#594 = ORIENTED_EDGE('',*,*,#512,.T.);
#595 = PLANE('',#596);
#596 = AXIS2_PLACEMENT_3D('',#597,#598,#599);
#597 = CARTESIAN_POINT('',(29.,12.5,190.5));
#598 = DIRECTION('',(0.,1.,0.));
#599 = DIRECTION('',(-1.2E-16,0.,1.));
#600 = ADVANCED_FACE('',(#601),#619,.F.);
#601 = FACE_BOUND('',#602,.F.);
#602 = EDGE_LOOP('',(#603,#611,#617,#618));
#603 = ORIENTED_EDGE('',*,*,#604,.F.);
#604 = EDGE_CURVE('',#605,#567,#607,.T.);
#605 = VERTEX_POINT('',#606);
#606 = CARTESIAN_POINT('',(50.,4.060992907801,219.75));
#607 = LINE('',#608,#609);
#608 = CARTESIAN_POINT('',(50.,4.,219.8));
#609 = VECTOR('',#610,1.);
#610 = DIRECTION('',(8.E-17,0.77335596598,-0.633972041879));
#611 = ORIENTED_EDGE('',*,*,#612,.F.);
#612 = EDGE_CURVE('',#196,#605,#613,.T.);
#613 = LINE('',#614,#615);
#614 = CARTESIAN_POINT('',(39.5,4.060992907801,219.75));
#615 = VECTOR('',#616,1.);
#616 = DIRECTION('',(-1.,-2.7E-16,0.));
#617 = ORIENTED_EDGE('',*,*,#203,.T.);
#618 = ORIENTED_EDGE('',*,*,#574,.F.);
#619 = PLANE('',#620);
#620 = AXIS2_PLACEMENT_3D('',#621,#622,#623);
#621 = CARTESIAN_POINT('',(50.,4.,219.8));
#622 = DIRECTION('',(-1.7E-16,0.633972041879,0.77335596598));
#623 = DIRECTION('',(1.4E-16,0.77335596598,-0.633972041879));
#624 = ADVANCED_FACE('',(#625,#657,#668,#679,#690,#701),#712,.F.);
#625 = FACE_BOUND('',#626,.F.);
#626 = EDGE_LOOP('',(#627,#628,#634,#635,#636,#642,#643,#651));
#627 = ORIENTED_EDGE('',*,*,#338,.F.);
#628 = ORIENTED_EDGE('',*,*,#629,.T.);
#629 = EDGE_CURVE('',#339,#188,#630,.T.);
#630 = LINE('',#631,#632);
#631 = CARTESIAN_POINT('',(29.,-12.,219.75));
#632 = VECTOR('',#633,1.);
#633 = DIRECTION('',(1.,0.,1.2E-16));
#634 = ORIENTED_EDGE('',*,*,#195,.T.);
#635 = ORIENTED_EDGE('',*,*,#612,.T.);
#636 = ORIENTED_EDGE('',*,*,#637,.T.);
#637 = EDGE_CURVE('',#605,#559,#638,.T.);
#638 = LINE('',#639,#640);
#639 = CARTESIAN_POINT('',(50.,-1.283795525334,219.75));
#640 = VECTOR('',#641,1.);
#641 = DIRECTION('',(0.,1.,0.));
#642 = ORIENTED_EDGE('',*,*,#558,.F.);
#643 = ORIENTED_EDGE('',*,*,#644,.F.);
#644 = EDGE_CURVE('',#645,#551,#647,.T.);
#645 = VERTEX_POINT('',#646);
#646 = CARTESIAN_POINT('',(32.,4.060992907801,219.75));
#647 = LINE('',#648,#649);
#648 = CARTESIAN_POINT('',(32.,-1.283795525334,219.75));
#649 = VECTOR('',#650,1.);
#650 = DIRECTION('',(0.,1.,0.));
#651 = ORIENTED_EDGE('',*,*,#652,.T.);
#652 = EDGE_CURVE('',#645,#341,#653,.T.);
#653 = LINE('',#654,#655);
#654 = CARTESIAN_POINT('',(29.,4.060992907801,219.75));
#655 = VECTOR('',#656,1.);
#656 = DIRECTION('',(-1.,-2.7E-16,0.));
#657 = FACE_BOUND('',#658,.F.);
#658 = EDGE_LOOP('',(#659));
#659 = ORIENTED_EDGE('',*,*,#660,.T.);
#660 = EDGE_CURVE('',#661,#661,#663,.T.);
#661 = VERTEX_POINT('',#662);
#662 = CARTESIAN_POINT('',(35.907359312881,-4.242640687119,219.75));
#663 = CIRCLE('',#664,0.85);
#664 = AXIS2_PLACEMENT_3D('',#665,#666,#667);
#665 = CARTESIAN_POINT('',(36.757359312881,-4.242640687119,219.75));
#666 = DIRECTION('',(1.2E-16,0.,-1.));
#667 = DIRECTION('',(-1.,0.,-1.2E-16));
#668 = FACE_BOUND('',#669,.F.);
#669 = EDGE_LOOP('',(#670));
#670 = ORIENTED_EDGE('',*,*,#671,.T.);
#671 = EDGE_CURVE('',#672,#672,#674,.T.);
#672 = VERTEX_POINT('',#673);
#673 = CARTESIAN_POINT('',(44.392640687119,-4.242640687119,219.75));
#674 = CIRCLE('',#675,0.85);
#675 = AXIS2_PLACEMENT_3D('',#676,#677,#678);
#676 = CARTESIAN_POINT('',(45.242640687119,-4.242640687119,219.75));
#677 = DIRECTION('',(1.2E-16,0.,-1.));
#678 = DIRECTION('',(-1.,0.,-1.2E-16));
#679 = FACE_BOUND('',#680,.F.);
#680 = EDGE_LOOP('',(#681));
#681 = ORIENTED_EDGE('',*,*,#682,.T.);
#682 = EDGE_CURVE('',#683,#683,#685,.T.);
#683 = VERTEX_POINT('',#684);
#684 = CARTESIAN_POINT('',(37.,-1.7763568394E-15,219.75));
#685 = CIRCLE('',#686,4.);
#686 = AXIS2_PLACEMENT_3D('',#687,#688,#689);
#687 = CARTESIAN_POINT('',(41.,8.881784197001E-16,219.75));
#688 = DIRECTION('',(1.2E-16,0.,-1.));
#689 = DIRECTION('',(-1.,0.,-1.2E-16));
#690 = FACE_BOUND('',#691,.F.);
#691 = EDGE_LOOP('',(#692));
#692 = ORIENTED_EDGE('',*,*,#693,.T.);
#693 = EDGE_CURVE('',#694,#694,#696,.T.);
#694 = VERTEX_POINT('',#695);
#695 = CARTESIAN_POINT('',(35.907359312881,4.242640687119,219.75));
#696 = CIRCLE('',#697,0.85);
#697 = AXIS2_PLACEMENT_3D('',#698,#699,#700);
#698 = CARTESIAN_POINT('',(36.757359312881,4.242640687119,219.75));
#699 = DIRECTION('',(1.2E-16,0.,-1.));
#700 = DIRECTION('',(-1.,0.,-1.2E-16));
#701 = FACE_BOUND('',#702,.F.);
#702 = EDGE_LOOP('',(#703));
#703 = ORIENTED_EDGE('',*,*,#704,.T.);
#704 = EDGE_CURVE('',#705,#705,#707,.T.);
#705 = VERTEX_POINT('',#706);
#706 = CARTESIAN_POINT('',(44.392640687119,4.242640687119,219.75));
#707 = CIRCLE('',#708,0.85);
#708 = AXIS2_PLACEMENT_3D('',#709,#710,#711);
#709 = CARTESIAN_POINT('',(45.242640687119,4.242640687119,219.75));
#710 = DIRECTION('',(1.2E-16,0.,-1.));
#711 = DIRECTION('',(-1.,0.,-1.2E-16));
#712 = PLANE('',#713);
#713 = AXIS2_PLACEMENT_3D('',#714,#715,#716);
#714 = CARTESIAN_POINT('',(29.,-12.,219.75));
#715 = DIRECTION('',(-1.2E-16,0.,1.));
#716 = DIRECTION('',(1.,0.,1.2E-16));
#717 = ADVANCED_FACE('',(#718),#724,.F.);
#718 = FACE_BOUND('',#719,.T.);
#719 = EDGE_LOOP('',(#720,#721,#722,#723));
#720 = ORIENTED_EDGE('',*,*,#629,.T.);
#721 = ORIENTED_EDGE('',*,*,#187,.T.);
#722 = ORIENTED_EDGE('',*,*,#304,.F.);
#723 = ORIENTED_EDGE('',*,*,#348,.F.);
#724 = PLANE('',#725);
#725 = AXIS2_PLACEMENT_3D('',#726,#727,#728);
#726 = CARTESIAN_POINT('',(29.,-12.,219.75));
#727 = DIRECTION('',(0.,1.,0.));
#728 = DIRECTION('',(-1.2E-16,0.,1.));
#729 = ADVANCED_FACE('',(#730),#749,.F.);
#730 = FACE_BOUND('',#731,.T.);
#731 = EDGE_LOOP('',(#732,#740,#747,#748));
#732 = ORIENTED_EDGE('',*,*,#733,.T.);
#733 = EDGE_CURVE('',#322,#734,#736,.T.);
#734 = VERTEX_POINT('',#735);
#735 = CARTESIAN_POINT('',(32.8,-1.7763568394E-15,223.15));
#736 = LINE('',#737,#738);
#737 = CARTESIAN_POINT('',(32.8,-8.881784197001E-16,223.75));
#738 = VECTOR('',#739,1.);
#739 = DIRECTION('',(1.2E-16,0.,-1.));
#740 = ORIENTED_EDGE('',*,*,#741,.T.);
#741 = EDGE_CURVE('',#734,#734,#742,.T.);
#742 = CIRCLE('',#743,8.2);
#743 = AXIS2_PLACEMENT_3D('',#744,#745,#746);
#744 = CARTESIAN_POINT('',(41.,8.881784197001E-16,223.15));
#745 = DIRECTION('',(1.2E-16,0.,-1.));
#746 = DIRECTION('',(-1.,0.,-1.2E-16));
#747 = ORIENTED_EDGE('',*,*,#733,.F.);
#748 = ORIENTED_EDGE('',*,*,#321,.F.);
#749 = CYLINDRICAL_SURFACE('',#750,8.2);
#750 = AXIS2_PLACEMENT_3D('',#751,#752,#753);
#751 = CARTESIAN_POINT('',(41.,8.881784197001E-16,223.75));
#752 = DIRECTION('',(-1.2E-16,0.,1.));
#753 = DIRECTION('',(-1.,0.,-1.2E-16));
#754 = ADVANCED_FACE('',(#755),#766,.F.);
#755 = FACE_BOUND('',#756,.F.);
#756 = EDGE_LOOP('',(#757,#758,#759,#765));
#757 = ORIENTED_EDGE('',*,*,#372,.F.);
#758 = ORIENTED_EDGE('',*,*,#652,.F.);
#759 = ORIENTED_EDGE('',*,*,#760,.T.);
#760 = EDGE_CURVE('',#645,#543,#761,.T.);
#761 = LINE('',#762,#763);
#762 = CARTESIAN_POINT('',(32.,4.,219.8));
#763 = VECTOR('',#764,1.);
#764 = DIRECTION('',(8.E-17,0.77335596598,-0.633972041879));
#765 = ORIENTED_EDGE('',*,*,#542,.F.);
#766 = PLANE('',#767);
#767 = AXIS2_PLACEMENT_3D('',#768,#769,#770);
#768 = CARTESIAN_POINT('',(29.,4.,219.8));
#769 = DIRECTION('',(-1.7E-16,0.633972041879,0.77335596598));
#770 = DIRECTION('',(1.4E-16,0.77335596598,-0.633972041879));
#771 = ADVANCED_FACE('',(#772),#777,.F.);
#772 = FACE_BOUND('',#773,.F.);
#773 = EDGE_LOOP('',(#774,#775,#776));
#774 = ORIENTED_EDGE('',*,*,#637,.F.);
#775 = ORIENTED_EDGE('',*,*,#604,.T.);
#776 = ORIENTED_EDGE('',*,*,#566,.F.);
#777 = PLANE('',#778);
#778 = AXIS2_PLACEMENT_3D('',#779,#780,#781);
#779 = CARTESIAN_POINT('',(50.,9.432408949333,217.40740894933));
#780 = DIRECTION('',(1.,0.,1.2E-16));
#781 = DIRECTION('',(-1.2E-16,0.,1.));
#782 = ADVANCED_FACE('',(#783),#788,.T.);
#783 = FACE_BOUND('',#784,.T.);
#784 = EDGE_LOOP('',(#785,#786,#787));
#785 = ORIENTED_EDGE('',*,*,#644,.F.);
#786 = ORIENTED_EDGE('',*,*,#760,.T.);
#787 = ORIENTED_EDGE('',*,*,#550,.F.);
#788 = PLANE('',#789);
#789 = AXIS2_PLACEMENT_3D('',#790,#791,#792);
#790 = CARTESIAN_POINT('',(32.,9.432408949333,217.40740894933));
#791 = DIRECTION('',(1.,0.,6.3E-16));
#792 = DIRECTION('',(-6.3E-16,0.,1.));
#793 = ADVANCED_FACE('',(#794),#813,.F.);
#794 = FACE_BOUND('',#795,.T.);
#795 = EDGE_LOOP('',(#796,#805,#811,#812));
#796 = ORIENTED_EDGE('',*,*,#797,.T.);
#797 = EDGE_CURVE('',#798,#798,#800,.T.);
#798 = VERTEX_POINT('',#799);
#799 = CARTESIAN_POINT('',(35.907359312881,-4.242640687119,223.15));
#800 = CIRCLE('',#801,0.85);
#801 = AXIS2_PLACEMENT_3D('',#802,#803,#804);
#802 = CARTESIAN_POINT('',(36.757359312881,-4.242640687119,223.15));
#803 = DIRECTION('',(-1.2E-16,0.,1.));
#804 = DIRECTION('',(-1.,0.,-1.2E-16));
#805 = ORIENTED_EDGE('',*,*,#806,.T.);
#806 = EDGE_CURVE('',#798,#661,#807,.T.);
#807 = LINE('',#808,#809);
#808 = CARTESIAN_POINT('',(35.907359312881,-4.242640687119,223.75));
#809 = VECTOR('',#810,1.);
#810 = DIRECTION('',(1.2E-16,0.,-1.));
#811 = ORIENTED_EDGE('',*,*,#660,.T.);
#812 = ORIENTED_EDGE('',*,*,#806,.F.);
#813 = CYLINDRICAL_SURFACE('',#814,0.85);
#814 = AXIS2_PLACEMENT_3D('',#815,#816,#817);
#815 = CARTESIAN_POINT('',(36.757359312881,-4.242640687119,223.75));
#816 = DIRECTION('',(-1.2E-16,0.,1.));
#817 = DIRECTION('',(-1.,0.,-1.2E-16));
#818 = ADVANCED_FACE('',(#819),#838,.F.);
#819 = FACE_BOUND('',#820,.T.);
#820 = EDGE_LOOP('',(#821,#830,#836,#837));
#821 = ORIENTED_EDGE('',*,*,#822,.T.);
#822 = EDGE_CURVE('',#823,#823,#825,.T.);
#823 = VERTEX_POINT('',#824);
#824 = CARTESIAN_POINT('',(44.392640687119,-4.242640687119,223.15));
#825 = CIRCLE('',#826,0.85);
#826 = AXIS2_PLACEMENT_3D('',#827,#828,#829);
#827 = CARTESIAN_POINT('',(45.242640687119,-4.242640687119,223.15));
#828 = DIRECTION('',(-1.2E-16,0.,1.));
#829 = DIRECTION('',(-1.,0.,-1.2E-16));
#830 = ORIENTED_EDGE('',*,*,#831,.T.);
#831 = EDGE_CURVE('',#823,#672,#832,.T.);
#832 = LINE('',#833,#834);
#833 = CARTESIAN_POINT('',(44.392640687119,-4.242640687119,223.75));
#834 = VECTOR('',#835,1.);
#835 = DIRECTION('',(1.2E-16,0.,-1.));
#836 = ORIENTED_EDGE('',*,*,#671,.T.);
#837 = ORIENTED_EDGE('',*,*,#831,.F.);
#838 = CYLINDRICAL_SURFACE('',#839,0.85);
#839 = AXIS2_PLACEMENT_3D('',#840,#841,#842);
#840 = CARTESIAN_POINT('',(45.242640687119,-4.242640687119,223.75));
#841 = DIRECTION('',(-1.2E-16,0.,1.));
#842 = DIRECTION('',(-1.,0.,-1.2E-16));
#843 = ADVANCED_FACE('',(#844),#863,.F.);
#844 = FACE_BOUND('',#845,.T.);
#845 = EDGE_LOOP('',(#846,#855,#861,#862));
#846 = ORIENTED_EDGE('',*,*,#847,.T.);
#847 = EDGE_CURVE('',#848,#848,#850,.T.);
#848 = VERTEX_POINT('',#849);
#849 = CARTESIAN_POINT('',(37.,-1.7763568394E-15,223.15));
#850 = CIRCLE('',#851,4.);
#851 = AXIS2_PLACEMENT_3D('',#852,#853,#854);
#852 = CARTESIAN_POINT('',(41.,8.881784197001E-16,223.15));
#853 = DIRECTION('',(-1.2E-16,0.,1.));
#854 = DIRECTION('',(-1.,0.,-1.2E-16));
#855 = ORIENTED_EDGE('',*,*,#856,.T.);
#856 = EDGE_CURVE('',#848,#683,#857,.T.);
#857 = LINE('',#858,#859);
#858 = CARTESIAN_POINT('',(37.,0.,223.75));
#859 = VECTOR('',#860,1.);
#860 = DIRECTION('',(1.2E-16,0.,-1.));
#861 = ORIENTED_EDGE('',*,*,#682,.T.);
#862 = ORIENTED_EDGE('',*,*,#856,.F.);
#863 = CYLINDRICAL_SURFACE('',#864,4.);
#864 = AXIS2_PLACEMENT_3D('',#865,#866,#867);
#865 = CARTESIAN_POINT('',(41.,8.881784197001E-16,223.75));
#866 = DIRECTION('',(-1.2E-16,0.,1.));
#867 = DIRECTION('',(-1.,0.,-1.2E-16));
#868 = ADVANCED_FACE('',(#869),#888,.F.);
#869 = FACE_BOUND('',#870,.T.);
#870 = EDGE_LOOP('',(#871,#880,#886,#887));
#871 = ORIENTED_EDGE('',*,*,#872,.T.);
#872 = EDGE_CURVE('',#873,#873,#875,.T.);
#873 = VERTEX_POINT('',#874);
#874 = CARTESIAN_POINT('',(35.907359312881,4.242640687119,223.15));
#875 = CIRCLE('',#876,0.85);
#876 = AXIS2_PLACEMENT_3D('',#877,#878,#879);
#877 = CARTESIAN_POINT('',(36.757359312881,4.242640687119,223.15));
#878 = DIRECTION('',(-1.2E-16,0.,1.));
#879 = DIRECTION('',(-1.,0.,-1.2E-16));
#880 = ORIENTED_EDGE('',*,*,#881,.T.);
#881 = EDGE_CURVE('',#873,#694,#882,.T.);
#882 = LINE('',#883,#884);
#883 = CARTESIAN_POINT('',(35.907359312881,4.242640687119,223.75));
#884 = VECTOR('',#885,1.);
#885 = DIRECTION('',(1.2E-16,0.,-1.));
#886 = ORIENTED_EDGE('',*,*,#693,.T.);
#887 = ORIENTED_EDGE('',*,*,#881,.F.);
#888 = CYLINDRICAL_SURFACE('',#889,0.85);
#889 = AXIS2_PLACEMENT_3D('',#890,#891,#892);
#890 = CARTESIAN_POINT('',(36.757359312881,4.242640687119,223.75));
#891 = DIRECTION('',(-1.2E-16,0.,1.));
#892 = DIRECTION('',(-1.,0.,-1.2E-16));
#893 = ADVANCED_FACE('',(#894),#913,.F.);
#894 = FACE_BOUND('',#895,.T.);
#895 = EDGE_LOOP('',(#896,#905,#911,#912));
#896 = ORIENTED_EDGE('',*,*,#897,.T.);
#897 = EDGE_CURVE('',#898,#898,#900,.T.);
#898 = VERTEX_POINT('',#899);
#899 = CARTESIAN_POINT('',(44.392640687119,4.242640687119,223.15));
#900 = CIRCLE('',#901,0.85);
#901 = AXIS2_PLACEMENT_3D('',#902,#903,#904);
#902 = CARTESIAN_POINT('',(45.242640687119,4.242640687119,223.15));
#903 = DIRECTION('',(-1.2E-16,0.,1.));
#904 = DIRECTION('',(-1.,0.,-1.2E-16));
#905 = ORIENTED_EDGE('',*,*,#906,.T.);
#906 = EDGE_CURVE('',#898,#705,#907,.T.);
#907 = LINE('',#908,#909);
#908 = CARTESIAN_POINT('',(44.392640687119,4.242640687119,223.75));
#909 = VECTOR('',#910,1.);
#910 = DIRECTION('',(1.2E-16,0.,-1.));
#911 = ORIENTED_EDGE('',*,*,#704,.T.);
#912 = ORIENTED_EDGE('',*,*,#906,.F.);
#913 = CYLINDRICAL_SURFACE('',#914,0.85);
#914 = AXIS2_PLACEMENT_3D('',#915,#916,#917);
#915 = CARTESIAN_POINT('',(45.242640687119,4.242640687119,223.75));
#916 = DIRECTION('',(-1.2E-16,0.,1.));
#917 = DIRECTION('',(-1.,0.,-1.2E-16));
#918 = ADVANCED_FACE('',(#919,#922,#925,#928,#931,#934),#937,.F.);
#919 = FACE_BOUND('',#920,.F.);
#920 = EDGE_LOOP('',(#921));
#921 = ORIENTED_EDGE('',*,*,#741,.T.);
#922 = FACE_BOUND('',#923,.F.);
#923 = EDGE_LOOP('',(#924));
#924 = ORIENTED_EDGE('',*,*,#822,.T.);
#925 = FACE_BOUND('',#926,.F.);
#926 = EDGE_LOOP('',(#927));
#927 = ORIENTED_EDGE('',*,*,#797,.T.);
#928 = FACE_BOUND('',#929,.F.);
#929 = EDGE_LOOP('',(#930));
#930 = ORIENTED_EDGE('',*,*,#897,.T.);
#931 = FACE_BOUND('',#932,.F.);
#932 = EDGE_LOOP('',(#933));
#933 = ORIENTED_EDGE('',*,*,#847,.T.);
#934 = FACE_BOUND('',#935,.F.);
#935 = EDGE_LOOP('',(#936));
#936 = ORIENTED_EDGE('',*,*,#872,.T.);
#937 = PLANE('',#938);
#938 = AXIS2_PLACEMENT_3D('',#939,#940,#941);
#939 = CARTESIAN_POINT('',(41.,8.881784197001E-16,223.15));
#940 = DIRECTION('',(1.2E-16,0.,-1.));
#941 = DIRECTION('',(-1.,0.,-1.2E-16));
#942 = ( GEOMETRIC_REPRESENTATION_CONTEXT(3) 
GLOBAL_UNCERTAINTY_ASSIGNED_CONTEXT((#946)) GLOBAL_UNIT_ASSIGNED_CONTEXT
((#943,#944,#945)) REPRESENTATION_CONTEXT('Context #1',
  '3D Context with UNIT and UNCERTAINTY') );
#943 = ( LENGTH_UNIT() NAMED_UNIT(*) SI_UNIT(.MILLI.,.METRE.) );
#944 = ( NAMED_UNIT(*) PLANE_ANGLE_UNIT() SI_UNIT($,.RADIAN.) );
#945 = ( NAMED_UNIT(*) SI_UNIT($,.STERADIAN.) SOLID_ANGLE_UNIT() );
#946 = UNCERTAINTY_MEASURE_WITH_UNIT(LENGTH_MEASURE(2.E-05),#943,
  'distance_accuracy_value','confusion accuracy');
#947 = PRODUCT_RELATED_PRODUCT_CATEGORY('part',$,(#7));
ENDSEC;
END-ISO-10303-21;
