ISO-10303-21;
HEADER;
FILE_DESCRIPTION(('FreeCAD Model'),'2;1');
FILE_NAME('Open CASCADE Shape Model','2026-10-09T09:09:14',('FreeCAD'),(
    'FreeCAD'),'Open CASCADE STEP processor 7.8','FreeCAD','Unknown');
FILE_SCHEMA(('AUTOMOTIVE_DESIGN { 1 0 10303 214 1 1 1 1 }'));
ENDSEC;
DATA;
#1 = APPLICATION_PROTOCOL_DEFINITION('international standard',
  'automotive_design',2000,#2);
#2 = APPLICATION_CONTEXT(
  'core data for automotive mechanical design processes');
#3 = SHAPE_DEFINITION_REPRESENTATION(#4,#10);
#4 = PRODUCT_DEFINITION_SHAPE('','',#5);
#5 = PRODUCT_DEFINITION('design','',#6,#9);
#6 = PRODUCT_DEFINITION_FORMATION('','',#7);
#7 = PRODUCT('Open CASCADE STEP translator 7.8 26',
  'Open CASCADE STEP translator 7.8 26','',(#8));
#8 = PRODUCT_CONTEXT('',#2,'mechanical');
#9 = PRODUCT_DEFINITION_CONTEXT('part definition',#2,'design');
#10 = ADVANCED_BREP_SHAPE_REPRESENTATION('',(#11,#15),#645);
#11 = AXIS2_PLACEMENT_3D('',#12,#13,#14);
#12 = CARTESIAN_POINT('',(0.,0.,0.));
#13 = DIRECTION('',(0.,0.,1.));
#14 = DIRECTION('',(1.,0.,-0.));
#15 = MANIFOLD_SOLID_BREP('',#16);
#16 = CLOSED_SHELL('',(#17,#59,#110,#170,#195,#242,#278,#303,#328,#353,
    #424,#449,#482,#491,#503,#512,#536,#560,#577,#602,#627));
#17 = ADVANCED_FACE('',(#18),#54,.T.);
#18 = FACE_BOUND('',#19,.F.);
#19 = EDGE_LOOP('',(#20,#30,#39,#47));
#20 = ORIENTED_EDGE('',*,*,#21,.T.);
#21 = EDGE_CURVE('',#22,#24,#26,.T.);
#22 = VERTEX_POINT('',#23);
#23 = CARTESIAN_POINT('',(54.081377021526,-31.7,241.76568774525));
#24 = VERTEX_POINT('',#25);
#25 = CARTESIAN_POINT('',(54.081377021526,-37.1,241.76568774525));
#26 = LINE('',#27,#28);
#27 = CARTESIAN_POINT('',(54.081377021526,-37.1,241.76568774525));
#28 = VECTOR('',#29,1.);
#29 = DIRECTION('',(-0.,-1.,-2.2E-16));
#30 = ORIENTED_EDGE('',*,*,#31,.F.);
#31 = EDGE_CURVE('',#32,#24,#34,.T.);
#32 = VERTEX_POINT('',#33);
#33 = CARTESIAN_POINT('',(27.718618400837,-37.1,241.76568774525));
#34 = CIRCLE('',#35,13.5);
#35 = AXIS2_PLACEMENT_3D('',#36,#37,#38);
#36 = CARTESIAN_POINT('',(40.899997711182,-37.1,238.84999923706));
#37 = DIRECTION('',(-0.,1.,0.));
#38 = DIRECTION('',(1.,0.,0.));
#39 = ORIENTED_EDGE('',*,*,#40,.F.);
#40 = EDGE_CURVE('',#41,#32,#43,.T.);
#41 = VERTEX_POINT('',#42);
#42 = CARTESIAN_POINT('',(27.718618400837,-31.7,241.76568774525));
#43 = LINE('',#44,#45);
#44 = CARTESIAN_POINT('',(27.718618400837,-37.1,241.76568774525));
#45 = VECTOR('',#46,1.);
#46 = DIRECTION('',(-0.,-1.,-2.2E-16));
#47 = ORIENTED_EDGE('',*,*,#48,.T.);
#48 = EDGE_CURVE('',#41,#22,#49,.T.);
#49 = CIRCLE('',#50,13.5);
#50 = AXIS2_PLACEMENT_3D('',#51,#52,#53);
#51 = CARTESIAN_POINT('',(40.899997711182,-31.7,238.84999923706));
#52 = DIRECTION('',(-0.,1.,0.));
#53 = DIRECTION('',(1.,0.,0.));
#54 = CYLINDRICAL_SURFACE('',#55,13.5);
#55 = AXIS2_PLACEMENT_3D('',#56,#57,#58);
#56 = CARTESIAN_POINT('',(40.899997711182,-37.1,238.84999923706));
#57 = DIRECTION('',(-0.,-1.,0.));
#58 = DIRECTION('',(1.,0.,0.));
#59 = ADVANCED_FACE('',(#60),#105,.T.);
#60 = FACE_BOUND('',#61,.F.);
#61 = EDGE_LOOP('',(#62,#72,#81,#88,#89,#98));
#62 = ORIENTED_EDGE('',*,*,#63,.T.);
#63 = EDGE_CURVE('',#64,#66,#68,.T.);
#64 = VERTEX_POINT('',#65);
#65 = CARTESIAN_POINT('',(54.081377021526,-31.7,235.93431072886));
#66 = VERTEX_POINT('',#67);
#67 = CARTESIAN_POINT('',(54.081377021526,-37.1,235.93431072886));
#68 = LINE('',#69,#70);
#69 = CARTESIAN_POINT('',(54.081377021526,-37.1,235.93431072886));
#70 = VECTOR('',#71,1.);
#71 = DIRECTION('',(-0.,-1.,-2.2E-16));
#72 = ORIENTED_EDGE('',*,*,#73,.F.);
#73 = EDGE_CURVE('',#74,#66,#76,.T.);
#74 = VERTEX_POINT('',#75);
#75 = CARTESIAN_POINT('',(58.599997711182,-37.1,238.84999923706));
#76 = CIRCLE('',#77,3.2);
#77 = AXIS2_PLACEMENT_3D('',#78,#79,#80);
#78 = CARTESIAN_POINT('',(55.399997711182,-37.1,238.84999923706));
#79 = DIRECTION('',(-0.,1.,0.));
#80 = DIRECTION('',(1.,0.,0.));
#81 = ORIENTED_EDGE('',*,*,#82,.F.);
#82 = EDGE_CURVE('',#24,#74,#83,.T.);
#83 = CIRCLE('',#84,3.2);
#84 = AXIS2_PLACEMENT_3D('',#85,#86,#87);
#85 = CARTESIAN_POINT('',(55.399997711182,-37.1,238.84999923706));
#86 = DIRECTION('',(-0.,1.,0.));
#87 = DIRECTION('',(1.,0.,0.));
#88 = ORIENTED_EDGE('',*,*,#21,.F.);
#89 = ORIENTED_EDGE('',*,*,#90,.T.);
#90 = EDGE_CURVE('',#22,#91,#93,.T.);
#91 = VERTEX_POINT('',#92);
#92 = CARTESIAN_POINT('',(58.599997711182,-31.7,238.84999923706));
#93 = CIRCLE('',#94,3.2);
#94 = AXIS2_PLACEMENT_3D('',#95,#96,#97);
#95 = CARTESIAN_POINT('',(55.399997711182,-31.7,238.84999923706));
#96 = DIRECTION('',(-0.,1.,0.));
#97 = DIRECTION('',(1.,0.,0.));
#98 = ORIENTED_EDGE('',*,*,#99,.T.);
#99 = EDGE_CURVE('',#91,#64,#100,.T.);
#100 = CIRCLE('',#101,3.2);
#101 = AXIS2_PLACEMENT_3D('',#102,#103,#104);
#102 = CARTESIAN_POINT('',(55.399997711182,-31.7,238.84999923706));
#103 = DIRECTION('',(-0.,1.,0.));
#104 = DIRECTION('',(1.,0.,0.));
#105 = CYLINDRICAL_SURFACE('',#106,3.2);
#106 = AXIS2_PLACEMENT_3D('',#107,#108,#109);
#107 = CARTESIAN_POINT('',(55.399997711182,-37.1,238.84999923706));
#108 = DIRECTION('',(-0.,-1.,-2.2E-16));
#109 = DIRECTION('',(1.,0.,0.));
#110 = ADVANCED_FACE('',(#111,#132,#143,#154),#165,.T.);
#111 = FACE_BOUND('',#112,.T.);
#112 = EDGE_LOOP('',(#113,#114,#115,#124,#131));
#113 = ORIENTED_EDGE('',*,*,#90,.T.);
#114 = ORIENTED_EDGE('',*,*,#99,.T.);
#115 = ORIENTED_EDGE('',*,*,#116,.T.);
#116 = EDGE_CURVE('',#64,#117,#119,.T.);
#117 = VERTEX_POINT('',#118);
#118 = CARTESIAN_POINT('',(27.718618400837,-31.7,235.93431072886));
#119 = CIRCLE('',#120,13.5);
#120 = AXIS2_PLACEMENT_3D('',#121,#122,#123);
#121 = CARTESIAN_POINT('',(40.899997711182,-31.7,238.84999923706));
#122 = DIRECTION('',(-0.,1.,0.));
#123 = DIRECTION('',(1.,0.,0.));
#124 = ORIENTED_EDGE('',*,*,#125,.T.);
#125 = EDGE_CURVE('',#117,#41,#126,.T.);
#126 = CIRCLE('',#127,3.2);
#127 = AXIS2_PLACEMENT_3D('',#128,#129,#130);
#128 = CARTESIAN_POINT('',(26.399997711182,-31.7,238.84999923706));
#129 = DIRECTION('',(-0.,1.,0.));
#130 = DIRECTION('',(1.,0.,0.));
#131 = ORIENTED_EDGE('',*,*,#48,.T.);
#132 = FACE_BOUND('',#133,.T.);
#133 = EDGE_LOOP('',(#134));
#134 = ORIENTED_EDGE('',*,*,#135,.T.);
#135 = EDGE_CURVE('',#136,#136,#138,.T.);
#136 = VERTEX_POINT('',#137);
#137 = CARTESIAN_POINT('',(27.249997711182,-31.7,238.84999923706));
#138 = CIRCLE('',#139,0.85);
#139 = AXIS2_PLACEMENT_3D('',#140,#141,#142);
#140 = CARTESIAN_POINT('',(26.399997711182,-31.7,238.84999923706));
#141 = DIRECTION('',(0.,-1.,-2.2E-16));
#142 = DIRECTION('',(1.,0.,0.));
#143 = FACE_BOUND('',#144,.T.);
#144 = EDGE_LOOP('',(#145));
#145 = ORIENTED_EDGE('',*,*,#146,.T.);
#146 = EDGE_CURVE('',#147,#147,#149,.T.);
#147 = VERTEX_POINT('',#148);
#148 = CARTESIAN_POINT('',(51.999997711182,-31.7,238.84999923706));
#149 = CIRCLE('',#150,11.1);
#150 = AXIS2_PLACEMENT_3D('',#151,#152,#153);
#151 = CARTESIAN_POINT('',(40.899997711182,-31.7,238.84999923706));
#152 = DIRECTION('',(0.,-1.,-2.2E-16));
#153 = DIRECTION('',(1.,0.,0.));
#154 = FACE_BOUND('',#155,.T.);
#155 = EDGE_LOOP('',(#156));
#156 = ORIENTED_EDGE('',*,*,#157,.T.);
#157 = EDGE_CURVE('',#158,#158,#160,.T.);
#158 = VERTEX_POINT('',#159);
#159 = CARTESIAN_POINT('',(56.249997711182,-31.7,238.84999923706));
#160 = CIRCLE('',#161,0.85);
#161 = AXIS2_PLACEMENT_3D('',#162,#163,#164);
#162 = CARTESIAN_POINT('',(55.399997711182,-31.7,238.84999923706));
#163 = DIRECTION('',(0.,-1.,-2.2E-16));
#164 = DIRECTION('',(1.,0.,0.));
#165 = PLANE('',#166);
#166 = AXIS2_PLACEMENT_3D('',#167,#168,#169);
#167 = CARTESIAN_POINT('',(41.035967668188,-31.7,238.84999923706));
#168 = DIRECTION('',(0.,1.,2.8E-16));
#169 = DIRECTION('',(0.,-2.8E-16,1.));
#170 = ADVANCED_FACE('',(#171),#190,.T.);
#171 = FACE_BOUND('',#172,.F.);
#172 = EDGE_LOOP('',(#173,#182,#188,#189));
#173 = ORIENTED_EDGE('',*,*,#174,.F.);
#174 = EDGE_CURVE('',#175,#32,#177,.T.);
#175 = VERTEX_POINT('',#176);
#176 = CARTESIAN_POINT('',(27.718618400837,-37.1,235.93431072886));
#177 = CIRCLE('',#178,3.2);
#178 = AXIS2_PLACEMENT_3D('',#179,#180,#181);
#179 = CARTESIAN_POINT('',(26.399997711182,-37.1,238.84999923706));
#180 = DIRECTION('',(-0.,1.,0.));
#181 = DIRECTION('',(1.,0.,0.));
#182 = ORIENTED_EDGE('',*,*,#183,.F.);
#183 = EDGE_CURVE('',#117,#175,#184,.T.);
#184 = LINE('',#185,#186);
#185 = CARTESIAN_POINT('',(27.718618400837,-37.1,235.93431072886));
#186 = VECTOR('',#187,1.);
#187 = DIRECTION('',(-0.,-1.,-2.2E-16));
#188 = ORIENTED_EDGE('',*,*,#125,.T.);
#189 = ORIENTED_EDGE('',*,*,#40,.T.);
#190 = CYLINDRICAL_SURFACE('',#191,3.2);
#191 = AXIS2_PLACEMENT_3D('',#192,#193,#194);
#192 = CARTESIAN_POINT('',(26.399997711182,-37.1,238.84999923706));
#193 = DIRECTION('',(-0.,-1.,0.));
#194 = DIRECTION('',(1.,0.,0.));
#195 = ADVANCED_FACE('',(#196,#226),#237,.T.);
#196 = FACE_BOUND('',#197,.T.);
#197 = EDGE_LOOP('',(#198,#199,#200,#201,#210,#218,#225));
#198 = ORIENTED_EDGE('',*,*,#82,.F.);
#199 = ORIENTED_EDGE('',*,*,#31,.F.);
#200 = ORIENTED_EDGE('',*,*,#174,.F.);
#201 = ORIENTED_EDGE('',*,*,#202,.F.);
#202 = EDGE_CURVE('',#203,#175,#205,.T.);
#203 = VERTEX_POINT('',#204);
#204 = CARTESIAN_POINT('',(34.341795365616,-37.1,227.05));
#205 = CIRCLE('',#206,13.5);
#206 = AXIS2_PLACEMENT_3D('',#207,#208,#209);
#207 = CARTESIAN_POINT('',(40.899997711182,-37.1,238.84999923706));
#208 = DIRECTION('',(-0.,1.,0.));
#209 = DIRECTION('',(1.,0.,0.));
#210 = ORIENTED_EDGE('',*,*,#211,.T.);
#211 = EDGE_CURVE('',#203,#212,#214,.T.);
#212 = VERTEX_POINT('',#213);
#213 = CARTESIAN_POINT('',(47.458200056747,-37.1,227.05));
#214 = LINE('',#215,#216);
#215 = CARTESIAN_POINT('',(28.399997711182,-37.1,227.05));
#216 = VECTOR('',#217,1.);
#217 = DIRECTION('',(1.,0.,0.));
#218 = ORIENTED_EDGE('',*,*,#219,.F.);
#219 = EDGE_CURVE('',#66,#212,#220,.T.);
#220 = CIRCLE('',#221,13.5);
#221 = AXIS2_PLACEMENT_3D('',#222,#223,#224);
#222 = CARTESIAN_POINT('',(40.899997711182,-37.1,238.84999923706));
#223 = DIRECTION('',(-0.,1.,0.));
#224 = DIRECTION('',(1.,0.,0.));
#225 = ORIENTED_EDGE('',*,*,#73,.F.);
#226 = FACE_BOUND('',#227,.T.);
#227 = EDGE_LOOP('',(#228));
#228 = ORIENTED_EDGE('',*,*,#229,.F.);
#229 = EDGE_CURVE('',#230,#230,#232,.T.);
#230 = VERTEX_POINT('',#231);
#231 = CARTESIAN_POINT('',(50.999997711182,-37.1,238.84999923706));
#232 = CIRCLE('',#233,10.1);
#233 = AXIS2_PLACEMENT_3D('',#234,#235,#236);
#234 = CARTESIAN_POINT('',(40.899997711182,-37.1,238.84999923706));
#235 = DIRECTION('',(0.,-1.,-2.2E-16));
#236 = DIRECTION('',(1.,0.,0.));
#237 = PLANE('',#238);
#238 = AXIS2_PLACEMENT_3D('',#239,#240,#241);
#239 = CARTESIAN_POINT('',(41.035155741445,-37.1,238.72947328991));
#240 = DIRECTION('',(-0.,-1.,-0.));
#241 = DIRECTION('',(0.,0.,-1.));
#242 = ADVANCED_FACE('',(#243),#273,.T.);
#243 = FACE_BOUND('',#244,.F.);
#244 = EDGE_LOOP('',(#245,#246,#247,#248,#249,#250,#258,#267));
#245 = ORIENTED_EDGE('',*,*,#219,.F.);
#246 = ORIENTED_EDGE('',*,*,#63,.F.);
#247 = ORIENTED_EDGE('',*,*,#116,.T.);
#248 = ORIENTED_EDGE('',*,*,#183,.T.);
#249 = ORIENTED_EDGE('',*,*,#202,.F.);
#250 = ORIENTED_EDGE('',*,*,#251,.F.);
#251 = EDGE_CURVE('',#252,#203,#254,.T.);
#252 = VERTEX_POINT('',#253);
#253 = CARTESIAN_POINT('',(34.341795365617,-32.1,227.05));
#254 = LINE('',#255,#256);
#255 = CARTESIAN_POINT('',(34.341795365616,-37.1,227.05));
#256 = VECTOR('',#257,1.);
#257 = DIRECTION('',(-0.,-1.,-2.2E-16));
#258 = ORIENTED_EDGE('',*,*,#259,.T.);
#259 = EDGE_CURVE('',#252,#260,#262,.T.);
#260 = VERTEX_POINT('',#261);
#261 = CARTESIAN_POINT('',(47.458200056746,-32.1,227.05));
#262 = CIRCLE('',#263,13.5);
#263 = AXIS2_PLACEMENT_3D('',#264,#265,#266);
#264 = CARTESIAN_POINT('',(40.899997711182,-32.1,238.84999923706));
#265 = DIRECTION('',(0.,-1.,-2.2E-16));
#266 = DIRECTION('',(1.,0.,0.));
#267 = ORIENTED_EDGE('',*,*,#268,.T.);
#268 = EDGE_CURVE('',#260,#212,#269,.T.);
#269 = LINE('',#270,#271);
#270 = CARTESIAN_POINT('',(47.458200056747,-37.1,227.05));
#271 = VECTOR('',#272,1.);
#272 = DIRECTION('',(-0.,-1.,-2.2E-16));
#273 = CYLINDRICAL_SURFACE('',#274,13.5);
#274 = AXIS2_PLACEMENT_3D('',#275,#276,#277);
#275 = CARTESIAN_POINT('',(40.899997711182,-37.1,238.84999923706));
#276 = DIRECTION('',(-0.,-1.,0.));
#277 = DIRECTION('',(1.,0.,0.));
#278 = ADVANCED_FACE('',(#279),#298,.F.);
#279 = FACE_BOUND('',#280,.T.);
#280 = EDGE_LOOP('',(#281,#290,#296,#297));
#281 = ORIENTED_EDGE('',*,*,#282,.F.);
#282 = EDGE_CURVE('',#283,#283,#285,.T.);
#283 = VERTEX_POINT('',#284);
#284 = CARTESIAN_POINT('',(27.249997711182,-36.7,238.84999923706));
#285 = CIRCLE('',#286,0.85);
#286 = AXIS2_PLACEMENT_3D('',#287,#288,#289);
#287 = CARTESIAN_POINT('',(26.399997711182,-36.7,238.84999923706));
#288 = DIRECTION('',(-0.,1.,0.));
#289 = DIRECTION('',(1.,0.,0.));
#290 = ORIENTED_EDGE('',*,*,#291,.T.);
#291 = EDGE_CURVE('',#283,#136,#292,.T.);
#292 = LINE('',#293,#294);
#293 = CARTESIAN_POINT('',(27.249997711182,-36.7,238.84999923706));
#294 = VECTOR('',#295,1.);
#295 = DIRECTION('',(0.,1.,0.));
#296 = ORIENTED_EDGE('',*,*,#135,.F.);
#297 = ORIENTED_EDGE('',*,*,#291,.F.);
#298 = CYLINDRICAL_SURFACE('',#299,0.85);
#299 = AXIS2_PLACEMENT_3D('',#300,#301,#302);
#300 = CARTESIAN_POINT('',(26.399997711182,-36.7,238.84999923706));
#301 = DIRECTION('',(-0.,-1.,0.));
#302 = DIRECTION('',(1.,0.,0.));
#303 = ADVANCED_FACE('',(#304),#323,.F.);
#304 = FACE_BOUND('',#305,.T.);
#305 = EDGE_LOOP('',(#306,#315,#321,#322));
#306 = ORIENTED_EDGE('',*,*,#307,.F.);
#307 = EDGE_CURVE('',#308,#308,#310,.T.);
#308 = VERTEX_POINT('',#309);
#309 = CARTESIAN_POINT('',(51.999997711182,-36.1,238.84999923706));
#310 = CIRCLE('',#311,11.1);
#311 = AXIS2_PLACEMENT_3D('',#312,#313,#314);
#312 = CARTESIAN_POINT('',(40.899997711182,-36.1,238.84999923706));
#313 = DIRECTION('',(-0.,1.,0.));
#314 = DIRECTION('',(1.,0.,0.));
#315 = ORIENTED_EDGE('',*,*,#316,.T.);
#316 = EDGE_CURVE('',#308,#147,#317,.T.);
#317 = LINE('',#318,#319);
#318 = CARTESIAN_POINT('',(51.999997711182,-36.1,238.84999923706));
#319 = VECTOR('',#320,1.);
#320 = DIRECTION('',(0.,1.,0.));
#321 = ORIENTED_EDGE('',*,*,#146,.F.);
#322 = ORIENTED_EDGE('',*,*,#316,.F.);
#323 = CYLINDRICAL_SURFACE('',#324,11.1);
#324 = AXIS2_PLACEMENT_3D('',#325,#326,#327);
#325 = CARTESIAN_POINT('',(40.899997711182,-36.1,238.84999923706));
#326 = DIRECTION('',(-0.,-1.,0.));
#327 = DIRECTION('',(1.,0.,0.));
#328 = ADVANCED_FACE('',(#329),#348,.F.);
#329 = FACE_BOUND('',#330,.T.);
#330 = EDGE_LOOP('',(#331,#340,#346,#347));
#331 = ORIENTED_EDGE('',*,*,#332,.F.);
#332 = EDGE_CURVE('',#333,#333,#335,.T.);
#333 = VERTEX_POINT('',#334);
#334 = CARTESIAN_POINT('',(56.249997711182,-36.7,238.84999923706));
#335 = CIRCLE('',#336,0.85);
#336 = AXIS2_PLACEMENT_3D('',#337,#338,#339);
#337 = CARTESIAN_POINT('',(55.399997711182,-36.7,238.84999923706));
#338 = DIRECTION('',(-0.,1.,0.));
#339 = DIRECTION('',(1.,0.,0.));
#340 = ORIENTED_EDGE('',*,*,#341,.T.);
#341 = EDGE_CURVE('',#333,#158,#342,.T.);
#342 = LINE('',#343,#344);
#343 = CARTESIAN_POINT('',(56.249997711182,-36.7,238.84999923706));
#344 = VECTOR('',#345,1.);
#345 = DIRECTION('',(0.,1.,0.));
#346 = ORIENTED_EDGE('',*,*,#157,.F.);
#347 = ORIENTED_EDGE('',*,*,#341,.F.);
#348 = CYLINDRICAL_SURFACE('',#349,0.85);
#349 = AXIS2_PLACEMENT_3D('',#350,#351,#352);
#350 = CARTESIAN_POINT('',(55.399997711182,-36.7,238.84999923706));
#351 = DIRECTION('',(-0.,-1.,0.));
#352 = DIRECTION('',(1.,0.,0.));
#353 = ADVANCED_FACE('',(#354,#397,#408),#419,.T.);
#354 = FACE_BOUND('',#355,.T.);
#355 = EDGE_LOOP('',(#356,#364,#372,#380,#388,#394,#395,#396));
#356 = ORIENTED_EDGE('',*,*,#357,.F.);
#357 = EDGE_CURVE('',#358,#252,#360,.T.);
#358 = VERTEX_POINT('',#359);
#359 = CARTESIAN_POINT('',(15.899997711182,-32.1,227.05));
#360 = LINE('',#361,#362);
#361 = CARTESIAN_POINT('',(15.899997711182,-32.1,227.05));
#362 = VECTOR('',#363,1.);
#363 = DIRECTION('',(1.,0.,0.));
#364 = ORIENTED_EDGE('',*,*,#365,.F.);
#365 = EDGE_CURVE('',#366,#358,#368,.T.);
#366 = VERTEX_POINT('',#367);
#367 = CARTESIAN_POINT('',(15.899997711182,-39.1,227.05));
#368 = LINE('',#369,#370);
#369 = CARTESIAN_POINT('',(15.899997711182,-39.1,227.05));
#370 = VECTOR('',#371,1.);
#371 = DIRECTION('',(0.,1.,0.));
#372 = ORIENTED_EDGE('',*,*,#373,.T.);
#373 = EDGE_CURVE('',#366,#374,#376,.T.);
#374 = VERTEX_POINT('',#375);
#375 = CARTESIAN_POINT('',(65.899997711182,-39.1,227.05));
#376 = LINE('',#377,#378);
#377 = CARTESIAN_POINT('',(15.899997711182,-39.1,227.05));
#378 = VECTOR('',#379,1.);
#379 = DIRECTION('',(1.,0.,0.));
#380 = ORIENTED_EDGE('',*,*,#381,.T.);
#381 = EDGE_CURVE('',#374,#382,#384,.T.);
#382 = VERTEX_POINT('',#383);
#383 = CARTESIAN_POINT('',(65.899997711182,-32.1,227.05));
#384 = LINE('',#385,#386);
#385 = CARTESIAN_POINT('',(65.899997711182,-39.1,227.05));
#386 = VECTOR('',#387,1.);
#387 = DIRECTION('',(0.,1.,0.));
#388 = ORIENTED_EDGE('',*,*,#389,.F.);
#389 = EDGE_CURVE('',#260,#382,#390,.T.);
#390 = LINE('',#391,#392);
#391 = CARTESIAN_POINT('',(15.899997711182,-32.1,227.05));
#392 = VECTOR('',#393,1.);
#393 = DIRECTION('',(1.,0.,0.));
#394 = ORIENTED_EDGE('',*,*,#268,.T.);
#395 = ORIENTED_EDGE('',*,*,#211,.F.);
#396 = ORIENTED_EDGE('',*,*,#251,.F.);
#397 = FACE_BOUND('',#398,.T.);
#398 = EDGE_LOOP('',(#399));
#399 = ORIENTED_EDGE('',*,*,#400,.T.);
#400 = EDGE_CURVE('',#401,#401,#403,.T.);
#401 = VERTEX_POINT('',#402);
#402 = CARTESIAN_POINT('',(20.549997711182,-35.6,227.05));
#403 = CIRCLE('',#404,1.15);
#404 = AXIS2_PLACEMENT_3D('',#405,#406,#407);
#405 = CARTESIAN_POINT('',(19.399997711182,-35.6,227.05));
#406 = DIRECTION('',(0.,0.,-1.));
#407 = DIRECTION('',(1.,0.,0.));
#408 = FACE_BOUND('',#409,.T.);
#409 = EDGE_LOOP('',(#410));
#410 = ORIENTED_EDGE('',*,*,#411,.T.);
#411 = EDGE_CURVE('',#412,#412,#414,.T.);
#412 = VERTEX_POINT('',#413);
#413 = CARTESIAN_POINT('',(63.549997711182,-35.6,227.05));
#414 = CIRCLE('',#415,1.15);
#415 = AXIS2_PLACEMENT_3D('',#416,#417,#418);
#416 = CARTESIAN_POINT('',(62.399997711182,-35.6,227.05));
#417 = DIRECTION('',(0.,0.,-1.));
#418 = DIRECTION('',(1.,0.,0.));
#419 = PLANE('',#420);
#420 = AXIS2_PLACEMENT_3D('',#421,#422,#423);
#421 = CARTESIAN_POINT('',(15.899997711182,-39.1,227.05));
#422 = DIRECTION('',(0.,0.,1.));
#423 = DIRECTION('',(1.,0.,0.));
#424 = ADVANCED_FACE('',(#425),#444,.F.);
#425 = FACE_BOUND('',#426,.T.);
#426 = EDGE_LOOP('',(#427,#435,#436,#437));
#427 = ORIENTED_EDGE('',*,*,#428,.F.);
#428 = EDGE_CURVE('',#230,#429,#431,.T.);
#429 = VERTEX_POINT('',#430);
#430 = CARTESIAN_POINT('',(50.999997711182,-36.1,238.84999923706));
#431 = LINE('',#432,#433);
#432 = CARTESIAN_POINT('',(50.999997711182,-37.2,238.84999923706));
#433 = VECTOR('',#434,1.);
#434 = DIRECTION('',(0.,1.,0.));
#435 = ORIENTED_EDGE('',*,*,#229,.T.);
#436 = ORIENTED_EDGE('',*,*,#428,.T.);
#437 = ORIENTED_EDGE('',*,*,#438,.F.);
#438 = EDGE_CURVE('',#429,#429,#439,.T.);
#439 = CIRCLE('',#440,10.1);
#440 = AXIS2_PLACEMENT_3D('',#441,#442,#443);
#441 = CARTESIAN_POINT('',(40.899997711182,-36.1,238.84999923706));
#442 = DIRECTION('',(0.,-1.,-2.2E-16));
#443 = DIRECTION('',(1.,0.,0.));
#444 = CYLINDRICAL_SURFACE('',#445,10.1);
#445 = AXIS2_PLACEMENT_3D('',#446,#447,#448);
#446 = CARTESIAN_POINT('',(40.899997711182,-37.2,238.84999923706));
#447 = DIRECTION('',(-0.,-1.,0.));
#448 = DIRECTION('',(1.,0.,0.));
#449 = ADVANCED_FACE('',(#450),#477,.T.);
#450 = FACE_BOUND('',#451,.T.);
#451 = EDGE_LOOP('',(#452,#460,#468,#474,#475,#476));
#452 = ORIENTED_EDGE('',*,*,#453,.F.);
#453 = EDGE_CURVE('',#454,#382,#456,.T.);
#454 = VERTEX_POINT('',#455);
#455 = CARTESIAN_POINT('',(65.899997711182,-32.1,224.05));
#456 = LINE('',#457,#458);
#457 = CARTESIAN_POINT('',(65.899997711182,-32.1,224.05));
#458 = VECTOR('',#459,1.);
#459 = DIRECTION('',(0.,0.,1.));
#460 = ORIENTED_EDGE('',*,*,#461,.F.);
#461 = EDGE_CURVE('',#462,#454,#464,.T.);
#462 = VERTEX_POINT('',#463);
#463 = CARTESIAN_POINT('',(15.899997711182,-32.1,224.05));
#464 = LINE('',#465,#466);
#465 = CARTESIAN_POINT('',(15.899997711182,-32.1,224.05));
#466 = VECTOR('',#467,1.);
#467 = DIRECTION('',(1.,0.,0.));
#468 = ORIENTED_EDGE('',*,*,#469,.T.);
#469 = EDGE_CURVE('',#462,#358,#470,.T.);
#470 = LINE('',#471,#472);
#471 = CARTESIAN_POINT('',(15.899997711182,-32.1,224.05));
#472 = VECTOR('',#473,1.);
#473 = DIRECTION('',(0.,0.,1.));
#474 = ORIENTED_EDGE('',*,*,#357,.T.);
#475 = ORIENTED_EDGE('',*,*,#259,.T.);
#476 = ORIENTED_EDGE('',*,*,#389,.T.);
#477 = PLANE('',#478);
#478 = AXIS2_PLACEMENT_3D('',#479,#480,#481);
#479 = CARTESIAN_POINT('',(15.899997711182,-32.1,224.05));
#480 = DIRECTION('',(0.,1.,0.));
#481 = DIRECTION('',(0.,0.,1.));
#482 = ADVANCED_FACE('',(#483),#486,.T.);
#483 = FACE_BOUND('',#484,.F.);
#484 = EDGE_LOOP('',(#485));
#485 = ORIENTED_EDGE('',*,*,#282,.F.);
#486 = PLANE('',#487);
#487 = AXIS2_PLACEMENT_3D('',#488,#489,#490);
#488 = CARTESIAN_POINT('',(26.399997711182,-36.7,238.84999923706));
#489 = DIRECTION('',(0.,1.,0.));
#490 = DIRECTION('',(1.,0.,0.));
#491 = ADVANCED_FACE('',(#492,#495),#498,.T.);
#492 = FACE_BOUND('',#493,.T.);
#493 = EDGE_LOOP('',(#494));
#494 = ORIENTED_EDGE('',*,*,#307,.T.);
#495 = FACE_BOUND('',#496,.T.);
#496 = EDGE_LOOP('',(#497));
#497 = ORIENTED_EDGE('',*,*,#438,.T.);
#498 = PLANE('',#499);
#499 = AXIS2_PLACEMENT_3D('',#500,#501,#502);
#500 = CARTESIAN_POINT('',(40.899997711182,-36.1,238.84999923706));
#501 = DIRECTION('',(0.,1.,0.));
#502 = DIRECTION('',(1.,0.,0.));
#503 = ADVANCED_FACE('',(#504),#507,.T.);
#504 = FACE_BOUND('',#505,.F.);
#505 = EDGE_LOOP('',(#506));
#506 = ORIENTED_EDGE('',*,*,#332,.F.);
#507 = PLANE('',#508);
#508 = AXIS2_PLACEMENT_3D('',#509,#510,#511);
#509 = CARTESIAN_POINT('',(55.399997711182,-36.7,238.84999923706));
#510 = DIRECTION('',(0.,1.,0.));
#511 = DIRECTION('',(1.,0.,0.));
#512 = ADVANCED_FACE('',(#513),#531,.F.);
#513 = FACE_BOUND('',#514,.F.);
#514 = EDGE_LOOP('',(#515,#523,#529,#530));
#515 = ORIENTED_EDGE('',*,*,#516,.F.);
#516 = EDGE_CURVE('',#517,#366,#519,.T.);
#517 = VERTEX_POINT('',#518);
#518 = CARTESIAN_POINT('',(15.899997711182,-39.1,224.05));
#519 = LINE('',#520,#521);
#520 = CARTESIAN_POINT('',(15.899997711182,-39.1,224.05));
#521 = VECTOR('',#522,1.);
#522 = DIRECTION('',(0.,0.,1.));
#523 = ORIENTED_EDGE('',*,*,#524,.T.);
#524 = EDGE_CURVE('',#517,#462,#525,.T.);
#525 = LINE('',#526,#527);
#526 = CARTESIAN_POINT('',(15.899997711182,-39.1,224.05));
#527 = VECTOR('',#528,1.);
#528 = DIRECTION('',(0.,1.,0.));
#529 = ORIENTED_EDGE('',*,*,#469,.T.);
#530 = ORIENTED_EDGE('',*,*,#365,.F.);
#531 = PLANE('',#532);
#532 = AXIS2_PLACEMENT_3D('',#533,#534,#535);
#533 = CARTESIAN_POINT('',(15.899997711182,-39.1,224.05));
#534 = DIRECTION('',(1.,0.,0.));
#535 = DIRECTION('',(0.,0.,1.));
#536 = ADVANCED_FACE('',(#537),#555,.F.);
#537 = FACE_BOUND('',#538,.F.);
#538 = EDGE_LOOP('',(#539,#547,#548,#549));
#539 = ORIENTED_EDGE('',*,*,#540,.F.);
#540 = EDGE_CURVE('',#517,#541,#543,.T.);
#541 = VERTEX_POINT('',#542);
#542 = CARTESIAN_POINT('',(65.899997711182,-39.1,224.05));
#543 = LINE('',#544,#545);
#544 = CARTESIAN_POINT('',(15.899997711182,-39.1,224.05));
#545 = VECTOR('',#546,1.);
#546 = DIRECTION('',(1.,0.,0.));
#547 = ORIENTED_EDGE('',*,*,#516,.T.);
#548 = ORIENTED_EDGE('',*,*,#373,.T.);
#549 = ORIENTED_EDGE('',*,*,#550,.F.);
#550 = EDGE_CURVE('',#541,#374,#551,.T.);
#551 = LINE('',#552,#553);
#552 = CARTESIAN_POINT('',(65.899997711182,-39.1,224.05));
#553 = VECTOR('',#554,1.);
#554 = DIRECTION('',(0.,0.,1.));
#555 = PLANE('',#556);
#556 = AXIS2_PLACEMENT_3D('',#557,#558,#559);
#557 = CARTESIAN_POINT('',(15.899997711182,-39.1,224.05));
#558 = DIRECTION('',(0.,1.,0.));
#559 = DIRECTION('',(0.,0.,1.));
#560 = ADVANCED_FACE('',(#561),#572,.T.);
#561 = FACE_BOUND('',#562,.T.);
#562 = EDGE_LOOP('',(#563,#564,#570,#571));
#563 = ORIENTED_EDGE('',*,*,#550,.F.);
#564 = ORIENTED_EDGE('',*,*,#565,.T.);
#565 = EDGE_CURVE('',#541,#454,#566,.T.);
#566 = LINE('',#567,#568);
#567 = CARTESIAN_POINT('',(65.899997711182,-39.1,224.05));
#568 = VECTOR('',#569,1.);
#569 = DIRECTION('',(0.,1.,0.));
#570 = ORIENTED_EDGE('',*,*,#453,.T.);
#571 = ORIENTED_EDGE('',*,*,#381,.F.);
#572 = PLANE('',#573);
#573 = AXIS2_PLACEMENT_3D('',#574,#575,#576);
#574 = CARTESIAN_POINT('',(65.899997711182,-39.1,224.05));
#575 = DIRECTION('',(1.,0.,0.));
#576 = DIRECTION('',(0.,0.,1.));
#577 = ADVANCED_FACE('',(#578),#597,.F.);
#578 = FACE_BOUND('',#579,.T.);
#579 = EDGE_LOOP('',(#580,#589,#595,#596));
#580 = ORIENTED_EDGE('',*,*,#581,.T.);
#581 = EDGE_CURVE('',#582,#582,#584,.T.);
#582 = VERTEX_POINT('',#583);
#583 = CARTESIAN_POINT('',(20.549997711182,-35.6,224.05));
#584 = CIRCLE('',#585,1.15);
#585 = AXIS2_PLACEMENT_3D('',#586,#587,#588);
#586 = CARTESIAN_POINT('',(19.399997711182,-35.6,224.05));
#587 = DIRECTION('',(0.,0.,-1.));
#588 = DIRECTION('',(1.,0.,0.));
#589 = ORIENTED_EDGE('',*,*,#590,.T.);
#590 = EDGE_CURVE('',#582,#401,#591,.T.);
#591 = LINE('',#592,#593);
#592 = CARTESIAN_POINT('',(20.549997711182,-35.6,224.));
#593 = VECTOR('',#594,1.);
#594 = DIRECTION('',(0.,0.,1.));
#595 = ORIENTED_EDGE('',*,*,#400,.F.);
#596 = ORIENTED_EDGE('',*,*,#590,.F.);
#597 = CYLINDRICAL_SURFACE('',#598,1.15);
#598 = AXIS2_PLACEMENT_3D('',#599,#600,#601);
#599 = CARTESIAN_POINT('',(19.399997711182,-35.6,224.));
#600 = DIRECTION('',(-0.,-0.,-1.));
#601 = DIRECTION('',(1.,0.,0.));
#602 = ADVANCED_FACE('',(#603),#622,.F.);
#603 = FACE_BOUND('',#604,.T.);
#604 = EDGE_LOOP('',(#605,#614,#620,#621));
#605 = ORIENTED_EDGE('',*,*,#606,.T.);
#606 = EDGE_CURVE('',#607,#607,#609,.T.);
#607 = VERTEX_POINT('',#608);
#608 = CARTESIAN_POINT('',(63.549997711182,-35.6,224.05));
#609 = CIRCLE('',#610,1.15);
#610 = AXIS2_PLACEMENT_3D('',#611,#612,#613);
#611 = CARTESIAN_POINT('',(62.399997711182,-35.6,224.05));
#612 = DIRECTION('',(0.,0.,-1.));
#613 = DIRECTION('',(1.,0.,0.));
#614 = ORIENTED_EDGE('',*,*,#615,.T.);
#615 = EDGE_CURVE('',#607,#412,#616,.T.);
#616 = LINE('',#617,#618);
#617 = CARTESIAN_POINT('',(63.549997711182,-35.6,224.));
#618 = VECTOR('',#619,1.);
#619 = DIRECTION('',(0.,0.,1.));
#620 = ORIENTED_EDGE('',*,*,#411,.F.);
#621 = ORIENTED_EDGE('',*,*,#615,.F.);
#622 = CYLINDRICAL_SURFACE('',#623,1.15);
#623 = AXIS2_PLACEMENT_3D('',#624,#625,#626);
#624 = CARTESIAN_POINT('',(62.399997711182,-35.6,224.));
#625 = DIRECTION('',(-0.,-0.,-1.));
#626 = DIRECTION('',(1.,0.,0.));
#627 = ADVANCED_FACE('',(#628,#634,#637),#640,.F.);
#628 = FACE_BOUND('',#629,.F.);
#629 = EDGE_LOOP('',(#630,#631,#632,#633));
#630 = ORIENTED_EDGE('',*,*,#524,.F.);
#631 = ORIENTED_EDGE('',*,*,#540,.T.);
#632 = ORIENTED_EDGE('',*,*,#565,.T.);
#633 = ORIENTED_EDGE('',*,*,#461,.F.);
#634 = FACE_BOUND('',#635,.F.);
#635 = EDGE_LOOP('',(#636));
#636 = ORIENTED_EDGE('',*,*,#581,.T.);
#637 = FACE_BOUND('',#638,.F.);
#638 = EDGE_LOOP('',(#639));
#639 = ORIENTED_EDGE('',*,*,#606,.T.);
#640 = PLANE('',#641);
#641 = AXIS2_PLACEMENT_3D('',#642,#643,#644);
#642 = CARTESIAN_POINT('',(15.899997711182,-39.1,224.05));
#643 = DIRECTION('',(0.,0.,1.));
#644 = DIRECTION('',(1.,0.,0.));
#645 = ( GEOMETRIC_REPRESENTATION_CONTEXT(3) 
GLOBAL_UNCERTAINTY_ASSIGNED_CONTEXT((#649)) GLOBAL_UNIT_ASSIGNED_CONTEXT
((#646,#647,#648)) REPRESENTATION_CONTEXT('Context #1',
  '3D Context with UNIT and UNCERTAINTY') );
#646 = ( LENGTH_UNIT() NAMED_UNIT(*) SI_UNIT(.MILLI.,.METRE.) );
#647 = ( NAMED_UNIT(*) PLANE_ANGLE_UNIT() SI_UNIT($,.RADIAN.) );
#648 = ( NAMED_UNIT(*) SI_UNIT($,.STERADIAN.) SOLID_ANGLE_UNIT() );
#649 = UNCERTAINTY_MEASURE_WITH_UNIT(LENGTH_MEASURE(5.E-06),#646,
  'distance_accuracy_value','confusion accuracy');
#650 = PRODUCT_RELATED_PRODUCT_CATEGORY('part',$,(#7));
ENDSEC;
END-ISO-10303-21;
