ISO-10303-21;
HEADER;
FILE_DESCRIPTION(('FreeCAD Model'),'2;1');
FILE_NAME('Open CASCADE Shape Model','2026-10-09T09:05:22',('FreeCAD'),(
    'FreeCAD'),'Open CASCADE STEP processor 7.8','FreeCAD','Unknown');
FILE_SCHEMA(('AUTOMOTIVE_DESIGN { 1 0 10303 214 1 1 1 1 }'));
ENDSEC;
DATA;
#1 = APPLICATION_PROTOCOL_DEFINITION('international standard',
  'automotive_design',2000,#2);
#2 = APPLICATION_CONTEXT(
  'core data for automotive mechanical design processes');
#3 = SHAPE_DEFINITION_REPRESENTATION(#4,#10);
#4 = PRODUCT_DEFINITION_SHAPE('','',#5);
#5 = PRODUCT_DEFINITION('design','',#6,#9);
#6 = PRODUCT_DEFINITION_FORMATION('','',#7);
#7 = PRODUCT('Open CASCADE STEP translator 7.8 2',
  'Open CASCADE STEP translator 7.8 2','',(#8));
#8 = PRODUCT_CONTEXT('',#2,'mechanical');
#9 = PRODUCT_DEFINITION_CONTEXT('part definition',#2,'design');
#10 = ADVANCED_BREP_SHAPE_REPRESENTATION('',(#11,#15),#971);
#11 = AXIS2_PLACEMENT_3D('',#12,#13,#14);
#12 = CARTESIAN_POINT('',(0.,0.,0.));
#13 = DIRECTION('',(0.,0.,1.));
#14 = DIRECTION('',(1.,0.,-0.));
#15 = MANIFOLD_SOLID_BREP('',#16);
#16 = CLOSED_SHELL('',(#17,#57,#88,#119,#165,#211,#262,#274,#299,#324,
    #449,#461,#470,#501,#541,#565,#589,#620,#637,#662,#687,#712,#737,
    #762,#787,#833,#845,#903,#925,#942,#959));
#17 = ADVANCED_FACE('',(#18),#52,.F.);
#18 = FACE_BOUND('',#19,.F.);
#19 = EDGE_LOOP('',(#20,#30,#38,#46));
#20 = ORIENTED_EDGE('',*,*,#21,.T.);
#21 = EDGE_CURVE('',#22,#24,#26,.T.);
#22 = VERTEX_POINT('',#23);
#23 = CARTESIAN_POINT('',(39.35455173281,-18.3,155.35));
#24 = VERTEX_POINT('',#25);
#25 = CARTESIAN_POINT('',(39.35455173281,-15.8,155.35));
#26 = LINE('',#27,#28);
#27 = CARTESIAN_POINT('',(39.35455173281,-18.3,155.35));
#28 = VECTOR('',#29,1.);
#29 = DIRECTION('',(0.,1.,-1.1E-16));
#30 = ORIENTED_EDGE('',*,*,#31,.T.);
#31 = EDGE_CURVE('',#24,#32,#34,.T.);
#32 = VERTEX_POINT('',#33);
#33 = CARTESIAN_POINT('',(37.709103465619,-15.8,152.5));
#34 = LINE('',#35,#36);
#35 = CARTESIAN_POINT('',(39.35455173281,-15.8,155.35));
#36 = VECTOR('',#37,1.);
#37 = DIRECTION('',(-0.5,1.9E-16,-0.866025403784));
#38 = ORIENTED_EDGE('',*,*,#39,.F.);
#39 = EDGE_CURVE('',#40,#32,#42,.T.);
#40 = VERTEX_POINT('',#41);
#41 = CARTESIAN_POINT('',(37.709103465619,-18.3,152.5));
#42 = LINE('',#43,#44);
#43 = CARTESIAN_POINT('',(37.709103465619,-18.3,152.5));
#44 = VECTOR('',#45,1.);
#45 = DIRECTION('',(0.,1.,-1.1E-16));
#46 = ORIENTED_EDGE('',*,*,#47,.F.);
#47 = EDGE_CURVE('',#22,#40,#48,.T.);
#48 = LINE('',#49,#50);
#49 = CARTESIAN_POINT('',(39.35455173281,-18.3,155.35));
#50 = VECTOR('',#51,1.);
#51 = DIRECTION('',(-0.5,1.9E-16,-0.866025403784));
#52 = PLANE('',#53);
#53 = AXIS2_PLACEMENT_3D('',#54,#55,#56);
#54 = CARTESIAN_POINT('',(39.35455173281,-18.3,155.35));
#55 = DIRECTION('',(-0.866025403784,6.E-17,0.5));
#56 = DIRECTION('',(-0.5,-1.E-16,-0.866025403784));
#57 = ADVANCED_FACE('',(#58),#83,.T.);
#58 = FACE_BOUND('',#59,.T.);
#59 = EDGE_LOOP('',(#60,#70,#76,#77));
#60 = ORIENTED_EDGE('',*,*,#61,.T.);
#61 = EDGE_CURVE('',#62,#64,#66,.T.);
#62 = VERTEX_POINT('',#63);
#63 = CARTESIAN_POINT('',(46.279914772039,-15.8,155.35));
#64 = VERTEX_POINT('',#65);
#65 = CARTESIAN_POINT('',(46.279914772039,-18.3,155.35));
#66 = LINE('',#67,#68);
#67 = CARTESIAN_POINT('',(46.279914772039,-19.7,155.35));
#68 = VECTOR('',#69,1.);
#69 = DIRECTION('',(0.,-1.,-5.6E-16));
#70 = ORIENTED_EDGE('',*,*,#71,.T.);
#71 = EDGE_CURVE('',#64,#22,#72,.T.);
#72 = LINE('',#73,#74);
#73 = CARTESIAN_POINT('',(42.64544826719,-18.3,155.35));
#74 = VECTOR('',#75,1.);
#75 = DIRECTION('',(-1.,0.,0.));
#76 = ORIENTED_EDGE('',*,*,#21,.T.);
#77 = ORIENTED_EDGE('',*,*,#78,.F.);
#78 = EDGE_CURVE('',#62,#24,#79,.T.);
#79 = LINE('',#80,#81);
#80 = CARTESIAN_POINT('',(42.64544826719,-15.8,155.35));
#81 = VECTOR('',#82,1.);
#82 = DIRECTION('',(-1.,0.,0.));
#83 = PLANE('',#84);
#84 = AXIS2_PLACEMENT_3D('',#85,#86,#87);
#85 = CARTESIAN_POINT('',(42.817233252424,-17.05,155.35));
#86 = DIRECTION('',(1.83E-15,2.2E-16,-1.));
#87 = DIRECTION('',(-1.,-1.859039349129E-48,-1.83E-15));
#88 = ADVANCED_FACE('',(#89),#114,.F.);
#89 = FACE_BOUND('',#90,.F.);
#90 = EDGE_LOOP('',(#91,#92,#100,#108));
#91 = ORIENTED_EDGE('',*,*,#39,.T.);
#92 = ORIENTED_EDGE('',*,*,#93,.T.);
#93 = EDGE_CURVE('',#32,#94,#96,.T.);
#94 = VERTEX_POINT('',#95);
#95 = CARTESIAN_POINT('',(39.35455173281,-15.8,149.65));
#96 = LINE('',#97,#98);
#97 = CARTESIAN_POINT('',(37.709103465619,-15.8,152.5));
#98 = VECTOR('',#99,1.);
#99 = DIRECTION('',(0.5,1.9E-16,-0.866025403784));
#100 = ORIENTED_EDGE('',*,*,#101,.F.);
#101 = EDGE_CURVE('',#102,#94,#104,.T.);
#102 = VERTEX_POINT('',#103);
#103 = CARTESIAN_POINT('',(39.35455173281,-18.3,149.65));
#104 = LINE('',#105,#106);
#105 = CARTESIAN_POINT('',(39.35455173281,-18.3,149.65));
#106 = VECTOR('',#107,1.);
#107 = DIRECTION('',(0.,1.,-1.1E-16));
#108 = ORIENTED_EDGE('',*,*,#109,.F.);
#109 = EDGE_CURVE('',#40,#102,#110,.T.);
#110 = LINE('',#111,#112);
#111 = CARTESIAN_POINT('',(37.709103465619,-18.3,152.5));
#112 = VECTOR('',#113,1.);
#113 = DIRECTION('',(0.5,1.9E-16,-0.866025403784));
#114 = PLANE('',#115);
#115 = AXIS2_PLACEMENT_3D('',#116,#117,#118);
#116 = CARTESIAN_POINT('',(37.709103465619,-18.3,152.5));
#117 = DIRECTION('',(-0.866025403784,-6.E-17,-0.5));
#118 = DIRECTION('',(0.5,-1.E-16,-0.866025403784));
#119 = ADVANCED_FACE('',(#120,#149),#160,.T.);
#120 = FACE_BOUND('',#121,.T.);
#121 = EDGE_LOOP('',(#122,#130,#131,#132,#133,#142));
#122 = ORIENTED_EDGE('',*,*,#123,.F.);
#123 = EDGE_CURVE('',#102,#124,#126,.T.);
#124 = VERTEX_POINT('',#125);
#125 = CARTESIAN_POINT('',(46.279914772039,-18.3,149.65));
#126 = LINE('',#127,#128);
#127 = CARTESIAN_POINT('',(41.,-18.3,149.65));
#128 = VECTOR('',#129,1.);
#129 = DIRECTION('',(1.,0.,0.));
#130 = ORIENTED_EDGE('',*,*,#109,.F.);
#131 = ORIENTED_EDGE('',*,*,#47,.F.);
#132 = ORIENTED_EDGE('',*,*,#71,.F.);
#133 = ORIENTED_EDGE('',*,*,#134,.F.);
#134 = EDGE_CURVE('',#135,#64,#137,.T.);
#135 = VERTEX_POINT('',#136);
#136 = CARTESIAN_POINT('',(47.,-18.3,152.5));
#137 = CIRCLE('',#138,6.);
#138 = AXIS2_PLACEMENT_3D('',#139,#140,#141);
#139 = CARTESIAN_POINT('',(41.,-18.3,152.5));
#140 = DIRECTION('',(0.,-1.,-5.6E-16));
#141 = DIRECTION('',(1.,0.,0.));
#142 = ORIENTED_EDGE('',*,*,#143,.F.);
#143 = EDGE_CURVE('',#124,#135,#144,.T.);
#144 = CIRCLE('',#145,6.);
#145 = AXIS2_PLACEMENT_3D('',#146,#147,#148);
#146 = CARTESIAN_POINT('',(41.,-18.3,152.5));
#147 = DIRECTION('',(0.,-1.,-5.6E-16));
#148 = DIRECTION('',(1.,0.,0.));
#149 = FACE_BOUND('',#150,.T.);
#150 = EDGE_LOOP('',(#151));
#151 = ORIENTED_EDGE('',*,*,#152,.T.);
#152 = EDGE_CURVE('',#153,#153,#155,.T.);
#153 = VERTEX_POINT('',#154);
#154 = CARTESIAN_POINT('',(42.65,-18.3,152.5));
#155 = CIRCLE('',#156,1.65);
#156 = AXIS2_PLACEMENT_3D('',#157,#158,#159);
#157 = CARTESIAN_POINT('',(41.,-18.3,152.5));
#158 = DIRECTION('',(0.,-1.,-2.2E-16));
#159 = DIRECTION('',(1.,0.,0.));
#160 = PLANE('',#161);
#161 = AXIS2_PLACEMENT_3D('',#162,#163,#164);
#162 = CARTESIAN_POINT('',(42.631258108048,-18.3,152.5));
#163 = DIRECTION('',(4.5E-15,1.,2.2E-16));
#164 = DIRECTION('',(1.,-4.5E-15,0.));
#165 = ADVANCED_FACE('',(#166,#195),#206,.T.);
#166 = FACE_BOUND('',#167,.T.);
#167 = EDGE_LOOP('',(#168,#179,#186,#187,#188,#189));
#168 = ORIENTED_EDGE('',*,*,#169,.T.);
#169 = EDGE_CURVE('',#170,#172,#174,.T.);
#170 = VERTEX_POINT('',#171);
#171 = CARTESIAN_POINT('',(46.279914772039,-15.8,149.65));
#172 = VERTEX_POINT('',#173);
#173 = CARTESIAN_POINT('',(47.,-15.8,152.5));
#174 = CIRCLE('',#175,6.);
#175 = AXIS2_PLACEMENT_3D('',#176,#177,#178);
#176 = CARTESIAN_POINT('',(41.,-15.8,152.5));
#177 = DIRECTION('',(0.,-1.,-5.6E-16));
#178 = DIRECTION('',(1.,0.,0.));
#179 = ORIENTED_EDGE('',*,*,#180,.T.);
#180 = EDGE_CURVE('',#172,#62,#181,.T.);
#181 = CIRCLE('',#182,6.);
#182 = AXIS2_PLACEMENT_3D('',#183,#184,#185);
#183 = CARTESIAN_POINT('',(41.,-15.8,152.5));
#184 = DIRECTION('',(0.,-1.,-5.6E-16));
#185 = DIRECTION('',(1.,0.,0.));
#186 = ORIENTED_EDGE('',*,*,#78,.T.);
#187 = ORIENTED_EDGE('',*,*,#31,.T.);
#188 = ORIENTED_EDGE('',*,*,#93,.T.);
#189 = ORIENTED_EDGE('',*,*,#190,.T.);
#190 = EDGE_CURVE('',#94,#170,#191,.T.);
#191 = LINE('',#192,#193);
#192 = CARTESIAN_POINT('',(39.35455173281,-15.8,149.65));
#193 = VECTOR('',#194,1.);
#194 = DIRECTION('',(1.,0.,0.));
#195 = FACE_BOUND('',#196,.T.);
#196 = EDGE_LOOP('',(#197));
#197 = ORIENTED_EDGE('',*,*,#198,.F.);
#198 = EDGE_CURVE('',#199,#199,#201,.T.);
#199 = VERTEX_POINT('',#200);
#200 = CARTESIAN_POINT('',(42.65,-15.8,152.5));
#201 = CIRCLE('',#202,1.65);
#202 = AXIS2_PLACEMENT_3D('',#203,#204,#205);
#203 = CARTESIAN_POINT('',(41.,-15.8,152.5));
#204 = DIRECTION('',(0.,-1.,-2.2E-16));
#205 = DIRECTION('',(1.,0.,0.));
#206 = PLANE('',#207);
#207 = AXIS2_PLACEMENT_3D('',#208,#209,#210);
#208 = CARTESIAN_POINT('',(42.631258108048,-15.8,152.5));
#209 = DIRECTION('',(-4.5E-15,-1.,-2.2E-16));
#210 = DIRECTION('',(-1.,4.5E-15,0.));
#211 = ADVANCED_FACE('',(#212),#257,.T.);
#212 = FACE_BOUND('',#213,.F.);
#213 = EDGE_LOOP('',(#214,#222,#229,#230,#231,#237,#238,#246,#253,#254,
    #255,#256));
#214 = ORIENTED_EDGE('',*,*,#215,.F.);
#215 = EDGE_CURVE('',#216,#135,#218,.T.);
#216 = VERTEX_POINT('',#217);
#217 = CARTESIAN_POINT('',(47.,-19.7,152.5));
#218 = LINE('',#219,#220);
#219 = CARTESIAN_POINT('',(47.,-19.7,152.5));
#220 = VECTOR('',#221,1.);
#221 = DIRECTION('',(0.,1.,2.2E-16));
#222 = ORIENTED_EDGE('',*,*,#223,.F.);
#223 = EDGE_CURVE('',#216,#216,#224,.T.);
#224 = CIRCLE('',#225,6.);
#225 = AXIS2_PLACEMENT_3D('',#226,#227,#228);
#226 = CARTESIAN_POINT('',(41.,-19.7,152.5));
#227 = DIRECTION('',(-0.,1.,2.2E-16));
#228 = DIRECTION('',(1.,0.,0.));
#229 = ORIENTED_EDGE('',*,*,#215,.T.);
#230 = ORIENTED_EDGE('',*,*,#143,.F.);
#231 = ORIENTED_EDGE('',*,*,#232,.F.);
#232 = EDGE_CURVE('',#170,#124,#233,.T.);
#233 = LINE('',#234,#235);
#234 = CARTESIAN_POINT('',(46.279914772039,-19.7,149.65));
#235 = VECTOR('',#236,1.);
#236 = DIRECTION('',(0.,-1.,-5.6E-16));
#237 = ORIENTED_EDGE('',*,*,#169,.T.);
#238 = ORIENTED_EDGE('',*,*,#239,.T.);
#239 = EDGE_CURVE('',#172,#240,#242,.T.);
#240 = VERTEX_POINT('',#241);
#241 = CARTESIAN_POINT('',(47.,-15.5,152.5));
#242 = LINE('',#243,#244);
#243 = CARTESIAN_POINT('',(47.,-19.7,152.5));
#244 = VECTOR('',#245,1.);
#245 = DIRECTION('',(0.,1.,2.2E-16));
#246 = ORIENTED_EDGE('',*,*,#247,.F.);
#247 = EDGE_CURVE('',#240,#240,#248,.T.);
#248 = CIRCLE('',#249,6.);
#249 = AXIS2_PLACEMENT_3D('',#250,#251,#252);
#250 = CARTESIAN_POINT('',(41.,-15.5,152.5));
#251 = DIRECTION('',(0.,-1.,-2.2E-16));
#252 = DIRECTION('',(1.,0.,0.));
#253 = ORIENTED_EDGE('',*,*,#239,.F.);
#254 = ORIENTED_EDGE('',*,*,#180,.T.);
#255 = ORIENTED_EDGE('',*,*,#61,.T.);
#256 = ORIENTED_EDGE('',*,*,#134,.F.);
#257 = CYLINDRICAL_SURFACE('',#258,6.);
#258 = AXIS2_PLACEMENT_3D('',#259,#260,#261);
#259 = CARTESIAN_POINT('',(41.,-19.7,152.5));
#260 = DIRECTION('',(-0.,-1.,-2.2E-16));
#261 = DIRECTION('',(1.,0.,0.));
#262 = ADVANCED_FACE('',(#263),#269,.T.);
#263 = FACE_BOUND('',#264,.T.);
#264 = EDGE_LOOP('',(#265,#266,#267,#268));
#265 = ORIENTED_EDGE('',*,*,#190,.F.);
#266 = ORIENTED_EDGE('',*,*,#101,.F.);
#267 = ORIENTED_EDGE('',*,*,#123,.T.);
#268 = ORIENTED_EDGE('',*,*,#232,.F.);
#269 = PLANE('',#270);
#270 = AXIS2_PLACEMENT_3D('',#271,#272,#273);
#271 = CARTESIAN_POINT('',(42.817233252424,-17.05,149.65));
#272 = DIRECTION('',(0.,-2.2E-16,1.));
#273 = DIRECTION('',(1.,0.,0.));
#274 = ADVANCED_FACE('',(#275),#294,.F.);
#275 = FACE_BOUND('',#276,.T.);
#276 = EDGE_LOOP('',(#277,#286,#292,#293));
#277 = ORIENTED_EDGE('',*,*,#278,.T.);
#278 = EDGE_CURVE('',#279,#279,#281,.T.);
#279 = VERTEX_POINT('',#280);
#280 = CARTESIAN_POINT('',(42.65,-19.7,152.5));
#281 = CIRCLE('',#282,1.65);
#282 = AXIS2_PLACEMENT_3D('',#283,#284,#285);
#283 = CARTESIAN_POINT('',(41.,-19.7,152.5));
#284 = DIRECTION('',(0.,-1.,-2.2E-16));
#285 = DIRECTION('',(1.,0.,0.));
#286 = ORIENTED_EDGE('',*,*,#287,.T.);
#287 = EDGE_CURVE('',#279,#153,#288,.T.);
#288 = LINE('',#289,#290);
#289 = CARTESIAN_POINT('',(42.65,-19.8,152.5));
#290 = VECTOR('',#291,1.);
#291 = DIRECTION('',(0.,1.,2.2E-16));
#292 = ORIENTED_EDGE('',*,*,#152,.F.);
#293 = ORIENTED_EDGE('',*,*,#287,.F.);
#294 = CYLINDRICAL_SURFACE('',#295,1.65);
#295 = AXIS2_PLACEMENT_3D('',#296,#297,#298);
#296 = CARTESIAN_POINT('',(41.,-19.8,152.5));
#297 = DIRECTION('',(-0.,-1.,-2.2E-16));
#298 = DIRECTION('',(1.,0.,0.));
#299 = ADVANCED_FACE('',(#300),#319,.F.);
#300 = FACE_BOUND('',#301,.T.);
#301 = EDGE_LOOP('',(#302,#303,#311,#318));
#302 = ORIENTED_EDGE('',*,*,#198,.T.);
#303 = ORIENTED_EDGE('',*,*,#304,.T.);
#304 = EDGE_CURVE('',#199,#305,#307,.T.);
#305 = VERTEX_POINT('',#306);
#306 = CARTESIAN_POINT('',(42.65,-15.7,152.5));
#307 = LINE('',#308,#309);
#308 = CARTESIAN_POINT('',(42.65,-19.8,152.5));
#309 = VECTOR('',#310,1.);
#310 = DIRECTION('',(0.,1.,2.2E-16));
#311 = ORIENTED_EDGE('',*,*,#312,.T.);
#312 = EDGE_CURVE('',#305,#305,#313,.T.);
#313 = CIRCLE('',#314,1.65);
#314 = AXIS2_PLACEMENT_3D('',#315,#316,#317);
#315 = CARTESIAN_POINT('',(41.,-15.7,152.5));
#316 = DIRECTION('',(-0.,1.,2.2E-16));
#317 = DIRECTION('',(1.,0.,0.));
#318 = ORIENTED_EDGE('',*,*,#304,.F.);
#319 = CYLINDRICAL_SURFACE('',#320,1.65);
#320 = AXIS2_PLACEMENT_3D('',#321,#322,#323);
#321 = CARTESIAN_POINT('',(41.,-19.8,152.5));
#322 = DIRECTION('',(-0.,-1.,-2.2E-16));
#323 = DIRECTION('',(1.,0.,0.));
#324 = ADVANCED_FACE('',(#325,#375,#386,#397,#400,#411,#422,#433),#444,
  .F.);
#325 = FACE_BOUND('',#326,.F.);
#326 = EDGE_LOOP('',(#327,#337,#345,#353,#361,#369));
#327 = ORIENTED_EDGE('',*,*,#328,.F.);
#328 = EDGE_CURVE('',#329,#331,#333,.T.);
#329 = VERTEX_POINT('',#330);
#330 = CARTESIAN_POINT('',(53.2,-15.5,140.8));
#331 = VERTEX_POINT('',#332);
#332 = CARTESIAN_POINT('',(53.2,-15.5,214.2));
#333 = LINE('',#334,#335);
#334 = CARTESIAN_POINT('',(53.2,-15.5,140.8));
#335 = VECTOR('',#336,1.);
#336 = DIRECTION('',(0.,-2.2E-16,1.));
#337 = ORIENTED_EDGE('',*,*,#338,.F.);
#338 = EDGE_CURVE('',#339,#329,#341,.T.);
#339 = VERTEX_POINT('',#340);
#340 = CARTESIAN_POINT('',(29.8,-15.5,140.8));
#341 = LINE('',#342,#343);
#342 = CARTESIAN_POINT('',(28.8,-15.5,140.8));
#343 = VECTOR('',#344,1.);
#344 = DIRECTION('',(1.,0.,0.));
#345 = ORIENTED_EDGE('',*,*,#346,.F.);
#346 = EDGE_CURVE('',#347,#339,#349,.T.);
#347 = VERTEX_POINT('',#348);
#348 = CARTESIAN_POINT('',(29.8,-15.5,145.3));
#349 = LINE('',#350,#351);
#350 = CARTESIAN_POINT('',(29.8,-15.5,140.4));
#351 = VECTOR('',#352,1.);
#352 = DIRECTION('',(0.,8.9E-16,-1.));
#353 = ORIENTED_EDGE('',*,*,#354,.F.);
#354 = EDGE_CURVE('',#355,#347,#357,.T.);
#355 = VERTEX_POINT('',#356);
#356 = CARTESIAN_POINT('',(28.8,-15.5,145.3));
#357 = LINE('',#358,#359);
#358 = CARTESIAN_POINT('',(28.4,-15.5,145.3));
#359 = VECTOR('',#360,1.);
#360 = DIRECTION('',(1.,0.,0.));
#361 = ORIENTED_EDGE('',*,*,#362,.T.);
#362 = EDGE_CURVE('',#355,#363,#365,.T.);
#363 = VERTEX_POINT('',#364);
#364 = CARTESIAN_POINT('',(28.8,-15.5,214.2));
#365 = LINE('',#366,#367);
#366 = CARTESIAN_POINT('',(28.8,-15.5,140.8));
#367 = VECTOR('',#368,1.);
#368 = DIRECTION('',(0.,-2.2E-16,1.));
#369 = ORIENTED_EDGE('',*,*,#370,.T.);
#370 = EDGE_CURVE('',#363,#331,#371,.T.);
#371 = LINE('',#372,#373);
#372 = CARTESIAN_POINT('',(28.8,-15.5,214.2));
#373 = VECTOR('',#374,1.);
#374 = DIRECTION('',(1.,0.,0.));
#375 = FACE_BOUND('',#376,.F.);
#376 = EDGE_LOOP('',(#377));
#377 = ORIENTED_EDGE('',*,*,#378,.F.);
#378 = EDGE_CURVE('',#379,#379,#381,.T.);
#379 = VERTEX_POINT('',#380);
#380 = CARTESIAN_POINT('',(34.15,-15.5,145.));
#381 = CIRCLE('',#382,1.15);
#382 = AXIS2_PLACEMENT_3D('',#383,#384,#385);
#383 = CARTESIAN_POINT('',(33.,-15.5,145.));
#384 = DIRECTION('',(-0.,1.,2.2E-16));
#385 = DIRECTION('',(1.,0.,0.));
#386 = FACE_BOUND('',#387,.F.);
#387 = EDGE_LOOP('',(#388));
#388 = ORIENTED_EDGE('',*,*,#389,.F.);
#389 = EDGE_CURVE('',#390,#390,#392,.T.);
#390 = VERTEX_POINT('',#391);
#391 = CARTESIAN_POINT('',(34.15,-15.5,180.));
#392 = CIRCLE('',#393,1.15);
#393 = AXIS2_PLACEMENT_3D('',#394,#395,#396);
#394 = CARTESIAN_POINT('',(33.,-15.5,180.));
#395 = DIRECTION('',(-0.,1.,2.2E-16));
#396 = DIRECTION('',(1.,0.,0.));
#397 = FACE_BOUND('',#398,.F.);
#398 = EDGE_LOOP('',(#399));
#399 = ORIENTED_EDGE('',*,*,#247,.T.);
#400 = FACE_BOUND('',#401,.F.);
#401 = EDGE_LOOP('',(#402));
#402 = ORIENTED_EDGE('',*,*,#403,.F.);
#403 = EDGE_CURVE('',#404,#404,#406,.T.);
#404 = VERTEX_POINT('',#405);
#405 = CARTESIAN_POINT('',(50.15,-15.5,145.));
#406 = CIRCLE('',#407,1.15);
#407 = AXIS2_PLACEMENT_3D('',#408,#409,#410);
#408 = CARTESIAN_POINT('',(49.,-15.5,145.));
#409 = DIRECTION('',(-0.,1.,2.2E-16));
#410 = DIRECTION('',(1.,0.,0.));
#411 = FACE_BOUND('',#412,.F.);
#412 = EDGE_LOOP('',(#413));
#413 = ORIENTED_EDGE('',*,*,#414,.F.);
#414 = EDGE_CURVE('',#415,#415,#417,.T.);
#415 = VERTEX_POINT('',#416);
#416 = CARTESIAN_POINT('',(50.15,-15.5,175.));
#417 = CIRCLE('',#418,1.15);
#418 = AXIS2_PLACEMENT_3D('',#419,#420,#421);
#419 = CARTESIAN_POINT('',(49.,-15.5,175.));
#420 = DIRECTION('',(-0.,1.,2.2E-16));
#421 = DIRECTION('',(1.,0.,0.));
#422 = FACE_BOUND('',#423,.F.);
#423 = EDGE_LOOP('',(#424));
#424 = ORIENTED_EDGE('',*,*,#425,.F.);
#425 = EDGE_CURVE('',#426,#426,#428,.T.);
#426 = VERTEX_POINT('',#427);
#427 = CARTESIAN_POINT('',(50.15,-15.5,180.));
#428 = CIRCLE('',#429,1.15);
#429 = AXIS2_PLACEMENT_3D('',#430,#431,#432);
#430 = CARTESIAN_POINT('',(49.,-15.5,180.));
#431 = DIRECTION('',(-0.,1.,2.2E-16));
#432 = DIRECTION('',(1.,0.,0.));
#433 = FACE_BOUND('',#434,.F.);
#434 = EDGE_LOOP('',(#435));
#435 = ORIENTED_EDGE('',*,*,#436,.F.);
#436 = EDGE_CURVE('',#437,#437,#439,.T.);
#437 = VERTEX_POINT('',#438);
#438 = CARTESIAN_POINT('',(50.15,-15.5,210.));
#439 = CIRCLE('',#440,1.15);
#440 = AXIS2_PLACEMENT_3D('',#441,#442,#443);
#441 = CARTESIAN_POINT('',(49.,-15.5,210.));
#442 = DIRECTION('',(-0.,1.,2.2E-16));
#443 = DIRECTION('',(1.,0.,0.));
#444 = PLANE('',#445);
#445 = AXIS2_PLACEMENT_3D('',#446,#447,#448);
#446 = CARTESIAN_POINT('',(28.8,-15.5,140.8));
#447 = DIRECTION('',(0.,1.,2.2E-16));
#448 = DIRECTION('',(0.,-2.2E-16,1.));
#449 = ADVANCED_FACE('',(#450,#453),#456,.F.);
#450 = FACE_BOUND('',#451,.F.);
#451 = EDGE_LOOP('',(#452));
#452 = ORIENTED_EDGE('',*,*,#223,.T.);
#453 = FACE_BOUND('',#454,.F.);
#454 = EDGE_LOOP('',(#455));
#455 = ORIENTED_EDGE('',*,*,#278,.T.);
#456 = PLANE('',#457);
#457 = AXIS2_PLACEMENT_3D('',#458,#459,#460);
#458 = CARTESIAN_POINT('',(41.,-19.7,152.5));
#459 = DIRECTION('',(0.,1.,2.2E-16));
#460 = DIRECTION('',(1.,0.,0.));
#461 = ADVANCED_FACE('',(#462),#465,.F.);
#462 = FACE_BOUND('',#463,.T.);
#463 = EDGE_LOOP('',(#464));
#464 = ORIENTED_EDGE('',*,*,#312,.F.);
#465 = PLANE('',#466);
#466 = AXIS2_PLACEMENT_3D('',#467,#468,#469);
#467 = CARTESIAN_POINT('',(41.,-15.7,152.5));
#468 = DIRECTION('',(0.,1.,2.2E-16));
#469 = DIRECTION('',(1.,0.,0.));
#470 = ADVANCED_FACE('',(#471),#496,.T.);
#471 = FACE_BOUND('',#472,.T.);
#472 = EDGE_LOOP('',(#473,#474,#482,#490));
#473 = ORIENTED_EDGE('',*,*,#328,.F.);
#474 = ORIENTED_EDGE('',*,*,#475,.T.);
#475 = EDGE_CURVE('',#329,#476,#478,.T.);
#476 = VERTEX_POINT('',#477);
#477 = CARTESIAN_POINT('',(53.2,5.5,140.8));
#478 = LINE('',#479,#480);
#479 = CARTESIAN_POINT('',(53.2,-15.5,140.8));
#480 = VECTOR('',#481,1.);
#481 = DIRECTION('',(0.,1.,2.2E-16));
#482 = ORIENTED_EDGE('',*,*,#483,.T.);
#483 = EDGE_CURVE('',#476,#484,#486,.T.);
#484 = VERTEX_POINT('',#485);
#485 = CARTESIAN_POINT('',(53.2,5.5,214.2));
#486 = LINE('',#487,#488);
#487 = CARTESIAN_POINT('',(53.2,5.5,140.8));
#488 = VECTOR('',#489,1.);
#489 = DIRECTION('',(0.,-2.2E-16,1.));
#490 = ORIENTED_EDGE('',*,*,#491,.F.);
#491 = EDGE_CURVE('',#331,#484,#492,.T.);
#492 = LINE('',#493,#494);
#493 = CARTESIAN_POINT('',(53.2,-15.5,214.2));
#494 = VECTOR('',#495,1.);
#495 = DIRECTION('',(0.,1.,2.2E-16));
#496 = PLANE('',#497);
#497 = AXIS2_PLACEMENT_3D('',#498,#499,#500);
#498 = CARTESIAN_POINT('',(53.2,-5.,177.5));
#499 = DIRECTION('',(1.,0.,0.));
#500 = DIRECTION('',(0.,-2.2E-16,1.));
#501 = ADVANCED_FACE('',(#502),#536,.T.);
#502 = FACE_BOUND('',#503,.T.);
#503 = EDGE_LOOP('',(#504,#505,#513,#521,#529,#535));
#504 = ORIENTED_EDGE('',*,*,#338,.F.);
#505 = ORIENTED_EDGE('',*,*,#506,.F.);
#506 = EDGE_CURVE('',#507,#339,#509,.T.);
#507 = VERTEX_POINT('',#508);
#508 = CARTESIAN_POINT('',(29.8,-7.2,140.8));
#509 = LINE('',#510,#511);
#510 = CARTESIAN_POINT('',(29.8,-10.5,140.8));
#511 = VECTOR('',#512,1.);
#512 = DIRECTION('',(0.,-1.,-8.9E-16));
#513 = ORIENTED_EDGE('',*,*,#514,.F.);
#514 = EDGE_CURVE('',#515,#507,#517,.T.);
#515 = VERTEX_POINT('',#516);
#516 = CARTESIAN_POINT('',(28.8,-7.2,140.8));
#517 = LINE('',#518,#519);
#518 = CARTESIAN_POINT('',(34.5,-7.2,140.8));
#519 = VECTOR('',#520,1.);
#520 = DIRECTION('',(1.,0.,0.));
#521 = ORIENTED_EDGE('',*,*,#522,.T.);
#522 = EDGE_CURVE('',#515,#523,#525,.T.);
#523 = VERTEX_POINT('',#524);
#524 = CARTESIAN_POINT('',(28.8,5.5,140.8));
#525 = LINE('',#526,#527);
#526 = CARTESIAN_POINT('',(28.8,-15.5,140.8));
#527 = VECTOR('',#528,1.);
#528 = DIRECTION('',(0.,1.,2.2E-16));
#529 = ORIENTED_EDGE('',*,*,#530,.T.);
#530 = EDGE_CURVE('',#523,#476,#531,.T.);
#531 = LINE('',#532,#533);
#532 = CARTESIAN_POINT('',(28.8,5.5,140.8));
#533 = VECTOR('',#534,1.);
#534 = DIRECTION('',(1.,0.,0.));
#535 = ORIENTED_EDGE('',*,*,#475,.F.);
#536 = PLANE('',#537);
#537 = AXIS2_PLACEMENT_3D('',#538,#539,#540);
#538 = CARTESIAN_POINT('',(41.,-5.,140.8));
#539 = DIRECTION('',(-0.,2.2E-16,-1.));
#540 = DIRECTION('',(-1.,0.,0.));
#541 = ADVANCED_FACE('',(#542),#560,.T.);
#542 = FACE_BOUND('',#543,.T.);
#543 = EDGE_LOOP('',(#544,#545,#553,#559));
#544 = ORIENTED_EDGE('',*,*,#491,.T.);
#545 = ORIENTED_EDGE('',*,*,#546,.F.);
#546 = EDGE_CURVE('',#547,#484,#549,.T.);
#547 = VERTEX_POINT('',#548);
#548 = CARTESIAN_POINT('',(28.8,5.5,214.2));
#549 = LINE('',#550,#551);
#550 = CARTESIAN_POINT('',(51.2,5.5,214.2));
#551 = VECTOR('',#552,1.);
#552 = DIRECTION('',(1.,0.,0.));
#553 = ORIENTED_EDGE('',*,*,#554,.F.);
#554 = EDGE_CURVE('',#363,#547,#555,.T.);
#555 = LINE('',#556,#557);
#556 = CARTESIAN_POINT('',(28.8,-15.5,214.2));
#557 = VECTOR('',#558,1.);
#558 = DIRECTION('',(0.,1.,2.2E-16));
#559 = ORIENTED_EDGE('',*,*,#370,.T.);
#560 = PLANE('',#561);
#561 = AXIS2_PLACEMENT_3D('',#562,#563,#564);
#562 = CARTESIAN_POINT('',(41.,-5.,214.2));
#563 = DIRECTION('',(0.,-2.2E-16,1.));
#564 = DIRECTION('',(1.,0.,0.));
#565 = ADVANCED_FACE('',(#566),#584,.F.);
#566 = FACE_BOUND('',#567,.F.);
#567 = EDGE_LOOP('',(#568,#576,#577,#578));
#568 = ORIENTED_EDGE('',*,*,#569,.F.);
#569 = EDGE_CURVE('',#347,#570,#572,.T.);
#570 = VERTEX_POINT('',#571);
#571 = CARTESIAN_POINT('',(29.8,-7.2,145.3));
#572 = LINE('',#573,#574);
#573 = CARTESIAN_POINT('',(29.8,-16.,145.3));
#574 = VECTOR('',#575,1.);
#575 = DIRECTION('',(0.,1.,2.2E-16));
#576 = ORIENTED_EDGE('',*,*,#346,.T.);
#577 = ORIENTED_EDGE('',*,*,#506,.F.);
#578 = ORIENTED_EDGE('',*,*,#579,.T.);
#579 = EDGE_CURVE('',#507,#570,#580,.T.);
#580 = LINE('',#581,#582);
#581 = CARTESIAN_POINT('',(29.8,-7.2,140.));
#582 = VECTOR('',#583,1.);
#583 = DIRECTION('',(0.,-2.2E-16,1.));
#584 = PLANE('',#585);
#585 = AXIS2_PLACEMENT_3D('',#586,#587,#588);
#586 = CARTESIAN_POINT('',(29.8,-16.,140.));
#587 = DIRECTION('',(1.,0.,0.));
#588 = DIRECTION('',(0.,-2.2E-16,1.));
#589 = ADVANCED_FACE('',(#590),#615,.T.);
#590 = FACE_BOUND('',#591,.T.);
#591 = EDGE_LOOP('',(#592,#598,#599,#607,#613,#614));
#592 = ORIENTED_EDGE('',*,*,#593,.F.);
#593 = EDGE_CURVE('',#523,#547,#594,.T.);
#594 = LINE('',#595,#596);
#595 = CARTESIAN_POINT('',(28.8,5.5,140.8));
#596 = VECTOR('',#597,1.);
#597 = DIRECTION('',(0.,-2.2E-16,1.));
#598 = ORIENTED_EDGE('',*,*,#522,.F.);
#599 = ORIENTED_EDGE('',*,*,#600,.F.);
#600 = EDGE_CURVE('',#601,#515,#603,.T.);
#601 = VERTEX_POINT('',#602);
#602 = CARTESIAN_POINT('',(28.8,-7.2,145.3));
#603 = LINE('',#604,#605);
#604 = CARTESIAN_POINT('',(28.8,-7.2,158.75));
#605 = VECTOR('',#606,1.);
#606 = DIRECTION('',(0.,2.2E-16,-1.));
#607 = ORIENTED_EDGE('',*,*,#608,.F.);
#608 = EDGE_CURVE('',#355,#601,#609,.T.);
#609 = LINE('',#610,#611);
#610 = CARTESIAN_POINT('',(28.8,-10.5,145.3));
#611 = VECTOR('',#612,1.);
#612 = DIRECTION('',(0.,1.,2.2E-16));
#613 = ORIENTED_EDGE('',*,*,#362,.T.);
#614 = ORIENTED_EDGE('',*,*,#554,.T.);
#615 = PLANE('',#616);
#616 = AXIS2_PLACEMENT_3D('',#617,#618,#619);
#617 = CARTESIAN_POINT('',(28.8,-5.,177.5));
#618 = DIRECTION('',(-1.,-0.,0.));
#619 = DIRECTION('',(0.,2.2E-16,-1.));
#620 = ADVANCED_FACE('',(#621),#632,.F.);
#621 = FACE_BOUND('',#622,.F.);
#622 = EDGE_LOOP('',(#623,#629,#630,#631));
#623 = ORIENTED_EDGE('',*,*,#624,.F.);
#624 = EDGE_CURVE('',#601,#570,#625,.T.);
#625 = LINE('',#626,#627);
#626 = CARTESIAN_POINT('',(28.,-7.2,145.3));
#627 = VECTOR('',#628,1.);
#628 = DIRECTION('',(1.,0.,0.));
#629 = ORIENTED_EDGE('',*,*,#608,.F.);
#630 = ORIENTED_EDGE('',*,*,#354,.T.);
#631 = ORIENTED_EDGE('',*,*,#569,.T.);
#632 = PLANE('',#633);
#633 = AXIS2_PLACEMENT_3D('',#634,#635,#636);
#634 = CARTESIAN_POINT('',(28.,-16.,145.3));
#635 = DIRECTION('',(0.,-2.2E-16,1.));
#636 = DIRECTION('',(1.,0.,0.));
#637 = ADVANCED_FACE('',(#638),#657,.F.);
#638 = FACE_BOUND('',#639,.T.);
#639 = EDGE_LOOP('',(#640,#641,#649,#656));
#640 = ORIENTED_EDGE('',*,*,#378,.F.);
#641 = ORIENTED_EDGE('',*,*,#642,.T.);
#642 = EDGE_CURVE('',#379,#643,#645,.T.);
#643 = VERTEX_POINT('',#644);
#644 = CARTESIAN_POINT('',(34.15,-13.7,145.));
#645 = LINE('',#646,#647);
#646 = CARTESIAN_POINT('',(34.15,-15.5,145.));
#647 = VECTOR('',#648,1.);
#648 = DIRECTION('',(0.,1.,2.2E-16));
#649 = ORIENTED_EDGE('',*,*,#650,.F.);
#650 = EDGE_CURVE('',#643,#643,#651,.T.);
#651 = CIRCLE('',#652,1.15);
#652 = AXIS2_PLACEMENT_3D('',#653,#654,#655);
#653 = CARTESIAN_POINT('',(33.,-13.7,145.));
#654 = DIRECTION('',(0.,-1.,-2.2E-16));
#655 = DIRECTION('',(1.,0.,0.));
#656 = ORIENTED_EDGE('',*,*,#642,.F.);
#657 = CYLINDRICAL_SURFACE('',#658,1.15);
#658 = AXIS2_PLACEMENT_3D('',#659,#660,#661);
#659 = CARTESIAN_POINT('',(33.,-15.5,145.));
#660 = DIRECTION('',(-0.,-1.,-2.2E-16));
#661 = DIRECTION('',(1.,0.,0.));
#662 = ADVANCED_FACE('',(#663),#682,.F.);
#663 = FACE_BOUND('',#664,.T.);
#664 = EDGE_LOOP('',(#665,#666,#674,#681));
#665 = ORIENTED_EDGE('',*,*,#389,.F.);
#666 = ORIENTED_EDGE('',*,*,#667,.T.);
#667 = EDGE_CURVE('',#390,#668,#670,.T.);
#668 = VERTEX_POINT('',#669);
#669 = CARTESIAN_POINT('',(34.15,-13.7,180.));
#670 = LINE('',#671,#672);
#671 = CARTESIAN_POINT('',(34.15,-15.5,180.));
#672 = VECTOR('',#673,1.);
#673 = DIRECTION('',(0.,1.,2.2E-16));
#674 = ORIENTED_EDGE('',*,*,#675,.F.);
#675 = EDGE_CURVE('',#668,#668,#676,.T.);
#676 = CIRCLE('',#677,1.15);
#677 = AXIS2_PLACEMENT_3D('',#678,#679,#680);
#678 = CARTESIAN_POINT('',(33.,-13.7,180.));
#679 = DIRECTION('',(0.,-1.,-2.2E-16));
#680 = DIRECTION('',(1.,0.,0.));
#681 = ORIENTED_EDGE('',*,*,#667,.F.);
#682 = CYLINDRICAL_SURFACE('',#683,1.15);
#683 = AXIS2_PLACEMENT_3D('',#684,#685,#686);
#684 = CARTESIAN_POINT('',(33.,-15.5,180.));
#685 = DIRECTION('',(-0.,-1.,-2.2E-16));
#686 = DIRECTION('',(1.,0.,0.));
#687 = ADVANCED_FACE('',(#688),#707,.F.);
#688 = FACE_BOUND('',#689,.T.);
#689 = EDGE_LOOP('',(#690,#691,#699,#706));
#690 = ORIENTED_EDGE('',*,*,#403,.F.);
#691 = ORIENTED_EDGE('',*,*,#692,.T.);
#692 = EDGE_CURVE('',#404,#693,#695,.T.);
#693 = VERTEX_POINT('',#694);
#694 = CARTESIAN_POINT('',(50.15,-13.7,145.));
#695 = LINE('',#696,#697);
#696 = CARTESIAN_POINT('',(50.15,-15.5,145.));
#697 = VECTOR('',#698,1.);
#698 = DIRECTION('',(0.,1.,2.2E-16));
#699 = ORIENTED_EDGE('',*,*,#700,.F.);
#700 = EDGE_CURVE('',#693,#693,#701,.T.);
#701 = CIRCLE('',#702,1.15);
#702 = AXIS2_PLACEMENT_3D('',#703,#704,#705);
#703 = CARTESIAN_POINT('',(49.,-13.7,145.));
#704 = DIRECTION('',(0.,-1.,-2.2E-16));
#705 = DIRECTION('',(1.,0.,0.));
#706 = ORIENTED_EDGE('',*,*,#692,.F.);
#707 = CYLINDRICAL_SURFACE('',#708,1.15);
#708 = AXIS2_PLACEMENT_3D('',#709,#710,#711);
#709 = CARTESIAN_POINT('',(49.,-15.5,145.));
#710 = DIRECTION('',(-0.,-1.,-2.2E-16));
#711 = DIRECTION('',(1.,0.,0.));
#712 = ADVANCED_FACE('',(#713),#732,.F.);
#713 = FACE_BOUND('',#714,.T.);
#714 = EDGE_LOOP('',(#715,#716,#724,#731));
#715 = ORIENTED_EDGE('',*,*,#414,.F.);
#716 = ORIENTED_EDGE('',*,*,#717,.T.);
#717 = EDGE_CURVE('',#415,#718,#720,.T.);
#718 = VERTEX_POINT('',#719);
#719 = CARTESIAN_POINT('',(50.15,-13.7,175.));
#720 = LINE('',#721,#722);
#721 = CARTESIAN_POINT('',(50.15,-15.5,175.));
#722 = VECTOR('',#723,1.);
#723 = DIRECTION('',(0.,1.,2.2E-16));
#724 = ORIENTED_EDGE('',*,*,#725,.F.);
#725 = EDGE_CURVE('',#718,#718,#726,.T.);
#726 = CIRCLE('',#727,1.15);
#727 = AXIS2_PLACEMENT_3D('',#728,#729,#730);
#728 = CARTESIAN_POINT('',(49.,-13.7,175.));
#729 = DIRECTION('',(0.,-1.,-2.2E-16));
#730 = DIRECTION('',(1.,0.,0.));
#731 = ORIENTED_EDGE('',*,*,#717,.F.);
#732 = CYLINDRICAL_SURFACE('',#733,1.15);
#733 = AXIS2_PLACEMENT_3D('',#734,#735,#736);
#734 = CARTESIAN_POINT('',(49.,-15.5,175.));
#735 = DIRECTION('',(-0.,-1.,-2.2E-16));
#736 = DIRECTION('',(1.,0.,0.));
#737 = ADVANCED_FACE('',(#738),#757,.F.);
#738 = FACE_BOUND('',#739,.T.);
#739 = EDGE_LOOP('',(#740,#741,#749,#756));
#740 = ORIENTED_EDGE('',*,*,#425,.F.);
#741 = ORIENTED_EDGE('',*,*,#742,.T.);
#742 = EDGE_CURVE('',#426,#743,#745,.T.);
#743 = VERTEX_POINT('',#744);
#744 = CARTESIAN_POINT('',(50.15,-13.7,180.));
#745 = LINE('',#746,#747);
#746 = CARTESIAN_POINT('',(50.15,-15.5,180.));
#747 = VECTOR('',#748,1.);
#748 = DIRECTION('',(0.,1.,2.2E-16));
#749 = ORIENTED_EDGE('',*,*,#750,.F.);
#750 = EDGE_CURVE('',#743,#743,#751,.T.);
#751 = CIRCLE('',#752,1.15);
#752 = AXIS2_PLACEMENT_3D('',#753,#754,#755);
#753 = CARTESIAN_POINT('',(49.,-13.7,180.));
#754 = DIRECTION('',(0.,-1.,-2.2E-16));
#755 = DIRECTION('',(1.,0.,0.));
#756 = ORIENTED_EDGE('',*,*,#742,.F.);
#757 = CYLINDRICAL_SURFACE('',#758,1.15);
#758 = AXIS2_PLACEMENT_3D('',#759,#760,#761);
#759 = CARTESIAN_POINT('',(49.,-15.5,180.));
#760 = DIRECTION('',(-0.,-1.,-2.2E-16));
#761 = DIRECTION('',(1.,0.,0.));
#762 = ADVANCED_FACE('',(#763),#782,.F.);
#763 = FACE_BOUND('',#764,.T.);
#764 = EDGE_LOOP('',(#765,#766,#774,#781));
#765 = ORIENTED_EDGE('',*,*,#436,.F.);
#766 = ORIENTED_EDGE('',*,*,#767,.T.);
#767 = EDGE_CURVE('',#437,#768,#770,.T.);
#768 = VERTEX_POINT('',#769);
#769 = CARTESIAN_POINT('',(50.15,-13.7,210.));
#770 = LINE('',#771,#772);
#771 = CARTESIAN_POINT('',(50.15,-15.5,210.));
#772 = VECTOR('',#773,1.);
#773 = DIRECTION('',(0.,1.,2.2E-16));
#774 = ORIENTED_EDGE('',*,*,#775,.F.);
#775 = EDGE_CURVE('',#768,#768,#776,.T.);
#776 = CIRCLE('',#777,1.15);
#777 = AXIS2_PLACEMENT_3D('',#778,#779,#780);
#778 = CARTESIAN_POINT('',(49.,-13.7,210.));
#779 = DIRECTION('',(0.,-1.,-2.2E-16));
#780 = DIRECTION('',(1.,0.,0.));
#781 = ORIENTED_EDGE('',*,*,#767,.F.);
#782 = CYLINDRICAL_SURFACE('',#783,1.15);
#783 = AXIS2_PLACEMENT_3D('',#784,#785,#786);
#784 = CARTESIAN_POINT('',(49.,-15.5,210.));
#785 = DIRECTION('',(-0.,-1.,-2.2E-16));
#786 = DIRECTION('',(1.,0.,0.));
#787 = ADVANCED_FACE('',(#788,#794),#828,.T.);
#788 = FACE_BOUND('',#789,.T.);
#789 = EDGE_LOOP('',(#790,#791,#792,#793));
#790 = ORIENTED_EDGE('',*,*,#483,.F.);
#791 = ORIENTED_EDGE('',*,*,#530,.F.);
#792 = ORIENTED_EDGE('',*,*,#593,.T.);
#793 = ORIENTED_EDGE('',*,*,#546,.T.);
#794 = FACE_BOUND('',#795,.T.);
#795 = EDGE_LOOP('',(#796,#806,#814,#822));
#796 = ORIENTED_EDGE('',*,*,#797,.F.);
#797 = EDGE_CURVE('',#798,#800,#802,.T.);
#798 = VERTEX_POINT('',#799);
#799 = CARTESIAN_POINT('',(30.8,5.5,212.2));
#800 = VERTEX_POINT('',#801);
#801 = CARTESIAN_POINT('',(51.2,5.5,212.2));
#802 = LINE('',#803,#804);
#803 = CARTESIAN_POINT('',(28.8,5.5,212.2));
#804 = VECTOR('',#805,1.);
#805 = DIRECTION('',(1.,0.,0.));
#806 = ORIENTED_EDGE('',*,*,#807,.F.);
#807 = EDGE_CURVE('',#808,#798,#810,.T.);
#808 = VERTEX_POINT('',#809);
#809 = CARTESIAN_POINT('',(30.8,5.5,142.8));
#810 = LINE('',#811,#812);
#811 = CARTESIAN_POINT('',(30.8,5.5,140.8));
#812 = VECTOR('',#813,1.);
#813 = DIRECTION('',(0.,-2.2E-16,1.));
#814 = ORIENTED_EDGE('',*,*,#815,.T.);
#815 = EDGE_CURVE('',#808,#816,#818,.T.);
#816 = VERTEX_POINT('',#817);
#817 = CARTESIAN_POINT('',(51.2,5.5,142.8));
#818 = LINE('',#819,#820);
#819 = CARTESIAN_POINT('',(28.8,5.5,142.8));
#820 = VECTOR('',#821,1.);
#821 = DIRECTION('',(1.,0.,0.));
#822 = ORIENTED_EDGE('',*,*,#823,.T.);
#823 = EDGE_CURVE('',#816,#800,#824,.T.);
#824 = LINE('',#825,#826);
#825 = CARTESIAN_POINT('',(51.2,5.5,140.8));
#826 = VECTOR('',#827,1.);
#827 = DIRECTION('',(0.,-2.2E-16,1.));
#828 = PLANE('',#829);
#829 = AXIS2_PLACEMENT_3D('',#830,#831,#832);
#830 = CARTESIAN_POINT('',(41.,5.5,177.5));
#831 = DIRECTION('',(0.,1.,2.2E-16));
#832 = DIRECTION('',(0.,-2.2E-16,1.));
#833 = ADVANCED_FACE('',(#834),#840,.F.);
#834 = FACE_BOUND('',#835,.F.);
#835 = EDGE_LOOP('',(#836,#837,#838,#839));
#836 = ORIENTED_EDGE('',*,*,#579,.F.);
#837 = ORIENTED_EDGE('',*,*,#514,.F.);
#838 = ORIENTED_EDGE('',*,*,#600,.F.);
#839 = ORIENTED_EDGE('',*,*,#624,.T.);
#840 = PLANE('',#841);
#841 = AXIS2_PLACEMENT_3D('',#842,#843,#844);
#842 = CARTESIAN_POINT('',(28.,-7.2,140.));
#843 = DIRECTION('',(0.,1.,2.2E-16));
#844 = DIRECTION('',(0.,-2.2E-16,1.));
#845 = ADVANCED_FACE('',(#846,#880,#883,#886,#889,#892,#895),#898,.T.);
#846 = FACE_BOUND('',#847,.T.);
#847 = EDGE_LOOP('',(#848,#858,#866,#874));
#848 = ORIENTED_EDGE('',*,*,#849,.F.);
#849 = EDGE_CURVE('',#850,#852,#854,.T.);
#850 = VERTEX_POINT('',#851);
#851 = CARTESIAN_POINT('',(30.8,-13.7,142.8));
#852 = VERTEX_POINT('',#853);
#853 = CARTESIAN_POINT('',(51.2,-13.7,142.8));
#854 = LINE('',#855,#856);
#855 = CARTESIAN_POINT('',(28.8,-13.7,142.8));
#856 = VECTOR('',#857,1.);
#857 = DIRECTION('',(1.,0.,0.));
#858 = ORIENTED_EDGE('',*,*,#859,.F.);
#859 = EDGE_CURVE('',#860,#850,#862,.T.);
#860 = VERTEX_POINT('',#861);
#861 = CARTESIAN_POINT('',(30.8,-13.7,212.2));
#862 = LINE('',#863,#864);
#863 = CARTESIAN_POINT('',(30.8,-13.7,140.8));
#864 = VECTOR('',#865,1.);
#865 = DIRECTION('',(0.,2.2E-16,-1.));
#866 = ORIENTED_EDGE('',*,*,#867,.T.);
#867 = EDGE_CURVE('',#860,#868,#870,.T.);
#868 = VERTEX_POINT('',#869);
#869 = CARTESIAN_POINT('',(51.2,-13.7,212.2));
#870 = LINE('',#871,#872);
#871 = CARTESIAN_POINT('',(28.8,-13.7,212.2));
#872 = VECTOR('',#873,1.);
#873 = DIRECTION('',(1.,0.,0.));
#874 = ORIENTED_EDGE('',*,*,#875,.T.);
#875 = EDGE_CURVE('',#868,#852,#876,.T.);
#876 = LINE('',#877,#878);
#877 = CARTESIAN_POINT('',(51.2,-13.7,140.8));
#878 = VECTOR('',#879,1.);
#879 = DIRECTION('',(0.,2.2E-16,-1.));
#880 = FACE_BOUND('',#881,.T.);
#881 = EDGE_LOOP('',(#882));
#882 = ORIENTED_EDGE('',*,*,#650,.T.);
#883 = FACE_BOUND('',#884,.T.);
#884 = EDGE_LOOP('',(#885));
#885 = ORIENTED_EDGE('',*,*,#675,.T.);
#886 = FACE_BOUND('',#887,.T.);
#887 = EDGE_LOOP('',(#888));
#888 = ORIENTED_EDGE('',*,*,#700,.T.);
#889 = FACE_BOUND('',#890,.T.);
#890 = EDGE_LOOP('',(#891));
#891 = ORIENTED_EDGE('',*,*,#725,.T.);
#892 = FACE_BOUND('',#893,.T.);
#893 = EDGE_LOOP('',(#894));
#894 = ORIENTED_EDGE('',*,*,#750,.T.);
#895 = FACE_BOUND('',#896,.T.);
#896 = EDGE_LOOP('',(#897));
#897 = ORIENTED_EDGE('',*,*,#775,.T.);
#898 = PLANE('',#899);
#899 = AXIS2_PLACEMENT_3D('',#900,#901,#902);
#900 = CARTESIAN_POINT('',(28.8,-13.7,140.8));
#901 = DIRECTION('',(0.,1.,2.2E-16));
#902 = DIRECTION('',(0.,-2.2E-16,1.));
#903 = ADVANCED_FACE('',(#904),#920,.F.);
#904 = FACE_BOUND('',#905,.F.);
#905 = EDGE_LOOP('',(#906,#907,#913,#914));
#906 = ORIENTED_EDGE('',*,*,#797,.F.);
#907 = ORIENTED_EDGE('',*,*,#908,.T.);
#908 = EDGE_CURVE('',#798,#860,#909,.T.);
#909 = LINE('',#910,#911);
#910 = CARTESIAN_POINT('',(30.8,-15.5,212.2));
#911 = VECTOR('',#912,1.);
#912 = DIRECTION('',(0.,-1.,-2.2E-16));
#913 = ORIENTED_EDGE('',*,*,#867,.T.);
#914 = ORIENTED_EDGE('',*,*,#915,.F.);
#915 = EDGE_CURVE('',#800,#868,#916,.T.);
#916 = LINE('',#917,#918);
#917 = CARTESIAN_POINT('',(51.2,-15.5,212.2));
#918 = VECTOR('',#919,1.);
#919 = DIRECTION('',(0.,-1.,-2.2E-16));
#920 = PLANE('',#921);
#921 = AXIS2_PLACEMENT_3D('',#922,#923,#924);
#922 = CARTESIAN_POINT('',(28.8,-15.5,212.2));
#923 = DIRECTION('',(0.,-2.2E-16,1.));
#924 = DIRECTION('',(1.,0.,0.));
#925 = ADVANCED_FACE('',(#926),#937,.T.);
#926 = FACE_BOUND('',#927,.T.);
#927 = EDGE_LOOP('',(#928,#929,#930,#936));
#928 = ORIENTED_EDGE('',*,*,#908,.T.);
#929 = ORIENTED_EDGE('',*,*,#859,.T.);
#930 = ORIENTED_EDGE('',*,*,#931,.F.);
#931 = EDGE_CURVE('',#808,#850,#932,.T.);
#932 = LINE('',#933,#934);
#933 = CARTESIAN_POINT('',(30.8,-15.5,142.8));
#934 = VECTOR('',#935,1.);
#935 = DIRECTION('',(0.,-1.,-2.2E-16));
#936 = ORIENTED_EDGE('',*,*,#807,.T.);
#937 = PLANE('',#938);
#938 = AXIS2_PLACEMENT_3D('',#939,#940,#941);
#939 = CARTESIAN_POINT('',(30.8,-15.5,140.8));
#940 = DIRECTION('',(1.,0.,0.));
#941 = DIRECTION('',(0.,-2.2E-16,1.));
#942 = ADVANCED_FACE('',(#943),#954,.T.);
#943 = FACE_BOUND('',#944,.T.);
#944 = EDGE_LOOP('',(#945,#946,#947,#948));
#945 = ORIENTED_EDGE('',*,*,#815,.F.);
#946 = ORIENTED_EDGE('',*,*,#931,.T.);
#947 = ORIENTED_EDGE('',*,*,#849,.T.);
#948 = ORIENTED_EDGE('',*,*,#949,.F.);
#949 = EDGE_CURVE('',#816,#852,#950,.T.);
#950 = LINE('',#951,#952);
#951 = CARTESIAN_POINT('',(51.2,-15.5,142.8));
#952 = VECTOR('',#953,1.);
#953 = DIRECTION('',(0.,-1.,-2.2E-16));
#954 = PLANE('',#955);
#955 = AXIS2_PLACEMENT_3D('',#956,#957,#958);
#956 = CARTESIAN_POINT('',(28.8,-15.5,142.8));
#957 = DIRECTION('',(0.,-2.2E-16,1.));
#958 = DIRECTION('',(1.,0.,0.));
#959 = ADVANCED_FACE('',(#960),#966,.F.);
#960 = FACE_BOUND('',#961,.F.);
#961 = EDGE_LOOP('',(#962,#963,#964,#965));
#962 = ORIENTED_EDGE('',*,*,#915,.T.);
#963 = ORIENTED_EDGE('',*,*,#875,.T.);
#964 = ORIENTED_EDGE('',*,*,#949,.F.);
#965 = ORIENTED_EDGE('',*,*,#823,.T.);
#966 = PLANE('',#967);
#967 = AXIS2_PLACEMENT_3D('',#968,#969,#970);
#968 = CARTESIAN_POINT('',(51.2,-15.5,140.8));
#969 = DIRECTION('',(1.,0.,0.));
#970 = DIRECTION('',(0.,-2.2E-16,1.));
#971 = ( GEOMETRIC_REPRESENTATION_CONTEXT(3) 
GLOBAL_UNCERTAINTY_ASSIGNED_CONTEXT((#975)) GLOBAL_UNIT_ASSIGNED_CONTEXT
((#972,#973,#974)) REPRESENTATION_CONTEXT('Context #1',
  '3D Context with UNIT and UNCERTAINTY') );
#972 = ( LENGTH_UNIT() NAMED_UNIT(*) SI_UNIT(.MILLI.,.METRE.) );
#973 = ( NAMED_UNIT(*) PLANE_ANGLE_UNIT() SI_UNIT($,.RADIAN.) );
#974 = ( NAMED_UNIT(*) SI_UNIT($,.STERADIAN.) SOLID_ANGLE_UNIT() );
#975 = UNCERTAINTY_MEASURE_WITH_UNIT(LENGTH_MEASURE(1.E-05),#972,
  'distance_accuracy_value','confusion accuracy');
#976 = PRODUCT_RELATED_PRODUCT_CATEGORY('part',$,(#7));
ENDSEC;
END-ISO-10303-21;
