ISO-10303-21;
HEADER;
FILE_DESCRIPTION(('FreeCAD Model'),'2;1');
FILE_NAME('Open CASCADE Shape Model','2026-10-09T09:09:12',('FreeCAD'),(
    'FreeCAD'),'Open CASCADE STEP processor 7.8','FreeCAD','Unknown');
FILE_SCHEMA(('AUTOMOTIVE_DESIGN { 1 0 10303 214 1 1 1 1 }'));
ENDSEC;
DATA;
#1 = APPLICATION_PROTOCOL_DEFINITION('international standard',
  'automotive_design',2000,#2);
#2 = APPLICATION_CONTEXT(
  'core data for automotive mechanical design processes');
#3 = SHAPE_DEFINITION_REPRESENTATION(#4,#10);
#4 = PRODUCT_DEFINITION_SHAPE('','',#5);
#5 = PRODUCT_DEFINITION('design','',#6,#9);
#6 = PRODUCT_DEFINITION_FORMATION('','',#7);
#7 = PRODUCT('Open CASCADE STEP translator 7.8 12',
  'Open CASCADE STEP translator 7.8 12','',(#8));
#8 = PRODUCT_CONTEXT('',#2,'mechanical');
#9 = PRODUCT_DEFINITION_CONTEXT('part definition',#2,'design');
#10 = ADVANCED_BREP_SHAPE_REPRESENTATION('',(#11,#15),#1461);
#11 = AXIS2_PLACEMENT_3D('',#12,#13,#14);
#12 = CARTESIAN_POINT('',(0.,0.,0.));
#13 = DIRECTION('',(0.,0.,1.));
#14 = DIRECTION('',(1.,0.,-0.));
#15 = MANIFOLD_SOLID_BREP('',#16);
#16 = CLOSED_SHELL('',(#17,#86,#102,#142,#280,#320,#344,#368,#392,#423,
    #447,#471,#511,#535,#575,#599,#639,#663,#696,#721,#752,#856,#880,
    #904,#926,#947,#964,#1020,#1053,#1092,#1117,#1181,#1205,#1229,#1246,
    #1263,#1280,#1297,#1314,#1334,#1344,#1369,#1394,#1406,#1447));
#17 = ADVANCED_FACE('',(#18),#81,.T.);
#18 = FACE_BOUND('',#19,.T.);
#19 = EDGE_LOOP('',(#20,#29,#37,#46,#55,#64,#73,#80));
#20 = ORIENTED_EDGE('',*,*,#21,.F.);
#21 = EDGE_CURVE('',#22,#22,#24,.T.);
#22 = VERTEX_POINT('',#23);
#23 = CARTESIAN_POINT('',(-7.75,-30.,38.5));
#24 = CIRCLE('',#25,10.);
#25 = AXIS2_PLACEMENT_3D('',#26,#27,#28);
#26 = CARTESIAN_POINT('',(-17.75,-30.,38.5));
#27 = DIRECTION('',(-0.,1.,0.));
#28 = DIRECTION('',(1.,0.,0.));
#29 = ORIENTED_EDGE('',*,*,#30,.T.);
#30 = EDGE_CURVE('',#22,#31,#33,.T.);
#31 = VERTEX_POINT('',#32);
#32 = CARTESIAN_POINT('',(-7.75,-34.,38.5));
#33 = LINE('',#34,#35);
#34 = CARTESIAN_POINT('',(-7.75,-30.,38.5));
#35 = VECTOR('',#36,1.);
#36 = DIRECTION('',(-0.,-1.,0.));
#37 = ORIENTED_EDGE('',*,*,#38,.T.);
#38 = EDGE_CURVE('',#31,#39,#41,.T.);
#39 = VERTEX_POINT('',#40);
#40 = CARTESIAN_POINT('',(-10.0600896713,-34.,32.107404350611));
#41 = CIRCLE('',#42,10.);
#42 = AXIS2_PLACEMENT_3D('',#43,#44,#45);
#43 = CARTESIAN_POINT('',(-17.75,-34.,38.5));
#44 = DIRECTION('',(-0.,1.,0.));
#45 = DIRECTION('',(1.,0.,0.));
#46 = ORIENTED_EDGE('',*,*,#47,.T.);
#47 = EDGE_CURVE('',#39,#48,#50,.T.);
#48 = VERTEX_POINT('',#49);
#49 = CARTESIAN_POINT('',(-10.87508704387,-34.,31.238073819867));
#50 = CIRCLE('',#51,10.);
#51 = AXIS2_PLACEMENT_3D('',#52,#53,#54);
#52 = CARTESIAN_POINT('',(-17.75,-34.,38.5));
#53 = DIRECTION('',(-0.,1.,0.));
#54 = DIRECTION('',(1.,0.,0.));
#55 = ORIENTED_EDGE('',*,*,#56,.T.);
#56 = EDGE_CURVE('',#48,#57,#59,.T.);
#57 = VERTEX_POINT('',#58);
#58 = CARTESIAN_POINT('',(-24.62491295612,-34.,31.238073819867));
#59 = CIRCLE('',#60,10.);
#60 = AXIS2_PLACEMENT_3D('',#61,#62,#63);
#61 = CARTESIAN_POINT('',(-17.75,-34.,38.5));
#62 = DIRECTION('',(-0.,1.,0.));
#63 = DIRECTION('',(1.,0.,0.));
#64 = ORIENTED_EDGE('',*,*,#65,.T.);
#65 = EDGE_CURVE('',#57,#66,#68,.T.);
#66 = VERTEX_POINT('',#67);
#67 = CARTESIAN_POINT('',(-25.43991032869,-34.,32.107404350611));
#68 = CIRCLE('',#69,10.);
#69 = AXIS2_PLACEMENT_3D('',#70,#71,#72);
#70 = CARTESIAN_POINT('',(-17.75,-34.,38.5));
#71 = DIRECTION('',(-0.,1.,0.));
#72 = DIRECTION('',(1.,0.,0.));
#73 = ORIENTED_EDGE('',*,*,#74,.T.);
#74 = EDGE_CURVE('',#66,#31,#75,.T.);
#75 = CIRCLE('',#76,10.);
#76 = AXIS2_PLACEMENT_3D('',#77,#78,#79);
#77 = CARTESIAN_POINT('',(-17.75,-34.,38.5));
#78 = DIRECTION('',(-0.,1.,0.));
#79 = DIRECTION('',(1.,0.,0.));
#80 = ORIENTED_EDGE('',*,*,#30,.F.);
#81 = CYLINDRICAL_SURFACE('',#82,10.);
#82 = AXIS2_PLACEMENT_3D('',#83,#84,#85);
#83 = CARTESIAN_POINT('',(-17.75,-30.,38.5));
#84 = DIRECTION('',(0.,1.,0.));
#85 = DIRECTION('',(1.,0.,0.));
#86 = ADVANCED_FACE('',(#87),#97,.T.);
#87 = FACE_BOUND('',#88,.F.);
#88 = EDGE_LOOP('',(#89,#90));
#89 = ORIENTED_EDGE('',*,*,#65,.T.);
#90 = ORIENTED_EDGE('',*,*,#91,.T.);
#91 = EDGE_CURVE('',#66,#57,#92,.T.);
#92 = CIRCLE('',#93,1.15);
#93 = AXIS2_PLACEMENT_3D('',#94,#95,#96);
#94 = CARTESIAN_POINT('',(-25.75,-34.,31.));
#95 = DIRECTION('',(-0.,1.,0.));
#96 = DIRECTION('',(1.,0.,0.));
#97 = PLANE('',#98);
#98 = AXIS2_PLACEMENT_3D('',#99,#100,#101);
#99 = CARTESIAN_POINT('',(-17.75,-34.,38.5));
#100 = DIRECTION('',(-0.,-1.,0.));
#101 = DIRECTION('',(-1.,0.,-0.));
#102 = ADVANCED_FACE('',(#103),#137,.T.);
#103 = FACE_BOUND('',#104,.F.);
#104 = EDGE_LOOP('',(#105,#115,#123,#131));
#105 = ORIENTED_EDGE('',*,*,#106,.F.);
#106 = EDGE_CURVE('',#107,#109,#111,.T.);
#107 = VERTEX_POINT('',#108);
#108 = CARTESIAN_POINT('',(-32.,-42.,73.));
#109 = VERTEX_POINT('',#110);
#110 = CARTESIAN_POINT('',(-29.95,-42.,73.));
#111 = LINE('',#112,#113);
#112 = CARTESIAN_POINT('',(-32.,-42.,73.));
#113 = VECTOR('',#114,1.);
#114 = DIRECTION('',(1.,0.,0.));
#115 = ORIENTED_EDGE('',*,*,#116,.F.);
#116 = EDGE_CURVE('',#117,#107,#119,.T.);
#117 = VERTEX_POINT('',#118);
#118 = CARTESIAN_POINT('',(-32.,-34.,73.));
#119 = LINE('',#120,#121);
#120 = CARTESIAN_POINT('',(-32.,-34.,73.));
#121 = VECTOR('',#122,1.);
#122 = DIRECTION('',(-0.,-1.,-0.));
#123 = ORIENTED_EDGE('',*,*,#124,.T.);
#124 = EDGE_CURVE('',#117,#125,#127,.T.);
#125 = VERTEX_POINT('',#126);
#126 = CARTESIAN_POINT('',(-29.95,-34.,73.));
#127 = LINE('',#128,#129);
#128 = CARTESIAN_POINT('',(-32.,-34.,73.));
#129 = VECTOR('',#130,1.);
#130 = DIRECTION('',(1.,0.,0.));
#131 = ORIENTED_EDGE('',*,*,#132,.T.);
#132 = EDGE_CURVE('',#125,#109,#133,.T.);
#133 = LINE('',#134,#135);
#134 = CARTESIAN_POINT('',(-29.95,-34.,73.));
#135 = VECTOR('',#136,1.);
#136 = DIRECTION('',(-0.,-1.,-0.));
#137 = PLANE('',#138);
#138 = AXIS2_PLACEMENT_3D('',#139,#140,#141);
#139 = CARTESIAN_POINT('',(-32.,-34.,73.));
#140 = DIRECTION('',(0.,0.,1.));
#141 = DIRECTION('',(-1.,-0.,-0.));
#142 = ADVANCED_FACE('',(#143,#264),#275,.T.);
#143 = FACE_BOUND('',#144,.F.);
#144 = EDGE_LOOP('',(#145,#155,#161,#162,#170,#178,#186,#194,#202,#210,
    #218,#226,#234,#242,#250,#258));
#145 = ORIENTED_EDGE('',*,*,#146,.F.);
#146 = EDGE_CURVE('',#147,#149,#151,.T.);
#147 = VERTEX_POINT('',#148);
#148 = CARTESIAN_POINT('',(-32.,-42.,49.));
#149 = VERTEX_POINT('',#150);
#150 = CARTESIAN_POINT('',(-29.95,-42.,49.));
#151 = LINE('',#152,#153);
#152 = CARTESIAN_POINT('',(-32.,-42.,49.));
#153 = VECTOR('',#154,1.);
#154 = DIRECTION('',(1.,0.,0.));
#155 = ORIENTED_EDGE('',*,*,#156,.T.);
#156 = EDGE_CURVE('',#147,#107,#157,.T.);
#157 = LINE('',#158,#159);
#158 = CARTESIAN_POINT('',(-32.,-42.,49.));
#159 = VECTOR('',#160,1.);
#160 = DIRECTION('',(0.,0.,1.));
#161 = ORIENTED_EDGE('',*,*,#106,.T.);
#162 = ORIENTED_EDGE('',*,*,#163,.T.);
#163 = EDGE_CURVE('',#109,#164,#166,.T.);
#164 = VERTEX_POINT('',#165);
#165 = CARTESIAN_POINT('',(-29.95,-42.,92.5));
#166 = LINE('',#167,#168);
#167 = CARTESIAN_POINT('',(-29.95,-42.,63.2));
#168 = VECTOR('',#169,1.);
#169 = DIRECTION('',(0.,1.1E-16,1.));
#170 = ORIENTED_EDGE('',*,*,#171,.T.);
#171 = EDGE_CURVE('',#164,#172,#174,.T.);
#172 = VERTEX_POINT('',#173);
#173 = CARTESIAN_POINT('',(-5.55,-42.,92.5));
#174 = LINE('',#175,#176);
#175 = CARTESIAN_POINT('',(-29.95,-42.,92.5));
#176 = VECTOR('',#177,1.);
#177 = DIRECTION('',(1.,0.,0.));
#178 = ORIENTED_EDGE('',*,*,#179,.F.);
#179 = EDGE_CURVE('',#180,#172,#182,.T.);
#180 = VERTEX_POINT('',#181);
#181 = CARTESIAN_POINT('',(-5.55,-42.,73.));
#182 = LINE('',#183,#184);
#183 = CARTESIAN_POINT('',(-5.55,-42.,63.2));
#184 = VECTOR('',#185,1.);
#185 = DIRECTION('',(0.,1.1E-16,1.));
#186 = ORIENTED_EDGE('',*,*,#187,.T.);
#187 = EDGE_CURVE('',#180,#188,#190,.T.);
#188 = VERTEX_POINT('',#189);
#189 = CARTESIAN_POINT('',(-3.5,-42.,73.));
#190 = LINE('',#191,#192);
#191 = CARTESIAN_POINT('',(-5.7,-42.,73.));
#192 = VECTOR('',#193,1.);
#193 = DIRECTION('',(1.,0.,0.));
#194 = ORIENTED_EDGE('',*,*,#195,.F.);
#195 = EDGE_CURVE('',#196,#188,#198,.T.);
#196 = VERTEX_POINT('',#197);
#197 = CARTESIAN_POINT('',(-3.5,-42.,49.));
#198 = LINE('',#199,#200);
#199 = CARTESIAN_POINT('',(-3.5,-42.,49.));
#200 = VECTOR('',#201,1.);
#201 = DIRECTION('',(0.,0.,1.));
#202 = ORIENTED_EDGE('',*,*,#203,.F.);
#203 = EDGE_CURVE('',#204,#196,#206,.T.);
#204 = VERTEX_POINT('',#205);
#205 = CARTESIAN_POINT('',(-5.55,-42.,49.));
#206 = LINE('',#207,#208);
#207 = CARTESIAN_POINT('',(-5.7,-42.,49.));
#208 = VECTOR('',#209,1.);
#209 = DIRECTION('',(1.,0.,0.));
#210 = ORIENTED_EDGE('',*,*,#211,.T.);
#211 = EDGE_CURVE('',#204,#212,#214,.T.);
#212 = VERTEX_POINT('',#213);
#213 = CARTESIAN_POINT('',(-5.55,-42.,65.2));
#214 = LINE('',#215,#216);
#215 = CARTESIAN_POINT('',(-5.55,-42.,53.044434832757));
#216 = VECTOR('',#217,1.);
#217 = DIRECTION('',(0.,0.,1.));
#218 = ORIENTED_EDGE('',*,*,#219,.T.);
#219 = EDGE_CURVE('',#212,#220,#222,.T.);
#220 = VERTEX_POINT('',#221);
#221 = CARTESIAN_POINT('',(-7.55,-42.,65.2));
#222 = LINE('',#223,#224);
#223 = CARTESIAN_POINT('',(-23.85,-42.,65.2));
#224 = VECTOR('',#225,1.);
#225 = DIRECTION('',(-1.,-0.,-0.));
#226 = ORIENTED_EDGE('',*,*,#227,.F.);
#227 = EDGE_CURVE('',#228,#220,#230,.T.);
#228 = VERTEX_POINT('',#229);
#229 = CARTESIAN_POINT('',(-7.55,-42.,63.2));
#230 = LINE('',#231,#232);
#231 = CARTESIAN_POINT('',(-7.55,-42.,45.));
#232 = VECTOR('',#233,1.);
#233 = DIRECTION('',(0.,0.,1.));
#234 = ORIENTED_EDGE('',*,*,#235,.F.);
#235 = EDGE_CURVE('',#236,#228,#238,.T.);
#236 = VERTEX_POINT('',#237);
#237 = CARTESIAN_POINT('',(-27.95,-42.,63.2));
#238 = LINE('',#239,#240);
#239 = CARTESIAN_POINT('',(-29.95,-42.,63.2));
#240 = VECTOR('',#241,1.);
#241 = DIRECTION('',(1.,0.,0.));
#242 = ORIENTED_EDGE('',*,*,#243,.T.);
#243 = EDGE_CURVE('',#236,#244,#246,.T.);
#244 = VERTEX_POINT('',#245);
#245 = CARTESIAN_POINT('',(-27.95,-42.,65.2));
#246 = LINE('',#247,#248);
#247 = CARTESIAN_POINT('',(-27.95,-42.,45.));
#248 = VECTOR('',#249,1.);
#249 = DIRECTION('',(0.,0.,1.));
#250 = ORIENTED_EDGE('',*,*,#251,.T.);
#251 = EDGE_CURVE('',#244,#252,#254,.T.);
#252 = VERTEX_POINT('',#253);
#253 = CARTESIAN_POINT('',(-29.95,-42.,65.2));
#254 = LINE('',#255,#256);
#255 = CARTESIAN_POINT('',(-23.85,-42.,65.2));
#256 = VECTOR('',#257,1.);
#257 = DIRECTION('',(-1.,-0.,-0.));
#258 = ORIENTED_EDGE('',*,*,#259,.T.);
#259 = EDGE_CURVE('',#252,#149,#260,.T.);
#260 = LINE('',#261,#262);
#261 = CARTESIAN_POINT('',(-29.95,-42.,53.044434832757));
#262 = VECTOR('',#263,1.);
#263 = DIRECTION('',(-0.,-0.,-1.));
#264 = FACE_BOUND('',#265,.F.);
#265 = EDGE_LOOP('',(#266));
#266 = ORIENTED_EDGE('',*,*,#267,.F.);
#267 = EDGE_CURVE('',#268,#268,#270,.T.);
#268 = VERTEX_POINT('',#269);
#269 = CARTESIAN_POINT('',(-9.55,-42.,80.5));
#270 = CIRCLE('',#271,8.2);
#271 = AXIS2_PLACEMENT_3D('',#272,#273,#274);
#272 = CARTESIAN_POINT('',(-17.75,-42.,80.5));
#273 = DIRECTION('',(-0.,1.,0.));
#274 = DIRECTION('',(1.,0.,0.));
#275 = PLANE('',#276);
#276 = AXIS2_PLACEMENT_3D('',#277,#278,#279);
#277 = CARTESIAN_POINT('',(-17.75,-42.,69.675));
#278 = DIRECTION('',(-0.,-1.,-0.));
#279 = DIRECTION('',(0.,0.,-1.));
#280 = ADVANCED_FACE('',(#281),#315,.T.);
#281 = FACE_BOUND('',#282,.F.);
#282 = EDGE_LOOP('',(#283,#284,#285,#293,#301,#309));
#283 = ORIENTED_EDGE('',*,*,#163,.F.);
#284 = ORIENTED_EDGE('',*,*,#132,.F.);
#285 = ORIENTED_EDGE('',*,*,#286,.T.);
#286 = EDGE_CURVE('',#125,#287,#289,.T.);
#287 = VERTEX_POINT('',#288);
#288 = CARTESIAN_POINT('',(-29.95,-34.,82.));
#289 = LINE('',#290,#291);
#290 = CARTESIAN_POINT('',(-29.95,-34.,68.));
#291 = VECTOR('',#292,1.);
#292 = DIRECTION('',(0.,0.,1.));
#293 = ORIENTED_EDGE('',*,*,#294,.T.);
#294 = EDGE_CURVE('',#287,#295,#297,.T.);
#295 = VERTEX_POINT('',#296);
#296 = CARTESIAN_POINT('',(-29.95,-38.,82.));
#297 = LINE('',#298,#299);
#298 = CARTESIAN_POINT('',(-29.95,-34.,82.));
#299 = VECTOR('',#300,1.);
#300 = DIRECTION('',(-0.,-1.,-0.));
#301 = ORIENTED_EDGE('',*,*,#302,.T.);
#302 = EDGE_CURVE('',#295,#303,#305,.T.);
#303 = VERTEX_POINT('',#304);
#304 = CARTESIAN_POINT('',(-29.95,-38.,92.5));
#305 = LINE('',#306,#307);
#306 = CARTESIAN_POINT('',(-29.95,-38.,63.2));
#307 = VECTOR('',#308,1.);
#308 = DIRECTION('',(0.,0.,1.));
#309 = ORIENTED_EDGE('',*,*,#310,.T.);
#310 = EDGE_CURVE('',#303,#164,#311,.T.);
#311 = LINE('',#312,#313);
#312 = CARTESIAN_POINT('',(-29.95,-38.,92.5));
#313 = VECTOR('',#314,1.);
#314 = DIRECTION('',(-0.,-1.,-0.));
#315 = PLANE('',#316);
#316 = AXIS2_PLACEMENT_3D('',#317,#318,#319);
#317 = CARTESIAN_POINT('',(-29.95,-38.76363636363,81.986363636364));
#318 = DIRECTION('',(-1.,-3.5E-16,-0.));
#319 = DIRECTION('',(3.5E-16,-1.,0.));
#320 = ADVANCED_FACE('',(#321),#339,.F.);
#321 = FACE_BOUND('',#322,.T.);
#322 = EDGE_LOOP('',(#323,#331,#337,#338));
#323 = ORIENTED_EDGE('',*,*,#324,.F.);
#324 = EDGE_CURVE('',#325,#117,#327,.T.);
#325 = VERTEX_POINT('',#326);
#326 = CARTESIAN_POINT('',(-32.,-34.,49.));
#327 = LINE('',#328,#329);
#328 = CARTESIAN_POINT('',(-32.,-34.,49.));
#329 = VECTOR('',#330,1.);
#330 = DIRECTION('',(0.,0.,1.));
#331 = ORIENTED_EDGE('',*,*,#332,.T.);
#332 = EDGE_CURVE('',#325,#147,#333,.T.);
#333 = LINE('',#334,#335);
#334 = CARTESIAN_POINT('',(-32.,-34.,49.));
#335 = VECTOR('',#336,1.);
#336 = DIRECTION('',(-0.,-1.,-0.));
#337 = ORIENTED_EDGE('',*,*,#156,.T.);
#338 = ORIENTED_EDGE('',*,*,#116,.F.);
#339 = PLANE('',#340);
#340 = AXIS2_PLACEMENT_3D('',#341,#342,#343);
#341 = CARTESIAN_POINT('',(-32.,-34.,49.));
#342 = DIRECTION('',(1.,0.,0.));
#343 = DIRECTION('',(0.,0.,-1.));
#344 = ADVANCED_FACE('',(#345),#363,.F.);
#345 = FACE_BOUND('',#346,.T.);
#346 = EDGE_LOOP('',(#347,#348,#349,#357));
#347 = ORIENTED_EDGE('',*,*,#146,.F.);
#348 = ORIENTED_EDGE('',*,*,#332,.F.);
#349 = ORIENTED_EDGE('',*,*,#350,.T.);
#350 = EDGE_CURVE('',#325,#351,#353,.T.);
#351 = VERTEX_POINT('',#352);
#352 = CARTESIAN_POINT('',(-29.95,-34.,49.));
#353 = LINE('',#354,#355);
#354 = CARTESIAN_POINT('',(-32.,-34.,49.));
#355 = VECTOR('',#356,1.);
#356 = DIRECTION('',(1.,0.,0.));
#357 = ORIENTED_EDGE('',*,*,#358,.T.);
#358 = EDGE_CURVE('',#351,#149,#359,.T.);
#359 = LINE('',#360,#361);
#360 = CARTESIAN_POINT('',(-29.95,-38.48385236447,49.));
#361 = VECTOR('',#362,1.);
#362 = DIRECTION('',(-0.,-1.,-0.));
#363 = PLANE('',#364);
#364 = AXIS2_PLACEMENT_3D('',#365,#366,#367);
#365 = CARTESIAN_POINT('',(-32.,-34.,49.));
#366 = DIRECTION('',(0.,0.,1.));
#367 = DIRECTION('',(-1.,-0.,-0.));
#368 = ADVANCED_FACE('',(#369),#387,.T.);
#369 = FACE_BOUND('',#370,.F.);
#370 = EDGE_LOOP('',(#371,#372,#380,#386));
#371 = ORIENTED_EDGE('',*,*,#310,.F.);
#372 = ORIENTED_EDGE('',*,*,#373,.T.);
#373 = EDGE_CURVE('',#303,#374,#376,.T.);
#374 = VERTEX_POINT('',#375);
#375 = CARTESIAN_POINT('',(-5.55,-38.,92.5));
#376 = LINE('',#377,#378);
#377 = CARTESIAN_POINT('',(-29.95,-38.,92.5));
#378 = VECTOR('',#379,1.);
#379 = DIRECTION('',(1.,0.,0.));
#380 = ORIENTED_EDGE('',*,*,#381,.T.);
#381 = EDGE_CURVE('',#374,#172,#382,.T.);
#382 = LINE('',#383,#384);
#383 = CARTESIAN_POINT('',(-5.55,-38.,92.5));
#384 = VECTOR('',#385,1.);
#385 = DIRECTION('',(-0.,-1.,-0.));
#386 = ORIENTED_EDGE('',*,*,#171,.F.);
#387 = PLANE('',#388);
#388 = AXIS2_PLACEMENT_3D('',#389,#390,#391);
#389 = CARTESIAN_POINT('',(-29.95,-38.,92.5));
#390 = DIRECTION('',(0.,0.,1.));
#391 = DIRECTION('',(-1.,-0.,-0.));
#392 = ADVANCED_FACE('',(#393),#418,.T.);
#393 = FACE_BOUND('',#394,.F.);
#394 = EDGE_LOOP('',(#395,#403,#411,#417));
#395 = ORIENTED_EDGE('',*,*,#396,.T.);
#396 = EDGE_CURVE('',#180,#397,#399,.T.);
#397 = VERTEX_POINT('',#398);
#398 = CARTESIAN_POINT('',(-5.55,-34.,73.));
#399 = LINE('',#400,#401);
#400 = CARTESIAN_POINT('',(-5.55,-38.48385236447,73.));
#401 = VECTOR('',#402,1.);
#402 = DIRECTION('',(0.,1.,0.));
#403 = ORIENTED_EDGE('',*,*,#404,.T.);
#404 = EDGE_CURVE('',#397,#405,#407,.T.);
#405 = VERTEX_POINT('',#406);
#406 = CARTESIAN_POINT('',(-3.5,-34.,73.));
#407 = LINE('',#408,#409);
#408 = CARTESIAN_POINT('',(-5.7,-34.,73.));
#409 = VECTOR('',#410,1.);
#410 = DIRECTION('',(1.,0.,0.));
#411 = ORIENTED_EDGE('',*,*,#412,.T.);
#412 = EDGE_CURVE('',#405,#188,#413,.T.);
#413 = LINE('',#414,#415);
#414 = CARTESIAN_POINT('',(-3.5,-34.,73.));
#415 = VECTOR('',#416,1.);
#416 = DIRECTION('',(-0.,-1.,-0.));
#417 = ORIENTED_EDGE('',*,*,#187,.F.);
#418 = PLANE('',#419);
#419 = AXIS2_PLACEMENT_3D('',#420,#421,#422);
#420 = CARTESIAN_POINT('',(-5.7,-34.,73.));
#421 = DIRECTION('',(0.,0.,1.));
#422 = DIRECTION('',(-1.,-0.,-0.));
#423 = ADVANCED_FACE('',(#424),#442,.T.);
#424 = FACE_BOUND('',#425,.F.);
#425 = EDGE_LOOP('',(#426,#434,#440,#441));
#426 = ORIENTED_EDGE('',*,*,#427,.F.);
#427 = EDGE_CURVE('',#428,#405,#430,.T.);
#428 = VERTEX_POINT('',#429);
#429 = CARTESIAN_POINT('',(-3.5,-34.,49.));
#430 = LINE('',#431,#432);
#431 = CARTESIAN_POINT('',(-3.5,-34.,49.));
#432 = VECTOR('',#433,1.);
#433 = DIRECTION('',(0.,0.,1.));
#434 = ORIENTED_EDGE('',*,*,#435,.T.);
#435 = EDGE_CURVE('',#428,#196,#436,.T.);
#436 = LINE('',#437,#438);
#437 = CARTESIAN_POINT('',(-3.5,-34.,49.));
#438 = VECTOR('',#439,1.);
#439 = DIRECTION('',(-0.,-1.,-0.));
#440 = ORIENTED_EDGE('',*,*,#195,.T.);
#441 = ORIENTED_EDGE('',*,*,#412,.F.);
#442 = PLANE('',#443);
#443 = AXIS2_PLACEMENT_3D('',#444,#445,#446);
#444 = CARTESIAN_POINT('',(-3.5,-34.,49.));
#445 = DIRECTION('',(1.,0.,0.));
#446 = DIRECTION('',(0.,0.,-1.));
#447 = ADVANCED_FACE('',(#448),#466,.F.);
#448 = FACE_BOUND('',#449,.T.);
#449 = EDGE_LOOP('',(#450,#458,#464,#465));
#450 = ORIENTED_EDGE('',*,*,#451,.T.);
#451 = EDGE_CURVE('',#204,#452,#454,.T.);
#452 = VERTEX_POINT('',#453);
#453 = CARTESIAN_POINT('',(-5.55,-34.,49.));
#454 = LINE('',#455,#456);
#455 = CARTESIAN_POINT('',(-5.55,-38.48385236447,49.));
#456 = VECTOR('',#457,1.);
#457 = DIRECTION('',(0.,1.,0.));
#458 = ORIENTED_EDGE('',*,*,#459,.T.);
#459 = EDGE_CURVE('',#452,#428,#460,.T.);
#460 = LINE('',#461,#462);
#461 = CARTESIAN_POINT('',(-5.7,-34.,49.));
#462 = VECTOR('',#463,1.);
#463 = DIRECTION('',(1.,0.,0.));
#464 = ORIENTED_EDGE('',*,*,#435,.T.);
#465 = ORIENTED_EDGE('',*,*,#203,.F.);
#466 = PLANE('',#467);
#467 = AXIS2_PLACEMENT_3D('',#468,#469,#470);
#468 = CARTESIAN_POINT('',(-5.7,-34.,49.));
#469 = DIRECTION('',(0.,0.,1.));
#470 = DIRECTION('',(-1.,-0.,-0.));
#471 = ADVANCED_FACE('',(#472),#506,.T.);
#472 = FACE_BOUND('',#473,.F.);
#473 = EDGE_LOOP('',(#474,#482,#490,#498,#504,#505));
#474 = ORIENTED_EDGE('',*,*,#475,.F.);
#475 = EDGE_CURVE('',#476,#452,#478,.T.);
#476 = VERTEX_POINT('',#477);
#477 = CARTESIAN_POINT('',(-5.55,-34.,26.8));
#478 = LINE('',#479,#480);
#479 = CARTESIAN_POINT('',(-5.55,-34.,26.8));
#480 = VECTOR('',#481,1.);
#481 = DIRECTION('',(0.,1.1E-16,1.));
#482 = ORIENTED_EDGE('',*,*,#483,.T.);
#483 = EDGE_CURVE('',#476,#484,#486,.T.);
#484 = VERTEX_POINT('',#485);
#485 = CARTESIAN_POINT('',(-5.55,-55.,26.8));
#486 = LINE('',#487,#488);
#487 = CARTESIAN_POINT('',(-5.55,-34.,26.8));
#488 = VECTOR('',#489,1.);
#489 = DIRECTION('',(-0.,-1.,-0.));
#490 = ORIENTED_EDGE('',*,*,#491,.T.);
#491 = EDGE_CURVE('',#484,#492,#494,.T.);
#492 = VERTEX_POINT('',#493);
#493 = CARTESIAN_POINT('',(-5.55,-55.,65.2));
#494 = LINE('',#495,#496);
#495 = CARTESIAN_POINT('',(-5.55,-55.,26.8));
#496 = VECTOR('',#497,1.);
#497 = DIRECTION('',(0.,0.,1.));
#498 = ORIENTED_EDGE('',*,*,#499,.F.);
#499 = EDGE_CURVE('',#212,#492,#500,.T.);
#500 = LINE('',#501,#502);
#501 = CARTESIAN_POINT('',(-5.55,-34.,65.2));
#502 = VECTOR('',#503,1.);
#503 = DIRECTION('',(-0.,-1.,-0.));
#504 = ORIENTED_EDGE('',*,*,#211,.F.);
#505 = ORIENTED_EDGE('',*,*,#451,.T.);
#506 = PLANE('',#507);
#507 = AXIS2_PLACEMENT_3D('',#508,#509,#510);
#508 = CARTESIAN_POINT('',(-5.55,-42.96770472895,57.088869665513));
#509 = DIRECTION('',(1.,0.,0.));
#510 = DIRECTION('',(0.,0.,-1.));
#511 = ADVANCED_FACE('',(#512),#530,.T.);
#512 = FACE_BOUND('',#513,.F.);
#513 = EDGE_LOOP('',(#514,#515,#516,#524));
#514 = ORIENTED_EDGE('',*,*,#219,.F.);
#515 = ORIENTED_EDGE('',*,*,#499,.T.);
#516 = ORIENTED_EDGE('',*,*,#517,.F.);
#517 = EDGE_CURVE('',#518,#492,#520,.T.);
#518 = VERTEX_POINT('',#519);
#519 = CARTESIAN_POINT('',(-7.55,-55.,65.2));
#520 = LINE('',#521,#522);
#521 = CARTESIAN_POINT('',(-7.55,-55.,65.2));
#522 = VECTOR('',#523,1.);
#523 = DIRECTION('',(1.,0.,0.));
#524 = ORIENTED_EDGE('',*,*,#525,.F.);
#525 = EDGE_CURVE('',#220,#518,#526,.T.);
#526 = LINE('',#527,#528);
#527 = CARTESIAN_POINT('',(-7.55,-34.,65.2));
#528 = VECTOR('',#529,1.);
#529 = DIRECTION('',(-0.,-1.,-0.));
#530 = PLANE('',#531);
#531 = AXIS2_PLACEMENT_3D('',#532,#533,#534);
#532 = CARTESIAN_POINT('',(-17.75,-41.78571428571,65.2));
#533 = DIRECTION('',(0.,0.,1.));
#534 = DIRECTION('',(-1.,-0.,-0.));
#535 = ADVANCED_FACE('',(#536),#570,.F.);
#536 = FACE_BOUND('',#537,.T.);
#537 = EDGE_LOOP('',(#538,#546,#554,#562,#568,#569));
#538 = ORIENTED_EDGE('',*,*,#539,.T.);
#539 = EDGE_CURVE('',#228,#540,#542,.T.);
#540 = VERTEX_POINT('',#541);
#541 = CARTESIAN_POINT('',(-7.55,-36.,63.2));
#542 = LINE('',#543,#544);
#543 = CARTESIAN_POINT('',(-7.55,-34.,63.2));
#544 = VECTOR('',#545,1.);
#545 = DIRECTION('',(0.,1.,0.));
#546 = ORIENTED_EDGE('',*,*,#547,.T.);
#547 = EDGE_CURVE('',#540,#548,#550,.T.);
#548 = VERTEX_POINT('',#549);
#549 = CARTESIAN_POINT('',(-7.55,-36.,28.8));
#550 = LINE('',#551,#552);
#551 = CARTESIAN_POINT('',(-7.55,-36.,26.8));
#552 = VECTOR('',#553,1.);
#553 = DIRECTION('',(-0.,-0.,-1.));
#554 = ORIENTED_EDGE('',*,*,#555,.F.);
#555 = EDGE_CURVE('',#556,#548,#558,.T.);
#556 = VERTEX_POINT('',#557);
#557 = CARTESIAN_POINT('',(-7.55,-55.,28.8));
#558 = LINE('',#559,#560);
#559 = CARTESIAN_POINT('',(-7.55,-34.,28.8));
#560 = VECTOR('',#561,1.);
#561 = DIRECTION('',(0.,1.,0.));
#562 = ORIENTED_EDGE('',*,*,#563,.T.);
#563 = EDGE_CURVE('',#556,#518,#564,.T.);
#564 = LINE('',#565,#566);
#565 = CARTESIAN_POINT('',(-7.55,-55.,26.8));
#566 = VECTOR('',#567,1.);
#567 = DIRECTION('',(0.,0.,1.));
#568 = ORIENTED_EDGE('',*,*,#525,.F.);
#569 = ORIENTED_EDGE('',*,*,#227,.F.);
#570 = PLANE('',#571);
#571 = AXIS2_PLACEMENT_3D('',#572,#573,#574);
#572 = CARTESIAN_POINT('',(-7.55,-34.,26.8));
#573 = DIRECTION('',(1.,0.,0.));
#574 = DIRECTION('',(0.,0.,-1.));
#575 = ADVANCED_FACE('',(#576),#594,.T.);
#576 = FACE_BOUND('',#577,.F.);
#577 = EDGE_LOOP('',(#578,#586,#587,#588));
#578 = ORIENTED_EDGE('',*,*,#579,.F.);
#579 = EDGE_CURVE('',#236,#580,#582,.T.);
#580 = VERTEX_POINT('',#581);
#581 = CARTESIAN_POINT('',(-27.95,-36.,63.2));
#582 = LINE('',#583,#584);
#583 = CARTESIAN_POINT('',(-27.95,-36.,63.2));
#584 = VECTOR('',#585,1.);
#585 = DIRECTION('',(0.,1.,-1.1E-16));
#586 = ORIENTED_EDGE('',*,*,#235,.T.);
#587 = ORIENTED_EDGE('',*,*,#539,.T.);
#588 = ORIENTED_EDGE('',*,*,#589,.F.);
#589 = EDGE_CURVE('',#580,#540,#590,.T.);
#590 = LINE('',#591,#592);
#591 = CARTESIAN_POINT('',(-29.95,-36.,63.2));
#592 = VECTOR('',#593,1.);
#593 = DIRECTION('',(1.,0.,0.));
#594 = PLANE('',#595);
#595 = AXIS2_PLACEMENT_3D('',#596,#597,#598);
#596 = CARTESIAN_POINT('',(-17.75,-39.,63.2));
#597 = DIRECTION('',(0.,1.07E-15,-1.));
#598 = DIRECTION('',(-0.,-1.,-1.07E-15));
#599 = ADVANCED_FACE('',(#600),#634,.T.);
#600 = FACE_BOUND('',#601,.F.);
#601 = EDGE_LOOP('',(#602,#603,#611,#619,#627,#633));
#602 = ORIENTED_EDGE('',*,*,#579,.T.);
#603 = ORIENTED_EDGE('',*,*,#604,.T.);
#604 = EDGE_CURVE('',#580,#605,#607,.T.);
#605 = VERTEX_POINT('',#606);
#606 = CARTESIAN_POINT('',(-27.95,-36.,28.8));
#607 = LINE('',#608,#609);
#608 = CARTESIAN_POINT('',(-27.95,-36.,26.8));
#609 = VECTOR('',#610,1.);
#610 = DIRECTION('',(-0.,-0.,-1.));
#611 = ORIENTED_EDGE('',*,*,#612,.F.);
#612 = EDGE_CURVE('',#613,#605,#615,.T.);
#613 = VERTEX_POINT('',#614);
#614 = CARTESIAN_POINT('',(-27.95,-55.,28.8));
#615 = LINE('',#616,#617);
#616 = CARTESIAN_POINT('',(-27.95,-34.,28.8));
#617 = VECTOR('',#618,1.);
#618 = DIRECTION('',(0.,1.,0.));
#619 = ORIENTED_EDGE('',*,*,#620,.T.);
#620 = EDGE_CURVE('',#613,#621,#623,.T.);
#621 = VERTEX_POINT('',#622);
#622 = CARTESIAN_POINT('',(-27.95,-55.,65.2));
#623 = LINE('',#624,#625);
#624 = CARTESIAN_POINT('',(-27.95,-55.,26.8));
#625 = VECTOR('',#626,1.);
#626 = DIRECTION('',(0.,0.,1.));
#627 = ORIENTED_EDGE('',*,*,#628,.F.);
#628 = EDGE_CURVE('',#244,#621,#629,.T.);
#629 = LINE('',#630,#631);
#630 = CARTESIAN_POINT('',(-27.95,-34.,65.2));
#631 = VECTOR('',#632,1.);
#632 = DIRECTION('',(-0.,-1.,-0.));
#633 = ORIENTED_EDGE('',*,*,#243,.F.);
#634 = PLANE('',#635);
#635 = AXIS2_PLACEMENT_3D('',#636,#637,#638);
#636 = CARTESIAN_POINT('',(-27.95,-34.,26.8));
#637 = DIRECTION('',(1.,0.,0.));
#638 = DIRECTION('',(0.,0.,-1.));
#639 = ADVANCED_FACE('',(#640),#658,.T.);
#640 = FACE_BOUND('',#641,.F.);
#641 = EDGE_LOOP('',(#642,#650,#651,#652));
#642 = ORIENTED_EDGE('',*,*,#643,.F.);
#643 = EDGE_CURVE('',#252,#644,#646,.T.);
#644 = VERTEX_POINT('',#645);
#645 = CARTESIAN_POINT('',(-29.95,-55.,65.2));
#646 = LINE('',#647,#648);
#647 = CARTESIAN_POINT('',(-29.95,-34.,65.2));
#648 = VECTOR('',#649,1.);
#649 = DIRECTION('',(-0.,-1.,-0.));
#650 = ORIENTED_EDGE('',*,*,#251,.F.);
#651 = ORIENTED_EDGE('',*,*,#628,.T.);
#652 = ORIENTED_EDGE('',*,*,#653,.F.);
#653 = EDGE_CURVE('',#644,#621,#654,.T.);
#654 = LINE('',#655,#656);
#655 = CARTESIAN_POINT('',(-29.95,-55.,65.2));
#656 = VECTOR('',#657,1.);
#657 = DIRECTION('',(1.,0.,0.));
#658 = PLANE('',#659);
#659 = AXIS2_PLACEMENT_3D('',#660,#661,#662);
#660 = CARTESIAN_POINT('',(-17.75,-41.78571428571,65.2));
#661 = DIRECTION('',(0.,0.,1.));
#662 = DIRECTION('',(-1.,-0.,-0.));
#663 = ADVANCED_FACE('',(#664),#691,.T.);
#664 = FACE_BOUND('',#665,.F.);
#665 = EDGE_LOOP('',(#666,#667,#668,#676,#684,#690));
#666 = ORIENTED_EDGE('',*,*,#259,.F.);
#667 = ORIENTED_EDGE('',*,*,#643,.T.);
#668 = ORIENTED_EDGE('',*,*,#669,.F.);
#669 = EDGE_CURVE('',#670,#644,#672,.T.);
#670 = VERTEX_POINT('',#671);
#671 = CARTESIAN_POINT('',(-29.95,-55.,26.8));
#672 = LINE('',#673,#674);
#673 = CARTESIAN_POINT('',(-29.95,-55.,26.8));
#674 = VECTOR('',#675,1.);
#675 = DIRECTION('',(0.,0.,1.));
#676 = ORIENTED_EDGE('',*,*,#677,.F.);
#677 = EDGE_CURVE('',#678,#670,#680,.T.);
#678 = VERTEX_POINT('',#679);
#679 = CARTESIAN_POINT('',(-29.95,-34.,26.8));
#680 = LINE('',#681,#682);
#681 = CARTESIAN_POINT('',(-29.95,-34.,26.8));
#682 = VECTOR('',#683,1.);
#683 = DIRECTION('',(-0.,-1.,-0.));
#684 = ORIENTED_EDGE('',*,*,#685,.T.);
#685 = EDGE_CURVE('',#678,#351,#686,.T.);
#686 = LINE('',#687,#688);
#687 = CARTESIAN_POINT('',(-29.95,-34.,63.2));
#688 = VECTOR('',#689,1.);
#689 = DIRECTION('',(0.,0.,1.));
#690 = ORIENTED_EDGE('',*,*,#358,.T.);
#691 = PLANE('',#692);
#692 = AXIS2_PLACEMENT_3D('',#693,#694,#695);
#693 = CARTESIAN_POINT('',(-29.95,-42.96770472895,57.088869665513));
#694 = DIRECTION('',(-1.,0.,0.));
#695 = DIRECTION('',(0.,0.,1.));
#696 = ADVANCED_FACE('',(#697),#716,.F.);
#697 = FACE_BOUND('',#698,.F.);
#698 = EDGE_LOOP('',(#699,#707,#708,#709));
#699 = ORIENTED_EDGE('',*,*,#700,.T.);
#700 = EDGE_CURVE('',#701,#268,#703,.T.);
#701 = VERTEX_POINT('',#702);
#702 = CARTESIAN_POINT('',(-9.55,-41.4,80.5));
#703 = LINE('',#704,#705);
#704 = CARTESIAN_POINT('',(-9.55,-41.4,80.5));
#705 = VECTOR('',#706,1.);
#706 = DIRECTION('',(-0.,-1.,0.));
#707 = ORIENTED_EDGE('',*,*,#267,.T.);
#708 = ORIENTED_EDGE('',*,*,#700,.F.);
#709 = ORIENTED_EDGE('',*,*,#710,.F.);
#710 = EDGE_CURVE('',#701,#701,#711,.T.);
#711 = CIRCLE('',#712,8.2);
#712 = AXIS2_PLACEMENT_3D('',#713,#714,#715);
#713 = CARTESIAN_POINT('',(-17.75,-41.4,80.5));
#714 = DIRECTION('',(-0.,1.,0.));
#715 = DIRECTION('',(1.,0.,0.));
#716 = CYLINDRICAL_SURFACE('',#717,8.2);
#717 = AXIS2_PLACEMENT_3D('',#718,#719,#720);
#718 = CARTESIAN_POINT('',(-17.75,-41.4,80.5));
#719 = DIRECTION('',(0.,1.,0.));
#720 = DIRECTION('',(1.,0.,0.));
#721 = ADVANCED_FACE('',(#722),#747,.T.);
#722 = FACE_BOUND('',#723,.F.);
#723 = EDGE_LOOP('',(#724,#725,#733,#741));
#724 = ORIENTED_EDGE('',*,*,#294,.F.);
#725 = ORIENTED_EDGE('',*,*,#726,.T.);
#726 = EDGE_CURVE('',#287,#727,#729,.T.);
#727 = VERTEX_POINT('',#728);
#728 = CARTESIAN_POINT('',(-25.5,-34.,82.));
#729 = LINE('',#730,#731);
#730 = CARTESIAN_POINT('',(-29.95,-34.,82.));
#731 = VECTOR('',#732,1.);
#732 = DIRECTION('',(1.,0.,0.));
#733 = ORIENTED_EDGE('',*,*,#734,.T.);
#734 = EDGE_CURVE('',#727,#735,#737,.T.);
#735 = VERTEX_POINT('',#736);
#736 = CARTESIAN_POINT('',(-25.5,-38.,82.));
#737 = LINE('',#738,#739);
#738 = CARTESIAN_POINT('',(-25.5,-34.,82.));
#739 = VECTOR('',#740,1.);
#740 = DIRECTION('',(-0.,-1.,-0.));
#741 = ORIENTED_EDGE('',*,*,#742,.F.);
#742 = EDGE_CURVE('',#295,#735,#743,.T.);
#743 = LINE('',#744,#745);
#744 = CARTESIAN_POINT('',(-29.95,-38.,82.));
#745 = VECTOR('',#746,1.);
#746 = DIRECTION('',(1.,0.,0.));
#747 = PLANE('',#748);
#748 = AXIS2_PLACEMENT_3D('',#749,#750,#751);
#749 = CARTESIAN_POINT('',(-29.95,-34.,82.));
#750 = DIRECTION('',(0.,0.,1.));
#751 = DIRECTION('',(-1.,-0.,-0.));
#752 = ADVANCED_FACE('',(#753,#796,#807,#818,#829,#840),#851,.F.);
#753 = FACE_BOUND('',#754,.T.);
#754 = EDGE_LOOP('',(#755,#765,#771,#772,#773,#774,#782,#790));
#755 = ORIENTED_EDGE('',*,*,#756,.F.);
#756 = EDGE_CURVE('',#757,#759,#761,.T.);
#757 = VERTEX_POINT('',#758);
#758 = CARTESIAN_POINT('',(-25.5,-38.,70.2));
#759 = VERTEX_POINT('',#760);
#760 = CARTESIAN_POINT('',(-10.,-38.,70.2));
#761 = LINE('',#762,#763);
#762 = CARTESIAN_POINT('',(-29.95,-38.,70.2));
#763 = VECTOR('',#764,1.);
#764 = DIRECTION('',(1.,0.,0.));
#765 = ORIENTED_EDGE('',*,*,#766,.F.);
#766 = EDGE_CURVE('',#735,#757,#767,.T.);
#767 = LINE('',#768,#769);
#768 = CARTESIAN_POINT('',(-25.5,-38.,65.6));
#769 = VECTOR('',#770,1.);
#770 = DIRECTION('',(-0.,-0.,-1.));
#771 = ORIENTED_EDGE('',*,*,#742,.F.);
#772 = ORIENTED_EDGE('',*,*,#302,.T.);
#773 = ORIENTED_EDGE('',*,*,#373,.T.);
#774 = ORIENTED_EDGE('',*,*,#775,.F.);
#775 = EDGE_CURVE('',#776,#374,#778,.T.);
#776 = VERTEX_POINT('',#777);
#777 = CARTESIAN_POINT('',(-5.55,-38.,82.));
#778 = LINE('',#779,#780);
#779 = CARTESIAN_POINT('',(-5.55,-38.,63.2));
#780 = VECTOR('',#781,1.);
#781 = DIRECTION('',(0.,0.,1.));
#782 = ORIENTED_EDGE('',*,*,#783,.F.);
#783 = EDGE_CURVE('',#784,#776,#786,.T.);
#784 = VERTEX_POINT('',#785);
#785 = CARTESIAN_POINT('',(-10.,-38.,82.));
#786 = LINE('',#787,#788);
#787 = CARTESIAN_POINT('',(-19.975,-38.,82.));
#788 = VECTOR('',#789,1.);
#789 = DIRECTION('',(1.,0.,0.));
#790 = ORIENTED_EDGE('',*,*,#791,.T.);
#791 = EDGE_CURVE('',#784,#759,#792,.T.);
#792 = LINE('',#793,#794);
#793 = CARTESIAN_POINT('',(-10.,-38.,65.6));
#794 = VECTOR('',#795,1.);
#795 = DIRECTION('',(-0.,-0.,-1.));
#796 = FACE_BOUND('',#797,.T.);
#797 = EDGE_LOOP('',(#798));
#798 = ORIENTED_EDGE('',*,*,#799,.F.);
#799 = EDGE_CURVE('',#800,#800,#802,.T.);
#800 = VERTEX_POINT('',#801);
#801 = CARTESIAN_POINT('',(-21.14264068711,-38.,76.257359312881));
#802 = CIRCLE('',#803,0.85);
#803 = AXIS2_PLACEMENT_3D('',#804,#805,#806);
#804 = CARTESIAN_POINT('',(-21.99264068711,-38.,76.257359312881));
#805 = DIRECTION('',(-0.,1.,0.));
#806 = DIRECTION('',(1.,0.,0.));
#807 = FACE_BOUND('',#808,.T.);
#808 = EDGE_LOOP('',(#809));
#809 = ORIENTED_EDGE('',*,*,#810,.F.);
#810 = EDGE_CURVE('',#811,#811,#813,.T.);
#811 = VERTEX_POINT('',#812);
#812 = CARTESIAN_POINT('',(-21.14264068711,-38.,84.742640687119));
#813 = CIRCLE('',#814,0.85);
#814 = AXIS2_PLACEMENT_3D('',#815,#816,#817);
#815 = CARTESIAN_POINT('',(-21.99264068711,-38.,84.742640687119));
#816 = DIRECTION('',(-0.,1.,0.));
#817 = DIRECTION('',(1.,0.,0.));
#818 = FACE_BOUND('',#819,.T.);
#819 = EDGE_LOOP('',(#820));
#820 = ORIENTED_EDGE('',*,*,#821,.F.);
#821 = EDGE_CURVE('',#822,#822,#824,.T.);
#822 = VERTEX_POINT('',#823);
#823 = CARTESIAN_POINT('',(-13.75,-38.,80.5));
#824 = CIRCLE('',#825,4.);
#825 = AXIS2_PLACEMENT_3D('',#826,#827,#828);
#826 = CARTESIAN_POINT('',(-17.75,-38.,80.5));
#827 = DIRECTION('',(-0.,1.,0.));
#828 = DIRECTION('',(1.,0.,0.));
#829 = FACE_BOUND('',#830,.T.);
#830 = EDGE_LOOP('',(#831));
#831 = ORIENTED_EDGE('',*,*,#832,.F.);
#832 = EDGE_CURVE('',#833,#833,#835,.T.);
#833 = VERTEX_POINT('',#834);
#834 = CARTESIAN_POINT('',(-12.65735931288,-38.,76.257359312881));
#835 = CIRCLE('',#836,0.85);
#836 = AXIS2_PLACEMENT_3D('',#837,#838,#839);
#837 = CARTESIAN_POINT('',(-13.50735931288,-38.,76.257359312881));
#838 = DIRECTION('',(-0.,1.,0.));
#839 = DIRECTION('',(1.,0.,0.));
#840 = FACE_BOUND('',#841,.T.);
#841 = EDGE_LOOP('',(#842));
#842 = ORIENTED_EDGE('',*,*,#843,.F.);
#843 = EDGE_CURVE('',#844,#844,#846,.T.);
#844 = VERTEX_POINT('',#845);
#845 = CARTESIAN_POINT('',(-12.65735931288,-38.,84.742640687119));
#846 = CIRCLE('',#847,0.85);
#847 = AXIS2_PLACEMENT_3D('',#848,#849,#850);
#848 = CARTESIAN_POINT('',(-13.50735931288,-38.,84.742640687119));
#849 = DIRECTION('',(-0.,1.,0.));
#850 = DIRECTION('',(1.,0.,0.));
#851 = PLANE('',#852);
#852 = AXIS2_PLACEMENT_3D('',#853,#854,#855);
#853 = CARTESIAN_POINT('',(-29.95,-38.,63.2));
#854 = DIRECTION('',(-0.,-1.,-0.));
#855 = DIRECTION('',(0.,0.,-1.));
#856 = ADVANCED_FACE('',(#857),#875,.T.);
#857 = FACE_BOUND('',#858,.F.);
#858 = EDGE_LOOP('',(#859,#867,#873,#874));
#859 = ORIENTED_EDGE('',*,*,#860,.F.);
#860 = EDGE_CURVE('',#861,#727,#863,.T.);
#861 = VERTEX_POINT('',#862);
#862 = CARTESIAN_POINT('',(-25.5,-34.,70.2));
#863 = LINE('',#864,#865);
#864 = CARTESIAN_POINT('',(-25.5,-34.,68.));
#865 = VECTOR('',#866,1.);
#866 = DIRECTION('',(0.,0.,1.));
#867 = ORIENTED_EDGE('',*,*,#868,.T.);
#868 = EDGE_CURVE('',#861,#757,#869,.T.);
#869 = LINE('',#870,#871);
#870 = CARTESIAN_POINT('',(-25.5,-34.,70.2));
#871 = VECTOR('',#872,1.);
#872 = DIRECTION('',(-0.,-1.,-0.));
#873 = ORIENTED_EDGE('',*,*,#766,.F.);
#874 = ORIENTED_EDGE('',*,*,#734,.F.);
#875 = PLANE('',#876);
#876 = AXIS2_PLACEMENT_3D('',#877,#878,#879);
#877 = CARTESIAN_POINT('',(-25.5,-34.,68.));
#878 = DIRECTION('',(1.,0.,0.));
#879 = DIRECTION('',(0.,0.,-1.));
#880 = ADVANCED_FACE('',(#881),#899,.T.);
#881 = FACE_BOUND('',#882,.F.);
#882 = EDGE_LOOP('',(#883,#884,#892,#898));
#883 = ORIENTED_EDGE('',*,*,#868,.F.);
#884 = ORIENTED_EDGE('',*,*,#885,.T.);
#885 = EDGE_CURVE('',#861,#886,#888,.T.);
#886 = VERTEX_POINT('',#887);
#887 = CARTESIAN_POINT('',(-10.,-34.,70.2));
#888 = LINE('',#889,#890);
#889 = CARTESIAN_POINT('',(-29.95,-34.,70.2));
#890 = VECTOR('',#891,1.);
#891 = DIRECTION('',(1.,0.,0.));
#892 = ORIENTED_EDGE('',*,*,#893,.T.);
#893 = EDGE_CURVE('',#886,#759,#894,.T.);
#894 = LINE('',#895,#896);
#895 = CARTESIAN_POINT('',(-10.,-34.,70.2));
#896 = VECTOR('',#897,1.);
#897 = DIRECTION('',(-0.,-1.,-0.));
#898 = ORIENTED_EDGE('',*,*,#756,.F.);
#899 = PLANE('',#900);
#900 = AXIS2_PLACEMENT_3D('',#901,#902,#903);
#901 = CARTESIAN_POINT('',(-29.95,-34.,70.2));
#902 = DIRECTION('',(0.,0.,1.));
#903 = DIRECTION('',(-1.,-0.,-0.));
#904 = ADVANCED_FACE('',(#905),#921,.T.);
#905 = FACE_BOUND('',#906,.F.);
#906 = EDGE_LOOP('',(#907,#913,#914,#920));
#907 = ORIENTED_EDGE('',*,*,#908,.F.);
#908 = EDGE_CURVE('',#678,#476,#909,.T.);
#909 = LINE('',#910,#911);
#910 = CARTESIAN_POINT('',(-29.95,-34.,26.8));
#911 = VECTOR('',#912,1.);
#912 = DIRECTION('',(1.,0.,0.));
#913 = ORIENTED_EDGE('',*,*,#677,.T.);
#914 = ORIENTED_EDGE('',*,*,#915,.T.);
#915 = EDGE_CURVE('',#670,#484,#916,.T.);
#916 = LINE('',#917,#918);
#917 = CARTESIAN_POINT('',(-29.95,-55.,26.8));
#918 = VECTOR('',#919,1.);
#919 = DIRECTION('',(1.,0.,0.));
#920 = ORIENTED_EDGE('',*,*,#483,.F.);
#921 = PLANE('',#922);
#922 = AXIS2_PLACEMENT_3D('',#923,#924,#925);
#923 = CARTESIAN_POINT('',(-17.75,-44.5,26.8));
#924 = DIRECTION('',(0.,0.,-1.));
#925 = DIRECTION('',(1.,0.,0.));
#926 = ADVANCED_FACE('',(#927),#942,.T.);
#927 = FACE_BOUND('',#928,.F.);
#928 = EDGE_LOOP('',(#929,#930,#931,#932,#933,#939,#940,#941));
#929 = ORIENTED_EDGE('',*,*,#915,.F.);
#930 = ORIENTED_EDGE('',*,*,#669,.T.);
#931 = ORIENTED_EDGE('',*,*,#653,.T.);
#932 = ORIENTED_EDGE('',*,*,#620,.F.);
#933 = ORIENTED_EDGE('',*,*,#934,.T.);
#934 = EDGE_CURVE('',#613,#556,#935,.T.);
#935 = LINE('',#936,#937);
#936 = CARTESIAN_POINT('',(-29.95,-55.,28.8));
#937 = VECTOR('',#938,1.);
#938 = DIRECTION('',(1.,0.,0.));
#939 = ORIENTED_EDGE('',*,*,#563,.T.);
#940 = ORIENTED_EDGE('',*,*,#517,.T.);
#941 = ORIENTED_EDGE('',*,*,#491,.F.);
#942 = PLANE('',#943);
#943 = AXIS2_PLACEMENT_3D('',#944,#945,#946);
#944 = CARTESIAN_POINT('',(-17.75,-55.,42.624193548387));
#945 = DIRECTION('',(-0.,-1.,-0.));
#946 = DIRECTION('',(0.,0.,-1.));
#947 = ADVANCED_FACE('',(#948),#959,.T.);
#948 = FACE_BOUND('',#949,.F.);
#949 = EDGE_LOOP('',(#950,#951,#952,#958));
#950 = ORIENTED_EDGE('',*,*,#934,.F.);
#951 = ORIENTED_EDGE('',*,*,#612,.T.);
#952 = ORIENTED_EDGE('',*,*,#953,.T.);
#953 = EDGE_CURVE('',#605,#548,#954,.T.);
#954 = LINE('',#955,#956);
#955 = CARTESIAN_POINT('',(-29.95,-36.,28.8));
#956 = VECTOR('',#957,1.);
#957 = DIRECTION('',(1.,0.,0.));
#958 = ORIENTED_EDGE('',*,*,#555,.F.);
#959 = PLANE('',#960);
#960 = AXIS2_PLACEMENT_3D('',#961,#962,#963);
#961 = CARTESIAN_POINT('',(-29.95,-34.,28.8));
#962 = DIRECTION('',(0.,0.,1.));
#963 = DIRECTION('',(-1.,-0.,-0.));
#964 = ADVANCED_FACE('',(#965,#971,#982,#993,#1004),#1015,.T.);
#965 = FACE_BOUND('',#966,.F.);
#966 = EDGE_LOOP('',(#967,#968,#969,#970));
#967 = ORIENTED_EDGE('',*,*,#953,.F.);
#968 = ORIENTED_EDGE('',*,*,#604,.F.);
#969 = ORIENTED_EDGE('',*,*,#589,.T.);
#970 = ORIENTED_EDGE('',*,*,#547,.T.);
#971 = FACE_BOUND('',#972,.F.);
#972 = EDGE_LOOP('',(#973));
#973 = ORIENTED_EDGE('',*,*,#974,.F.);
#974 = EDGE_CURVE('',#975,#975,#977,.T.);
#975 = VERTEX_POINT('',#976);
#976 = CARTESIAN_POINT('',(-24.6,-36.,31.));
#977 = CIRCLE('',#978,1.15);
#978 = AXIS2_PLACEMENT_3D('',#979,#980,#981);
#979 = CARTESIAN_POINT('',(-25.75,-36.,31.));
#980 = DIRECTION('',(-0.,1.,0.));
#981 = DIRECTION('',(1.,0.,0.));
#982 = FACE_BOUND('',#983,.F.);
#983 = EDGE_LOOP('',(#984));
#984 = ORIENTED_EDGE('',*,*,#985,.F.);
#985 = EDGE_CURVE('',#986,#986,#988,.T.);
#986 = VERTEX_POINT('',#987);
#987 = CARTESIAN_POINT('',(-12.25,-36.,38.5));
#988 = CIRCLE('',#989,5.5);
#989 = AXIS2_PLACEMENT_3D('',#990,#991,#992);
#990 = CARTESIAN_POINT('',(-17.75,-36.,38.5));
#991 = DIRECTION('',(-0.,1.,0.));
#992 = DIRECTION('',(1.,0.,0.));
#993 = FACE_BOUND('',#994,.F.);
#994 = EDGE_LOOP('',(#995));
#995 = ORIENTED_EDGE('',*,*,#996,.F.);
#996 = EDGE_CURVE('',#997,#997,#999,.T.);
#997 = VERTEX_POINT('',#998);
#998 = CARTESIAN_POINT('',(-8.6,-36.,31.));
#999 = CIRCLE('',#1000,1.15);
#1000 = AXIS2_PLACEMENT_3D('',#1001,#1002,#1003);
#1001 = CARTESIAN_POINT('',(-9.75,-36.,31.));
#1002 = DIRECTION('',(-0.,1.,0.));
#1003 = DIRECTION('',(1.,0.,0.));
#1004 = FACE_BOUND('',#1005,.F.);
#1005 = EDGE_LOOP('',(#1006));
#1006 = ORIENTED_EDGE('',*,*,#1007,.F.);
#1007 = EDGE_CURVE('',#1008,#1008,#1010,.T.);
#1008 = VERTEX_POINT('',#1009);
#1009 = CARTESIAN_POINT('',(-8.6,-36.,61.));
#1010 = CIRCLE('',#1011,1.15);
#1011 = AXIS2_PLACEMENT_3D('',#1012,#1013,#1014);
#1012 = CARTESIAN_POINT('',(-9.75,-36.,61.));
#1013 = DIRECTION('',(-0.,1.,0.));
#1014 = DIRECTION('',(1.,0.,0.));
#1015 = PLANE('',#1016);
#1016 = AXIS2_PLACEMENT_3D('',#1017,#1018,#1019);
#1017 = CARTESIAN_POINT('',(-29.95,-36.,26.8));
#1018 = DIRECTION('',(-0.,-1.,-0.));
#1019 = DIRECTION('',(0.,0.,-1.));
#1020 = ADVANCED_FACE('',(#1021),#1048,.F.);
#1021 = FACE_BOUND('',#1022,.F.);
#1022 = EDGE_LOOP('',(#1023,#1032,#1038,#1039,#1040,#1047));
#1023 = ORIENTED_EDGE('',*,*,#1024,.F.);
#1024 = EDGE_CURVE('',#1025,#66,#1027,.T.);
#1025 = VERTEX_POINT('',#1026);
#1026 = CARTESIAN_POINT('',(-24.6,-34.,31.));
#1027 = CIRCLE('',#1028,1.15);
#1028 = AXIS2_PLACEMENT_3D('',#1029,#1030,#1031);
#1029 = CARTESIAN_POINT('',(-25.75,-34.,31.));
#1030 = DIRECTION('',(-0.,1.,0.));
#1031 = DIRECTION('',(1.,0.,0.));
#1032 = ORIENTED_EDGE('',*,*,#1033,.T.);
#1033 = EDGE_CURVE('',#1025,#975,#1034,.T.);
#1034 = LINE('',#1035,#1036);
#1035 = CARTESIAN_POINT('',(-24.6,-34.,31.));
#1036 = VECTOR('',#1037,1.);
#1037 = DIRECTION('',(-0.,-1.,0.));
#1038 = ORIENTED_EDGE('',*,*,#974,.T.);
#1039 = ORIENTED_EDGE('',*,*,#1033,.F.);
#1040 = ORIENTED_EDGE('',*,*,#1041,.F.);
#1041 = EDGE_CURVE('',#57,#1025,#1042,.T.);
#1042 = CIRCLE('',#1043,1.15);
#1043 = AXIS2_PLACEMENT_3D('',#1044,#1045,#1046);
#1044 = CARTESIAN_POINT('',(-25.75,-34.,31.));
#1045 = DIRECTION('',(-0.,1.,0.));
#1046 = DIRECTION('',(1.,0.,0.));
#1047 = ORIENTED_EDGE('',*,*,#91,.F.);
#1048 = CYLINDRICAL_SURFACE('',#1049,1.15);
#1049 = AXIS2_PLACEMENT_3D('',#1050,#1051,#1052);
#1050 = CARTESIAN_POINT('',(-25.75,-34.,31.));
#1051 = DIRECTION('',(0.,1.,0.));
#1052 = DIRECTION('',(1.,0.,0.));
#1053 = ADVANCED_FACE('',(#1054),#1087,.F.);
#1054 = FACE_BOUND('',#1055,.F.);
#1055 = EDGE_LOOP('',(#1056,#1065,#1071,#1072,#1073,#1080));
#1056 = ORIENTED_EDGE('',*,*,#1057,.F.);
#1057 = EDGE_CURVE('',#1058,#48,#1060,.T.);
#1058 = VERTEX_POINT('',#1059);
#1059 = CARTESIAN_POINT('',(-8.6,-34.,31.));
#1060 = CIRCLE('',#1061,1.15);
#1061 = AXIS2_PLACEMENT_3D('',#1062,#1063,#1064);
#1062 = CARTESIAN_POINT('',(-9.75,-34.,31.));
#1063 = DIRECTION('',(-0.,1.,0.));
#1064 = DIRECTION('',(1.,0.,0.));
#1065 = ORIENTED_EDGE('',*,*,#1066,.T.);
#1066 = EDGE_CURVE('',#1058,#997,#1067,.T.);
#1067 = LINE('',#1068,#1069);
#1068 = CARTESIAN_POINT('',(-8.6,-34.,31.));
#1069 = VECTOR('',#1070,1.);
#1070 = DIRECTION('',(-0.,-1.,0.));
#1071 = ORIENTED_EDGE('',*,*,#996,.T.);
#1072 = ORIENTED_EDGE('',*,*,#1066,.F.);
#1073 = ORIENTED_EDGE('',*,*,#1074,.F.);
#1074 = EDGE_CURVE('',#39,#1058,#1075,.T.);
#1075 = CIRCLE('',#1076,1.15);
#1076 = AXIS2_PLACEMENT_3D('',#1077,#1078,#1079);
#1077 = CARTESIAN_POINT('',(-9.75,-34.,31.));
#1078 = DIRECTION('',(-0.,1.,0.));
#1079 = DIRECTION('',(1.,0.,0.));
#1080 = ORIENTED_EDGE('',*,*,#1081,.F.);
#1081 = EDGE_CURVE('',#48,#39,#1082,.T.);
#1082 = CIRCLE('',#1083,1.15);
#1083 = AXIS2_PLACEMENT_3D('',#1084,#1085,#1086);
#1084 = CARTESIAN_POINT('',(-9.75,-34.,31.));
#1085 = DIRECTION('',(-0.,1.,0.));
#1086 = DIRECTION('',(1.,0.,0.));
#1087 = CYLINDRICAL_SURFACE('',#1088,1.15);
#1088 = AXIS2_PLACEMENT_3D('',#1089,#1090,#1091);
#1089 = CARTESIAN_POINT('',(-9.75,-34.,31.));
#1090 = DIRECTION('',(0.,1.,0.));
#1091 = DIRECTION('',(1.,0.,0.));
#1092 = ADVANCED_FACE('',(#1093),#1112,.F.);
#1093 = FACE_BOUND('',#1094,.F.);
#1094 = EDGE_LOOP('',(#1095,#1103,#1104,#1105));
#1095 = ORIENTED_EDGE('',*,*,#1096,.T.);
#1096 = EDGE_CURVE('',#1097,#1008,#1099,.T.);
#1097 = VERTEX_POINT('',#1098);
#1098 = CARTESIAN_POINT('',(-8.6,-34.,61.));
#1099 = LINE('',#1100,#1101);
#1100 = CARTESIAN_POINT('',(-8.6,-34.,61.));
#1101 = VECTOR('',#1102,1.);
#1102 = DIRECTION('',(-0.,-1.,0.));
#1103 = ORIENTED_EDGE('',*,*,#1007,.T.);
#1104 = ORIENTED_EDGE('',*,*,#1096,.F.);
#1105 = ORIENTED_EDGE('',*,*,#1106,.F.);
#1106 = EDGE_CURVE('',#1097,#1097,#1107,.T.);
#1107 = CIRCLE('',#1108,1.15);
#1108 = AXIS2_PLACEMENT_3D('',#1109,#1110,#1111);
#1109 = CARTESIAN_POINT('',(-9.75,-34.,61.));
#1110 = DIRECTION('',(-0.,1.,0.));
#1111 = DIRECTION('',(1.,0.,0.));
#1112 = CYLINDRICAL_SURFACE('',#1113,1.15);
#1113 = AXIS2_PLACEMENT_3D('',#1114,#1115,#1116);
#1114 = CARTESIAN_POINT('',(-9.75,-34.,61.));
#1115 = DIRECTION('',(0.,1.,0.));
#1116 = DIRECTION('',(1.,0.,0.));
#1117 = ADVANCED_FACE('',(#1118,#1121,#1132,#1143,#1154,#1165),#1176,.T.
  );
#1118 = FACE_BOUND('',#1119,.F.);
#1119 = EDGE_LOOP('',(#1120));
#1120 = ORIENTED_EDGE('',*,*,#710,.T.);
#1121 = FACE_BOUND('',#1122,.F.);
#1122 = EDGE_LOOP('',(#1123));
#1123 = ORIENTED_EDGE('',*,*,#1124,.T.);
#1124 = EDGE_CURVE('',#1125,#1125,#1127,.T.);
#1125 = VERTEX_POINT('',#1126);
#1126 = CARTESIAN_POINT('',(-21.14264068711,-41.4,84.742640687119));
#1127 = CIRCLE('',#1128,0.85);
#1128 = AXIS2_PLACEMENT_3D('',#1129,#1130,#1131);
#1129 = CARTESIAN_POINT('',(-21.99264068711,-41.4,84.742640687119));
#1130 = DIRECTION('',(0.,-1.,0.));
#1131 = DIRECTION('',(1.,0.,0.));
#1132 = FACE_BOUND('',#1133,.F.);
#1133 = EDGE_LOOP('',(#1134));
#1134 = ORIENTED_EDGE('',*,*,#1135,.T.);
#1135 = EDGE_CURVE('',#1136,#1136,#1138,.T.);
#1136 = VERTEX_POINT('',#1137);
#1137 = CARTESIAN_POINT('',(-12.65735931288,-41.4,84.742640687119));
#1138 = CIRCLE('',#1139,0.85);
#1139 = AXIS2_PLACEMENT_3D('',#1140,#1141,#1142);
#1140 = CARTESIAN_POINT('',(-13.50735931288,-41.4,84.742640687119));
#1141 = DIRECTION('',(0.,-1.,0.));
#1142 = DIRECTION('',(1.,0.,0.));
#1143 = FACE_BOUND('',#1144,.F.);
#1144 = EDGE_LOOP('',(#1145));
#1145 = ORIENTED_EDGE('',*,*,#1146,.T.);
#1146 = EDGE_CURVE('',#1147,#1147,#1149,.T.);
#1147 = VERTEX_POINT('',#1148);
#1148 = CARTESIAN_POINT('',(-13.75,-41.4,80.5));
#1149 = CIRCLE('',#1150,4.);
#1150 = AXIS2_PLACEMENT_3D('',#1151,#1152,#1153);
#1151 = CARTESIAN_POINT('',(-17.75,-41.4,80.5));
#1152 = DIRECTION('',(0.,-1.,0.));
#1153 = DIRECTION('',(1.,0.,0.));
#1154 = FACE_BOUND('',#1155,.F.);
#1155 = EDGE_LOOP('',(#1156));
#1156 = ORIENTED_EDGE('',*,*,#1157,.T.);
#1157 = EDGE_CURVE('',#1158,#1158,#1160,.T.);
#1158 = VERTEX_POINT('',#1159);
#1159 = CARTESIAN_POINT('',(-21.14264068711,-41.4,76.257359312881));
#1160 = CIRCLE('',#1161,0.85);
#1161 = AXIS2_PLACEMENT_3D('',#1162,#1163,#1164);
#1162 = CARTESIAN_POINT('',(-21.99264068711,-41.4,76.257359312881));
#1163 = DIRECTION('',(0.,-1.,0.));
#1164 = DIRECTION('',(1.,0.,0.));
#1165 = FACE_BOUND('',#1166,.F.);
#1166 = EDGE_LOOP('',(#1167));
#1167 = ORIENTED_EDGE('',*,*,#1168,.T.);
#1168 = EDGE_CURVE('',#1169,#1169,#1171,.T.);
#1169 = VERTEX_POINT('',#1170);
#1170 = CARTESIAN_POINT('',(-12.65735931288,-41.4,76.257359312881));
#1171 = CIRCLE('',#1172,0.85);
#1172 = AXIS2_PLACEMENT_3D('',#1173,#1174,#1175);
#1173 = CARTESIAN_POINT('',(-13.50735931288,-41.4,76.257359312881));
#1174 = DIRECTION('',(0.,-1.,0.));
#1175 = DIRECTION('',(1.,0.,0.));
#1176 = PLANE('',#1177);
#1177 = AXIS2_PLACEMENT_3D('',#1178,#1179,#1180);
#1178 = CARTESIAN_POINT('',(-17.75,-41.4,80.5));
#1179 = DIRECTION('',(-0.,-1.,0.));
#1180 = DIRECTION('',(-1.,0.,-0.));
#1181 = ADVANCED_FACE('',(#1182),#1200,.F.);
#1182 = FACE_BOUND('',#1183,.T.);
#1183 = EDGE_LOOP('',(#1184,#1192,#1193,#1194));
#1184 = ORIENTED_EDGE('',*,*,#1185,.F.);
#1185 = EDGE_CURVE('',#886,#1186,#1188,.T.);
#1186 = VERTEX_POINT('',#1187);
#1187 = CARTESIAN_POINT('',(-10.,-34.,82.));
#1188 = LINE('',#1189,#1190);
#1189 = CARTESIAN_POINT('',(-10.,-34.,68.));
#1190 = VECTOR('',#1191,1.);
#1191 = DIRECTION('',(0.,0.,1.));
#1192 = ORIENTED_EDGE('',*,*,#893,.T.);
#1193 = ORIENTED_EDGE('',*,*,#791,.F.);
#1194 = ORIENTED_EDGE('',*,*,#1195,.F.);
#1195 = EDGE_CURVE('',#1186,#784,#1196,.T.);
#1196 = LINE('',#1197,#1198);
#1197 = CARTESIAN_POINT('',(-10.,-34.,82.));
#1198 = VECTOR('',#1199,1.);
#1199 = DIRECTION('',(-0.,-1.,-0.));
#1200 = PLANE('',#1201);
#1201 = AXIS2_PLACEMENT_3D('',#1202,#1203,#1204);
#1202 = CARTESIAN_POINT('',(-10.,-34.,68.));
#1203 = DIRECTION('',(1.,0.,0.));
#1204 = DIRECTION('',(0.,0.,-1.));
#1205 = ADVANCED_FACE('',(#1206),#1224,.T.);
#1206 = FACE_BOUND('',#1207,.F.);
#1207 = EDGE_LOOP('',(#1208,#1209,#1217,#1223));
#1208 = ORIENTED_EDGE('',*,*,#1195,.F.);
#1209 = ORIENTED_EDGE('',*,*,#1210,.T.);
#1210 = EDGE_CURVE('',#1186,#1211,#1213,.T.);
#1211 = VERTEX_POINT('',#1212);
#1212 = CARTESIAN_POINT('',(-5.55,-34.,82.));
#1213 = LINE('',#1214,#1215);
#1214 = CARTESIAN_POINT('',(-10.,-34.,82.));
#1215 = VECTOR('',#1216,1.);
#1216 = DIRECTION('',(1.,0.,0.));
#1217 = ORIENTED_EDGE('',*,*,#1218,.T.);
#1218 = EDGE_CURVE('',#1211,#776,#1219,.T.);
#1219 = LINE('',#1220,#1221);
#1220 = CARTESIAN_POINT('',(-5.55,-34.,82.));
#1221 = VECTOR('',#1222,1.);
#1222 = DIRECTION('',(-0.,-1.,-0.));
#1223 = ORIENTED_EDGE('',*,*,#783,.F.);
#1224 = PLANE('',#1225);
#1225 = AXIS2_PLACEMENT_3D('',#1226,#1227,#1228);
#1226 = CARTESIAN_POINT('',(-10.,-34.,82.));
#1227 = DIRECTION('',(0.,0.,1.));
#1228 = DIRECTION('',(-1.,-0.,-0.));
#1229 = ADVANCED_FACE('',(#1230),#1241,.F.);
#1230 = FACE_BOUND('',#1231,.F.);
#1231 = EDGE_LOOP('',(#1232,#1233,#1239,#1240));
#1232 = ORIENTED_EDGE('',*,*,#799,.F.);
#1233 = ORIENTED_EDGE('',*,*,#1234,.T.);
#1234 = EDGE_CURVE('',#800,#1158,#1235,.T.);
#1235 = LINE('',#1236,#1237);
#1236 = CARTESIAN_POINT('',(-21.14264068711,-38.,76.257359312881));
#1237 = VECTOR('',#1238,1.);
#1238 = DIRECTION('',(-0.,-1.,0.));
#1239 = ORIENTED_EDGE('',*,*,#1157,.F.);
#1240 = ORIENTED_EDGE('',*,*,#1234,.F.);
#1241 = CYLINDRICAL_SURFACE('',#1242,0.85);
#1242 = AXIS2_PLACEMENT_3D('',#1243,#1244,#1245);
#1243 = CARTESIAN_POINT('',(-21.99264068711,-38.,76.257359312881));
#1244 = DIRECTION('',(0.,1.,0.));
#1245 = DIRECTION('',(1.,0.,0.));
#1246 = ADVANCED_FACE('',(#1247),#1258,.F.);
#1247 = FACE_BOUND('',#1248,.F.);
#1248 = EDGE_LOOP('',(#1249,#1250,#1256,#1257));
#1249 = ORIENTED_EDGE('',*,*,#810,.F.);
#1250 = ORIENTED_EDGE('',*,*,#1251,.T.);
#1251 = EDGE_CURVE('',#811,#1125,#1252,.T.);
#1252 = LINE('',#1253,#1254);
#1253 = CARTESIAN_POINT('',(-21.14264068711,-38.,84.742640687119));
#1254 = VECTOR('',#1255,1.);
#1255 = DIRECTION('',(-0.,-1.,0.));
#1256 = ORIENTED_EDGE('',*,*,#1124,.F.);
#1257 = ORIENTED_EDGE('',*,*,#1251,.F.);
#1258 = CYLINDRICAL_SURFACE('',#1259,0.85);
#1259 = AXIS2_PLACEMENT_3D('',#1260,#1261,#1262);
#1260 = CARTESIAN_POINT('',(-21.99264068711,-38.,84.742640687119));
#1261 = DIRECTION('',(0.,1.,0.));
#1262 = DIRECTION('',(1.,0.,0.));
#1263 = ADVANCED_FACE('',(#1264),#1275,.F.);
#1264 = FACE_BOUND('',#1265,.F.);
#1265 = EDGE_LOOP('',(#1266,#1267,#1273,#1274));
#1266 = ORIENTED_EDGE('',*,*,#821,.F.);
#1267 = ORIENTED_EDGE('',*,*,#1268,.T.);
#1268 = EDGE_CURVE('',#822,#1147,#1269,.T.);
#1269 = LINE('',#1270,#1271);
#1270 = CARTESIAN_POINT('',(-13.75,-38.,80.5));
#1271 = VECTOR('',#1272,1.);
#1272 = DIRECTION('',(-0.,-1.,0.));
#1273 = ORIENTED_EDGE('',*,*,#1146,.F.);
#1274 = ORIENTED_EDGE('',*,*,#1268,.F.);
#1275 = CYLINDRICAL_SURFACE('',#1276,4.);
#1276 = AXIS2_PLACEMENT_3D('',#1277,#1278,#1279);
#1277 = CARTESIAN_POINT('',(-17.75,-38.,80.5));
#1278 = DIRECTION('',(0.,1.,0.));
#1279 = DIRECTION('',(1.,0.,0.));
#1280 = ADVANCED_FACE('',(#1281),#1292,.F.);
#1281 = FACE_BOUND('',#1282,.F.);
#1282 = EDGE_LOOP('',(#1283,#1284,#1290,#1291));
#1283 = ORIENTED_EDGE('',*,*,#832,.F.);
#1284 = ORIENTED_EDGE('',*,*,#1285,.T.);
#1285 = EDGE_CURVE('',#833,#1169,#1286,.T.);
#1286 = LINE('',#1287,#1288);
#1287 = CARTESIAN_POINT('',(-12.65735931288,-38.,76.257359312881));
#1288 = VECTOR('',#1289,1.);
#1289 = DIRECTION('',(-0.,-1.,0.));
#1290 = ORIENTED_EDGE('',*,*,#1168,.F.);
#1291 = ORIENTED_EDGE('',*,*,#1285,.F.);
#1292 = CYLINDRICAL_SURFACE('',#1293,0.85);
#1293 = AXIS2_PLACEMENT_3D('',#1294,#1295,#1296);
#1294 = CARTESIAN_POINT('',(-13.50735931288,-38.,76.257359312881));
#1295 = DIRECTION('',(0.,1.,0.));
#1296 = DIRECTION('',(1.,0.,0.));
#1297 = ADVANCED_FACE('',(#1298),#1309,.F.);
#1298 = FACE_BOUND('',#1299,.F.);
#1299 = EDGE_LOOP('',(#1300,#1301,#1307,#1308));
#1300 = ORIENTED_EDGE('',*,*,#843,.F.);
#1301 = ORIENTED_EDGE('',*,*,#1302,.T.);
#1302 = EDGE_CURVE('',#844,#1136,#1303,.T.);
#1303 = LINE('',#1304,#1305);
#1304 = CARTESIAN_POINT('',(-12.65735931288,-38.,84.742640687119));
#1305 = VECTOR('',#1306,1.);
#1306 = DIRECTION('',(-0.,-1.,0.));
#1307 = ORIENTED_EDGE('',*,*,#1135,.F.);
#1308 = ORIENTED_EDGE('',*,*,#1302,.F.);
#1309 = CYLINDRICAL_SURFACE('',#1310,0.85);
#1310 = AXIS2_PLACEMENT_3D('',#1311,#1312,#1313);
#1311 = CARTESIAN_POINT('',(-13.50735931288,-38.,84.742640687119));
#1312 = DIRECTION('',(0.,1.,0.));
#1313 = DIRECTION('',(1.,0.,0.));
#1314 = ADVANCED_FACE('',(#1315,#1318),#1329,.F.);
#1315 = FACE_BOUND('',#1316,.T.);
#1316 = EDGE_LOOP('',(#1317));
#1317 = ORIENTED_EDGE('',*,*,#21,.T.);
#1318 = FACE_BOUND('',#1319,.T.);
#1319 = EDGE_LOOP('',(#1320));
#1320 = ORIENTED_EDGE('',*,*,#1321,.F.);
#1321 = EDGE_CURVE('',#1322,#1322,#1324,.T.);
#1322 = VERTEX_POINT('',#1323);
#1323 = CARTESIAN_POINT('',(-10.15,-30.,38.5));
#1324 = CIRCLE('',#1325,7.6);
#1325 = AXIS2_PLACEMENT_3D('',#1326,#1327,#1328);
#1326 = CARTESIAN_POINT('',(-17.75,-30.,38.5));
#1327 = DIRECTION('',(-0.,1.,0.));
#1328 = DIRECTION('',(1.,0.,0.));
#1329 = PLANE('',#1330);
#1330 = AXIS2_PLACEMENT_3D('',#1331,#1332,#1333);
#1331 = CARTESIAN_POINT('',(-17.75,-30.,38.5));
#1332 = DIRECTION('',(-0.,-1.,0.));
#1333 = DIRECTION('',(-1.,0.,-0.));
#1334 = ADVANCED_FACE('',(#1335),#1339,.T.);
#1335 = FACE_BOUND('',#1336,.F.);
#1336 = EDGE_LOOP('',(#1337,#1338));
#1337 = ORIENTED_EDGE('',*,*,#1081,.T.);
#1338 = ORIENTED_EDGE('',*,*,#47,.T.);
#1339 = PLANE('',#1340);
#1340 = AXIS2_PLACEMENT_3D('',#1341,#1342,#1343);
#1341 = CARTESIAN_POINT('',(-17.75,-34.,38.5));
#1342 = DIRECTION('',(-0.,-1.,0.));
#1343 = DIRECTION('',(-1.,0.,-0.));
#1344 = ADVANCED_FACE('',(#1345),#1364,.F.);
#1345 = FACE_BOUND('',#1346,.F.);
#1346 = EDGE_LOOP('',(#1347,#1356,#1362,#1363));
#1347 = ORIENTED_EDGE('',*,*,#1348,.T.);
#1348 = EDGE_CURVE('',#1349,#1349,#1351,.T.);
#1349 = VERTEX_POINT('',#1350);
#1350 = CARTESIAN_POINT('',(-12.25,-33.,38.5));
#1351 = CIRCLE('',#1352,5.5);
#1352 = AXIS2_PLACEMENT_3D('',#1353,#1354,#1355);
#1353 = CARTESIAN_POINT('',(-17.75,-33.,38.5));
#1354 = DIRECTION('',(0.,-1.,0.));
#1355 = DIRECTION('',(1.,0.,0.));
#1356 = ORIENTED_EDGE('',*,*,#1357,.T.);
#1357 = EDGE_CURVE('',#1349,#986,#1358,.T.);
#1358 = LINE('',#1359,#1360);
#1359 = CARTESIAN_POINT('',(-12.25,-30.,38.5));
#1360 = VECTOR('',#1361,1.);
#1361 = DIRECTION('',(-0.,-1.,0.));
#1362 = ORIENTED_EDGE('',*,*,#985,.T.);
#1363 = ORIENTED_EDGE('',*,*,#1357,.F.);
#1364 = CYLINDRICAL_SURFACE('',#1365,5.5);
#1365 = AXIS2_PLACEMENT_3D('',#1366,#1367,#1368);
#1366 = CARTESIAN_POINT('',(-17.75,-30.,38.5));
#1367 = DIRECTION('',(0.,1.,0.));
#1368 = DIRECTION('',(1.,0.,0.));
#1369 = ADVANCED_FACE('',(#1370),#1389,.F.);
#1370 = FACE_BOUND('',#1371,.F.);
#1371 = EDGE_LOOP('',(#1372,#1380,#1387,#1388));
#1372 = ORIENTED_EDGE('',*,*,#1373,.T.);
#1373 = EDGE_CURVE('',#1322,#1374,#1376,.T.);
#1374 = VERTEX_POINT('',#1375);
#1375 = CARTESIAN_POINT('',(-10.15,-33.,38.5));
#1376 = LINE('',#1377,#1378);
#1377 = CARTESIAN_POINT('',(-10.15,-30.,38.5));
#1378 = VECTOR('',#1379,1.);
#1379 = DIRECTION('',(-0.,-1.,0.));
#1380 = ORIENTED_EDGE('',*,*,#1381,.T.);
#1381 = EDGE_CURVE('',#1374,#1374,#1382,.T.);
#1382 = CIRCLE('',#1383,7.6);
#1383 = AXIS2_PLACEMENT_3D('',#1384,#1385,#1386);
#1384 = CARTESIAN_POINT('',(-17.75,-33.,38.5));
#1385 = DIRECTION('',(-0.,1.,0.));
#1386 = DIRECTION('',(1.,0.,0.));
#1387 = ORIENTED_EDGE('',*,*,#1373,.F.);
#1388 = ORIENTED_EDGE('',*,*,#1321,.F.);
#1389 = CYLINDRICAL_SURFACE('',#1390,7.6);
#1390 = AXIS2_PLACEMENT_3D('',#1391,#1392,#1393);
#1391 = CARTESIAN_POINT('',(-17.75,-30.,38.5));
#1392 = DIRECTION('',(0.,1.,0.));
#1393 = DIRECTION('',(1.,0.,0.));
#1394 = ADVANCED_FACE('',(#1395,#1398),#1401,.F.);
#1395 = FACE_BOUND('',#1396,.T.);
#1396 = EDGE_LOOP('',(#1397));
#1397 = ORIENTED_EDGE('',*,*,#1381,.T.);
#1398 = FACE_BOUND('',#1399,.T.);
#1399 = EDGE_LOOP('',(#1400));
#1400 = ORIENTED_EDGE('',*,*,#1348,.T.);
#1401 = PLANE('',#1402);
#1402 = AXIS2_PLACEMENT_3D('',#1403,#1404,#1405);
#1403 = CARTESIAN_POINT('',(-17.75,-33.,38.5));
#1404 = DIRECTION('',(-0.,-1.,0.));
#1405 = DIRECTION('',(-1.,0.,-0.));
#1406 = ADVANCED_FACE('',(#1407,#1430,#1439),#1442,.T.);
#1407 = FACE_BOUND('',#1408,.F.);
#1408 = EDGE_LOOP('',(#1409,#1410,#1411,#1412,#1413,#1414,#1415,#1416,
    #1417,#1418,#1424,#1425,#1426,#1427,#1428,#1429));
#1409 = ORIENTED_EDGE('',*,*,#124,.F.);
#1410 = ORIENTED_EDGE('',*,*,#324,.F.);
#1411 = ORIENTED_EDGE('',*,*,#350,.T.);
#1412 = ORIENTED_EDGE('',*,*,#685,.F.);
#1413 = ORIENTED_EDGE('',*,*,#908,.T.);
#1414 = ORIENTED_EDGE('',*,*,#475,.T.);
#1415 = ORIENTED_EDGE('',*,*,#459,.T.);
#1416 = ORIENTED_EDGE('',*,*,#427,.T.);
#1417 = ORIENTED_EDGE('',*,*,#404,.F.);
#1418 = ORIENTED_EDGE('',*,*,#1419,.T.);
#1419 = EDGE_CURVE('',#397,#1211,#1420,.T.);
#1420 = LINE('',#1421,#1422);
#1421 = CARTESIAN_POINT('',(-5.55,-34.,68.));
#1422 = VECTOR('',#1423,1.);
#1423 = DIRECTION('',(0.,0.,1.));
#1424 = ORIENTED_EDGE('',*,*,#1210,.F.);
#1425 = ORIENTED_EDGE('',*,*,#1185,.F.);
#1426 = ORIENTED_EDGE('',*,*,#885,.F.);
#1427 = ORIENTED_EDGE('',*,*,#860,.T.);
#1428 = ORIENTED_EDGE('',*,*,#726,.F.);
#1429 = ORIENTED_EDGE('',*,*,#286,.F.);
#1430 = FACE_BOUND('',#1431,.F.);
#1431 = EDGE_LOOP('',(#1432,#1433,#1434,#1435,#1436,#1437,#1438));
#1432 = ORIENTED_EDGE('',*,*,#1041,.T.);
#1433 = ORIENTED_EDGE('',*,*,#1024,.T.);
#1434 = ORIENTED_EDGE('',*,*,#74,.T.);
#1435 = ORIENTED_EDGE('',*,*,#38,.T.);
#1436 = ORIENTED_EDGE('',*,*,#1074,.T.);
#1437 = ORIENTED_EDGE('',*,*,#1057,.T.);
#1438 = ORIENTED_EDGE('',*,*,#56,.T.);
#1439 = FACE_BOUND('',#1440,.F.);
#1440 = EDGE_LOOP('',(#1441));
#1441 = ORIENTED_EDGE('',*,*,#1106,.T.);
#1442 = PLANE('',#1443);
#1443 = AXIS2_PLACEMENT_3D('',#1444,#1445,#1446);
#1444 = CARTESIAN_POINT('',(-17.75,-34.,56.407015706806));
#1445 = DIRECTION('',(0.,1.,0.));
#1446 = DIRECTION('',(0.,0.,1.));
#1447 = ADVANCED_FACE('',(#1448),#1456,.T.);
#1448 = FACE_BOUND('',#1449,.F.);
#1449 = EDGE_LOOP('',(#1450,#1451,#1452,#1453,#1454,#1455));
#1450 = ORIENTED_EDGE('',*,*,#775,.F.);
#1451 = ORIENTED_EDGE('',*,*,#1218,.F.);
#1452 = ORIENTED_EDGE('',*,*,#1419,.F.);
#1453 = ORIENTED_EDGE('',*,*,#396,.F.);
#1454 = ORIENTED_EDGE('',*,*,#179,.T.);
#1455 = ORIENTED_EDGE('',*,*,#381,.F.);
#1456 = PLANE('',#1457);
#1457 = AXIS2_PLACEMENT_3D('',#1458,#1459,#1460);
#1458 = CARTESIAN_POINT('',(-5.55,-38.76363636363,81.986363636364));
#1459 = DIRECTION('',(1.,0.,0.));
#1460 = DIRECTION('',(0.,0.,-1.));
#1461 = ( GEOMETRIC_REPRESENTATION_CONTEXT(3) 
GLOBAL_UNCERTAINTY_ASSIGNED_CONTEXT((#1465)) 
GLOBAL_UNIT_ASSIGNED_CONTEXT((#1462,#1463,#1464)) REPRESENTATION_CONTEXT
('Context #1','3D Context with UNIT and UNCERTAINTY') );
#1462 = ( LENGTH_UNIT() NAMED_UNIT(*) SI_UNIT(.MILLI.,.METRE.) );
#1463 = ( NAMED_UNIT(*) PLANE_ANGLE_UNIT() SI_UNIT($,.RADIAN.) );
#1464 = ( NAMED_UNIT(*) SI_UNIT($,.STERADIAN.) SOLID_ANGLE_UNIT() );
#1465 = UNCERTAINTY_MEASURE_WITH_UNIT(LENGTH_MEASURE(5.E-05),#1462,
  'distance_accuracy_value','confusion accuracy');
#1466 = PRODUCT_RELATED_PRODUCT_CATEGORY('part',$,(#7));
ENDSEC;
END-ISO-10303-21;
