ISO-10303-21;
HEADER;
FILE_DESCRIPTION(('FreeCAD Model'),'2;1');
FILE_NAME('Open CASCADE Shape Model','2026-10-09T09:09:13',('FreeCAD'),(
    'FreeCAD'),'Open CASCADE STEP processor 7.8','FreeCAD','Unknown');
FILE_SCHEMA(('AUTOMOTIVE_DESIGN { 1 0 10303 214 1 1 1 1 }'));
ENDSEC;
DATA;
#1 = APPLICATION_PROTOCOL_DEFINITION('international standard',
  'automotive_design',2000,#2);
#2 = APPLICATION_CONTEXT(
  'core data for automotive mechanical design processes');
#3 = SHAPE_DEFINITION_REPRESENTATION(#4,#10);
#4 = PRODUCT_DEFINITION_SHAPE('','',#5);
#5 = PRODUCT_DEFINITION('design','',#6,#9);
#6 = PRODUCT_DEFINITION_FORMATION('','',#7);
#7 = PRODUCT('Open CASCADE STEP translator 7.8 18',
  'Open CASCADE STEP translator 7.8 18','',(#8));
#8 = PRODUCT_CONTEXT('',#2,'mechanical');
#9 = PRODUCT_DEFINITION_CONTEXT('part definition',#2,'design');
#10 = ADVANCED_BREP_SHAPE_REPRESENTATION('',(#11,#15),#469);
#11 = AXIS2_PLACEMENT_3D('',#12,#13,#14);
#12 = CARTESIAN_POINT('',(0.,0.,0.));
#13 = DIRECTION('',(0.,0.,1.));
#14 = DIRECTION('',(1.,0.,-0.));
#15 = MANIFOLD_SOLID_BREP('',#16);
#16 = CLOSED_SHELL('',(#17,#77,#206,#226,#280,#342));
#17 = ADVANCED_FACE('',(#18),#69,.F.);
#18 = FACE_BOUND('',#19,.F.);
#19 = EDGE_LOOP('',(#20,#30,#61,#62));
#20 = ORIENTED_EDGE('',*,*,#21,.T.);
#21 = EDGE_CURVE('',#22,#24,#26,.T.);
#22 = VERTEX_POINT('',#23);
#23 = CARTESIAN_POINT('',(79.,26.,232.5));
#24 = VERTEX_POINT('',#25);
#25 = CARTESIAN_POINT('',(80.8,26.,232.5));
#26 = LINE('',#27,#28);
#27 = CARTESIAN_POINT('',(79.,26.,232.5));
#28 = VECTOR('',#29,1.);
#29 = DIRECTION('',(1.,0.,3.3E-16));
#30 = ORIENTED_EDGE('',*,*,#31,.T.);
#31 = EDGE_CURVE('',#24,#24,#32,.T.);
#32 = ( BOUNDED_CURVE() B_SPLINE_CURVE(14,(#33,#34,#35,#36,#37,#38,#39,
    #40,#41,#42,#43,#44,#45,#46,#47,#48,#49,#50,#51,#52,#53,#54,#55,#56,
#57,#58,#59,#60),.UNSPECIFIED.,.T.,.F.) B_SPLINE_CURVE_WITH_KNOTS((15,13
,15),(-3.06E-15,34.00106854905,68.0021370981),.UNSPECIFIED.) CURVE() 
GEOMETRIC_REPRESENTATION_ITEM() RATIONAL_B_SPLINE_CURVE((1.,1.,1.,
    1.000000000001,0.999999999999,1.000000000002,0.999999999997,
    1.000000000004,0.999999999997,1.000000000002,0.999999999999,
    1.000000000001,1.,1.,1.,1.,0.999999999999,1.000000000003,
    0.999999999996,1.000000000005,0.999999999995,1.000000000004,
    0.999999999997,1.000000000001,0.999999999999,1.,1.,1.)) 
REPRESENTATION_ITEM('') );
#33 = CARTESIAN_POINT('',(80.8,26.,232.5));
#34 = CARTESIAN_POINT('',(80.8,27.990380410735,232.5));
#35 = CARTESIAN_POINT('',(80.8,30.001672398318,233.15838775476));
#36 = CARTESIAN_POINT('',(80.799999999999,31.902959782809,
    234.49764629884));
#37 = CARTESIAN_POINT('',(80.800000000003,33.555725797696,
    236.47924857184));
#38 = CARTESIAN_POINT('',(80.799999999993,34.832422077573,
    239.00000276662));
#39 = CARTESIAN_POINT('',(80.800000000013,35.634934378618,
    241.90224599585));
#40 = CARTESIAN_POINT('',(80.799999999986,35.90689720108,244.99685414122
    ));
#41 = CARTESIAN_POINT('',(80.800000000011,35.631813234585,
    248.08642533208));
#42 = CARTESIAN_POINT('',(80.799999999995,34.831855689674,
    250.97482407608));
#43 = CARTESIAN_POINT('',(80.800000000001,33.567290674763,253.4835446287
    ));
#44 = CARTESIAN_POINT('',(80.8,31.93101220151,255.4664262573));
#45 = CARTESIAN_POINT('',(80.8,30.039190620254,256.82214272446));
#46 = CARTESIAN_POINT('',(80.8,28.019595277309,257.49999999999));
#47 = CARTESIAN_POINT('',(80.8,23.980404722691,257.5));
#48 = CARTESIAN_POINT('',(80.8,21.960809379751,256.82214272445));
#49 = CARTESIAN_POINT('',(80.799999999999,20.068987798474,
    255.46642625731));
#50 = CARTESIAN_POINT('',(80.800000000004,18.432709325276,
    253.48354462868));
#51 = CARTESIAN_POINT('',(80.79999999999,17.168144310254,250.97482407607
    ));
#52 = CARTESIAN_POINT('',(80.800000000015,16.368186765515,
    248.08642533214));
#53 = CARTESIAN_POINT('',(80.799999999982,16.093102798813,
    244.99685414111));
#54 = CARTESIAN_POINT('',(80.800000000015,16.365065621473,
    241.90224599599));
#55 = CARTESIAN_POINT('',(80.79999999999,17.167577922365,239.0000027665)
  );
#56 = CARTESIAN_POINT('',(80.800000000005,18.44427420234,236.47924857191
    ));
#57 = CARTESIAN_POINT('',(80.799999999998,20.097040217174,
    234.49764629881));
#58 = CARTESIAN_POINT('',(80.8,21.998327601689,233.15838775477));
#59 = CARTESIAN_POINT('',(80.8,24.009619589263,232.49999999999));
#60 = CARTESIAN_POINT('',(80.8,26.,232.5));
#61 = ORIENTED_EDGE('',*,*,#21,.F.);
#62 = ORIENTED_EDGE('',*,*,#63,.F.);
#63 = EDGE_CURVE('',#22,#22,#64,.T.);
#64 = ELLIPSE('',#65,12.5,9.);
#65 = AXIS2_PLACEMENT_3D('',#66,#67,#68);
#66 = CARTESIAN_POINT('',(79.,26.,245.));
#67 = DIRECTION('',(1.,-0.,2.2E-16));
#68 = DIRECTION('',(2.2E-16,0.,-1.));
#69 = SURFACE_OF_LINEAR_EXTRUSION('',#70,#75);
#70 = ELLIPSE('',#71,12.5,9.);
#71 = AXIS2_PLACEMENT_3D('',#72,#73,#74);
#72 = CARTESIAN_POINT('',(79.,26.,245.));
#73 = DIRECTION('',(1.,-0.,3.3E-16));
#74 = DIRECTION('',(3.3E-16,0.,-1.));
#75 = VECTOR('',#76,1.);
#76 = DIRECTION('',(-1.,0.,-3.3E-16));
#77 = ADVANCED_FACE('',(#78),#121,.F.);
#78 = FACE_BOUND('',#79,.F.);
#79 = EDGE_LOOP('',(#80,#88,#119,#120));
#80 = ORIENTED_EDGE('',*,*,#81,.T.);
#81 = EDGE_CURVE('',#24,#82,#84,.T.);
#82 = VERTEX_POINT('',#83);
#83 = CARTESIAN_POINT('',(81.4,26.,233.1));
#84 = ( BOUNDED_CURVE() B_SPLINE_CURVE(2,(#85,#86,#87),.UNSPECIFIED.,.F.
,.F.) B_SPLINE_CURVE_WITH_KNOTS((3,3),(0.,68.0021370981),
.PIECEWISE_BEZIER_KNOTS.) CURVE() GEOMETRIC_REPRESENTATION_ITEM() 
RATIONAL_B_SPLINE_CURVE((1.,0.707106781187,1.)) REPRESENTATION_ITEM('') 
  );
#85 = CARTESIAN_POINT('',(80.8,26.,232.5));
#86 = CARTESIAN_POINT('',(81.4,26.,232.5));
#87 = CARTESIAN_POINT('',(81.4,26.,233.1));
#88 = ORIENTED_EDGE('',*,*,#89,.T.);
#89 = EDGE_CURVE('',#82,#82,#90,.T.);
#90 = ( BOUNDED_CURVE() B_SPLINE_CURVE(14,(#91,#92,#93,#94,#95,#96,#97,
    #98,#99,#100,#101,#102,#103,#104,#105,#106,#107,#108,#109,#110,#111,
    #112,#113,#114,#115,#116,#117,#118),.UNSPECIFIED.,.T.,.F.) 
B_SPLINE_CURVE_WITH_KNOTS((15,13,15),(-3.06E-15,34.00106854905,
68.0021370981),.UNSPECIFIED.) CURVE() GEOMETRIC_REPRESENTATION_ITEM() 
RATIONAL_B_SPLINE_CURVE((1.,1.,1.,1.000000000001,0.999999999999,
    1.000000000002,0.999999999997,1.000000000004,0.999999999997,
    1.000000000002,0.999999999999,1.000000000001,1.,1.,1.,1.,
    0.999999999999,1.000000000003,0.999999999996,1.000000000005,
    0.999999999995,1.000000000004,0.999999999997,1.000000000001,
0.999999999999,1.,1.,1.)) REPRESENTATION_ITEM('') );
#91 = CARTESIAN_POINT('',(81.4,26.,233.1));
#92 = CARTESIAN_POINT('',(81.4,27.806085928259,233.1));
#93 = CARTESIAN_POINT('',(81.4,29.63137641619,233.69742998135));
#94 = CARTESIAN_POINT('',(81.399999999999,31.385922973644,
    234.91315891208));
#95 = CARTESIAN_POINT('',(81.400000000001,32.993351503182,
    236.74224976088));
#96 = CARTESIAN_POINT('',(81.399999999998,34.256344180384,
    239.21973559667));
#97 = CARTESIAN_POINT('',(81.400000000003,34.97145522055,241.97456888426
    ));
#98 = CARTESIAN_POINT('',(81.399999999997,35.333984629923,
    244.99570575604));
#99 = CARTESIAN_POINT('',(81.400000000003,34.970859197974,
    248.01637223952));
#100 = CARTESIAN_POINT('',(81.399999999998,34.252305559325,
    250.75564215462));
#101 = CARTESIAN_POINT('',(81.400000000001,33.00719637488,
    253.22015905505));
#102 = CARTESIAN_POINT('',(81.4,31.412898101604,255.05458201683));
#103 = CARTESIAN_POINT('',(81.4,29.665398682474,256.28486696843));
#104 = CARTESIAN_POINT('',(81.4,27.832595714594,256.89999999999));
#105 = CARTESIAN_POINT('',(81.4,24.167404285406,256.9));
#106 = CARTESIAN_POINT('',(81.4,22.334601317527,256.28486696842));
#107 = CARTESIAN_POINT('',(81.4,20.587101898393,255.05458201683));
#108 = CARTESIAN_POINT('',(81.400000000001,18.992803625132,
    253.22015905505));
#109 = CARTESIAN_POINT('',(81.399999999999,17.747694440646,
    250.75564215459));
#110 = CARTESIAN_POINT('',(81.400000000002,17.029140802071,
    248.01637223959));
#111 = CARTESIAN_POINT('',(81.399999999998,16.666015370025,
    244.99570575591));
#112 = CARTESIAN_POINT('',(81.400000000001,17.028544779493,
    241.9745688844));
#113 = CARTESIAN_POINT('',(81.399999999999,17.743655819586,
    239.21973559654));
#114 = CARTESIAN_POINT('',(81.400000000001,19.006648496836,
    236.74224976096));
#115 = CARTESIAN_POINT('',(81.4,20.614077026348,234.91315891204));
#116 = CARTESIAN_POINT('',(81.4,22.368623583813,233.69742998137));
#117 = CARTESIAN_POINT('',(81.4,24.19391407174,233.09999999999));
#118 = CARTESIAN_POINT('',(81.4,26.,233.1));
#119 = ORIENTED_EDGE('',*,*,#81,.F.);
#120 = ORIENTED_EDGE('',*,*,#31,.F.);
#121 = ( BOUNDED_SURFACE() B_SPLINE_SURFACE(2,14,(
    (#122,#123,#124,#125,#126,#127,#128,#129,#130,#131,#132,#133,#134
      ,#135,#136,#137,#138,#139,#140,#141,#142,#143,#144,#145,#146,#147
      ,#148,#149)
    ,(#150,#151,#152,#153,#154,#155,#156,#157,#158,#159,#160,#161,#162
      ,#163,#164,#165,#166,#167,#168,#169,#170,#171,#172,#173,#174,#175
      ,#176,#177)
    ,(#178,#179,#180,#181,#182,#183,#184,#185,#186,#187,#188,#189,#190
      ,#191,#192,#193,#194,#195,#196,#197,#198,#199,#200,#201,#202,#203
      ,#204,#205
)),.UNSPECIFIED.,.F.,.T.,.F.) B_SPLINE_SURFACE_WITH_KNOTS((3,3),(15,13,
    15),(0.,68.0021370981),(-3.06E-15,34.00106854905,68.0021370981),
.UNSPECIFIED.) GEOMETRIC_REPRESENTATION_ITEM() RATIONAL_B_SPLINE_SURFACE
((
    (1.,1.,1.,1.000000000001,0.999999999999,1.000000000002
      ,0.999999999997,1.000000000004,0.999999999997,1.000000000002
      ,0.999999999999,1.000000000001,1.,1.,1.,1.,0.999999999999
      ,1.000000000003,0.999999999996,1.000000000005,0.999999999995
      ,1.000000000004,0.999999999997,1.000000000001,0.999999999999,1.,1.
      ,1.)
    ,(0.707106781187,0.707106781186,0.707106781187,0.707106781185
      ,0.707106781189,0.707106781182,0.707106781192,0.70710678118
      ,0.707106781193,0.707106781182,0.70710678119,0.707106781185
      ,0.707106781187,0.707106781187,0.707106781186,0.707106781187
      ,0.707106781185,0.707106781191,0.707106781179,0.707106781196
      ,0.707106781176,0.707106781196,0.707106781179,0.707106781191
      ,0.707106781185,0.707106781187,0.707106781186,0.707106781187)
    ,(1.,1.,1.,1.000000000001,0.999999999999,1.000000000002
      ,0.999999999997,1.000000000004,0.999999999997,1.000000000002
      ,0.999999999999,1.000000000001,1.,1.,1.,1.,0.999999999999
      ,1.000000000003,0.999999999996,1.000000000005,0.999999999995
      ,1.000000000004,0.999999999997,1.000000000001,0.999999999999,1.,1.
,1.))) REPRESENTATION_ITEM('') SURFACE() );
#122 = CARTESIAN_POINT('',(80.8,26.,232.5));
#123 = CARTESIAN_POINT('',(80.8,27.990380410735,232.5));
#124 = CARTESIAN_POINT('',(80.8,30.001672398318,233.15838775476));
#125 = CARTESIAN_POINT('',(80.799999999999,31.902959782809,
    234.49764629884));
#126 = CARTESIAN_POINT('',(80.800000000003,33.555725797696,
    236.47924857184));
#127 = CARTESIAN_POINT('',(80.799999999993,34.832422077573,
    239.00000276662));
#128 = CARTESIAN_POINT('',(80.800000000013,35.634934378618,
    241.90224599585));
#129 = CARTESIAN_POINT('',(80.799999999986,35.90689720108,
    244.99685414122));
#130 = CARTESIAN_POINT('',(80.800000000011,35.631813234585,
    248.08642533208));
#131 = CARTESIAN_POINT('',(80.799999999995,34.831855689674,
    250.97482407608));
#132 = CARTESIAN_POINT('',(80.800000000001,33.567290674763,
    253.4835446287));
#133 = CARTESIAN_POINT('',(80.8,31.93101220151,255.4664262573));
#134 = CARTESIAN_POINT('',(80.8,30.039190620254,256.82214272446));
#135 = CARTESIAN_POINT('',(80.8,28.019595277309,257.49999999999));
#136 = CARTESIAN_POINT('',(80.8,23.980404722691,257.5));
#137 = CARTESIAN_POINT('',(80.8,21.960809379751,256.82214272445));
#138 = CARTESIAN_POINT('',(80.799999999999,20.068987798474,
    255.46642625731));
#139 = CARTESIAN_POINT('',(80.800000000004,18.432709325276,
    253.48354462868));
#140 = CARTESIAN_POINT('',(80.79999999999,17.168144310254,
    250.97482407607));
#141 = CARTESIAN_POINT('',(80.800000000015,16.368186765515,
    248.08642533214));
#142 = CARTESIAN_POINT('',(80.799999999982,16.093102798813,
    244.99685414111));
#143 = CARTESIAN_POINT('',(80.800000000015,16.365065621473,
    241.90224599599));
#144 = CARTESIAN_POINT('',(80.79999999999,17.167577922365,239.0000027665
    ));
#145 = CARTESIAN_POINT('',(80.800000000005,18.44427420234,
    236.47924857191));
#146 = CARTESIAN_POINT('',(80.799999999998,20.097040217174,
    234.49764629881));
#147 = CARTESIAN_POINT('',(80.8,21.998327601689,233.15838775477));
#148 = CARTESIAN_POINT('',(80.8,24.009619589263,232.49999999999));
#149 = CARTESIAN_POINT('',(80.8,26.,232.5));
#150 = CARTESIAN_POINT('',(81.4,26.,232.5));
#151 = CARTESIAN_POINT('',(81.4,27.990380410735,232.49999999999));
#152 = CARTESIAN_POINT('',(81.4,30.001672398317,233.15838775477));
#153 = CARTESIAN_POINT('',(81.4,31.902959782814,234.49764629882));
#154 = CARTESIAN_POINT('',(81.400000000002,33.55572579768,
    236.47924857189));
#155 = CARTESIAN_POINT('',(81.399999999994,34.832422077608,
    239.00000276655));
#156 = CARTESIAN_POINT('',(81.400000000011,35.63493437856,
    241.90224599593));
#157 = CARTESIAN_POINT('',(81.399999999988,35.906897201148,
    244.99685414116));
#158 = CARTESIAN_POINT('',(81.400000000009,35.631813234524,
    248.08642533211));
#159 = CARTESIAN_POINT('',(81.399999999996,34.831855689712,
    250.97482407608));
#160 = CARTESIAN_POINT('',(81.4,33.567290674748,253.48354462868));
#161 = CARTESIAN_POINT('',(81.4,31.931012201512,255.46642625731));
#162 = CARTESIAN_POINT('',(81.4,30.039190620255,256.82214272445));
#163 = CARTESIAN_POINT('',(81.4,28.019595277308,257.5));
#164 = CARTESIAN_POINT('',(81.4,23.980404722691,257.5));
#165 = CARTESIAN_POINT('',(81.4,21.96080937975,256.82214272445));
#166 = CARTESIAN_POINT('',(81.399999999999,20.06898779847,
    255.46642625734));
#167 = CARTESIAN_POINT('',(81.400000000004,18.432709325294,
    253.48354462864));
#168 = CARTESIAN_POINT('',(81.399999999992,17.16814431021,
    250.97482407614));
#169 = CARTESIAN_POINT('',(81.400000000013,16.36818676559,
    248.08642533206));
#170 = CARTESIAN_POINT('',(81.399999999984,16.09310279872,
    244.99685414116));
#171 = CARTESIAN_POINT('',(81.400000000014,16.365065621559,
    241.90224599596));
#172 = CARTESIAN_POINT('',(81.399999999991,17.167577922304,
    239.0000027665));
#173 = CARTESIAN_POINT('',(81.400000000004,18.444274202371,
    236.47924857193));
#174 = CARTESIAN_POINT('',(81.399999999999,20.097040217163,
    234.49764629879));
#175 = CARTESIAN_POINT('',(81.4,21.998327601691,233.15838775477));
#176 = CARTESIAN_POINT('',(81.4,24.009619589263,232.49999999999));
#177 = CARTESIAN_POINT('',(81.4,26.,232.5));
#178 = CARTESIAN_POINT('',(81.4,26.,233.1));
#179 = CARTESIAN_POINT('',(81.4,27.806085928259,233.1));
#180 = CARTESIAN_POINT('',(81.4,29.63137641619,233.69742998135));
#181 = CARTESIAN_POINT('',(81.399999999999,31.385922973644,
    234.91315891208));
#182 = CARTESIAN_POINT('',(81.400000000001,32.993351503182,
    236.74224976088));
#183 = CARTESIAN_POINT('',(81.399999999998,34.256344180384,
    239.21973559667));
#184 = CARTESIAN_POINT('',(81.400000000003,34.97145522055,
    241.97456888426));
#185 = CARTESIAN_POINT('',(81.399999999997,35.333984629923,
    244.99570575604));
#186 = CARTESIAN_POINT('',(81.400000000003,34.970859197974,
    248.01637223952));
#187 = CARTESIAN_POINT('',(81.399999999998,34.252305559325,
    250.75564215462));
#188 = CARTESIAN_POINT('',(81.400000000001,33.00719637488,
    253.22015905505));
#189 = CARTESIAN_POINT('',(81.4,31.412898101604,255.05458201683));
#190 = CARTESIAN_POINT('',(81.4,29.665398682474,256.28486696843));
#191 = CARTESIAN_POINT('',(81.4,27.832595714594,256.89999999999));
#192 = CARTESIAN_POINT('',(81.4,24.167404285406,256.9));
#193 = CARTESIAN_POINT('',(81.4,22.334601317527,256.28486696842));
#194 = CARTESIAN_POINT('',(81.4,20.587101898393,255.05458201683));
#195 = CARTESIAN_POINT('',(81.400000000001,18.992803625132,
    253.22015905505));
#196 = CARTESIAN_POINT('',(81.399999999999,17.747694440646,
    250.75564215459));
#197 = CARTESIAN_POINT('',(81.400000000002,17.029140802071,
    248.01637223959));
#198 = CARTESIAN_POINT('',(81.399999999998,16.666015370025,
    244.99570575591));
#199 = CARTESIAN_POINT('',(81.400000000001,17.028544779493,
    241.9745688844));
#200 = CARTESIAN_POINT('',(81.399999999999,17.743655819586,
    239.21973559654));
#201 = CARTESIAN_POINT('',(81.400000000001,19.006648496836,
    236.74224976096));
#202 = CARTESIAN_POINT('',(81.4,20.614077026348,234.91315891204));
#203 = CARTESIAN_POINT('',(81.4,22.368623583813,233.69742998137));
#204 = CARTESIAN_POINT('',(81.4,24.19391407174,233.09999999999));
#205 = CARTESIAN_POINT('',(81.4,26.,233.1));
#206 = ADVANCED_FACE('',(#207,#210),#221,.F.);
#207 = FACE_BOUND('',#208,.F.);
#208 = EDGE_LOOP('',(#209));
#209 = ORIENTED_EDGE('',*,*,#63,.T.);
#210 = FACE_BOUND('',#211,.T.);
#211 = EDGE_LOOP('',(#212));
#212 = ORIENTED_EDGE('',*,*,#213,.T.);
#213 = EDGE_CURVE('',#214,#214,#216,.T.);
#214 = VERTEX_POINT('',#215);
#215 = CARTESIAN_POINT('',(79.,26.,235.5));
#216 = ELLIPSE('',#217,9.5,6.6);
#217 = AXIS2_PLACEMENT_3D('',#218,#219,#220);
#218 = CARTESIAN_POINT('',(79.,26.,245.));
#219 = DIRECTION('',(1.,-0.,2.2E-16));
#220 = DIRECTION('',(2.2E-16,0.,-1.));
#221 = PLANE('',#222);
#222 = AXIS2_PLACEMENT_3D('',#223,#224,#225);
#223 = CARTESIAN_POINT('',(79.,26.,244.51075823384));
#224 = DIRECTION('',(1.,0.,2.2E-16));
#225 = DIRECTION('',(-2.2E-16,0.,1.));
#226 = ADVANCED_FACE('',(#227,#230),#275,.T.);
#227 = FACE_BOUND('',#228,.T.);
#228 = EDGE_LOOP('',(#229));
#229 = ORIENTED_EDGE('',*,*,#89,.T.);
#230 = FACE_BOUND('',#231,.T.);
#231 = EDGE_LOOP('',(#232));
#232 = ORIENTED_EDGE('',*,*,#233,.F.);
#233 = EDGE_CURVE('',#234,#234,#236,.T.);
#234 = VERTEX_POINT('',#235);
#235 = CARTESIAN_POINT('',(81.4,26.,234.9));
#236 = ( BOUNDED_CURVE() B_SPLINE_CURVE(10,(#237,#238,#239,#240,#241,
    #242,#243,#244,#245,#246,#247,#248,#249,#250,#251,#252,#253,#254,
    #255,#256,#257,#258,#259,#260,#261,#262,#263,#264,#265,#266,#267,
    #268,#269,#270,#271,#272,#273,#274),.UNSPECIFIED.,.T.,.F.) 
B_SPLINE_CURVE_WITH_KNOTS((11,9,9,9,11),(5.21E-15,12.750159523959,
    25.500319047917,38.250478571876,51.000638095834),.UNSPECIFIED.) 
CURVE() GEOMETRIC_REPRESENTATION_ITEM() RATIONAL_B_SPLINE_CURVE((1.,1.,
    1.,1.,1.,1.,1.,1.,1.,1.,1.,1.,0.999999999999,1.000000000001,
    0.999999999999,1.000000000001,1.,1.,1.,1.,1.,1.,1.,1.,1.,1.,1.,1.,1.
,1.,1.,1.,1.,1.,1.,1.,1.,1.)) REPRESENTATION_ITEM('') );
#237 = CARTESIAN_POINT('',(81.4,26.,234.9));
#238 = CARTESIAN_POINT('',(81.4,27.155425880858,234.9));
#239 = CARTESIAN_POINT('',(81.4,28.319461425096,235.18601636951));
#240 = CARTESIAN_POINT('',(81.4,29.438149336582,235.76571957427));
#241 = CARTESIAN_POINT('',(81.4,30.446075684018,236.61667786869));
#242 = CARTESIAN_POINT('',(81.4,31.330030759504,237.68089853857));
#243 = CARTESIAN_POINT('',(81.4,32.065308218408,238.94868947548));
#244 = CARTESIAN_POINT('',(81.4,32.62826127529,240.35843331109));
#245 = CARTESIAN_POINT('',(81.4,33.00889087206,241.87089788616));
#246 = CARTESIAN_POINT('',(81.4,33.199218335441,243.43217763312));
#247 = CARTESIAN_POINT('',(81.4,33.200778100227,246.55355658537));
#248 = CARTESIAN_POINT('',(81.4,33.011998435815,248.11347858619));
#249 = CARTESIAN_POINT('',(81.4,32.633671915049,249.62325064304));
#250 = CARTESIAN_POINT('',(81.4,32.074000266067,251.02970315053));
#251 = CARTESIAN_POINT('',(81.4,31.344355106859,252.2953018347));
#252 = CARTESIAN_POINT('',(81.4,30.465442005157,253.36049058208));
#253 = CARTESIAN_POINT('',(81.4,29.463031037196,254.2161064429));
#254 = CARTESIAN_POINT('',(81.4,28.344622992329,254.80554170157));
#255 = CARTESIAN_POINT('',(81.4,27.172385258453,255.1));
#256 = CARTESIAN_POINT('',(81.4,24.827614741547,255.1));
#257 = CARTESIAN_POINT('',(81.4,23.655377007672,254.80554170157));
#258 = CARTESIAN_POINT('',(81.4,22.536968962801,254.2161064429));
#259 = CARTESIAN_POINT('',(81.4,21.534557994848,253.3604905821));
#260 = CARTESIAN_POINT('',(81.4,20.655644893136,252.29530183468));
#261 = CARTESIAN_POINT('',(81.4,19.925999733938,251.02970315055));
#262 = CARTESIAN_POINT('',(81.4,19.366328084949,249.62325064304));
#263 = CARTESIAN_POINT('',(81.4,18.988001564185,248.11347858619));
#264 = CARTESIAN_POINT('',(81.4,18.799221899773,246.55355658537));
#265 = CARTESIAN_POINT('',(81.4,18.800781664559,243.43217763312));
#266 = CARTESIAN_POINT('',(81.4,18.991109127941,241.87089788616));
#267 = CARTESIAN_POINT('',(81.4,19.371738724708,240.35843331108));
#268 = CARTESIAN_POINT('',(81.4,19.934691781597,238.94868947549));
#269 = CARTESIAN_POINT('',(81.4,20.669969240489,237.68089853856));
#270 = CARTESIAN_POINT('',(81.4,21.553924315989,236.61667786869));
#271 = CARTESIAN_POINT('',(81.4,22.561850663413,235.76571957427));
#272 = CARTESIAN_POINT('',(81.4,23.680538574906,235.18601636951));
#273 = CARTESIAN_POINT('',(81.4,24.844574119142,234.9));
#274 = CARTESIAN_POINT('',(81.4,26.,234.9));
#275 = PLANE('',#276);
#276 = AXIS2_PLACEMENT_3D('',#277,#278,#279);
#277 = CARTESIAN_POINT('',(81.4,26.,244.51075823384));
#278 = DIRECTION('',(1.,0.,2.2E-16));
#279 = DIRECTION('',(-2.2E-16,0.,1.));
#280 = ADVANCED_FACE('',(#281),#334,.T.);
#281 = FACE_BOUND('',#282,.T.);
#282 = EDGE_LOOP('',(#283,#291,#332,#333));
#283 = ORIENTED_EDGE('',*,*,#284,.T.);
#284 = EDGE_CURVE('',#214,#285,#287,.T.);
#285 = VERTEX_POINT('',#286);
#286 = CARTESIAN_POINT('',(80.8,26.,235.5));
#287 = LINE('',#288,#289);
#288 = CARTESIAN_POINT('',(79.,26.,235.5));
#289 = VECTOR('',#290,1.);
#290 = DIRECTION('',(1.,0.,3.3E-16));
#291 = ORIENTED_EDGE('',*,*,#292,.T.);
#292 = EDGE_CURVE('',#285,#285,#293,.T.);
#293 = ( BOUNDED_CURVE() B_SPLINE_CURVE(10,(#294,#295,#296,#297,#298,
    #299,#300,#301,#302,#303,#304,#305,#306,#307,#308,#309,#310,#311,
    #312,#313,#314,#315,#316,#317,#318,#319,#320,#321,#322,#323,#324,
    #325,#326,#327,#328,#329,#330,#331),.UNSPECIFIED.,.T.,.F.) 
B_SPLINE_CURVE_WITH_KNOTS((11,9,9,9,11),(5.21E-15,12.750159523959,
    25.500319047917,38.250478571876,51.000638095834),.UNSPECIFIED.) 
CURVE() GEOMETRIC_REPRESENTATION_ITEM() RATIONAL_B_SPLINE_CURVE((1.,1.,
    1.,1.,1.,1.,1.,1.,1.,1.,1.,1.,0.999999999999,1.000000000001,
    0.999999999999,1.000000000001,1.,1.,1.,1.,1.,1.,1.,1.,1.,1.,1.,1.,1.
,1.,1.,1.,1.,1.,1.,1.,1.,1.)) REPRESENTATION_ITEM('') );
#294 = CARTESIAN_POINT('',(80.8,26.,235.5));
#295 = CARTESIAN_POINT('',(80.8,27.021728610844,235.5));
#296 = CARTESIAN_POINT('',(80.8,28.051210184599,235.75296727463));
#297 = CARTESIAN_POINT('',(80.8,29.052041017031,236.26538016157));
#298 = CARTESIAN_POINT('',(80.8,29.986166548123,237.02990559565));
#299 = CARTESIAN_POINT('',(80.8,30.817219718925,238.0247025013));
#300 = CARTESIAN_POINT('',(80.8,31.514004166173,239.21509024564));
#301 = CARTESIAN_POINT('',(80.8,32.052553863269,240.55741819133));
#302 = CARTESIAN_POINT('',(80.8,32.416873500903,242.00235469677));
#303 = CARTESIAN_POINT('',(80.8,32.59925119175,243.49807911867));
#304 = CARTESIAN_POINT('',(80.8,32.600745393741,246.48825474426));
#305 = CARTESIAN_POINT('',(80.8,32.41986199633,247.98270595117));
#306 = CARTESIAN_POINT('',(80.8,32.057660731383,249.42509694908));
#307 = CARTESIAN_POINT('',(80.799999999999,31.52248176782,
    250.76440088924));
#308 = CARTESIAN_POINT('',(80.8,30.830461974632,251.95289613023));
#309 = CARTESIAN_POINT('',(80.8,30.004790454642,252.94878925613));
#310 = CARTESIAN_POINT('',(80.8,29.074648610497,253.71865598608));
#311 = CARTESIAN_POINT('',(80.8,28.073451167536,254.23955215958));
#312 = CARTESIAN_POINT('',(80.8,27.036725575685,254.5));
#313 = CARTESIAN_POINT('',(80.8,24.963274424315,254.5));
#314 = CARTESIAN_POINT('',(80.8,23.926548832464,254.23955215958));
#315 = CARTESIAN_POINT('',(80.8,22.925351389502,253.71865598608));
#316 = CARTESIAN_POINT('',(80.8,21.995209545359,252.94878925614));
#317 = CARTESIAN_POINT('',(80.800000000001,21.169538025367,
    251.95289613021));
#318 = CARTESIAN_POINT('',(80.799999999999,20.477518232181,
    250.76440088926));
#319 = CARTESIAN_POINT('',(80.8,19.942339268617,249.42509694908));
#320 = CARTESIAN_POINT('',(80.8,19.580138003669,247.98270595117));
#321 = CARTESIAN_POINT('',(80.8,19.399254606259,246.48825474426));
#322 = CARTESIAN_POINT('',(80.8,19.40074880825,243.49807911867));
#323 = CARTESIAN_POINT('',(80.8,19.583126499097,242.00235469677));
#324 = CARTESIAN_POINT('',(80.8,19.947446136729,240.55741819132));
#325 = CARTESIAN_POINT('',(80.799999999999,20.485995833832,
    239.21509024565));
#326 = CARTESIAN_POINT('',(80.800000000001,21.182780281069,
    238.02470250129));
#327 = CARTESIAN_POINT('',(80.799999999999,22.013833451884,
    237.02990559565));
#328 = CARTESIAN_POINT('',(80.8,22.947958982965,236.26538016157));
#329 = CARTESIAN_POINT('',(80.8,23.948789815402,235.75296727463));
#330 = CARTESIAN_POINT('',(80.8,24.978271389156,235.5));
#331 = CARTESIAN_POINT('',(80.8,26.,235.5));
#332 = ORIENTED_EDGE('',*,*,#284,.F.);
#333 = ORIENTED_EDGE('',*,*,#213,.F.);
#334 = SURFACE_OF_LINEAR_EXTRUSION('',#335,#340);
#335 = ELLIPSE('',#336,9.5,6.6);
#336 = AXIS2_PLACEMENT_3D('',#337,#338,#339);
#337 = CARTESIAN_POINT('',(79.,26.,245.));
#338 = DIRECTION('',(1.,-0.,3.3E-16));
#339 = DIRECTION('',(3.3E-16,0.,-1.));
#340 = VECTOR('',#341,1.);
#341 = DIRECTION('',(-1.,0.,-3.3E-16));
#342 = ADVANCED_FACE('',(#343),#354,.T.);
#343 = FACE_BOUND('',#344,.T.);
#344 = EDGE_LOOP('',(#345,#351,#352,#353));
#345 = ORIENTED_EDGE('',*,*,#346,.T.);
#346 = EDGE_CURVE('',#285,#234,#347,.T.);
#347 = ( BOUNDED_CURVE() B_SPLINE_CURVE(2,(#348,#349,#350),
.UNSPECIFIED.,.F.,.F.) B_SPLINE_CURVE_WITH_KNOTS((3,3),(0.,
51.000638095834),.PIECEWISE_BEZIER_KNOTS.) CURVE() 
GEOMETRIC_REPRESENTATION_ITEM() RATIONAL_B_SPLINE_CURVE((1.,
0.707106781187,1.)) REPRESENTATION_ITEM('') );
#348 = CARTESIAN_POINT('',(80.8,26.,235.5));
#349 = CARTESIAN_POINT('',(81.4,26.,235.5));
#350 = CARTESIAN_POINT('',(81.4,26.,234.9));
#351 = ORIENTED_EDGE('',*,*,#233,.T.);
#352 = ORIENTED_EDGE('',*,*,#346,.F.);
#353 = ORIENTED_EDGE('',*,*,#292,.F.);
#354 = ( BOUNDED_SURFACE() B_SPLINE_SURFACE(2,10,(
    (#355,#356,#357,#358,#359,#360,#361,#362,#363,#364,#365,#366,#367
      ,#368,#369,#370,#371,#372,#373,#374,#375,#376,#377,#378,#379,#380
      ,#381,#382,#383,#384,#385,#386,#387,#388,#389,#390,#391,#392)
    ,(#393,#394,#395,#396,#397,#398,#399,#400,#401,#402,#403,#404,#405
      ,#406,#407,#408,#409,#410,#411,#412,#413,#414,#415,#416,#417,#418
      ,#419,#420,#421,#422,#423,#424,#425,#426,#427,#428,#429,#430)
    ,(#431,#432,#433,#434,#435,#436,#437,#438,#439,#440,#441,#442,#443
      ,#444,#445,#446,#447,#448,#449,#450,#451,#452,#453,#454,#455,#456
      ,#457,#458,#459,#460,#461,#462,#463,#464,#465,#466,#467,#468
)),.UNSPECIFIED.,.F.,.F.,.F.) B_SPLINE_SURFACE_WITH_KNOTS((3,3),(11,9,9,
    9,11),(0.,51.000638095834),(5.21E-15,12.750159523959,25.500319047917
    ,38.250478571876,51.000638095834),.UNSPECIFIED.) 
GEOMETRIC_REPRESENTATION_ITEM() RATIONAL_B_SPLINE_SURFACE((
    (1.,1.,1.,1.,1.,1.,1.,1.,1.,1.,1.,1.,0.999999999999,1.000000000001
      ,0.999999999999,1.000000000001,1.,1.,1.,1.,1.,1.,1.,1.,1.,1.,1.,1.
      ,1.,1.,1.,1.,1.,1.,1.,1.,1.,1.)
    ,(0.707106781187,0.707106781187,0.707106781187,0.707106781186
      ,0.707106781187,0.707106781186,0.707106781187,0.707106781186
      ,0.707106781187,0.707106781187,0.707106781187,0.707106781187
      ,0.707106781186,0.707106781187,0.707106781186,0.707106781187
      ,0.707106781186,0.707106781187,0.707106781187,0.707106781187
      ,0.707106781187,0.707106781187,0.707106781186,0.707106781187
      ,0.707106781186,0.707106781187,0.707106781187,0.707106781187
      ,0.707106781187,0.707106781187,0.707106781187,0.707106781187
      ,0.707106781187,0.707106781187,0.707106781187,0.707106781187
      ,0.707106781187,0.707106781187)
    ,(1.,1.,1.,1.,1.,1.,1.,1.,1.,1.,1.,1.,0.999999999999,1.000000000001
      ,0.999999999999,1.000000000001,1.,1.,1.,1.,1.,1.,1.,1.,1.,1.,1.,1.
,1.,1.,1.,1.,1.,1.,1.,1.,1.,1.))) REPRESENTATION_ITEM('') SURFACE() );
#355 = CARTESIAN_POINT('',(80.8,26.,235.5));
#356 = CARTESIAN_POINT('',(80.8,27.021728610844,235.5));
#357 = CARTESIAN_POINT('',(80.8,28.051210184599,235.75296727463));
#358 = CARTESIAN_POINT('',(80.8,29.052041017031,236.26538016157));
#359 = CARTESIAN_POINT('',(80.8,29.986166548123,237.02990559565));
#360 = CARTESIAN_POINT('',(80.8,30.817219718925,238.0247025013));
#361 = CARTESIAN_POINT('',(80.8,31.514004166173,239.21509024564));
#362 = CARTESIAN_POINT('',(80.8,32.052553863269,240.55741819133));
#363 = CARTESIAN_POINT('',(80.8,32.416873500903,242.00235469677));
#364 = CARTESIAN_POINT('',(80.8,32.59925119175,243.49807911867));
#365 = CARTESIAN_POINT('',(80.8,32.600745393741,246.48825474426));
#366 = CARTESIAN_POINT('',(80.8,32.41986199633,247.98270595117));
#367 = CARTESIAN_POINT('',(80.8,32.057660731383,249.42509694908));
#368 = CARTESIAN_POINT('',(80.799999999999,31.52248176782,
    250.76440088924));
#369 = CARTESIAN_POINT('',(80.8,30.830461974632,251.95289613023));
#370 = CARTESIAN_POINT('',(80.8,30.004790454642,252.94878925613));
#371 = CARTESIAN_POINT('',(80.8,29.074648610497,253.71865598608));
#372 = CARTESIAN_POINT('',(80.8,28.073451167536,254.23955215958));
#373 = CARTESIAN_POINT('',(80.8,27.036725575685,254.5));
#374 = CARTESIAN_POINT('',(80.8,24.963274424315,254.5));
#375 = CARTESIAN_POINT('',(80.8,23.926548832464,254.23955215958));
#376 = CARTESIAN_POINT('',(80.8,22.925351389502,253.71865598608));
#377 = CARTESIAN_POINT('',(80.8,21.995209545359,252.94878925614));
#378 = CARTESIAN_POINT('',(80.800000000001,21.169538025367,
    251.95289613021));
#379 = CARTESIAN_POINT('',(80.799999999999,20.477518232181,
    250.76440088926));
#380 = CARTESIAN_POINT('',(80.8,19.942339268617,249.42509694908));
#381 = CARTESIAN_POINT('',(80.8,19.580138003669,247.98270595117));
#382 = CARTESIAN_POINT('',(80.8,19.399254606259,246.48825474426));
#383 = CARTESIAN_POINT('',(80.8,19.40074880825,243.49807911867));
#384 = CARTESIAN_POINT('',(80.8,19.583126499097,242.00235469677));
#385 = CARTESIAN_POINT('',(80.8,19.947446136729,240.55741819132));
#386 = CARTESIAN_POINT('',(80.799999999999,20.485995833832,
    239.21509024565));
#387 = CARTESIAN_POINT('',(80.800000000001,21.182780281069,
    238.02470250129));
#388 = CARTESIAN_POINT('',(80.799999999999,22.013833451884,
    237.02990559565));
#389 = CARTESIAN_POINT('',(80.8,22.947958982965,236.26538016157));
#390 = CARTESIAN_POINT('',(80.8,23.948789815402,235.75296727463));
#391 = CARTESIAN_POINT('',(80.8,24.978271389156,235.5));
#392 = CARTESIAN_POINT('',(80.8,26.,235.5));
#393 = CARTESIAN_POINT('',(81.4,26.,235.5));
#394 = CARTESIAN_POINT('',(81.4,27.021728610844,235.5));
#395 = CARTESIAN_POINT('',(81.4,28.051210184599,235.75296727463));
#396 = CARTESIAN_POINT('',(81.4,29.052041017031,236.26538016157));
#397 = CARTESIAN_POINT('',(81.4,29.986166548123,237.02990559565));
#398 = CARTESIAN_POINT('',(81.4,30.817219718925,238.02470250129));
#399 = CARTESIAN_POINT('',(81.4,31.514004166173,239.21509024564));
#400 = CARTESIAN_POINT('',(81.4,32.052553863269,240.55741819133));
#401 = CARTESIAN_POINT('',(81.4,32.416873500903,242.00235469677));
#402 = CARTESIAN_POINT('',(81.4,32.59925119175,243.49807911867));
#403 = CARTESIAN_POINT('',(81.4,32.600745393741,246.48825474426));
#404 = CARTESIAN_POINT('',(81.4,32.419861996331,247.98270595117));
#405 = CARTESIAN_POINT('',(81.4,32.057660731381,249.42509694908));
#406 = CARTESIAN_POINT('',(81.4,31.522481767822,250.76440088925));
#407 = CARTESIAN_POINT('',(81.4,30.830461974631,251.95289613022));
#408 = CARTESIAN_POINT('',(81.4,30.004790454643,252.94878925614));
#409 = CARTESIAN_POINT('',(81.4,29.074648610497,253.71865598608));
#410 = CARTESIAN_POINT('',(81.4,28.073451167536,254.23955215958));
#411 = CARTESIAN_POINT('',(81.4,27.036725575685,254.5));
#412 = CARTESIAN_POINT('',(81.4,24.963274424315,254.5));
#413 = CARTESIAN_POINT('',(81.4,23.926548832464,254.23955215958));
#414 = CARTESIAN_POINT('',(81.4,22.925351389502,253.71865598608));
#415 = CARTESIAN_POINT('',(81.399999999999,21.995209545359,
    252.94878925614));
#416 = CARTESIAN_POINT('',(81.400000000001,21.169538025367,
    251.95289613022));
#417 = CARTESIAN_POINT('',(81.399999999999,20.477518232181,
    250.76440088926));
#418 = CARTESIAN_POINT('',(81.4,19.942339268617,249.42509694908));
#419 = CARTESIAN_POINT('',(81.4,19.580138003669,247.98270595117));
#420 = CARTESIAN_POINT('',(81.4,19.399254606259,246.48825474426));
#421 = CARTESIAN_POINT('',(81.4,19.40074880825,243.49807911867));
#422 = CARTESIAN_POINT('',(81.4,19.583126499098,242.00235469677));
#423 = CARTESIAN_POINT('',(81.4,19.947446136728,240.55741819132));
#424 = CARTESIAN_POINT('',(81.399999999999,20.485995833833,
    239.21509024565));
#425 = CARTESIAN_POINT('',(81.400000000001,21.182780281067,
    238.02470250129));
#426 = CARTESIAN_POINT('',(81.399999999999,22.013833451885,
    237.02990559565));
#427 = CARTESIAN_POINT('',(81.4,22.947958982964,236.26538016157));
#428 = CARTESIAN_POINT('',(81.4,23.948789815403,235.75296727463));
#429 = CARTESIAN_POINT('',(81.4,24.978271389156,235.5));
#430 = CARTESIAN_POINT('',(81.4,26.,235.5));
#431 = CARTESIAN_POINT('',(81.4,26.,234.9));
#432 = CARTESIAN_POINT('',(81.4,27.155425880858,234.9));
#433 = CARTESIAN_POINT('',(81.4,28.319461425096,235.18601636951));
#434 = CARTESIAN_POINT('',(81.4,29.438149336582,235.76571957427));
#435 = CARTESIAN_POINT('',(81.4,30.446075684018,236.61667786869));
#436 = CARTESIAN_POINT('',(81.4,31.330030759504,237.68089853857));
#437 = CARTESIAN_POINT('',(81.4,32.065308218408,238.94868947548));
#438 = CARTESIAN_POINT('',(81.4,32.62826127529,240.35843331109));
#439 = CARTESIAN_POINT('',(81.4,33.00889087206,241.87089788616));
#440 = CARTESIAN_POINT('',(81.4,33.199218335441,243.43217763312));
#441 = CARTESIAN_POINT('',(81.4,33.200778100227,246.55355658537));
#442 = CARTESIAN_POINT('',(81.4,33.011998435815,248.11347858619));
#443 = CARTESIAN_POINT('',(81.4,32.633671915049,249.62325064304));
#444 = CARTESIAN_POINT('',(81.4,32.074000266067,251.02970315053));
#445 = CARTESIAN_POINT('',(81.4,31.344355106859,252.2953018347));
#446 = CARTESIAN_POINT('',(81.4,30.465442005157,253.36049058208));
#447 = CARTESIAN_POINT('',(81.4,29.463031037196,254.2161064429));
#448 = CARTESIAN_POINT('',(81.4,28.344622992329,254.80554170157));
#449 = CARTESIAN_POINT('',(81.4,27.172385258453,255.1));
#450 = CARTESIAN_POINT('',(81.4,24.827614741547,255.1));
#451 = CARTESIAN_POINT('',(81.4,23.655377007672,254.80554170157));
#452 = CARTESIAN_POINT('',(81.4,22.536968962801,254.2161064429));
#453 = CARTESIAN_POINT('',(81.4,21.534557994848,253.3604905821));
#454 = CARTESIAN_POINT('',(81.4,20.655644893136,252.29530183468));
#455 = CARTESIAN_POINT('',(81.4,19.925999733938,251.02970315055));
#456 = CARTESIAN_POINT('',(81.4,19.366328084949,249.62325064304));
#457 = CARTESIAN_POINT('',(81.4,18.988001564185,248.11347858619));
#458 = CARTESIAN_POINT('',(81.4,18.799221899773,246.55355658537));
#459 = CARTESIAN_POINT('',(81.4,18.800781664559,243.43217763312));
#460 = CARTESIAN_POINT('',(81.4,18.991109127941,241.87089788616));
#461 = CARTESIAN_POINT('',(81.4,19.371738724708,240.35843331108));
#462 = CARTESIAN_POINT('',(81.4,19.934691781597,238.94868947549));
#463 = CARTESIAN_POINT('',(81.4,20.669969240489,237.68089853856));
#464 = CARTESIAN_POINT('',(81.4,21.553924315989,236.61667786869));
#465 = CARTESIAN_POINT('',(81.4,22.561850663413,235.76571957427));
#466 = CARTESIAN_POINT('',(81.4,23.680538574906,235.18601636951));
#467 = CARTESIAN_POINT('',(81.4,24.844574119142,234.9));
#468 = CARTESIAN_POINT('',(81.4,26.,234.9));
#469 = ( GEOMETRIC_REPRESENTATION_CONTEXT(3) 
GLOBAL_UNCERTAINTY_ASSIGNED_CONTEXT((#473)) GLOBAL_UNIT_ASSIGNED_CONTEXT
((#470,#471,#472)) REPRESENTATION_CONTEXT('Context #1',
  '3D Context with UNIT and UNCERTAINTY') );
#470 = ( LENGTH_UNIT() NAMED_UNIT(*) SI_UNIT(.MILLI.,.METRE.) );
#471 = ( NAMED_UNIT(*) PLANE_ANGLE_UNIT() SI_UNIT($,.RADIAN.) );
#472 = ( NAMED_UNIT(*) SI_UNIT($,.STERADIAN.) SOLID_ANGLE_UNIT() );
#473 = UNCERTAINTY_MEASURE_WITH_UNIT(LENGTH_MEASURE(1.E-05),#470,
  'distance_accuracy_value','confusion accuracy');
#474 = PRODUCT_RELATED_PRODUCT_CATEGORY('part',$,(#7));
ENDSEC;
END-ISO-10303-21;
