ISO-10303-21;
HEADER;
FILE_DESCRIPTION(('FreeCAD Model'),'2;1');
FILE_NAME('Open CASCADE Shape Model','2026-10-09T09:09:14',('FreeCAD'),(
    'FreeCAD'),'Open CASCADE STEP processor 7.8','FreeCAD','Unknown');
FILE_SCHEMA(('AUTOMOTIVE_DESIGN { 1 0 10303 214 1 1 1 1 }'));
ENDSEC;
DATA;
#1 = APPLICATION_PROTOCOL_DEFINITION('international standard',
  'automotive_design',2000,#2);
#2 = APPLICATION_CONTEXT(
  'core data for automotive mechanical design processes');
#3 = SHAPE_DEFINITION_REPRESENTATION(#4,#10);
#4 = PRODUCT_DEFINITION_SHAPE('','',#5);
#5 = PRODUCT_DEFINITION('design','',#6,#9);
#6 = PRODUCT_DEFINITION_FORMATION('','',#7);
#7 = PRODUCT('Open CASCADE STEP translator 7.8 27',
  'Open CASCADE STEP translator 7.8 27','',(#8));
#8 = PRODUCT_CONTEXT('',#2,'mechanical');
#9 = PRODUCT_DEFINITION_CONTEXT('part definition',#2,'design');
#10 = ADVANCED_BREP_SHAPE_REPRESENTATION('',(#11,#15),#310);
#11 = AXIS2_PLACEMENT_3D('',#12,#13,#14);
#12 = CARTESIAN_POINT('',(0.,0.,0.));
#13 = DIRECTION('',(0.,0.,1.));
#14 = DIRECTION('',(1.,0.,-0.));
#15 = MANIFOLD_SOLID_BREP('',#16);
#16 = CLOSED_SHELL('',(#17,#59,#110,#170,#195,#247,#259,#276,#293));
#17 = ADVANCED_FACE('',(#18),#54,.T.);
#18 = FACE_BOUND('',#19,.F.);
#19 = EDGE_LOOP('',(#20,#30,#39,#47));
#20 = ORIENTED_EDGE('',*,*,#21,.T.);
#21 = EDGE_CURVE('',#22,#24,#26,.T.);
#22 = VERTEX_POINT('',#23);
#23 = CARTESIAN_POINT('',(54.081377021526,-29.7,241.76568774525));
#24 = VERTEX_POINT('',#25);
#25 = CARTESIAN_POINT('',(54.081377021526,-31.7,241.76568774525));
#26 = LINE('',#27,#28);
#27 = CARTESIAN_POINT('',(54.081377021526,-31.7,241.76568774525));
#28 = VECTOR('',#29,1.);
#29 = DIRECTION('',(-0.,-1.,-2.2E-16));
#30 = ORIENTED_EDGE('',*,*,#31,.F.);
#31 = EDGE_CURVE('',#32,#24,#34,.T.);
#32 = VERTEX_POINT('',#33);
#33 = CARTESIAN_POINT('',(27.718618400837,-31.7,241.76568774525));
#34 = CIRCLE('',#35,13.5);
#35 = AXIS2_PLACEMENT_3D('',#36,#37,#38);
#36 = CARTESIAN_POINT('',(40.899997711182,-31.7,238.84999923706));
#37 = DIRECTION('',(-0.,1.,0.));
#38 = DIRECTION('',(1.,0.,0.));
#39 = ORIENTED_EDGE('',*,*,#40,.F.);
#40 = EDGE_CURVE('',#41,#32,#43,.T.);
#41 = VERTEX_POINT('',#42);
#42 = CARTESIAN_POINT('',(27.718618400837,-29.7,241.76568774525));
#43 = LINE('',#44,#45);
#44 = CARTESIAN_POINT('',(27.718618400837,-31.7,241.76568774525));
#45 = VECTOR('',#46,1.);
#46 = DIRECTION('',(-0.,-1.,-2.2E-16));
#47 = ORIENTED_EDGE('',*,*,#48,.T.);
#48 = EDGE_CURVE('',#41,#22,#49,.T.);
#49 = CIRCLE('',#50,13.5);
#50 = AXIS2_PLACEMENT_3D('',#51,#52,#53);
#51 = CARTESIAN_POINT('',(40.899997711182,-29.7,238.84999923706));
#52 = DIRECTION('',(-0.,1.,0.));
#53 = DIRECTION('',(1.,0.,0.));
#54 = CYLINDRICAL_SURFACE('',#55,13.5);
#55 = AXIS2_PLACEMENT_3D('',#56,#57,#58);
#56 = CARTESIAN_POINT('',(40.899997711182,-31.7,238.84999923706));
#57 = DIRECTION('',(-0.,-1.,0.));
#58 = DIRECTION('',(1.,0.,0.));
#59 = ADVANCED_FACE('',(#60),#105,.T.);
#60 = FACE_BOUND('',#61,.F.);
#61 = EDGE_LOOP('',(#62,#72,#81,#88,#89,#98));
#62 = ORIENTED_EDGE('',*,*,#63,.T.);
#63 = EDGE_CURVE('',#64,#66,#68,.T.);
#64 = VERTEX_POINT('',#65);
#65 = CARTESIAN_POINT('',(54.081377021526,-29.7,235.93431072886));
#66 = VERTEX_POINT('',#67);
#67 = CARTESIAN_POINT('',(54.081377021526,-31.7,235.93431072886));
#68 = LINE('',#69,#70);
#69 = CARTESIAN_POINT('',(54.081377021526,-31.7,235.93431072886));
#70 = VECTOR('',#71,1.);
#71 = DIRECTION('',(-0.,-1.,-2.2E-16));
#72 = ORIENTED_EDGE('',*,*,#73,.F.);
#73 = EDGE_CURVE('',#74,#66,#76,.T.);
#74 = VERTEX_POINT('',#75);
#75 = CARTESIAN_POINT('',(58.599997711182,-31.7,238.84999923706));
#76 = CIRCLE('',#77,3.2);
#77 = AXIS2_PLACEMENT_3D('',#78,#79,#80);
#78 = CARTESIAN_POINT('',(55.399997711182,-31.7,238.84999923706));
#79 = DIRECTION('',(-0.,1.,0.));
#80 = DIRECTION('',(1.,0.,0.));
#81 = ORIENTED_EDGE('',*,*,#82,.F.);
#82 = EDGE_CURVE('',#24,#74,#83,.T.);
#83 = CIRCLE('',#84,3.2);
#84 = AXIS2_PLACEMENT_3D('',#85,#86,#87);
#85 = CARTESIAN_POINT('',(55.399997711182,-31.7,238.84999923706));
#86 = DIRECTION('',(-0.,1.,0.));
#87 = DIRECTION('',(1.,0.,0.));
#88 = ORIENTED_EDGE('',*,*,#21,.F.);
#89 = ORIENTED_EDGE('',*,*,#90,.T.);
#90 = EDGE_CURVE('',#22,#91,#93,.T.);
#91 = VERTEX_POINT('',#92);
#92 = CARTESIAN_POINT('',(58.599997711182,-29.7,238.84999923706));
#93 = CIRCLE('',#94,3.2);
#94 = AXIS2_PLACEMENT_3D('',#95,#96,#97);
#95 = CARTESIAN_POINT('',(55.399997711182,-29.7,238.84999923706));
#96 = DIRECTION('',(-0.,1.,0.));
#97 = DIRECTION('',(1.,0.,0.));
#98 = ORIENTED_EDGE('',*,*,#99,.T.);
#99 = EDGE_CURVE('',#91,#64,#100,.T.);
#100 = CIRCLE('',#101,3.2);
#101 = AXIS2_PLACEMENT_3D('',#102,#103,#104);
#102 = CARTESIAN_POINT('',(55.399997711182,-29.7,238.84999923706));
#103 = DIRECTION('',(-0.,1.,0.));
#104 = DIRECTION('',(1.,0.,0.));
#105 = CYLINDRICAL_SURFACE('',#106,3.2);
#106 = AXIS2_PLACEMENT_3D('',#107,#108,#109);
#107 = CARTESIAN_POINT('',(55.399997711182,-31.7,238.84999923706));
#108 = DIRECTION('',(-0.,-1.,-2.2E-16));
#109 = DIRECTION('',(1.,0.,0.));
#110 = ADVANCED_FACE('',(#111,#132,#143,#154),#165,.T.);
#111 = FACE_BOUND('',#112,.T.);
#112 = EDGE_LOOP('',(#113,#114,#115,#124,#131));
#113 = ORIENTED_EDGE('',*,*,#90,.T.);
#114 = ORIENTED_EDGE('',*,*,#99,.T.);
#115 = ORIENTED_EDGE('',*,*,#116,.T.);
#116 = EDGE_CURVE('',#64,#117,#119,.T.);
#117 = VERTEX_POINT('',#118);
#118 = CARTESIAN_POINT('',(27.718618400837,-29.7,235.93431072886));
#119 = CIRCLE('',#120,13.5);
#120 = AXIS2_PLACEMENT_3D('',#121,#122,#123);
#121 = CARTESIAN_POINT('',(40.899997711182,-29.7,238.84999923706));
#122 = DIRECTION('',(-0.,1.,0.));
#123 = DIRECTION('',(1.,0.,0.));
#124 = ORIENTED_EDGE('',*,*,#125,.T.);
#125 = EDGE_CURVE('',#117,#41,#126,.T.);
#126 = CIRCLE('',#127,3.2);
#127 = AXIS2_PLACEMENT_3D('',#128,#129,#130);
#128 = CARTESIAN_POINT('',(26.399997711182,-29.7,238.84999923706));
#129 = DIRECTION('',(-0.,1.,0.));
#130 = DIRECTION('',(1.,0.,0.));
#131 = ORIENTED_EDGE('',*,*,#48,.T.);
#132 = FACE_BOUND('',#133,.T.);
#133 = EDGE_LOOP('',(#134));
#134 = ORIENTED_EDGE('',*,*,#135,.T.);
#135 = EDGE_CURVE('',#136,#136,#138,.T.);
#136 = VERTEX_POINT('',#137);
#137 = CARTESIAN_POINT('',(27.549997711182,-29.7,238.84999923706));
#138 = CIRCLE('',#139,1.15);
#139 = AXIS2_PLACEMENT_3D('',#140,#141,#142);
#140 = CARTESIAN_POINT('',(26.399997711182,-29.7,238.84999923706));
#141 = DIRECTION('',(0.,-1.,-2.2E-16));
#142 = DIRECTION('',(1.,0.,0.));
#143 = FACE_BOUND('',#144,.T.);
#144 = EDGE_LOOP('',(#145));
#145 = ORIENTED_EDGE('',*,*,#146,.T.);
#146 = EDGE_CURVE('',#147,#147,#149,.T.);
#147 = VERTEX_POINT('',#148);
#148 = CARTESIAN_POINT('',(50.999997711182,-29.7,238.84999923706));
#149 = CIRCLE('',#150,10.1);
#150 = AXIS2_PLACEMENT_3D('',#151,#152,#153);
#151 = CARTESIAN_POINT('',(40.899997711182,-29.7,238.84999923706));
#152 = DIRECTION('',(0.,-1.,-2.2E-16));
#153 = DIRECTION('',(1.,0.,0.));
#154 = FACE_BOUND('',#155,.T.);
#155 = EDGE_LOOP('',(#156));
#156 = ORIENTED_EDGE('',*,*,#157,.T.);
#157 = EDGE_CURVE('',#158,#158,#160,.T.);
#158 = VERTEX_POINT('',#159);
#159 = CARTESIAN_POINT('',(56.549997711182,-29.7,238.84999923706));
#160 = CIRCLE('',#161,1.15);
#161 = AXIS2_PLACEMENT_3D('',#162,#163,#164);
#162 = CARTESIAN_POINT('',(55.399997711182,-29.7,238.84999923706));
#163 = DIRECTION('',(0.,-1.,-2.2E-16));
#164 = DIRECTION('',(1.,0.,0.));
#165 = PLANE('',#166);
#166 = AXIS2_PLACEMENT_3D('',#167,#168,#169);
#167 = CARTESIAN_POINT('',(41.035967668188,-29.7,238.84999923706));
#168 = DIRECTION('',(0.,1.,2.8E-16));
#169 = DIRECTION('',(0.,-2.8E-16,1.));
#170 = ADVANCED_FACE('',(#171),#190,.T.);
#171 = FACE_BOUND('',#172,.F.);
#172 = EDGE_LOOP('',(#173,#182,#188,#189));
#173 = ORIENTED_EDGE('',*,*,#174,.F.);
#174 = EDGE_CURVE('',#175,#32,#177,.T.);
#175 = VERTEX_POINT('',#176);
#176 = CARTESIAN_POINT('',(27.718618400837,-31.7,235.93431072886));
#177 = CIRCLE('',#178,3.2);
#178 = AXIS2_PLACEMENT_3D('',#179,#180,#181);
#179 = CARTESIAN_POINT('',(26.399997711182,-31.7,238.84999923706));
#180 = DIRECTION('',(-0.,1.,0.));
#181 = DIRECTION('',(1.,0.,0.));
#182 = ORIENTED_EDGE('',*,*,#183,.F.);
#183 = EDGE_CURVE('',#117,#175,#184,.T.);
#184 = LINE('',#185,#186);
#185 = CARTESIAN_POINT('',(27.718618400837,-31.7,235.93431072886));
#186 = VECTOR('',#187,1.);
#187 = DIRECTION('',(-0.,-1.,-2.2E-16));
#188 = ORIENTED_EDGE('',*,*,#125,.T.);
#189 = ORIENTED_EDGE('',*,*,#40,.T.);
#190 = CYLINDRICAL_SURFACE('',#191,3.2);
#191 = AXIS2_PLACEMENT_3D('',#192,#193,#194);
#192 = CARTESIAN_POINT('',(26.399997711182,-31.7,238.84999923706));
#193 = DIRECTION('',(-0.,-1.,0.));
#194 = DIRECTION('',(1.,0.,0.));
#195 = ADVANCED_FACE('',(#196,#209,#220,#231),#242,.T.);
#196 = FACE_BOUND('',#197,.T.);
#197 = EDGE_LOOP('',(#198,#199,#200,#201,#208));
#198 = ORIENTED_EDGE('',*,*,#82,.F.);
#199 = ORIENTED_EDGE('',*,*,#31,.F.);
#200 = ORIENTED_EDGE('',*,*,#174,.F.);
#201 = ORIENTED_EDGE('',*,*,#202,.F.);
#202 = EDGE_CURVE('',#66,#175,#203,.T.);
#203 = CIRCLE('',#204,13.5);
#204 = AXIS2_PLACEMENT_3D('',#205,#206,#207);
#205 = CARTESIAN_POINT('',(40.899997711182,-31.7,238.84999923706));
#206 = DIRECTION('',(-0.,1.,0.));
#207 = DIRECTION('',(1.,0.,0.));
#208 = ORIENTED_EDGE('',*,*,#73,.F.);
#209 = FACE_BOUND('',#210,.T.);
#210 = EDGE_LOOP('',(#211));
#211 = ORIENTED_EDGE('',*,*,#212,.F.);
#212 = EDGE_CURVE('',#213,#213,#215,.T.);
#213 = VERTEX_POINT('',#214);
#214 = CARTESIAN_POINT('',(27.549997711182,-31.7,238.84999923706));
#215 = CIRCLE('',#216,1.15);
#216 = AXIS2_PLACEMENT_3D('',#217,#218,#219);
#217 = CARTESIAN_POINT('',(26.399997711182,-31.7,238.84999923706));
#218 = DIRECTION('',(0.,-1.,-2.2E-16));
#219 = DIRECTION('',(1.,0.,0.));
#220 = FACE_BOUND('',#221,.T.);
#221 = EDGE_LOOP('',(#222));
#222 = ORIENTED_EDGE('',*,*,#223,.F.);
#223 = EDGE_CURVE('',#224,#224,#226,.T.);
#224 = VERTEX_POINT('',#225);
#225 = CARTESIAN_POINT('',(50.999997711182,-31.7,238.84999923706));
#226 = CIRCLE('',#227,10.1);
#227 = AXIS2_PLACEMENT_3D('',#228,#229,#230);
#228 = CARTESIAN_POINT('',(40.899997711182,-31.7,238.84999923706));
#229 = DIRECTION('',(0.,-1.,-2.2E-16));
#230 = DIRECTION('',(1.,0.,0.));
#231 = FACE_BOUND('',#232,.T.);
#232 = EDGE_LOOP('',(#233));
#233 = ORIENTED_EDGE('',*,*,#234,.F.);
#234 = EDGE_CURVE('',#235,#235,#237,.T.);
#235 = VERTEX_POINT('',#236);
#236 = CARTESIAN_POINT('',(56.549997711182,-31.7,238.84999923706));
#237 = CIRCLE('',#238,1.15);
#238 = AXIS2_PLACEMENT_3D('',#239,#240,#241);
#239 = CARTESIAN_POINT('',(55.399997711182,-31.7,238.84999923706));
#240 = DIRECTION('',(0.,-1.,-2.2E-16));
#241 = DIRECTION('',(1.,0.,0.));
#242 = PLANE('',#243);
#243 = AXIS2_PLACEMENT_3D('',#244,#245,#246);
#244 = CARTESIAN_POINT('',(41.035967668188,-31.7,238.84999923706));
#245 = DIRECTION('',(-0.,-1.,-2.8E-16));
#246 = DIRECTION('',(0.,2.8E-16,-1.));
#247 = ADVANCED_FACE('',(#248),#254,.T.);
#248 = FACE_BOUND('',#249,.F.);
#249 = EDGE_LOOP('',(#250,#251,#252,#253));
#250 = ORIENTED_EDGE('',*,*,#202,.F.);
#251 = ORIENTED_EDGE('',*,*,#63,.F.);
#252 = ORIENTED_EDGE('',*,*,#116,.T.);
#253 = ORIENTED_EDGE('',*,*,#183,.T.);
#254 = CYLINDRICAL_SURFACE('',#255,13.5);
#255 = AXIS2_PLACEMENT_3D('',#256,#257,#258);
#256 = CARTESIAN_POINT('',(40.899997711182,-31.7,238.84999923706));
#257 = DIRECTION('',(-0.,-1.,0.));
#258 = DIRECTION('',(1.,0.,0.));
#259 = ADVANCED_FACE('',(#260),#271,.F.);
#260 = FACE_BOUND('',#261,.T.);
#261 = EDGE_LOOP('',(#262,#263,#269,#270));
#262 = ORIENTED_EDGE('',*,*,#212,.T.);
#263 = ORIENTED_EDGE('',*,*,#264,.T.);
#264 = EDGE_CURVE('',#213,#136,#265,.T.);
#265 = LINE('',#266,#267);
#266 = CARTESIAN_POINT('',(27.549997711182,-31.8,238.84999923706));
#267 = VECTOR('',#268,1.);
#268 = DIRECTION('',(0.,1.,0.));
#269 = ORIENTED_EDGE('',*,*,#135,.F.);
#270 = ORIENTED_EDGE('',*,*,#264,.F.);
#271 = CYLINDRICAL_SURFACE('',#272,1.15);
#272 = AXIS2_PLACEMENT_3D('',#273,#274,#275);
#273 = CARTESIAN_POINT('',(26.399997711182,-31.8,238.84999923706));
#274 = DIRECTION('',(-0.,-1.,0.));
#275 = DIRECTION('',(1.,0.,0.));
#276 = ADVANCED_FACE('',(#277),#288,.F.);
#277 = FACE_BOUND('',#278,.T.);
#278 = EDGE_LOOP('',(#279,#280,#286,#287));
#279 = ORIENTED_EDGE('',*,*,#223,.T.);
#280 = ORIENTED_EDGE('',*,*,#281,.T.);
#281 = EDGE_CURVE('',#224,#147,#282,.T.);
#282 = LINE('',#283,#284);
#283 = CARTESIAN_POINT('',(50.999997711182,-31.8,238.84999923706));
#284 = VECTOR('',#285,1.);
#285 = DIRECTION('',(0.,1.,0.));
#286 = ORIENTED_EDGE('',*,*,#146,.F.);
#287 = ORIENTED_EDGE('',*,*,#281,.F.);
#288 = CYLINDRICAL_SURFACE('',#289,10.1);
#289 = AXIS2_PLACEMENT_3D('',#290,#291,#292);
#290 = CARTESIAN_POINT('',(40.899997711182,-31.8,238.84999923706));
#291 = DIRECTION('',(-0.,-1.,0.));
#292 = DIRECTION('',(1.,0.,0.));
#293 = ADVANCED_FACE('',(#294),#305,.F.);
#294 = FACE_BOUND('',#295,.T.);
#295 = EDGE_LOOP('',(#296,#297,#303,#304));
#296 = ORIENTED_EDGE('',*,*,#234,.T.);
#297 = ORIENTED_EDGE('',*,*,#298,.T.);
#298 = EDGE_CURVE('',#235,#158,#299,.T.);
#299 = LINE('',#300,#301);
#300 = CARTESIAN_POINT('',(56.549997711182,-31.8,238.84999923706));
#301 = VECTOR('',#302,1.);
#302 = DIRECTION('',(0.,1.,0.));
#303 = ORIENTED_EDGE('',*,*,#157,.F.);
#304 = ORIENTED_EDGE('',*,*,#298,.F.);
#305 = CYLINDRICAL_SURFACE('',#306,1.15);
#306 = AXIS2_PLACEMENT_3D('',#307,#308,#309);
#307 = CARTESIAN_POINT('',(55.399997711182,-31.8,238.84999923706));
#308 = DIRECTION('',(-0.,-1.,0.));
#309 = DIRECTION('',(1.,0.,0.));
#310 = ( GEOMETRIC_REPRESENTATION_CONTEXT(3) 
GLOBAL_UNCERTAINTY_ASSIGNED_CONTEXT((#314)) GLOBAL_UNIT_ASSIGNED_CONTEXT
((#311,#312,#313)) REPRESENTATION_CONTEXT('Context #1',
  '3D Context with UNIT and UNCERTAINTY') );
#311 = ( LENGTH_UNIT() NAMED_UNIT(*) SI_UNIT(.MILLI.,.METRE.) );
#312 = ( NAMED_UNIT(*) PLANE_ANGLE_UNIT() SI_UNIT($,.RADIAN.) );
#313 = ( NAMED_UNIT(*) SI_UNIT($,.STERADIAN.) SOLID_ANGLE_UNIT() );
#314 = UNCERTAINTY_MEASURE_WITH_UNIT(LENGTH_MEASURE(1.E-07),#311,
  'distance_accuracy_value','confusion accuracy');
#315 = PRODUCT_RELATED_PRODUCT_CATEGORY('part',$,(#7));
ENDSEC;
END-ISO-10303-21;
