ISO-10303-21;
HEADER;
FILE_DESCRIPTION(('FreeCAD Model'),'2;1');
FILE_NAME('Open CASCADE Shape Model','2026-10-09T09:09:12',('FreeCAD'),(
    'FreeCAD'),'Open CASCADE STEP processor 7.8','FreeCAD','Unknown');
FILE_SCHEMA(('AUTOMOTIVE_DESIGN { 1 0 10303 214 1 1 1 1 }'));
ENDSEC;
DATA;
#1 = APPLICATION_PROTOCOL_DEFINITION('international standard',
  'automotive_design',2000,#2);
#2 = APPLICATION_CONTEXT(
  'core data for automotive mechanical design processes');
#3 = SHAPE_DEFINITION_REPRESENTATION(#4,#10);
#4 = PRODUCT_DEFINITION_SHAPE('','',#5);
#5 = PRODUCT_DEFINITION('design','',#6,#9);
#6 = PRODUCT_DEFINITION_FORMATION('','',#7);
#7 = PRODUCT('Open CASCADE STEP translator 7.8 11',
  'Open CASCADE STEP translator 7.8 11','',(#8));
#8 = PRODUCT_CONTEXT('',#2,'mechanical');
#9 = PRODUCT_DEFINITION_CONTEXT('part definition',#2,'design');
#10 = ADVANCED_BREP_SHAPE_REPRESENTATION('',(#11,#15),#1542);
#11 = AXIS2_PLACEMENT_3D('',#12,#13,#14);
#12 = CARTESIAN_POINT('',(0.,0.,0.));
#13 = DIRECTION('',(0.,0.,1.));
#14 = DIRECTION('',(1.,0.,-0.));
#15 = MANIFOLD_SOLID_BREP('',#16);
#16 = CLOSED_SHELL('',(#17,#73,#152,#176,#368,#392,#504,#521,#545,#594,
    #634,#651,#668,#685,#697,#714,#795,#842,#882,#924,#964,#988,#1023,
    #1047,#1071,#1095,#1119,#1143,#1168,#1193,#1218,#1243,#1268,#1308,
    #1332,#1365,#1382,#1408,#1425,#1446,#1458,#1470,#1482,#1494,#1506,
    #1518,#1530));
#17 = ADVANCED_FACE('',(#18),#68,.T.);
#18 = FACE_BOUND('',#19,.F.);
#19 = EDGE_LOOP('',(#20,#30,#38,#46,#54,#62));
#20 = ORIENTED_EDGE('',*,*,#21,.T.);
#21 = EDGE_CURVE('',#22,#24,#26,.T.);
#22 = VERTEX_POINT('',#23);
#23 = CARTESIAN_POINT('',(-29.95,-45.2,107.2));
#24 = VERTEX_POINT('',#25);
#25 = CARTESIAN_POINT('',(-7.55,-45.2,107.2));
#26 = LINE('',#27,#28);
#27 = CARTESIAN_POINT('',(-29.95,-45.2,107.2));
#28 = VECTOR('',#29,1.);
#29 = DIRECTION('',(1.,0.,0.));
#30 = ORIENTED_EDGE('',*,*,#31,.T.);
#31 = EDGE_CURVE('',#24,#32,#34,.T.);
#32 = VERTEX_POINT('',#33);
#33 = CARTESIAN_POINT('',(-7.55,-68.,107.2));
#34 = LINE('',#35,#36);
#35 = CARTESIAN_POINT('',(-7.55,-45.2,107.2));
#36 = VECTOR('',#37,1.);
#37 = DIRECTION('',(0.,-1.,4.E-15));
#38 = ORIENTED_EDGE('',*,*,#39,.F.);
#39 = EDGE_CURVE('',#40,#32,#42,.T.);
#40 = VERTEX_POINT('',#41);
#41 = CARTESIAN_POINT('',(-13.75,-68.,107.2));
#42 = LINE('',#43,#44);
#43 = CARTESIAN_POINT('',(-29.95,-68.,107.2));
#44 = VECTOR('',#45,1.);
#45 = DIRECTION('',(1.,0.,0.));
#46 = ORIENTED_EDGE('',*,*,#47,.T.);
#47 = EDGE_CURVE('',#40,#48,#50,.T.);
#48 = VERTEX_POINT('',#49);
#49 = CARTESIAN_POINT('',(-13.75,-70.,107.2));
#50 = LINE('',#51,#52);
#51 = CARTESIAN_POINT('',(-13.75,-67.9,107.2));
#52 = VECTOR('',#53,1.);
#53 = DIRECTION('',(0.,-1.,4.E-15));
#54 = ORIENTED_EDGE('',*,*,#55,.F.);
#55 = EDGE_CURVE('',#56,#48,#58,.T.);
#56 = VERTEX_POINT('',#57);
#57 = CARTESIAN_POINT('',(-29.95,-70.,107.2));
#58 = LINE('',#59,#60);
#59 = CARTESIAN_POINT('',(-30.,-70.,107.2));
#60 = VECTOR('',#61,1.);
#61 = DIRECTION('',(1.,0.,0.));
#62 = ORIENTED_EDGE('',*,*,#63,.F.);
#63 = EDGE_CURVE('',#22,#56,#64,.T.);
#64 = LINE('',#65,#66);
#65 = CARTESIAN_POINT('',(-29.95,-45.2,107.2));
#66 = VECTOR('',#67,1.);
#67 = DIRECTION('',(0.,-1.,4.E-15));
#68 = PLANE('',#69);
#69 = AXIS2_PLACEMENT_3D('',#70,#71,#72);
#70 = CARTESIAN_POINT('',(-18.8813559322,-57.46864406779,107.2));
#71 = DIRECTION('',(0.,4.E-15,1.));
#72 = DIRECTION('',(-1.,-0.,-0.));
#73 = ADVANCED_FACE('',(#74),#147,.T.);
#74 = FACE_BOUND('',#75,.F.);
#75 = EDGE_LOOP('',(#76,#86,#94,#102,#110,#118,#126,#134,#140,#141));
#76 = ORIENTED_EDGE('',*,*,#77,.T.);
#77 = EDGE_CURVE('',#78,#80,#82,.T.);
#78 = VERTEX_POINT('',#79);
#79 = CARTESIAN_POINT('',(-29.95,-45.2,68.8));
#80 = VERTEX_POINT('',#81);
#81 = CARTESIAN_POINT('',(-6.7,-45.2,68.8));
#82 = LINE('',#83,#84);
#83 = CARTESIAN_POINT('',(-29.95,-45.2,68.8));
#84 = VECTOR('',#85,1.);
#85 = DIRECTION('',(1.,0.,0.));
#86 = ORIENTED_EDGE('',*,*,#87,.T.);
#87 = EDGE_CURVE('',#80,#88,#90,.T.);
#88 = VERTEX_POINT('',#89);
#89 = CARTESIAN_POINT('',(-6.7,-45.2,90.));
#90 = LINE('',#91,#92);
#91 = CARTESIAN_POINT('',(-6.7,-45.2,68.8));
#92 = VECTOR('',#93,1.);
#93 = DIRECTION('',(0.,4.E-15,1.));
#94 = ORIENTED_EDGE('',*,*,#95,.F.);
#95 = EDGE_CURVE('',#96,#88,#98,.T.);
#96 = VERTEX_POINT('',#97);
#97 = CARTESIAN_POINT('',(-7.55,-45.2,90.));
#98 = LINE('',#99,#100);
#99 = CARTESIAN_POINT('',(-7.55,-45.2,90.));
#100 = VECTOR('',#101,1.);
#101 = DIRECTION('',(1.,0.,0.));
#102 = ORIENTED_EDGE('',*,*,#103,.F.);
#103 = EDGE_CURVE('',#104,#96,#106,.T.);
#104 = VERTEX_POINT('',#105);
#105 = CARTESIAN_POINT('',(-7.55,-45.2,70.8));
#106 = LINE('',#107,#108);
#107 = CARTESIAN_POINT('',(-7.55,-45.2,68.8));
#108 = VECTOR('',#109,1.);
#109 = DIRECTION('',(0.,4.E-15,1.));
#110 = ORIENTED_EDGE('',*,*,#111,.F.);
#111 = EDGE_CURVE('',#112,#104,#114,.T.);
#112 = VERTEX_POINT('',#113);
#113 = CARTESIAN_POINT('',(-27.95,-45.2,70.8));
#114 = LINE('',#115,#116);
#115 = CARTESIAN_POINT('',(-29.95,-45.2,70.8));
#116 = VECTOR('',#117,1.);
#117 = DIRECTION('',(1.,0.,0.));
#118 = ORIENTED_EDGE('',*,*,#119,.T.);
#119 = EDGE_CURVE('',#112,#120,#122,.T.);
#120 = VERTEX_POINT('',#121);
#121 = CARTESIAN_POINT('',(-27.95,-45.2,105.2));
#122 = LINE('',#123,#124);
#123 = CARTESIAN_POINT('',(-27.95,-45.2,68.8));
#124 = VECTOR('',#125,1.);
#125 = DIRECTION('',(0.,4.E-15,1.));
#126 = ORIENTED_EDGE('',*,*,#127,.T.);
#127 = EDGE_CURVE('',#120,#128,#130,.T.);
#128 = VERTEX_POINT('',#129);
#129 = CARTESIAN_POINT('',(-7.55,-45.2,105.2));
#130 = LINE('',#131,#132);
#131 = CARTESIAN_POINT('',(-29.95,-45.2,105.2));
#132 = VECTOR('',#133,1.);
#133 = DIRECTION('',(1.,0.,0.));
#134 = ORIENTED_EDGE('',*,*,#135,.T.);
#135 = EDGE_CURVE('',#128,#24,#136,.T.);
#136 = LINE('',#137,#138);
#137 = CARTESIAN_POINT('',(-7.55,-45.2,105.2));
#138 = VECTOR('',#139,1.);
#139 = DIRECTION('',(0.,4.E-15,1.));
#140 = ORIENTED_EDGE('',*,*,#21,.F.);
#141 = ORIENTED_EDGE('',*,*,#142,.F.);
#142 = EDGE_CURVE('',#78,#22,#143,.T.);
#143 = LINE('',#144,#145);
#144 = CARTESIAN_POINT('',(-29.95,-45.2,68.8));
#145 = VECTOR('',#146,1.);
#146 = DIRECTION('',(0.,4.E-15,1.));
#147 = PLANE('',#148);
#148 = AXIS2_PLACEMENT_3D('',#149,#150,#151);
#149 = CARTESIAN_POINT('',(-19.70356790123,-45.2,86.486617283951));
#150 = DIRECTION('',(0.,1.,-4.E-15));
#151 = DIRECTION('',(0.,4.E-15,1.));
#152 = ADVANCED_FACE('',(#153),#171,.T.);
#153 = FACE_BOUND('',#154,.F.);
#154 = EDGE_LOOP('',(#155,#156,#164,#170));
#155 = ORIENTED_EDGE('',*,*,#135,.F.);
#156 = ORIENTED_EDGE('',*,*,#157,.T.);
#157 = EDGE_CURVE('',#128,#158,#160,.T.);
#158 = VERTEX_POINT('',#159);
#159 = CARTESIAN_POINT('',(-7.55,-68.,105.2));
#160 = LINE('',#161,#162);
#161 = CARTESIAN_POINT('',(-7.55,-45.2,105.2));
#162 = VECTOR('',#163,1.);
#163 = DIRECTION('',(0.,-1.,4.E-15));
#164 = ORIENTED_EDGE('',*,*,#165,.T.);
#165 = EDGE_CURVE('',#158,#32,#166,.T.);
#166 = LINE('',#167,#168);
#167 = CARTESIAN_POINT('',(-7.55,-68.,105.2));
#168 = VECTOR('',#169,1.);
#169 = DIRECTION('',(0.,4.E-15,1.));
#170 = ORIENTED_EDGE('',*,*,#31,.F.);
#171 = PLANE('',#172);
#172 = AXIS2_PLACEMENT_3D('',#173,#174,#175);
#173 = CARTESIAN_POINT('',(-7.55,-45.2,105.2));
#174 = DIRECTION('',(1.,0.,0.));
#175 = DIRECTION('',(-0.,-4.E-15,-1.));
#176 = ADVANCED_FACE('',(#177,#308,#319,#330,#341,#352),#363,.F.);
#177 = FACE_BOUND('',#178,.T.);
#178 = EDGE_LOOP('',(#179,#189,#197,#205,#213,#221,#229,#235,#236,#237,
    #245,#253,#261,#269,#278,#286,#294,#302));
#179 = ORIENTED_EDGE('',*,*,#180,.F.);
#180 = EDGE_CURVE('',#181,#183,#185,.T.);
#181 = VERTEX_POINT('',#182);
#182 = CARTESIAN_POINT('',(-6.7,-68.,68.8));
#183 = VERTEX_POINT('',#184);
#184 = CARTESIAN_POINT('',(-0.5,-68.,68.8));
#185 = LINE('',#186,#187);
#186 = CARTESIAN_POINT('',(-29.95,-68.,68.8));
#187 = VECTOR('',#188,1.);
#188 = DIRECTION('',(1.,0.,0.));
#189 = ORIENTED_EDGE('',*,*,#190,.T.);
#190 = EDGE_CURVE('',#181,#191,#193,.T.);
#191 = VERTEX_POINT('',#192);
#192 = CARTESIAN_POINT('',(-6.7,-68.,90.));
#193 = LINE('',#194,#195);
#194 = CARTESIAN_POINT('',(-6.7,-68.,68.8));
#195 = VECTOR('',#196,1.);
#196 = DIRECTION('',(0.,4.E-15,1.));
#197 = ORIENTED_EDGE('',*,*,#198,.F.);
#198 = EDGE_CURVE('',#199,#191,#201,.T.);
#199 = VERTEX_POINT('',#200);
#200 = CARTESIAN_POINT('',(-7.55,-68.,90.));
#201 = LINE('',#202,#203);
#202 = CARTESIAN_POINT('',(-7.55,-68.,90.));
#203 = VECTOR('',#204,1.);
#204 = DIRECTION('',(1.,0.,0.));
#205 = ORIENTED_EDGE('',*,*,#206,.F.);
#206 = EDGE_CURVE('',#207,#199,#209,.T.);
#207 = VERTEX_POINT('',#208);
#208 = CARTESIAN_POINT('',(-7.55,-68.,70.8));
#209 = LINE('',#210,#211);
#210 = CARTESIAN_POINT('',(-7.55,-68.,68.8));
#211 = VECTOR('',#212,1.);
#212 = DIRECTION('',(0.,4.E-15,1.));
#213 = ORIENTED_EDGE('',*,*,#214,.F.);
#214 = EDGE_CURVE('',#215,#207,#217,.T.);
#215 = VERTEX_POINT('',#216);
#216 = CARTESIAN_POINT('',(-27.95,-68.,70.8));
#217 = LINE('',#218,#219);
#218 = CARTESIAN_POINT('',(-29.95,-68.,70.8));
#219 = VECTOR('',#220,1.);
#220 = DIRECTION('',(1.,0.,0.));
#221 = ORIENTED_EDGE('',*,*,#222,.T.);
#222 = EDGE_CURVE('',#215,#223,#225,.T.);
#223 = VERTEX_POINT('',#224);
#224 = CARTESIAN_POINT('',(-27.95,-68.,105.2));
#225 = LINE('',#226,#227);
#226 = CARTESIAN_POINT('',(-27.95,-68.,68.8));
#227 = VECTOR('',#228,1.);
#228 = DIRECTION('',(0.,4.E-15,1.));
#229 = ORIENTED_EDGE('',*,*,#230,.T.);
#230 = EDGE_CURVE('',#223,#158,#231,.T.);
#231 = LINE('',#232,#233);
#232 = CARTESIAN_POINT('',(-29.95,-68.,105.2));
#233 = VECTOR('',#234,1.);
#234 = DIRECTION('',(1.,0.,0.));
#235 = ORIENTED_EDGE('',*,*,#165,.T.);
#236 = ORIENTED_EDGE('',*,*,#39,.F.);
#237 = ORIENTED_EDGE('',*,*,#238,.F.);
#238 = EDGE_CURVE('',#239,#40,#241,.T.);
#239 = VERTEX_POINT('',#240);
#240 = CARTESIAN_POINT('',(-13.75,-68.,114.7));
#241 = LINE('',#242,#243);
#242 = CARTESIAN_POINT('',(-13.75,-68.,88.));
#243 = VECTOR('',#244,1.);
#244 = DIRECTION('',(-0.,-4.E-15,-1.));
#245 = ORIENTED_EDGE('',*,*,#246,.T.);
#246 = EDGE_CURVE('',#239,#247,#249,.T.);
#247 = VERTEX_POINT('',#248);
#248 = CARTESIAN_POINT('',(-6.7,-68.,114.7));
#249 = LINE('',#250,#251);
#250 = CARTESIAN_POINT('',(-29.95,-68.,114.7));
#251 = VECTOR('',#252,1.);
#252 = DIRECTION('',(1.,0.,0.));
#253 = ORIENTED_EDGE('',*,*,#254,.F.);
#254 = EDGE_CURVE('',#255,#247,#257,.T.);
#255 = VERTEX_POINT('',#256);
#256 = CARTESIAN_POINT('',(-6.7,-68.,112.7));
#257 = LINE('',#258,#259);
#258 = CARTESIAN_POINT('',(-6.7,-68.,112.7));
#259 = VECTOR('',#260,1.);
#260 = DIRECTION('',(0.,4.E-15,1.));
#261 = ORIENTED_EDGE('',*,*,#262,.T.);
#262 = EDGE_CURVE('',#255,#263,#265,.T.);
#263 = VERTEX_POINT('',#264);
#264 = CARTESIAN_POINT('',(1.970028072389,-68.,112.7));
#265 = LINE('',#266,#267);
#266 = CARTESIAN_POINT('',(-6.7,-68.,112.7));
#267 = VECTOR('',#268,1.);
#268 = DIRECTION('',(1.,0.,0.));
#269 = ORIENTED_EDGE('',*,*,#270,.T.);
#270 = EDGE_CURVE('',#263,#271,#273,.T.);
#271 = VERTEX_POINT('',#272);
#272 = CARTESIAN_POINT('',(1.970028072389,-68.,92.3));
#273 = CIRCLE('',#274,19.);
#274 = AXIS2_PLACEMENT_3D('',#275,#276,#277);
#275 = CARTESIAN_POINT('',(18.,-68.,102.5));
#276 = DIRECTION('',(0.,-1.,2.89E-15));
#277 = DIRECTION('',(1.,0.,0.));
#278 = ORIENTED_EDGE('',*,*,#279,.F.);
#279 = EDGE_CURVE('',#280,#271,#282,.T.);
#280 = VERTEX_POINT('',#281);
#281 = CARTESIAN_POINT('',(-6.7,-68.,92.3));
#282 = LINE('',#283,#284);
#283 = CARTESIAN_POINT('',(-6.7,-68.,92.3));
#284 = VECTOR('',#285,1.);
#285 = DIRECTION('',(1.,0.,0.));
#286 = ORIENTED_EDGE('',*,*,#287,.F.);
#287 = EDGE_CURVE('',#288,#280,#290,.T.);
#288 = VERTEX_POINT('',#289);
#289 = CARTESIAN_POINT('',(-6.7,-68.,90.3));
#290 = LINE('',#291,#292);
#291 = CARTESIAN_POINT('',(-6.7,-68.,90.3));
#292 = VECTOR('',#293,1.);
#293 = DIRECTION('',(0.,4.E-15,1.));
#294 = ORIENTED_EDGE('',*,*,#295,.T.);
#295 = EDGE_CURVE('',#288,#296,#298,.T.);
#296 = VERTEX_POINT('',#297);
#297 = CARTESIAN_POINT('',(-0.5,-68.,90.3));
#298 = LINE('',#299,#300);
#299 = CARTESIAN_POINT('',(-6.7,-68.,90.3));
#300 = VECTOR('',#301,1.);
#301 = DIRECTION('',(1.,0.,0.));
#302 = ORIENTED_EDGE('',*,*,#303,.T.);
#303 = EDGE_CURVE('',#296,#183,#304,.T.);
#304 = LINE('',#305,#306);
#305 = CARTESIAN_POINT('',(-0.5,-68.,68.75));
#306 = VECTOR('',#307,1.);
#307 = DIRECTION('',(-0.,-4.E-15,-1.));
#308 = FACE_BOUND('',#309,.T.);
#309 = EDGE_LOOP('',(#310));
#310 = ORIENTED_EDGE('',*,*,#311,.F.);
#311 = EDGE_CURVE('',#312,#312,#314,.T.);
#312 = VERTEX_POINT('',#313);
#313 = CARTESIAN_POINT('',(-24.6,-68.,73.));
#314 = CIRCLE('',#315,1.15);
#315 = AXIS2_PLACEMENT_3D('',#316,#317,#318);
#316 = CARTESIAN_POINT('',(-25.75,-68.,73.));
#317 = DIRECTION('',(0.,1.,-2.11E-15));
#318 = DIRECTION('',(1.,0.,0.));
#319 = FACE_BOUND('',#320,.T.);
#320 = EDGE_LOOP('',(#321));
#321 = ORIENTED_EDGE('',*,*,#322,.F.);
#322 = EDGE_CURVE('',#323,#323,#325,.T.);
#323 = VERTEX_POINT('',#324);
#324 = CARTESIAN_POINT('',(-24.6,-68.,103.));
#325 = CIRCLE('',#326,1.15);
#326 = AXIS2_PLACEMENT_3D('',#327,#328,#329);
#327 = CARTESIAN_POINT('',(-25.75,-68.,103.));
#328 = DIRECTION('',(0.,1.,-2.44E-15));
#329 = DIRECTION('',(1.,0.,0.));
#330 = FACE_BOUND('',#331,.T.);
#331 = EDGE_LOOP('',(#332));
#332 = ORIENTED_EDGE('',*,*,#333,.F.);
#333 = EDGE_CURVE('',#334,#334,#336,.T.);
#334 = VERTEX_POINT('',#335);
#335 = CARTESIAN_POINT('',(-8.6,-68.,73.));
#336 = CIRCLE('',#337,1.15);
#337 = AXIS2_PLACEMENT_3D('',#338,#339,#340);
#338 = CARTESIAN_POINT('',(-9.75,-68.,73.));
#339 = DIRECTION('',(0.,1.,-1.78E-15));
#340 = DIRECTION('',(1.,0.,0.));
#341 = FACE_BOUND('',#342,.T.);
#342 = EDGE_LOOP('',(#343));
#343 = ORIENTED_EDGE('',*,*,#344,.T.);
#344 = EDGE_CURVE('',#345,#345,#347,.T.);
#345 = VERTEX_POINT('',#346);
#346 = CARTESIAN_POINT('',(-3.35,-68.,94.5));
#347 = CIRCLE('',#348,1.15);
#348 = AXIS2_PLACEMENT_3D('',#349,#350,#351);
#349 = CARTESIAN_POINT('',(-4.5,-68.,94.5));
#350 = DIRECTION('',(0.,-1.,2.22E-15));
#351 = DIRECTION('',(1.,0.,0.));
#352 = FACE_BOUND('',#353,.T.);
#353 = EDGE_LOOP('',(#354));
#354 = ORIENTED_EDGE('',*,*,#355,.F.);
#355 = EDGE_CURVE('',#356,#356,#358,.T.);
#356 = VERTEX_POINT('',#357);
#357 = CARTESIAN_POINT('',(-3.35,-68.,110.5));
#358 = CIRCLE('',#359,1.15);
#359 = AXIS2_PLACEMENT_3D('',#360,#361,#362);
#360 = CARTESIAN_POINT('',(-4.5,-68.,110.5));
#361 = DIRECTION('',(0.,1.,-3.E-15));
#362 = DIRECTION('',(1.,0.,0.));
#363 = PLANE('',#364);
#364 = AXIS2_PLACEMENT_3D('',#365,#366,#367);
#365 = CARTESIAN_POINT('',(-29.95,-68.,68.8));
#366 = DIRECTION('',(0.,-1.,4.E-15));
#367 = DIRECTION('',(0.,-4.E-15,-1.));
#368 = ADVANCED_FACE('',(#369),#387,.F.);
#369 = FACE_BOUND('',#370,.T.);
#370 = EDGE_LOOP('',(#371,#372,#373,#381));
#371 = ORIENTED_EDGE('',*,*,#238,.T.);
#372 = ORIENTED_EDGE('',*,*,#47,.T.);
#373 = ORIENTED_EDGE('',*,*,#374,.F.);
#374 = EDGE_CURVE('',#375,#48,#377,.T.);
#375 = VERTEX_POINT('',#376);
#376 = CARTESIAN_POINT('',(-13.75,-70.,114.7));
#377 = LINE('',#378,#379);
#378 = CARTESIAN_POINT('',(-13.75,-70.,88.));
#379 = VECTOR('',#380,1.);
#380 = DIRECTION('',(-0.,-4.E-15,-1.));
#381 = ORIENTED_EDGE('',*,*,#382,.F.);
#382 = EDGE_CURVE('',#239,#375,#383,.T.);
#383 = LINE('',#384,#385);
#384 = CARTESIAN_POINT('',(-13.75,-67.95,114.7));
#385 = VECTOR('',#386,1.);
#386 = DIRECTION('',(0.,-1.,4.E-15));
#387 = PLANE('',#388);
#388 = AXIS2_PLACEMENT_3D('',#389,#390,#391);
#389 = CARTESIAN_POINT('',(-13.75,-67.9,107.2));
#390 = DIRECTION('',(1.,0.,0.));
#391 = DIRECTION('',(-0.,-4.E-15,-1.));
#392 = ADVANCED_FACE('',(#393,#444,#455,#466,#477,#488),#499,.T.);
#393 = FACE_BOUND('',#394,.F.);
#394 = EDGE_LOOP('',(#395,#405,#411,#412,#413,#421,#430,#438));
#395 = ORIENTED_EDGE('',*,*,#396,.F.);
#396 = EDGE_CURVE('',#397,#399,#401,.T.);
#397 = VERTEX_POINT('',#398);
#398 = CARTESIAN_POINT('',(-29.95,-70.,68.8));
#399 = VERTEX_POINT('',#400);
#400 = CARTESIAN_POINT('',(-0.5,-70.,68.8));
#401 = LINE('',#402,#403);
#402 = CARTESIAN_POINT('',(-29.95,-70.,68.8));
#403 = VECTOR('',#404,1.);
#404 = DIRECTION('',(1.,0.,0.));
#405 = ORIENTED_EDGE('',*,*,#406,.T.);
#406 = EDGE_CURVE('',#397,#56,#407,.T.);
#407 = LINE('',#408,#409);
#408 = CARTESIAN_POINT('',(-29.95,-70.,68.8));
#409 = VECTOR('',#410,1.);
#410 = DIRECTION('',(0.,4.E-15,1.));
#411 = ORIENTED_EDGE('',*,*,#55,.T.);
#412 = ORIENTED_EDGE('',*,*,#374,.F.);
#413 = ORIENTED_EDGE('',*,*,#414,.T.);
#414 = EDGE_CURVE('',#375,#415,#417,.T.);
#415 = VERTEX_POINT('',#416);
#416 = CARTESIAN_POINT('',(3.434286835174,-70.,114.7));
#417 = LINE('',#418,#419);
#418 = CARTESIAN_POINT('',(-29.95,-70.,114.7));
#419 = VECTOR('',#420,1.);
#420 = DIRECTION('',(1.,0.,0.));
#421 = ORIENTED_EDGE('',*,*,#422,.T.);
#422 = EDGE_CURVE('',#415,#423,#425,.T.);
#423 = VERTEX_POINT('',#424);
#424 = CARTESIAN_POINT('',(3.434286835173,-70.,90.3));
#425 = CIRCLE('',#426,19.);
#426 = AXIS2_PLACEMENT_3D('',#427,#428,#429);
#427 = CARTESIAN_POINT('',(18.,-70.,102.5));
#428 = DIRECTION('',(0.,-1.,2.89E-15));
#429 = DIRECTION('',(1.,0.,0.));
#430 = ORIENTED_EDGE('',*,*,#431,.F.);
#431 = EDGE_CURVE('',#432,#423,#434,.T.);
#432 = VERTEX_POINT('',#433);
#433 = CARTESIAN_POINT('',(-0.5,-70.,90.3));
#434 = LINE('',#435,#436);
#435 = CARTESIAN_POINT('',(-15.225,-70.,90.3));
#436 = VECTOR('',#437,1.);
#437 = DIRECTION('',(1.,0.,0.));
#438 = ORIENTED_EDGE('',*,*,#439,.T.);
#439 = EDGE_CURVE('',#432,#399,#440,.T.);
#440 = LINE('',#441,#442);
#441 = CARTESIAN_POINT('',(-0.5,-70.,68.75));
#442 = VECTOR('',#443,1.);
#443 = DIRECTION('',(-0.,-4.E-15,-1.));
#444 = FACE_BOUND('',#445,.F.);
#445 = EDGE_LOOP('',(#446));
#446 = ORIENTED_EDGE('',*,*,#447,.T.);
#447 = EDGE_CURVE('',#448,#448,#450,.T.);
#448 = VERTEX_POINT('',#449);
#449 = CARTESIAN_POINT('',(-23.25,-70.,73.));
#450 = CIRCLE('',#451,2.5);
#451 = AXIS2_PLACEMENT_3D('',#452,#453,#454);
#452 = CARTESIAN_POINT('',(-25.75,-70.,73.));
#453 = DIRECTION('',(0.,-1.,1.11E-15));
#454 = DIRECTION('',(1.,0.,0.));
#455 = FACE_BOUND('',#456,.F.);
#456 = EDGE_LOOP('',(#457));
#457 = ORIENTED_EDGE('',*,*,#458,.T.);
#458 = EDGE_CURVE('',#459,#459,#461,.T.);
#459 = VERTEX_POINT('',#460);
#460 = CARTESIAN_POINT('',(-23.25,-70.,103.));
#461 = CIRCLE('',#462,2.5);
#462 = AXIS2_PLACEMENT_3D('',#463,#464,#465);
#463 = CARTESIAN_POINT('',(-25.75,-70.,103.));
#464 = DIRECTION('',(0.,-1.,1.55E-15));
#465 = DIRECTION('',(1.,0.,0.));
#466 = FACE_BOUND('',#467,.F.);
#467 = EDGE_LOOP('',(#468));
#468 = ORIENTED_EDGE('',*,*,#469,.T.);
#469 = EDGE_CURVE('',#470,#470,#472,.T.);
#470 = VERTEX_POINT('',#471);
#471 = CARTESIAN_POINT('',(-7.25,-70.,73.));
#472 = CIRCLE('',#473,2.5);
#473 = AXIS2_PLACEMENT_3D('',#474,#475,#476);
#474 = CARTESIAN_POINT('',(-9.75,-70.,73.));
#475 = DIRECTION('',(0.,-1.,6.7E-16));
#476 = DIRECTION('',(1.,0.,0.));
#477 = FACE_BOUND('',#478,.F.);
#478 = EDGE_LOOP('',(#479));
#479 = ORIENTED_EDGE('',*,*,#480,.T.);
#480 = EDGE_CURVE('',#481,#481,#483,.T.);
#481 = VERTEX_POINT('',#482);
#482 = CARTESIAN_POINT('',(-2.,-70.,94.5));
#483 = CIRCLE('',#484,2.5);
#484 = AXIS2_PLACEMENT_3D('',#485,#486,#487);
#485 = CARTESIAN_POINT('',(-4.5,-70.,94.5));
#486 = DIRECTION('',(0.,-1.,2.E-15));
#487 = DIRECTION('',(1.,0.,0.));
#488 = FACE_BOUND('',#489,.F.);
#489 = EDGE_LOOP('',(#490));
#490 = ORIENTED_EDGE('',*,*,#491,.T.);
#491 = EDGE_CURVE('',#492,#492,#494,.T.);
#492 = VERTEX_POINT('',#493);
#493 = CARTESIAN_POINT('',(-2.,-70.,110.5));
#494 = CIRCLE('',#495,2.5);
#495 = AXIS2_PLACEMENT_3D('',#496,#497,#498);
#496 = CARTESIAN_POINT('',(-4.5,-70.,110.5));
#497 = DIRECTION('',(0.,-1.,2.44E-15));
#498 = DIRECTION('',(1.,0.,0.));
#499 = PLANE('',#500);
#500 = AXIS2_PLACEMENT_3D('',#501,#502,#503);
#501 = CARTESIAN_POINT('',(-29.95,-70.,68.8));
#502 = DIRECTION('',(0.,-1.,4.E-15));
#503 = DIRECTION('',(0.,-4.E-15,-1.));
#504 = ADVANCED_FACE('',(#505),#516,.T.);
#505 = FACE_BOUND('',#506,.F.);
#506 = EDGE_LOOP('',(#507,#508,#509,#510));
#507 = ORIENTED_EDGE('',*,*,#142,.T.);
#508 = ORIENTED_EDGE('',*,*,#63,.T.);
#509 = ORIENTED_EDGE('',*,*,#406,.F.);
#510 = ORIENTED_EDGE('',*,*,#511,.F.);
#511 = EDGE_CURVE('',#78,#397,#512,.T.);
#512 = LINE('',#513,#514);
#513 = CARTESIAN_POINT('',(-29.95,-68.,68.8));
#514 = VECTOR('',#515,1.);
#515 = DIRECTION('',(0.,-1.,4.E-15));
#516 = PLANE('',#517);
#517 = AXIS2_PLACEMENT_3D('',#518,#519,#520);
#518 = CARTESIAN_POINT('',(-29.95,-57.6,88.));
#519 = DIRECTION('',(-1.,-0.,-0.));
#520 = DIRECTION('',(0.,4.E-15,1.));
#521 = ADVANCED_FACE('',(#522),#540,.T.);
#522 = FACE_BOUND('',#523,.F.);
#523 = EDGE_LOOP('',(#524,#525,#526,#532,#533,#539));
#524 = ORIENTED_EDGE('',*,*,#511,.T.);
#525 = ORIENTED_EDGE('',*,*,#396,.T.);
#526 = ORIENTED_EDGE('',*,*,#527,.F.);
#527 = EDGE_CURVE('',#183,#399,#528,.T.);
#528 = LINE('',#529,#530);
#529 = CARTESIAN_POINT('',(-0.5,-67.95,68.8));
#530 = VECTOR('',#531,1.);
#531 = DIRECTION('',(0.,-1.,4.E-15));
#532 = ORIENTED_EDGE('',*,*,#180,.F.);
#533 = ORIENTED_EDGE('',*,*,#534,.F.);
#534 = EDGE_CURVE('',#80,#181,#535,.T.);
#535 = LINE('',#536,#537);
#536 = CARTESIAN_POINT('',(-6.7,-45.2,68.8));
#537 = VECTOR('',#538,1.);
#538 = DIRECTION('',(0.,-1.,4.E-15));
#539 = ORIENTED_EDGE('',*,*,#77,.F.);
#540 = PLANE('',#541);
#541 = AXIS2_PLACEMENT_3D('',#542,#543,#544);
#542 = CARTESIAN_POINT('',(-16.52785714285,-58.90285714285,68.8));
#543 = DIRECTION('',(-0.,-4.E-15,-1.));
#544 = DIRECTION('',(1.,0.,0.));
#545 = ADVANCED_FACE('',(#546),#589,.T.);
#546 = FACE_BOUND('',#547,.F.);
#547 = EDGE_LOOP('',(#548,#556,#557,#558,#559,#567,#575,#583));
#548 = ORIENTED_EDGE('',*,*,#549,.F.);
#549 = EDGE_CURVE('',#88,#550,#552,.T.);
#550 = VERTEX_POINT('',#551);
#551 = CARTESIAN_POINT('',(-6.7,-47.,90.));
#552 = LINE('',#553,#554);
#553 = CARTESIAN_POINT('',(-6.7,-45.2,90.));
#554 = VECTOR('',#555,1.);
#555 = DIRECTION('',(0.,-1.,4.E-15));
#556 = ORIENTED_EDGE('',*,*,#87,.F.);
#557 = ORIENTED_EDGE('',*,*,#534,.T.);
#558 = ORIENTED_EDGE('',*,*,#190,.T.);
#559 = ORIENTED_EDGE('',*,*,#560,.F.);
#560 = EDGE_CURVE('',#561,#191,#563,.T.);
#561 = VERTEX_POINT('',#562);
#562 = CARTESIAN_POINT('',(-6.7,-67.9,90.));
#563 = LINE('',#564,#565);
#564 = CARTESIAN_POINT('',(-6.7,-45.2,90.));
#565 = VECTOR('',#566,1.);
#566 = DIRECTION('',(0.,-1.,4.E-15));
#567 = ORIENTED_EDGE('',*,*,#568,.F.);
#568 = EDGE_CURVE('',#569,#561,#571,.T.);
#569 = VERTEX_POINT('',#570);
#570 = CARTESIAN_POINT('',(-6.7,-67.9,69.5));
#571 = LINE('',#572,#573);
#572 = CARTESIAN_POINT('',(-6.7,-67.9,69.15));
#573 = VECTOR('',#574,1.);
#574 = DIRECTION('',(0.,0.,1.));
#575 = ORIENTED_EDGE('',*,*,#576,.T.);
#576 = EDGE_CURVE('',#569,#577,#579,.T.);
#577 = VERTEX_POINT('',#578);
#578 = CARTESIAN_POINT('',(-6.7,-47.,69.5));
#579 = LINE('',#580,#581);
#580 = CARTESIAN_POINT('',(-6.7,-46.1,69.5));
#581 = VECTOR('',#582,1.);
#582 = DIRECTION('',(0.,1.,0.));
#583 = ORIENTED_EDGE('',*,*,#584,.T.);
#584 = EDGE_CURVE('',#577,#550,#585,.T.);
#585 = LINE('',#586,#587);
#586 = CARTESIAN_POINT('',(-6.7,-47.,69.15));
#587 = VECTOR('',#588,1.);
#588 = DIRECTION('',(0.,0.,1.));
#589 = PLANE('',#590);
#590 = AXIS2_PLACEMENT_3D('',#591,#592,#593);
#591 = CARTESIAN_POINT('',(-6.7,-45.2,68.8));
#592 = DIRECTION('',(1.,0.,0.));
#593 = DIRECTION('',(-0.,-4.E-15,-1.));
#594 = ADVANCED_FACE('',(#595),#629,.T.);
#595 = FACE_BOUND('',#596,.F.);
#596 = EDGE_LOOP('',(#597,#603,#604,#605,#613,#621,#627,#628));
#597 = ORIENTED_EDGE('',*,*,#598,.F.);
#598 = EDGE_CURVE('',#96,#199,#599,.T.);
#599 = LINE('',#600,#601);
#600 = CARTESIAN_POINT('',(-7.55,-45.2,90.));
#601 = VECTOR('',#602,1.);
#602 = DIRECTION('',(0.,-1.,4.E-15));
#603 = ORIENTED_EDGE('',*,*,#95,.T.);
#604 = ORIENTED_EDGE('',*,*,#549,.T.);
#605 = ORIENTED_EDGE('',*,*,#606,.T.);
#606 = EDGE_CURVE('',#550,#607,#609,.T.);
#607 = VERTEX_POINT('',#608);
#608 = CARTESIAN_POINT('',(-6.8,-47.,90.));
#609 = LINE('',#610,#611);
#610 = CARTESIAN_POINT('',(-7.175,-47.,90.));
#611 = VECTOR('',#612,1.);
#612 = DIRECTION('',(-1.,-0.,-0.));
#613 = ORIENTED_EDGE('',*,*,#614,.T.);
#614 = EDGE_CURVE('',#607,#615,#617,.T.);
#615 = VERTEX_POINT('',#616);
#616 = CARTESIAN_POINT('',(-6.8,-67.9,90.));
#617 = LINE('',#618,#619);
#618 = CARTESIAN_POINT('',(-6.8,-46.1,90.));
#619 = VECTOR('',#620,1.);
#620 = DIRECTION('',(0.,-1.,2.E-15));
#621 = ORIENTED_EDGE('',*,*,#622,.F.);
#622 = EDGE_CURVE('',#561,#615,#623,.T.);
#623 = LINE('',#624,#625);
#624 = CARTESIAN_POINT('',(-7.175,-67.9,90.));
#625 = VECTOR('',#626,1.);
#626 = DIRECTION('',(-1.,-0.,-0.));
#627 = ORIENTED_EDGE('',*,*,#560,.T.);
#628 = ORIENTED_EDGE('',*,*,#198,.F.);
#629 = PLANE('',#630);
#630 = AXIS2_PLACEMENT_3D('',#631,#632,#633);
#631 = CARTESIAN_POINT('',(-7.55,-45.2,90.));
#632 = DIRECTION('',(0.,4.E-15,1.));
#633 = DIRECTION('',(-1.,-0.,-0.));
#634 = ADVANCED_FACE('',(#635),#646,.F.);
#635 = FACE_BOUND('',#636,.T.);
#636 = EDGE_LOOP('',(#637,#638,#644,#645));
#637 = ORIENTED_EDGE('',*,*,#103,.F.);
#638 = ORIENTED_EDGE('',*,*,#639,.T.);
#639 = EDGE_CURVE('',#104,#207,#640,.T.);
#640 = LINE('',#641,#642);
#641 = CARTESIAN_POINT('',(-7.55,-45.2,70.8));
#642 = VECTOR('',#643,1.);
#643 = DIRECTION('',(0.,-1.,4.E-15));
#644 = ORIENTED_EDGE('',*,*,#206,.T.);
#645 = ORIENTED_EDGE('',*,*,#598,.F.);
#646 = PLANE('',#647);
#647 = AXIS2_PLACEMENT_3D('',#648,#649,#650);
#648 = CARTESIAN_POINT('',(-7.55,-45.2,68.8));
#649 = DIRECTION('',(1.,0.,0.));
#650 = DIRECTION('',(-0.,-4.E-15,-1.));
#651 = ADVANCED_FACE('',(#652),#663,.T.);
#652 = FACE_BOUND('',#653,.F.);
#653 = EDGE_LOOP('',(#654,#660,#661,#662));
#654 = ORIENTED_EDGE('',*,*,#655,.T.);
#655 = EDGE_CURVE('',#215,#112,#656,.T.);
#656 = LINE('',#657,#658);
#657 = CARTESIAN_POINT('',(-27.95,-45.2,70.8));
#658 = VECTOR('',#659,1.);
#659 = DIRECTION('',(0.,1.,-4.E-15));
#660 = ORIENTED_EDGE('',*,*,#111,.T.);
#661 = ORIENTED_EDGE('',*,*,#639,.T.);
#662 = ORIENTED_EDGE('',*,*,#214,.F.);
#663 = PLANE('',#664);
#664 = AXIS2_PLACEMENT_3D('',#665,#666,#667);
#665 = CARTESIAN_POINT('',(-29.95,-45.2,70.8));
#666 = DIRECTION('',(0.,4.E-15,1.));
#667 = DIRECTION('',(-1.,-0.,-0.));
#668 = ADVANCED_FACE('',(#669),#680,.T.);
#669 = FACE_BOUND('',#670,.F.);
#670 = EDGE_LOOP('',(#671,#672,#673,#674));
#671 = ORIENTED_EDGE('',*,*,#119,.F.);
#672 = ORIENTED_EDGE('',*,*,#655,.F.);
#673 = ORIENTED_EDGE('',*,*,#222,.T.);
#674 = ORIENTED_EDGE('',*,*,#675,.T.);
#675 = EDGE_CURVE('',#223,#120,#676,.T.);
#676 = LINE('',#677,#678);
#677 = CARTESIAN_POINT('',(-27.95,-45.2,105.2));
#678 = VECTOR('',#679,1.);
#679 = DIRECTION('',(0.,1.,-4.E-15));
#680 = PLANE('',#681);
#681 = AXIS2_PLACEMENT_3D('',#682,#683,#684);
#682 = CARTESIAN_POINT('',(-27.95,-45.2,68.8));
#683 = DIRECTION('',(1.,0.,0.));
#684 = DIRECTION('',(-0.,-4.E-15,-1.));
#685 = ADVANCED_FACE('',(#686),#692,.F.);
#686 = FACE_BOUND('',#687,.T.);
#687 = EDGE_LOOP('',(#688,#689,#690,#691));
#688 = ORIENTED_EDGE('',*,*,#675,.T.);
#689 = ORIENTED_EDGE('',*,*,#127,.T.);
#690 = ORIENTED_EDGE('',*,*,#157,.T.);
#691 = ORIENTED_EDGE('',*,*,#230,.F.);
#692 = PLANE('',#693);
#693 = AXIS2_PLACEMENT_3D('',#694,#695,#696);
#694 = CARTESIAN_POINT('',(-29.95,-45.2,105.2));
#695 = DIRECTION('',(0.,4.E-15,1.));
#696 = DIRECTION('',(-1.,-0.,-0.));
#697 = ADVANCED_FACE('',(#698),#709,.T.);
#698 = FACE_BOUND('',#699,.F.);
#699 = EDGE_LOOP('',(#700,#706,#707,#708));
#700 = ORIENTED_EDGE('',*,*,#701,.F.);
#701 = EDGE_CURVE('',#296,#432,#702,.T.);
#702 = LINE('',#703,#704);
#703 = CARTESIAN_POINT('',(-0.5,-67.9,90.3));
#704 = VECTOR('',#705,1.);
#705 = DIRECTION('',(0.,-1.,4.E-15));
#706 = ORIENTED_EDGE('',*,*,#303,.T.);
#707 = ORIENTED_EDGE('',*,*,#527,.T.);
#708 = ORIENTED_EDGE('',*,*,#439,.F.);
#709 = PLANE('',#710);
#710 = AXIS2_PLACEMENT_3D('',#711,#712,#713);
#711 = CARTESIAN_POINT('',(-0.5,-67.9,68.7));
#712 = DIRECTION('',(1.,0.,0.));
#713 = DIRECTION('',(-0.,-4.E-15,-1.));
#714 = ADVANCED_FACE('',(#715),#790,.T.);
#715 = FACE_BOUND('',#716,.F.);
#716 = EDGE_LOOP('',(#717,#727,#735,#743,#751,#759,#765,#766,#767,#768,
    #776,#784));
#717 = ORIENTED_EDGE('',*,*,#718,.F.);
#718 = EDGE_CURVE('',#719,#721,#723,.T.);
#719 = VERTEX_POINT('',#720);
#720 = CARTESIAN_POINT('',(-6.7,-45.2,90.3));
#721 = VERTEX_POINT('',#722);
#722 = CARTESIAN_POINT('',(29.7,-45.2,90.3));
#723 = LINE('',#724,#725);
#724 = CARTESIAN_POINT('',(-6.7,-45.2,90.3));
#725 = VECTOR('',#726,1.);
#726 = DIRECTION('',(1.,0.,0.));
#727 = ORIENTED_EDGE('',*,*,#728,.T.);
#728 = EDGE_CURVE('',#719,#729,#731,.T.);
#729 = VERTEX_POINT('',#730);
#730 = CARTESIAN_POINT('',(-6.7,-47.,90.3));
#731 = LINE('',#732,#733);
#732 = CARTESIAN_POINT('',(-6.7,-45.2,90.3));
#733 = VECTOR('',#734,1.);
#734 = DIRECTION('',(0.,-1.,4.E-15));
#735 = ORIENTED_EDGE('',*,*,#736,.T.);
#736 = EDGE_CURVE('',#729,#737,#739,.T.);
#737 = VERTEX_POINT('',#738);
#738 = CARTESIAN_POINT('',(-3.8,-47.,90.3));
#739 = LINE('',#740,#741);
#740 = CARTESIAN_POINT('',(2.400653594771,-47.,90.3));
#741 = VECTOR('',#742,1.);
#742 = DIRECTION('',(1.,0.,0.));
#743 = ORIENTED_EDGE('',*,*,#744,.F.);
#744 = EDGE_CURVE('',#745,#737,#747,.T.);
#745 = VERTEX_POINT('',#746);
#746 = CARTESIAN_POINT('',(-3.8,-67.9,90.3));
#747 = LINE('',#748,#749);
#748 = CARTESIAN_POINT('',(-3.8,-52.24934640522,90.3));
#749 = VECTOR('',#750,1.);
#750 = DIRECTION('',(0.,1.,-2.E-15));
#751 = ORIENTED_EDGE('',*,*,#752,.F.);
#752 = EDGE_CURVE('',#753,#745,#755,.T.);
#753 = VERTEX_POINT('',#754);
#754 = CARTESIAN_POINT('',(-6.7,-67.9,90.3));
#755 = LINE('',#756,#757);
#756 = CARTESIAN_POINT('',(2.400653594771,-67.9,90.3));
#757 = VECTOR('',#758,1.);
#758 = DIRECTION('',(1.,0.,0.));
#759 = ORIENTED_EDGE('',*,*,#760,.T.);
#760 = EDGE_CURVE('',#753,#288,#761,.T.);
#761 = LINE('',#762,#763);
#762 = CARTESIAN_POINT('',(-6.7,-45.2,90.3));
#763 = VECTOR('',#764,1.);
#764 = DIRECTION('',(0.,-1.,4.E-15));
#765 = ORIENTED_EDGE('',*,*,#295,.T.);
#766 = ORIENTED_EDGE('',*,*,#701,.T.);
#767 = ORIENTED_EDGE('',*,*,#431,.T.);
#768 = ORIENTED_EDGE('',*,*,#769,.T.);
#769 = EDGE_CURVE('',#423,#770,#772,.T.);
#770 = VERTEX_POINT('',#771);
#771 = CARTESIAN_POINT('',(3.434286835173,-67.8,90.3));
#772 = LINE('',#773,#774);
#773 = CARTESIAN_POINT('',(3.434286835173,-67.8,90.3));
#774 = VECTOR('',#775,1.);
#775 = DIRECTION('',(0.,1.,-2.89E-15));
#776 = ORIENTED_EDGE('',*,*,#777,.T.);
#777 = EDGE_CURVE('',#770,#778,#780,.T.);
#778 = VERTEX_POINT('',#779);
#779 = CARTESIAN_POINT('',(29.7,-67.8,90.3));
#780 = LINE('',#781,#782);
#781 = CARTESIAN_POINT('',(14.800653594771,-67.8,90.3));
#782 = VECTOR('',#783,1.);
#783 = DIRECTION('',(1.,0.,0.));
#784 = ORIENTED_EDGE('',*,*,#785,.F.);
#785 = EDGE_CURVE('',#721,#778,#786,.T.);
#786 = LINE('',#787,#788);
#787 = CARTESIAN_POINT('',(29.7,-67.9,90.3));
#788 = VECTOR('',#789,1.);
#789 = DIRECTION('',(0.,-1.,4.E-15));
#790 = PLANE('',#791);
#791 = AXIS2_PLACEMENT_3D('',#792,#793,#794);
#792 = CARTESIAN_POINT('',(11.601307189542,-57.49869281045,90.3));
#793 = DIRECTION('',(-0.,-4.E-15,-1.));
#794 = DIRECTION('',(1.,0.,0.));
#795 = ADVANCED_FACE('',(#796),#837,.F.);
#796 = FACE_BOUND('',#797,.T.);
#797 = EDGE_LOOP('',(#798,#806,#812,#813,#821,#829,#835,#836));
#798 = ORIENTED_EDGE('',*,*,#799,.F.);
#799 = EDGE_CURVE('',#800,#280,#802,.T.);
#800 = VERTEX_POINT('',#801);
#801 = CARTESIAN_POINT('',(-6.7,-45.2,92.3));
#802 = LINE('',#803,#804);
#803 = CARTESIAN_POINT('',(-6.7,-45.2,92.3));
#804 = VECTOR('',#805,1.);
#805 = DIRECTION('',(0.,-1.,4.E-15));
#806 = ORIENTED_EDGE('',*,*,#807,.F.);
#807 = EDGE_CURVE('',#719,#800,#808,.T.);
#808 = LINE('',#809,#810);
#809 = CARTESIAN_POINT('',(-6.7,-45.2,90.3));
#810 = VECTOR('',#811,1.);
#811 = DIRECTION('',(0.,4.E-15,1.));
#812 = ORIENTED_EDGE('',*,*,#728,.T.);
#813 = ORIENTED_EDGE('',*,*,#814,.T.);
#814 = EDGE_CURVE('',#729,#815,#817,.T.);
#815 = VERTEX_POINT('',#816);
#816 = CARTESIAN_POINT('',(-6.7,-47.,91.5));
#817 = LINE('',#818,#819);
#818 = CARTESIAN_POINT('',(-6.7,-47.,79.9));
#819 = VECTOR('',#820,1.);
#820 = DIRECTION('',(0.,0.,1.));
#821 = ORIENTED_EDGE('',*,*,#822,.F.);
#822 = EDGE_CURVE('',#823,#815,#825,.T.);
#823 = VERTEX_POINT('',#824);
#824 = CARTESIAN_POINT('',(-6.7,-67.9,91.5));
#825 = LINE('',#826,#827);
#826 = CARTESIAN_POINT('',(-6.7,-46.1,91.5));
#827 = VECTOR('',#828,1.);
#828 = DIRECTION('',(0.,1.,0.));
#829 = ORIENTED_EDGE('',*,*,#830,.F.);
#830 = EDGE_CURVE('',#753,#823,#831,.T.);
#831 = LINE('',#832,#833);
#832 = CARTESIAN_POINT('',(-6.7,-67.9,79.9));
#833 = VECTOR('',#834,1.);
#834 = DIRECTION('',(0.,0.,1.));
#835 = ORIENTED_EDGE('',*,*,#760,.T.);
#836 = ORIENTED_EDGE('',*,*,#287,.T.);
#837 = PLANE('',#838);
#838 = AXIS2_PLACEMENT_3D('',#839,#840,#841);
#839 = CARTESIAN_POINT('',(-6.7,-45.2,90.3));
#840 = DIRECTION('',(1.,0.,0.));
#841 = DIRECTION('',(-0.,-4.E-15,-1.));
#842 = ADVANCED_FACE('',(#843),#877,.T.);
#843 = FACE_BOUND('',#844,.F.);
#844 = EDGE_LOOP('',(#845,#846,#854,#862,#870,#876));
#845 = ORIENTED_EDGE('',*,*,#799,.F.);
#846 = ORIENTED_EDGE('',*,*,#847,.T.);
#847 = EDGE_CURVE('',#800,#848,#850,.T.);
#848 = VERTEX_POINT('',#849);
#849 = CARTESIAN_POINT('',(27.7,-45.2,92.3));
#850 = LINE('',#851,#852);
#851 = CARTESIAN_POINT('',(-6.7,-45.2,92.3));
#852 = VECTOR('',#853,1.);
#853 = DIRECTION('',(1.,0.,0.));
#854 = ORIENTED_EDGE('',*,*,#855,.T.);
#855 = EDGE_CURVE('',#848,#856,#858,.T.);
#856 = VERTEX_POINT('',#857);
#857 = CARTESIAN_POINT('',(27.7,-67.8,92.3));
#858 = LINE('',#859,#860);
#859 = CARTESIAN_POINT('',(27.7,-45.2,92.3));
#860 = VECTOR('',#861,1.);
#861 = DIRECTION('',(0.,-1.,4.E-15));
#862 = ORIENTED_EDGE('',*,*,#863,.T.);
#863 = EDGE_CURVE('',#856,#864,#866,.T.);
#864 = VERTEX_POINT('',#865);
#865 = CARTESIAN_POINT('',(1.970028072389,-67.8,92.3));
#866 = LINE('',#867,#868);
#867 = CARTESIAN_POINT('',(5.65,-67.8,92.3));
#868 = VECTOR('',#869,1.);
#869 = DIRECTION('',(-1.,-0.,0.));
#870 = ORIENTED_EDGE('',*,*,#871,.F.);
#871 = EDGE_CURVE('',#271,#864,#872,.T.);
#872 = LINE('',#873,#874);
#873 = CARTESIAN_POINT('',(1.970028072389,-67.8,92.3));
#874 = VECTOR('',#875,1.);
#875 = DIRECTION('',(0.,1.,-2.89E-15));
#876 = ORIENTED_EDGE('',*,*,#279,.F.);
#877 = PLANE('',#878);
#878 = AXIS2_PLACEMENT_3D('',#879,#880,#881);
#879 = CARTESIAN_POINT('',(-6.7,-45.2,92.3));
#880 = DIRECTION('',(0.,4.E-15,1.));
#881 = DIRECTION('',(-1.,-0.,-0.));
#882 = ADVANCED_FACE('',(#883),#919,.F.);
#883 = FACE_BOUND('',#884,.F.);
#884 = EDGE_LOOP('',(#885,#892,#893,#894,#902,#911,#917,#918));
#885 = ORIENTED_EDGE('',*,*,#886,.F.);
#886 = EDGE_CURVE('',#770,#864,#887,.T.);
#887 = CIRCLE('',#888,19.);
#888 = AXIS2_PLACEMENT_3D('',#889,#890,#891);
#889 = CARTESIAN_POINT('',(18.,-67.8,102.5));
#890 = DIRECTION('',(0.,1.,-2.89E-15));
#891 = DIRECTION('',(1.,0.,0.));
#892 = ORIENTED_EDGE('',*,*,#769,.F.);
#893 = ORIENTED_EDGE('',*,*,#422,.F.);
#894 = ORIENTED_EDGE('',*,*,#895,.T.);
#895 = EDGE_CURVE('',#415,#896,#898,.T.);
#896 = VERTEX_POINT('',#897);
#897 = CARTESIAN_POINT('',(3.434286835174,-67.8,114.7));
#898 = LINE('',#899,#900);
#899 = CARTESIAN_POINT('',(3.434286835174,-67.8,114.7));
#900 = VECTOR('',#901,1.);
#901 = DIRECTION('',(0.,1.,-2.89E-15));
#902 = ORIENTED_EDGE('',*,*,#903,.F.);
#903 = EDGE_CURVE('',#904,#896,#906,.T.);
#904 = VERTEX_POINT('',#905);
#905 = CARTESIAN_POINT('',(1.970028072389,-67.8,112.7));
#906 = CIRCLE('',#907,19.);
#907 = AXIS2_PLACEMENT_3D('',#908,#909,#910);
#908 = CARTESIAN_POINT('',(18.,-67.8,102.5));
#909 = DIRECTION('',(0.,1.,-2.89E-15));
#910 = DIRECTION('',(1.,0.,0.));
#911 = ORIENTED_EDGE('',*,*,#912,.F.);
#912 = EDGE_CURVE('',#263,#904,#913,.T.);
#913 = LINE('',#914,#915);
#914 = CARTESIAN_POINT('',(1.970028072389,-67.8,112.7));
#915 = VECTOR('',#916,1.);
#916 = DIRECTION('',(0.,1.,-2.89E-15));
#917 = ORIENTED_EDGE('',*,*,#270,.T.);
#918 = ORIENTED_EDGE('',*,*,#871,.T.);
#919 = CYLINDRICAL_SURFACE('',#920,19.);
#920 = AXIS2_PLACEMENT_3D('',#921,#922,#923);
#921 = CARTESIAN_POINT('',(18.,-67.8,102.5));
#922 = DIRECTION('',(0.,1.,-2.89E-15));
#923 = DIRECTION('',(1.,0.,0.));
#924 = ADVANCED_FACE('',(#925),#959,.F.);
#925 = FACE_BOUND('',#926,.T.);
#926 = EDGE_LOOP('',(#927,#935,#943,#951,#957,#958));
#927 = ORIENTED_EDGE('',*,*,#928,.F.);
#928 = EDGE_CURVE('',#929,#255,#931,.T.);
#929 = VERTEX_POINT('',#930);
#930 = CARTESIAN_POINT('',(-6.7,-45.2,112.7));
#931 = LINE('',#932,#933);
#932 = CARTESIAN_POINT('',(-6.7,-45.2,112.7));
#933 = VECTOR('',#934,1.);
#934 = DIRECTION('',(0.,-1.,4.E-15));
#935 = ORIENTED_EDGE('',*,*,#936,.T.);
#936 = EDGE_CURVE('',#929,#937,#939,.T.);
#937 = VERTEX_POINT('',#938);
#938 = CARTESIAN_POINT('',(27.7,-45.2,112.7));
#939 = LINE('',#940,#941);
#940 = CARTESIAN_POINT('',(-6.7,-45.2,112.7));
#941 = VECTOR('',#942,1.);
#942 = DIRECTION('',(1.,0.,0.));
#943 = ORIENTED_EDGE('',*,*,#944,.T.);
#944 = EDGE_CURVE('',#937,#945,#947,.T.);
#945 = VERTEX_POINT('',#946);
#946 = CARTESIAN_POINT('',(27.7,-67.8,112.7));
#947 = LINE('',#948,#949);
#948 = CARTESIAN_POINT('',(27.7,-45.2,112.7));
#949 = VECTOR('',#950,1.);
#950 = DIRECTION('',(0.,-1.,4.E-15));
#951 = ORIENTED_EDGE('',*,*,#952,.T.);
#952 = EDGE_CURVE('',#945,#904,#953,.T.);
#953 = LINE('',#954,#955);
#954 = CARTESIAN_POINT('',(5.65,-67.8,112.7));
#955 = VECTOR('',#956,1.);
#956 = DIRECTION('',(-1.,-0.,0.));
#957 = ORIENTED_EDGE('',*,*,#912,.F.);
#958 = ORIENTED_EDGE('',*,*,#262,.F.);
#959 = PLANE('',#960);
#960 = AXIS2_PLACEMENT_3D('',#961,#962,#963);
#961 = CARTESIAN_POINT('',(-6.7,-45.2,112.7));
#962 = DIRECTION('',(0.,4.E-15,1.));
#963 = DIRECTION('',(-1.,-0.,-0.));
#964 = ADVANCED_FACE('',(#965),#983,.F.);
#965 = FACE_BOUND('',#966,.T.);
#966 = EDGE_LOOP('',(#967,#975,#976,#977));
#967 = ORIENTED_EDGE('',*,*,#968,.F.);
#968 = EDGE_CURVE('',#929,#969,#971,.T.);
#969 = VERTEX_POINT('',#970);
#970 = CARTESIAN_POINT('',(-6.7,-45.2,114.7));
#971 = LINE('',#972,#973);
#972 = CARTESIAN_POINT('',(-6.7,-45.2,112.7));
#973 = VECTOR('',#974,1.);
#974 = DIRECTION('',(0.,4.E-15,1.));
#975 = ORIENTED_EDGE('',*,*,#928,.T.);
#976 = ORIENTED_EDGE('',*,*,#254,.T.);
#977 = ORIENTED_EDGE('',*,*,#978,.F.);
#978 = EDGE_CURVE('',#969,#247,#979,.T.);
#979 = LINE('',#980,#981);
#980 = CARTESIAN_POINT('',(-6.7,-45.2,114.7));
#981 = VECTOR('',#982,1.);
#982 = DIRECTION('',(0.,-1.,4.E-15));
#983 = PLANE('',#984);
#984 = AXIS2_PLACEMENT_3D('',#985,#986,#987);
#985 = CARTESIAN_POINT('',(-6.7,-45.2,112.7));
#986 = DIRECTION('',(1.,0.,0.));
#987 = DIRECTION('',(-0.,-4.E-15,-1.));
#988 = ADVANCED_FACE('',(#989),#1018,.T.);
#989 = FACE_BOUND('',#990,.F.);
#990 = EDGE_LOOP('',(#991,#992,#993,#994,#995,#1003,#1011,#1017));
#991 = ORIENTED_EDGE('',*,*,#414,.F.);
#992 = ORIENTED_EDGE('',*,*,#382,.F.);
#993 = ORIENTED_EDGE('',*,*,#246,.T.);
#994 = ORIENTED_EDGE('',*,*,#978,.F.);
#995 = ORIENTED_EDGE('',*,*,#996,.T.);
#996 = EDGE_CURVE('',#969,#997,#999,.T.);
#997 = VERTEX_POINT('',#998);
#998 = CARTESIAN_POINT('',(29.7,-45.2,114.7));
#999 = LINE('',#1000,#1001);
#1000 = CARTESIAN_POINT('',(-6.7,-45.2,114.7));
#1001 = VECTOR('',#1002,1.);
#1002 = DIRECTION('',(1.,0.,0.));
#1003 = ORIENTED_EDGE('',*,*,#1004,.T.);
#1004 = EDGE_CURVE('',#997,#1005,#1007,.T.);
#1005 = VERTEX_POINT('',#1006);
#1006 = CARTESIAN_POINT('',(29.7,-67.8,114.7));
#1007 = LINE('',#1008,#1009);
#1008 = CARTESIAN_POINT('',(29.7,-68.,114.7));
#1009 = VECTOR('',#1010,1.);
#1010 = DIRECTION('',(0.,-1.,4.E-15));
#1011 = ORIENTED_EDGE('',*,*,#1012,.T.);
#1012 = EDGE_CURVE('',#1005,#896,#1013,.T.);
#1013 = LINE('',#1014,#1015);
#1014 = CARTESIAN_POINT('',(13.576291208791,-67.8,114.7));
#1015 = VECTOR('',#1016,1.);
#1016 = DIRECTION('',(-1.,-0.,0.));
#1017 = ORIENTED_EDGE('',*,*,#895,.F.);
#1018 = PLANE('',#1019);
#1019 = AXIS2_PLACEMENT_3D('',#1020,#1021,#1022);
#1020 = CARTESIAN_POINT('',(9.152582417582,-58.77758241758,114.7));
#1021 = DIRECTION('',(0.,4.E-15,1.));
#1022 = DIRECTION('',(-1.,-0.,-0.));
#1023 = ADVANCED_FACE('',(#1024),#1042,.F.);
#1024 = FACE_BOUND('',#1025,.F.);
#1025 = EDGE_LOOP('',(#1026,#1027,#1034,#1041));
#1026 = ORIENTED_EDGE('',*,*,#311,.F.);
#1027 = ORIENTED_EDGE('',*,*,#1028,.F.);
#1028 = EDGE_CURVE('',#1029,#312,#1031,.T.);
#1029 = VERTEX_POINT('',#1030);
#1030 = CARTESIAN_POINT('',(-24.6,-75.,73.));
#1031 = B_SPLINE_CURVE_WITH_KNOTS('',1,(#1032,#1033),.UNSPECIFIED.,.F.,
  .F.,(2,2),(-7.,0.),.PIECEWISE_BEZIER_KNOTS.);
#1032 = CARTESIAN_POINT('',(-24.6,-75.,73.));
#1033 = CARTESIAN_POINT('',(-24.6,-68.,73.));
#1034 = ORIENTED_EDGE('',*,*,#1035,.F.);
#1035 = EDGE_CURVE('',#1029,#1029,#1036,.T.);
#1036 = CIRCLE('',#1037,1.15);
#1037 = AXIS2_PLACEMENT_3D('',#1038,#1039,#1040);
#1038 = CARTESIAN_POINT('',(-25.75,-75.,73.));
#1039 = DIRECTION('',(0.,-1.,8.9E-16));
#1040 = DIRECTION('',(1.,0.,0.));
#1041 = ORIENTED_EDGE('',*,*,#1028,.T.);
#1042 = CYLINDRICAL_SURFACE('',#1043,1.15);
#1043 = AXIS2_PLACEMENT_3D('',#1044,#1045,#1046);
#1044 = CARTESIAN_POINT('',(-25.75,-68.,73.));
#1045 = DIRECTION('',(0.,1.,-2.11E-15));
#1046 = DIRECTION('',(1.,0.,0.));
#1047 = ADVANCED_FACE('',(#1048),#1066,.F.);
#1048 = FACE_BOUND('',#1049,.F.);
#1049 = EDGE_LOOP('',(#1050,#1051,#1058,#1065));
#1050 = ORIENTED_EDGE('',*,*,#322,.F.);
#1051 = ORIENTED_EDGE('',*,*,#1052,.F.);
#1052 = EDGE_CURVE('',#1053,#323,#1055,.T.);
#1053 = VERTEX_POINT('',#1054);
#1054 = CARTESIAN_POINT('',(-24.6,-75.,103.));
#1055 = B_SPLINE_CURVE_WITH_KNOTS('',1,(#1056,#1057),.UNSPECIFIED.,.F.,
  .F.,(2,2),(-7.,0.),.PIECEWISE_BEZIER_KNOTS.);
#1056 = CARTESIAN_POINT('',(-24.6,-75.,103.));
#1057 = CARTESIAN_POINT('',(-24.6,-68.,103.));
#1058 = ORIENTED_EDGE('',*,*,#1059,.F.);
#1059 = EDGE_CURVE('',#1053,#1053,#1060,.T.);
#1060 = CIRCLE('',#1061,1.15);
#1061 = AXIS2_PLACEMENT_3D('',#1062,#1063,#1064);
#1062 = CARTESIAN_POINT('',(-25.75,-75.,103.));
#1063 = DIRECTION('',(0.,-1.,1.33E-15));
#1064 = DIRECTION('',(1.,0.,0.));
#1065 = ORIENTED_EDGE('',*,*,#1052,.T.);
#1066 = CYLINDRICAL_SURFACE('',#1067,1.15);
#1067 = AXIS2_PLACEMENT_3D('',#1068,#1069,#1070);
#1068 = CARTESIAN_POINT('',(-25.75,-68.,103.));
#1069 = DIRECTION('',(0.,1.,-2.44E-15));
#1070 = DIRECTION('',(1.,0.,0.));
#1071 = ADVANCED_FACE('',(#1072),#1090,.F.);
#1072 = FACE_BOUND('',#1073,.F.);
#1073 = EDGE_LOOP('',(#1074,#1075,#1082,#1089));
#1074 = ORIENTED_EDGE('',*,*,#333,.F.);
#1075 = ORIENTED_EDGE('',*,*,#1076,.F.);
#1076 = EDGE_CURVE('',#1077,#334,#1079,.T.);
#1077 = VERTEX_POINT('',#1078);
#1078 = CARTESIAN_POINT('',(-8.6,-75.,73.));
#1079 = B_SPLINE_CURVE_WITH_KNOTS('',1,(#1080,#1081),.UNSPECIFIED.,.F.,
  .F.,(2,2),(-7.,0.),.PIECEWISE_BEZIER_KNOTS.);
#1080 = CARTESIAN_POINT('',(-8.6,-75.,73.));
#1081 = CARTESIAN_POINT('',(-8.6,-68.,73.));
#1082 = ORIENTED_EDGE('',*,*,#1083,.F.);
#1083 = EDGE_CURVE('',#1077,#1077,#1084,.T.);
#1084 = CIRCLE('',#1085,1.15);
#1085 = AXIS2_PLACEMENT_3D('',#1086,#1087,#1088);
#1086 = CARTESIAN_POINT('',(-9.75,-75.,73.));
#1087 = DIRECTION('',(0.,-1.,4.4E-16));
#1088 = DIRECTION('',(1.,0.,0.));
#1089 = ORIENTED_EDGE('',*,*,#1076,.T.);
#1090 = CYLINDRICAL_SURFACE('',#1091,1.15);
#1091 = AXIS2_PLACEMENT_3D('',#1092,#1093,#1094);
#1092 = CARTESIAN_POINT('',(-9.75,-68.,73.));
#1093 = DIRECTION('',(0.,1.,-1.78E-15));
#1094 = DIRECTION('',(1.,0.,0.));
#1095 = ADVANCED_FACE('',(#1096),#1114,.F.);
#1096 = FACE_BOUND('',#1097,.F.);
#1097 = EDGE_LOOP('',(#1098,#1099,#1106,#1113));
#1098 = ORIENTED_EDGE('',*,*,#344,.T.);
#1099 = ORIENTED_EDGE('',*,*,#1100,.F.);
#1100 = EDGE_CURVE('',#1101,#345,#1103,.T.);
#1101 = VERTEX_POINT('',#1102);
#1102 = CARTESIAN_POINT('',(-3.35,-75.,94.5));
#1103 = B_SPLINE_CURVE_WITH_KNOTS('',1,(#1104,#1105),.UNSPECIFIED.,.F.,
  .F.,(2,2),(-7.2,-0.2),.PIECEWISE_BEZIER_KNOTS.);
#1104 = CARTESIAN_POINT('',(-3.35,-75.,94.5));
#1105 = CARTESIAN_POINT('',(-3.35,-68.,94.5));
#1106 = ORIENTED_EDGE('',*,*,#1107,.F.);
#1107 = EDGE_CURVE('',#1101,#1101,#1108,.T.);
#1108 = CIRCLE('',#1109,1.15);
#1109 = AXIS2_PLACEMENT_3D('',#1110,#1111,#1112);
#1110 = CARTESIAN_POINT('',(-4.5,-75.,94.5));
#1111 = DIRECTION('',(0.,-1.,1.78E-15));
#1112 = DIRECTION('',(1.,0.,0.));
#1113 = ORIENTED_EDGE('',*,*,#1100,.T.);
#1114 = CYLINDRICAL_SURFACE('',#1115,1.15);
#1115 = AXIS2_PLACEMENT_3D('',#1116,#1117,#1118);
#1116 = CARTESIAN_POINT('',(-4.5,-67.8,94.5));
#1117 = DIRECTION('',(0.,1.,-2.22E-15));
#1118 = DIRECTION('',(1.,0.,0.));
#1119 = ADVANCED_FACE('',(#1120),#1138,.F.);
#1120 = FACE_BOUND('',#1121,.F.);
#1121 = EDGE_LOOP('',(#1122,#1123,#1130,#1137));
#1122 = ORIENTED_EDGE('',*,*,#355,.F.);
#1123 = ORIENTED_EDGE('',*,*,#1124,.F.);
#1124 = EDGE_CURVE('',#1125,#356,#1127,.T.);
#1125 = VERTEX_POINT('',#1126);
#1126 = CARTESIAN_POINT('',(-3.35,-75.,110.5));
#1127 = B_SPLINE_CURVE_WITH_KNOTS('',1,(#1128,#1129),.UNSPECIFIED.,.F.,
  .F.,(2,2),(-7.,0.),.PIECEWISE_BEZIER_KNOTS.);
#1128 = CARTESIAN_POINT('',(-3.35,-75.,110.5));
#1129 = CARTESIAN_POINT('',(-3.35,-68.,110.5));
#1130 = ORIENTED_EDGE('',*,*,#1131,.F.);
#1131 = EDGE_CURVE('',#1125,#1125,#1132,.T.);
#1132 = CIRCLE('',#1133,1.15);
#1133 = AXIS2_PLACEMENT_3D('',#1134,#1135,#1136);
#1134 = CARTESIAN_POINT('',(-4.5,-75.,110.5));
#1135 = DIRECTION('',(0.,-1.,2.22E-15));
#1136 = DIRECTION('',(1.,0.,0.));
#1137 = ORIENTED_EDGE('',*,*,#1124,.T.);
#1138 = CYLINDRICAL_SURFACE('',#1139,1.15);
#1139 = AXIS2_PLACEMENT_3D('',#1140,#1141,#1142);
#1140 = CARTESIAN_POINT('',(-4.5,-68.,110.5));
#1141 = DIRECTION('',(0.,1.,-3.E-15));
#1142 = DIRECTION('',(1.,0.,0.));
#1143 = ADVANCED_FACE('',(#1144),#1163,.T.);
#1144 = FACE_BOUND('',#1145,.T.);
#1145 = EDGE_LOOP('',(#1146,#1147,#1155,#1162));
#1146 = ORIENTED_EDGE('',*,*,#447,.T.);
#1147 = ORIENTED_EDGE('',*,*,#1148,.T.);
#1148 = EDGE_CURVE('',#448,#1149,#1151,.T.);
#1149 = VERTEX_POINT('',#1150);
#1150 = CARTESIAN_POINT('',(-23.25,-75.,73.));
#1151 = LINE('',#1152,#1153);
#1152 = CARTESIAN_POINT('',(-23.25,-69.9,73.));
#1153 = VECTOR('',#1154,1.);
#1154 = DIRECTION('',(-0.,-1.,1.11E-15));
#1155 = ORIENTED_EDGE('',*,*,#1156,.T.);
#1156 = EDGE_CURVE('',#1149,#1149,#1157,.T.);
#1157 = CIRCLE('',#1158,2.5);
#1158 = AXIS2_PLACEMENT_3D('',#1159,#1160,#1161);
#1159 = CARTESIAN_POINT('',(-25.75,-75.,73.));
#1160 = DIRECTION('',(0.,1.,-1.11E-15));
#1161 = DIRECTION('',(1.,0.,0.));
#1162 = ORIENTED_EDGE('',*,*,#1148,.F.);
#1163 = CYLINDRICAL_SURFACE('',#1164,2.5);
#1164 = AXIS2_PLACEMENT_3D('',#1165,#1166,#1167);
#1165 = CARTESIAN_POINT('',(-25.75,-69.9,73.));
#1166 = DIRECTION('',(0.,1.,-1.11E-15));
#1167 = DIRECTION('',(1.,0.,0.));
#1168 = ADVANCED_FACE('',(#1169),#1188,.T.);
#1169 = FACE_BOUND('',#1170,.T.);
#1170 = EDGE_LOOP('',(#1171,#1172,#1180,#1187));
#1171 = ORIENTED_EDGE('',*,*,#458,.T.);
#1172 = ORIENTED_EDGE('',*,*,#1173,.T.);
#1173 = EDGE_CURVE('',#459,#1174,#1176,.T.);
#1174 = VERTEX_POINT('',#1175);
#1175 = CARTESIAN_POINT('',(-23.25,-75.,103.));
#1176 = LINE('',#1177,#1178);
#1177 = CARTESIAN_POINT('',(-23.25,-69.9,103.));
#1178 = VECTOR('',#1179,1.);
#1179 = DIRECTION('',(-0.,-1.,1.55E-15));
#1180 = ORIENTED_EDGE('',*,*,#1181,.T.);
#1181 = EDGE_CURVE('',#1174,#1174,#1182,.T.);
#1182 = CIRCLE('',#1183,2.5);
#1183 = AXIS2_PLACEMENT_3D('',#1184,#1185,#1186);
#1184 = CARTESIAN_POINT('',(-25.75,-75.,103.));
#1185 = DIRECTION('',(0.,1.,-1.55E-15));
#1186 = DIRECTION('',(1.,0.,0.));
#1187 = ORIENTED_EDGE('',*,*,#1173,.F.);
#1188 = CYLINDRICAL_SURFACE('',#1189,2.5);
#1189 = AXIS2_PLACEMENT_3D('',#1190,#1191,#1192);
#1190 = CARTESIAN_POINT('',(-25.75,-69.9,103.));
#1191 = DIRECTION('',(0.,1.,-1.55E-15));
#1192 = DIRECTION('',(1.,0.,0.));
#1193 = ADVANCED_FACE('',(#1194),#1213,.T.);
#1194 = FACE_BOUND('',#1195,.T.);
#1195 = EDGE_LOOP('',(#1196,#1197,#1205,#1212));
#1196 = ORIENTED_EDGE('',*,*,#469,.T.);
#1197 = ORIENTED_EDGE('',*,*,#1198,.T.);
#1198 = EDGE_CURVE('',#470,#1199,#1201,.T.);
#1199 = VERTEX_POINT('',#1200);
#1200 = CARTESIAN_POINT('',(-7.25,-75.,73.));
#1201 = LINE('',#1202,#1203);
#1202 = CARTESIAN_POINT('',(-7.25,-69.9,73.));
#1203 = VECTOR('',#1204,1.);
#1204 = DIRECTION('',(-0.,-1.,6.7E-16));
#1205 = ORIENTED_EDGE('',*,*,#1206,.T.);
#1206 = EDGE_CURVE('',#1199,#1199,#1207,.T.);
#1207 = CIRCLE('',#1208,2.5);
#1208 = AXIS2_PLACEMENT_3D('',#1209,#1210,#1211);
#1209 = CARTESIAN_POINT('',(-9.75,-75.,73.));
#1210 = DIRECTION('',(0.,1.,-6.7E-16));
#1211 = DIRECTION('',(1.,0.,0.));
#1212 = ORIENTED_EDGE('',*,*,#1198,.F.);
#1213 = CYLINDRICAL_SURFACE('',#1214,2.5);
#1214 = AXIS2_PLACEMENT_3D('',#1215,#1216,#1217);
#1215 = CARTESIAN_POINT('',(-9.75,-69.9,73.));
#1216 = DIRECTION('',(0.,1.,-6.7E-16));
#1217 = DIRECTION('',(1.,0.,0.));
#1218 = ADVANCED_FACE('',(#1219),#1238,.T.);
#1219 = FACE_BOUND('',#1220,.T.);
#1220 = EDGE_LOOP('',(#1221,#1222,#1230,#1237));
#1221 = ORIENTED_EDGE('',*,*,#480,.T.);
#1222 = ORIENTED_EDGE('',*,*,#1223,.T.);
#1223 = EDGE_CURVE('',#481,#1224,#1226,.T.);
#1224 = VERTEX_POINT('',#1225);
#1225 = CARTESIAN_POINT('',(-2.,-75.,94.5));
#1226 = LINE('',#1227,#1228);
#1227 = CARTESIAN_POINT('',(-2.,-69.9,94.5));
#1228 = VECTOR('',#1229,1.);
#1229 = DIRECTION('',(-0.,-1.,2.E-15));
#1230 = ORIENTED_EDGE('',*,*,#1231,.T.);
#1231 = EDGE_CURVE('',#1224,#1224,#1232,.T.);
#1232 = CIRCLE('',#1233,2.5);
#1233 = AXIS2_PLACEMENT_3D('',#1234,#1235,#1236);
#1234 = CARTESIAN_POINT('',(-4.5,-75.,94.5));
#1235 = DIRECTION('',(0.,1.,-2.E-15));
#1236 = DIRECTION('',(1.,0.,0.));
#1237 = ORIENTED_EDGE('',*,*,#1223,.F.);
#1238 = CYLINDRICAL_SURFACE('',#1239,2.5);
#1239 = AXIS2_PLACEMENT_3D('',#1240,#1241,#1242);
#1240 = CARTESIAN_POINT('',(-4.5,-69.9,94.5));
#1241 = DIRECTION('',(0.,1.,-2.E-15));
#1242 = DIRECTION('',(1.,0.,0.));
#1243 = ADVANCED_FACE('',(#1244),#1263,.T.);
#1244 = FACE_BOUND('',#1245,.T.);
#1245 = EDGE_LOOP('',(#1246,#1247,#1255,#1262));
#1246 = ORIENTED_EDGE('',*,*,#491,.T.);
#1247 = ORIENTED_EDGE('',*,*,#1248,.T.);
#1248 = EDGE_CURVE('',#492,#1249,#1251,.T.);
#1249 = VERTEX_POINT('',#1250);
#1250 = CARTESIAN_POINT('',(-2.,-75.,110.5));
#1251 = LINE('',#1252,#1253);
#1252 = CARTESIAN_POINT('',(-2.,-69.9,110.5));
#1253 = VECTOR('',#1254,1.);
#1254 = DIRECTION('',(-0.,-1.,2.44E-15));
#1255 = ORIENTED_EDGE('',*,*,#1256,.T.);
#1256 = EDGE_CURVE('',#1249,#1249,#1257,.T.);
#1257 = CIRCLE('',#1258,2.5);
#1258 = AXIS2_PLACEMENT_3D('',#1259,#1260,#1261);
#1259 = CARTESIAN_POINT('',(-4.5,-75.,110.5));
#1260 = DIRECTION('',(0.,1.,-2.44E-15));
#1261 = DIRECTION('',(1.,0.,0.));
#1262 = ORIENTED_EDGE('',*,*,#1248,.F.);
#1263 = CYLINDRICAL_SURFACE('',#1264,2.5);
#1264 = AXIS2_PLACEMENT_3D('',#1265,#1266,#1267);
#1265 = CARTESIAN_POINT('',(-4.5,-69.9,110.5));
#1266 = DIRECTION('',(0.,1.,-2.44E-15));
#1267 = DIRECTION('',(1.,0.,0.));
#1268 = ADVANCED_FACE('',(#1269),#1303,.F.);
#1269 = FACE_BOUND('',#1270,.T.);
#1270 = EDGE_LOOP('',(#1271,#1279,#1280,#1281,#1289,#1295,#1296,#1297));
#1271 = ORIENTED_EDGE('',*,*,#1272,.F.);
#1272 = EDGE_CURVE('',#577,#1273,#1275,.T.);
#1273 = VERTEX_POINT('',#1274);
#1274 = CARTESIAN_POINT('',(-3.8,-47.,69.5));
#1275 = LINE('',#1276,#1277);
#1276 = CARTESIAN_POINT('',(-6.8,-47.,69.5));
#1277 = VECTOR('',#1278,1.);
#1278 = DIRECTION('',(1.,0.,0.));
#1279 = ORIENTED_EDGE('',*,*,#584,.T.);
#1280 = ORIENTED_EDGE('',*,*,#606,.T.);
#1281 = ORIENTED_EDGE('',*,*,#1282,.T.);
#1282 = EDGE_CURVE('',#607,#1283,#1285,.T.);
#1283 = VERTEX_POINT('',#1284);
#1284 = CARTESIAN_POINT('',(-6.8,-47.,91.5));
#1285 = LINE('',#1286,#1287);
#1286 = CARTESIAN_POINT('',(-6.8,-47.,69.5));
#1287 = VECTOR('',#1288,1.);
#1288 = DIRECTION('',(0.,0.,1.));
#1289 = ORIENTED_EDGE('',*,*,#1290,.T.);
#1290 = EDGE_CURVE('',#1283,#815,#1291,.T.);
#1291 = LINE('',#1292,#1293);
#1292 = CARTESIAN_POINT('',(-6.8,-47.,91.5));
#1293 = VECTOR('',#1294,1.);
#1294 = DIRECTION('',(1.,0.,0.));
#1295 = ORIENTED_EDGE('',*,*,#814,.F.);
#1296 = ORIENTED_EDGE('',*,*,#736,.T.);
#1297 = ORIENTED_EDGE('',*,*,#1298,.F.);
#1298 = EDGE_CURVE('',#1273,#737,#1299,.T.);
#1299 = LINE('',#1300,#1301);
#1300 = CARTESIAN_POINT('',(-3.8,-47.,69.5));
#1301 = VECTOR('',#1302,1.);
#1302 = DIRECTION('',(0.,0.,1.));
#1303 = PLANE('',#1304);
#1304 = AXIS2_PLACEMENT_3D('',#1305,#1306,#1307);
#1305 = CARTESIAN_POINT('',(-6.8,-47.,69.5));
#1306 = DIRECTION('',(-0.,-1.,-0.));
#1307 = DIRECTION('',(0.,0.,-1.));
#1308 = ADVANCED_FACE('',(#1309),#1327,.F.);
#1309 = FACE_BOUND('',#1310,.T.);
#1310 = EDGE_LOOP('',(#1311,#1319,#1320,#1321));
#1311 = ORIENTED_EDGE('',*,*,#1312,.F.);
#1312 = EDGE_CURVE('',#569,#1313,#1315,.T.);
#1313 = VERTEX_POINT('',#1314);
#1314 = CARTESIAN_POINT('',(-3.8,-67.9,69.5));
#1315 = LINE('',#1316,#1317);
#1316 = CARTESIAN_POINT('',(-6.8,-67.9,69.5));
#1317 = VECTOR('',#1318,1.);
#1318 = DIRECTION('',(1.,0.,0.));
#1319 = ORIENTED_EDGE('',*,*,#576,.T.);
#1320 = ORIENTED_EDGE('',*,*,#1272,.T.);
#1321 = ORIENTED_EDGE('',*,*,#1322,.T.);
#1322 = EDGE_CURVE('',#1273,#1313,#1323,.T.);
#1323 = LINE('',#1324,#1325);
#1324 = CARTESIAN_POINT('',(-3.8,-47.,69.5));
#1325 = VECTOR('',#1326,1.);
#1326 = DIRECTION('',(-0.,-1.,-0.));
#1327 = PLANE('',#1328);
#1328 = AXIS2_PLACEMENT_3D('',#1329,#1330,#1331);
#1329 = CARTESIAN_POINT('',(-6.8,-47.,69.5));
#1330 = DIRECTION('',(0.,0.,1.));
#1331 = DIRECTION('',(-1.,-0.,-0.));
#1332 = ADVANCED_FACE('',(#1333),#1360,.T.);
#1333 = FACE_BOUND('',#1334,.F.);
#1334 = EDGE_LOOP('',(#1335,#1336,#1337,#1338,#1346,#1352,#1353,#1354));
#1335 = ORIENTED_EDGE('',*,*,#1312,.F.);
#1336 = ORIENTED_EDGE('',*,*,#568,.T.);
#1337 = ORIENTED_EDGE('',*,*,#622,.T.);
#1338 = ORIENTED_EDGE('',*,*,#1339,.T.);
#1339 = EDGE_CURVE('',#615,#1340,#1342,.T.);
#1340 = VERTEX_POINT('',#1341);
#1341 = CARTESIAN_POINT('',(-6.8,-67.9,91.5));
#1342 = LINE('',#1343,#1344);
#1343 = CARTESIAN_POINT('',(-6.8,-67.9,69.5));
#1344 = VECTOR('',#1345,1.);
#1345 = DIRECTION('',(0.,0.,1.));
#1346 = ORIENTED_EDGE('',*,*,#1347,.T.);
#1347 = EDGE_CURVE('',#1340,#823,#1348,.T.);
#1348 = LINE('',#1349,#1350);
#1349 = CARTESIAN_POINT('',(-6.8,-67.9,91.5));
#1350 = VECTOR('',#1351,1.);
#1351 = DIRECTION('',(1.,0.,0.));
#1352 = ORIENTED_EDGE('',*,*,#830,.F.);
#1353 = ORIENTED_EDGE('',*,*,#752,.T.);
#1354 = ORIENTED_EDGE('',*,*,#1355,.F.);
#1355 = EDGE_CURVE('',#1313,#745,#1356,.T.);
#1356 = LINE('',#1357,#1358);
#1357 = CARTESIAN_POINT('',(-3.8,-67.9,69.5));
#1358 = VECTOR('',#1359,1.);
#1359 = DIRECTION('',(0.,0.,1.));
#1360 = PLANE('',#1361);
#1361 = AXIS2_PLACEMENT_3D('',#1362,#1363,#1364);
#1362 = CARTESIAN_POINT('',(-6.8,-67.9,69.5));
#1363 = DIRECTION('',(-0.,-1.,-0.));
#1364 = DIRECTION('',(0.,0.,-1.));
#1365 = ADVANCED_FACE('',(#1366),#1377,.F.);
#1366 = FACE_BOUND('',#1367,.T.);
#1367 = EDGE_LOOP('',(#1368,#1369,#1370,#1371));
#1368 = ORIENTED_EDGE('',*,*,#1282,.F.);
#1369 = ORIENTED_EDGE('',*,*,#614,.T.);
#1370 = ORIENTED_EDGE('',*,*,#1339,.T.);
#1371 = ORIENTED_EDGE('',*,*,#1372,.F.);
#1372 = EDGE_CURVE('',#1283,#1340,#1373,.T.);
#1373 = LINE('',#1374,#1375);
#1374 = CARTESIAN_POINT('',(-6.8,-47.,91.5));
#1375 = VECTOR('',#1376,1.);
#1376 = DIRECTION('',(-0.,-1.,-0.));
#1377 = PLANE('',#1378);
#1378 = AXIS2_PLACEMENT_3D('',#1379,#1380,#1381);
#1379 = CARTESIAN_POINT('',(-6.8,-47.,69.5));
#1380 = DIRECTION('',(1.,0.,0.));
#1381 = DIRECTION('',(0.,0.,-1.));
#1382 = ADVANCED_FACE('',(#1383),#1403,.T.);
#1383 = FACE_BOUND('',#1384,.F.);
#1384 = EDGE_LOOP('',(#1385,#1386,#1392,#1393,#1394,#1395,#1401,#1402));
#1385 = ORIENTED_EDGE('',*,*,#718,.T.);
#1386 = ORIENTED_EDGE('',*,*,#1387,.T.);
#1387 = EDGE_CURVE('',#721,#997,#1388,.T.);
#1388 = LINE('',#1389,#1390);
#1389 = CARTESIAN_POINT('',(29.7,-45.2,112.7));
#1390 = VECTOR('',#1391,1.);
#1391 = DIRECTION('',(0.,4.E-15,1.));
#1392 = ORIENTED_EDGE('',*,*,#996,.F.);
#1393 = ORIENTED_EDGE('',*,*,#968,.F.);
#1394 = ORIENTED_EDGE('',*,*,#936,.T.);
#1395 = ORIENTED_EDGE('',*,*,#1396,.F.);
#1396 = EDGE_CURVE('',#848,#937,#1397,.T.);
#1397 = LINE('',#1398,#1399);
#1398 = CARTESIAN_POINT('',(27.7,-45.2,90.3));
#1399 = VECTOR('',#1400,1.);
#1400 = DIRECTION('',(0.,4.E-15,1.));
#1401 = ORIENTED_EDGE('',*,*,#847,.F.);
#1402 = ORIENTED_EDGE('',*,*,#807,.F.);
#1403 = PLANE('',#1404);
#1404 = AXIS2_PLACEMENT_3D('',#1405,#1406,#1407);
#1405 = CARTESIAN_POINT('',(14.824369747899,-45.2,102.5));
#1406 = DIRECTION('',(0.,1.,-4.E-15));
#1407 = DIRECTION('',(0.,4.E-15,1.));
#1408 = ADVANCED_FACE('',(#1409),#1420,.T.);
#1409 = FACE_BOUND('',#1410,.F.);
#1410 = EDGE_LOOP('',(#1411,#1412,#1413,#1414));
#1411 = ORIENTED_EDGE('',*,*,#1004,.F.);
#1412 = ORIENTED_EDGE('',*,*,#1387,.F.);
#1413 = ORIENTED_EDGE('',*,*,#785,.T.);
#1414 = ORIENTED_EDGE('',*,*,#1415,.T.);
#1415 = EDGE_CURVE('',#778,#1005,#1416,.T.);
#1416 = LINE('',#1417,#1418);
#1417 = CARTESIAN_POINT('',(29.7,-67.8,102.5));
#1418 = VECTOR('',#1419,1.);
#1419 = DIRECTION('',(0.,2.89E-15,1.));
#1420 = PLANE('',#1421);
#1421 = AXIS2_PLACEMENT_3D('',#1422,#1423,#1424);
#1422 = CARTESIAN_POINT('',(29.7,-57.6,102.5));
#1423 = DIRECTION('',(1.,0.,0.));
#1424 = DIRECTION('',(-0.,-4.E-15,-1.));
#1425 = ADVANCED_FACE('',(#1426),#1441,.T.);
#1426 = FACE_BOUND('',#1427,.F.);
#1427 = EDGE_LOOP('',(#1428,#1429,#1430,#1431,#1437,#1438,#1439,#1440));
#1428 = ORIENTED_EDGE('',*,*,#777,.F.);
#1429 = ORIENTED_EDGE('',*,*,#886,.T.);
#1430 = ORIENTED_EDGE('',*,*,#863,.F.);
#1431 = ORIENTED_EDGE('',*,*,#1432,.T.);
#1432 = EDGE_CURVE('',#856,#945,#1433,.T.);
#1433 = LINE('',#1434,#1435);
#1434 = CARTESIAN_POINT('',(27.7,-67.8,96.4));
#1435 = VECTOR('',#1436,1.);
#1436 = DIRECTION('',(0.,2.89E-15,1.));
#1437 = ORIENTED_EDGE('',*,*,#952,.T.);
#1438 = ORIENTED_EDGE('',*,*,#903,.T.);
#1439 = ORIENTED_EDGE('',*,*,#1012,.F.);
#1440 = ORIENTED_EDGE('',*,*,#1415,.F.);
#1441 = PLANE('',#1442);
#1442 = AXIS2_PLACEMENT_3D('',#1443,#1444,#1445);
#1443 = CARTESIAN_POINT('',(18.,-67.8,102.5));
#1444 = DIRECTION('',(-0.,-1.,2.89E-15));
#1445 = DIRECTION('',(-1.,0.,-0.));
#1446 = ADVANCED_FACE('',(#1447),#1453,.T.);
#1447 = FACE_BOUND('',#1448,.F.);
#1448 = EDGE_LOOP('',(#1449,#1450,#1451,#1452));
#1449 = ORIENTED_EDGE('',*,*,#1298,.F.);
#1450 = ORIENTED_EDGE('',*,*,#1322,.T.);
#1451 = ORIENTED_EDGE('',*,*,#1355,.T.);
#1452 = ORIENTED_EDGE('',*,*,#744,.T.);
#1453 = PLANE('',#1454);
#1454 = AXIS2_PLACEMENT_3D('',#1455,#1456,#1457);
#1455 = CARTESIAN_POINT('',(-3.8,-47.,69.5));
#1456 = DIRECTION('',(1.,0.,0.));
#1457 = DIRECTION('',(0.,0.,-1.));
#1458 = ADVANCED_FACE('',(#1459),#1465,.T.);
#1459 = FACE_BOUND('',#1460,.F.);
#1460 = EDGE_LOOP('',(#1461,#1462,#1463,#1464));
#1461 = ORIENTED_EDGE('',*,*,#1347,.F.);
#1462 = ORIENTED_EDGE('',*,*,#1372,.F.);
#1463 = ORIENTED_EDGE('',*,*,#1290,.T.);
#1464 = ORIENTED_EDGE('',*,*,#822,.F.);
#1465 = PLANE('',#1466);
#1466 = AXIS2_PLACEMENT_3D('',#1467,#1468,#1469);
#1467 = CARTESIAN_POINT('',(-6.8,-47.,91.5));
#1468 = DIRECTION('',(0.,0.,1.));
#1469 = DIRECTION('',(-1.,-0.,-0.));
#1470 = ADVANCED_FACE('',(#1471),#1477,.F.);
#1471 = FACE_BOUND('',#1472,.T.);
#1472 = EDGE_LOOP('',(#1473,#1474,#1475,#1476));
#1473 = ORIENTED_EDGE('',*,*,#1396,.F.);
#1474 = ORIENTED_EDGE('',*,*,#855,.T.);
#1475 = ORIENTED_EDGE('',*,*,#1432,.T.);
#1476 = ORIENTED_EDGE('',*,*,#944,.F.);
#1477 = PLANE('',#1478);
#1478 = AXIS2_PLACEMENT_3D('',#1479,#1480,#1481);
#1479 = CARTESIAN_POINT('',(27.7,-45.2,90.3));
#1480 = DIRECTION('',(1.,0.,0.));
#1481 = DIRECTION('',(-0.,-4.E-15,-1.));
#1482 = ADVANCED_FACE('',(#1483,#1486),#1489,.T.);
#1483 = FACE_BOUND('',#1484,.F.);
#1484 = EDGE_LOOP('',(#1485));
#1485 = ORIENTED_EDGE('',*,*,#1156,.T.);
#1486 = FACE_BOUND('',#1487,.F.);
#1487 = EDGE_LOOP('',(#1488));
#1488 = ORIENTED_EDGE('',*,*,#1035,.T.);
#1489 = PLANE('',#1490);
#1490 = AXIS2_PLACEMENT_3D('',#1491,#1492,#1493);
#1491 = CARTESIAN_POINT('',(-25.75,-75.,73.));
#1492 = DIRECTION('',(-0.,-1.,1.11E-15));
#1493 = DIRECTION('',(-1.,0.,-0.));
#1494 = ADVANCED_FACE('',(#1495,#1498),#1501,.T.);
#1495 = FACE_BOUND('',#1496,.F.);
#1496 = EDGE_LOOP('',(#1497));
#1497 = ORIENTED_EDGE('',*,*,#1181,.T.);
#1498 = FACE_BOUND('',#1499,.F.);
#1499 = EDGE_LOOP('',(#1500));
#1500 = ORIENTED_EDGE('',*,*,#1059,.T.);
#1501 = PLANE('',#1502);
#1502 = AXIS2_PLACEMENT_3D('',#1503,#1504,#1505);
#1503 = CARTESIAN_POINT('',(-25.75,-75.,103.));
#1504 = DIRECTION('',(-0.,-1.,1.55E-15));
#1505 = DIRECTION('',(-1.,0.,-0.));
#1506 = ADVANCED_FACE('',(#1507,#1510),#1513,.T.);
#1507 = FACE_BOUND('',#1508,.F.);
#1508 = EDGE_LOOP('',(#1509));
#1509 = ORIENTED_EDGE('',*,*,#1206,.T.);
#1510 = FACE_BOUND('',#1511,.F.);
#1511 = EDGE_LOOP('',(#1512));
#1512 = ORIENTED_EDGE('',*,*,#1083,.T.);
#1513 = PLANE('',#1514);
#1514 = AXIS2_PLACEMENT_3D('',#1515,#1516,#1517);
#1515 = CARTESIAN_POINT('',(-9.75,-75.,73.));
#1516 = DIRECTION('',(-0.,-1.,6.7E-16));
#1517 = DIRECTION('',(-1.,0.,-0.));
#1518 = ADVANCED_FACE('',(#1519,#1522),#1525,.T.);
#1519 = FACE_BOUND('',#1520,.F.);
#1520 = EDGE_LOOP('',(#1521));
#1521 = ORIENTED_EDGE('',*,*,#1231,.T.);
#1522 = FACE_BOUND('',#1523,.F.);
#1523 = EDGE_LOOP('',(#1524));
#1524 = ORIENTED_EDGE('',*,*,#1107,.T.);
#1525 = PLANE('',#1526);
#1526 = AXIS2_PLACEMENT_3D('',#1527,#1528,#1529);
#1527 = CARTESIAN_POINT('',(-4.5,-75.,94.5));
#1528 = DIRECTION('',(-0.,-1.,2.E-15));
#1529 = DIRECTION('',(-1.,0.,-0.));
#1530 = ADVANCED_FACE('',(#1531,#1534),#1537,.T.);
#1531 = FACE_BOUND('',#1532,.F.);
#1532 = EDGE_LOOP('',(#1533));
#1533 = ORIENTED_EDGE('',*,*,#1256,.T.);
#1534 = FACE_BOUND('',#1535,.F.);
#1535 = EDGE_LOOP('',(#1536));
#1536 = ORIENTED_EDGE('',*,*,#1131,.T.);
#1537 = PLANE('',#1538);
#1538 = AXIS2_PLACEMENT_3D('',#1539,#1540,#1541);
#1539 = CARTESIAN_POINT('',(-4.5,-75.,110.5));
#1540 = DIRECTION('',(-0.,-1.,2.44E-15));
#1541 = DIRECTION('',(-1.,0.,-0.));
#1542 = ( GEOMETRIC_REPRESENTATION_CONTEXT(3) 
GLOBAL_UNCERTAINTY_ASSIGNED_CONTEXT((#1546)) 
GLOBAL_UNIT_ASSIGNED_CONTEXT((#1543,#1544,#1545)) REPRESENTATION_CONTEXT
('Context #1','3D Context with UNIT and UNCERTAINTY') );
#1543 = ( LENGTH_UNIT() NAMED_UNIT(*) SI_UNIT(.MILLI.,.METRE.) );
#1544 = ( NAMED_UNIT(*) PLANE_ANGLE_UNIT() SI_UNIT($,.RADIAN.) );
#1545 = ( NAMED_UNIT(*) SI_UNIT($,.STERADIAN.) SOLID_ANGLE_UNIT() );
#1546 = UNCERTAINTY_MEASURE_WITH_UNIT(LENGTH_MEASURE(2.E-05),#1543,
  'distance_accuracy_value','confusion accuracy');
#1547 = PRODUCT_RELATED_PRODUCT_CATEGORY('part',$,(#7));
ENDSEC;
END-ISO-10303-21;
