ISO-10303-21;
HEADER;
FILE_DESCRIPTION(('FreeCAD Model'),'2;1');
FILE_NAME('Open CASCADE Shape Model','2026-10-09T09:09:11',('FreeCAD'),(
    'FreeCAD'),'Open CASCADE STEP processor 7.8','FreeCAD','Unknown');
FILE_SCHEMA(('AUTOMOTIVE_DESIGN { 1 0 10303 214 1 1 1 1 }'));
ENDSEC;
DATA;
#1 = APPLICATION_PROTOCOL_DEFINITION('international standard',
  'automotive_design',2000,#2);
#2 = APPLICATION_CONTEXT(
  'core data for automotive mechanical design processes');
#3 = SHAPE_DEFINITION_REPRESENTATION(#4,#10);
#4 = PRODUCT_DEFINITION_SHAPE('','',#5);
#5 = PRODUCT_DEFINITION('design','',#6,#9);
#6 = PRODUCT_DEFINITION_FORMATION('','',#7);
#7 = PRODUCT('Open CASCADE STEP translator 7.8 9',
  'Open CASCADE STEP translator 7.8 9','',(#8));
#8 = PRODUCT_CONTEXT('',#2,'mechanical');
#9 = PRODUCT_DEFINITION_CONTEXT('part definition',#2,'design');
#10 = ADVANCED_BREP_SHAPE_REPRESENTATION('',(#11,#15),#907);
#11 = AXIS2_PLACEMENT_3D('',#12,#13,#14);
#12 = CARTESIAN_POINT('',(0.,0.,0.));
#13 = DIRECTION('',(0.,0.,1.));
#14 = DIRECTION('',(1.,0.,-0.));
#15 = MANIFOLD_SOLID_BREP('',#16);
#16 = CLOSED_SHELL('',(#17,#57,#136,#183,#255,#306,#358,#398,#415,#432,
    #460,#477,#489,#514,#539,#561,#587,#611,#630,#648,#673,#737,#762,
    #787,#812,#837,#862,#871,#880,#889,#898));
#17 = ADVANCED_FACE('',(#18),#52,.T.);
#18 = FACE_BOUND('',#19,.F.);
#19 = EDGE_LOOP('',(#20,#30,#38,#46));
#20 = ORIENTED_EDGE('',*,*,#21,.F.);
#21 = EDGE_CURVE('',#22,#24,#26,.T.);
#22 = VERTEX_POINT('',#23);
#23 = CARTESIAN_POINT('',(4.5,-5.3,75.8));
#24 = VERTEX_POINT('',#25);
#25 = CARTESIAN_POINT('',(25.5,-5.3,75.8));
#26 = LINE('',#27,#28);
#27 = CARTESIAN_POINT('',(4.5,-5.3,75.8));
#28 = VECTOR('',#29,1.);
#29 = DIRECTION('',(1.,0.,-2.2E-16));
#30 = ORIENTED_EDGE('',*,*,#31,.T.);
#31 = EDGE_CURVE('',#22,#32,#34,.T.);
#32 = VERTEX_POINT('',#33);
#33 = CARTESIAN_POINT('',(4.5,-29.7,75.8));
#34 = LINE('',#35,#36);
#35 = CARTESIAN_POINT('',(4.5,-5.3,75.8));
#36 = VECTOR('',#37,1.);
#37 = DIRECTION('',(-0.,-1.,0.));
#38 = ORIENTED_EDGE('',*,*,#39,.T.);
#39 = EDGE_CURVE('',#32,#40,#42,.T.);
#40 = VERTEX_POINT('',#41);
#41 = CARTESIAN_POINT('',(25.5,-29.7,75.8));
#42 = LINE('',#43,#44);
#43 = CARTESIAN_POINT('',(4.5,-29.7,75.8));
#44 = VECTOR('',#45,1.);
#45 = DIRECTION('',(1.,0.,-2.2E-16));
#46 = ORIENTED_EDGE('',*,*,#47,.F.);
#47 = EDGE_CURVE('',#24,#40,#48,.T.);
#48 = LINE('',#49,#50);
#49 = CARTESIAN_POINT('',(25.5,-5.3,75.8));
#50 = VECTOR('',#51,1.);
#51 = DIRECTION('',(-0.,-1.,0.));
#52 = PLANE('',#53);
#53 = AXIS2_PLACEMENT_3D('',#54,#55,#56);
#54 = CARTESIAN_POINT('',(15.,-17.5,75.8));
#55 = DIRECTION('',(-2.2E-16,0.,-1.));
#56 = DIRECTION('',(1.,0.,-2.2E-16));
#57 = ADVANCED_FACE('',(#58),#131,.T.);
#58 = FACE_BOUND('',#59,.F.);
#59 = EDGE_LOOP('',(#60,#68,#69,#77,#85,#93,#101,#109,#117,#125));
#60 = ORIENTED_EDGE('',*,*,#61,.F.);
#61 = EDGE_CURVE('',#22,#62,#64,.T.);
#62 = VERTEX_POINT('',#63);
#63 = CARTESIAN_POINT('',(4.5,-5.3,87.934286835174));
#64 = LINE('',#65,#66);
#65 = CARTESIAN_POINT('',(4.5,-5.3,114.2));
#66 = VECTOR('',#67,1.);
#67 = DIRECTION('',(2.2E-16,0.,1.));
#68 = ORIENTED_EDGE('',*,*,#21,.T.);
#69 = ORIENTED_EDGE('',*,*,#70,.T.);
#70 = EDGE_CURVE('',#24,#71,#73,.T.);
#71 = VERTEX_POINT('',#72);
#72 = CARTESIAN_POINT('',(25.5,-5.3,115.));
#73 = LINE('',#74,#75);
#74 = CARTESIAN_POINT('',(25.5,-5.3,75.8));
#75 = VECTOR('',#76,1.);
#76 = DIRECTION('',(-1.1E-16,-0.,1.));
#77 = ORIENTED_EDGE('',*,*,#78,.T.);
#78 = EDGE_CURVE('',#71,#79,#81,.T.);
#79 = VERTEX_POINT('',#80);
#80 = CARTESIAN_POINT('',(32.,-5.3,115.));
#81 = LINE('',#82,#83);
#82 = CARTESIAN_POINT('',(8.,-5.3,115.));
#83 = VECTOR('',#84,1.);
#84 = DIRECTION('',(1.,0.,-2.2E-16));
#85 = ORIENTED_EDGE('',*,*,#86,.T.);
#86 = EDGE_CURVE('',#79,#87,#89,.T.);
#87 = VERTEX_POINT('',#88);
#88 = CARTESIAN_POINT('',(32.,-5.3,119.));
#89 = LINE('',#90,#91);
#90 = CARTESIAN_POINT('',(32.,-5.3,115.));
#91 = VECTOR('',#92,1.);
#92 = DIRECTION('',(2.2E-16,0.,1.));
#93 = ORIENTED_EDGE('',*,*,#94,.F.);
#94 = EDGE_CURVE('',#95,#87,#97,.T.);
#95 = VERTEX_POINT('',#96);
#96 = CARTESIAN_POINT('',(8.,-5.3,119.));
#97 = LINE('',#98,#99);
#98 = CARTESIAN_POINT('',(8.,-5.3,119.));
#99 = VECTOR('',#100,1.);
#100 = DIRECTION('',(1.,0.,-2.2E-16));
#101 = ORIENTED_EDGE('',*,*,#102,.F.);
#102 = EDGE_CURVE('',#103,#95,#105,.T.);
#103 = VERTEX_POINT('',#104);
#104 = CARTESIAN_POINT('',(8.,-5.3,115.));
#105 = LINE('',#106,#107);
#106 = CARTESIAN_POINT('',(8.,-5.3,115.));
#107 = VECTOR('',#108,1.);
#108 = DIRECTION('',(2.2E-16,0.,1.));
#109 = ORIENTED_EDGE('',*,*,#110,.F.);
#110 = EDGE_CURVE('',#111,#103,#113,.T.);
#111 = VERTEX_POINT('',#112);
#112 = CARTESIAN_POINT('',(6.7,-5.3,115.));
#113 = LINE('',#114,#115);
#114 = CARTESIAN_POINT('',(4.5,-5.3,115.));
#115 = VECTOR('',#116,1.);
#116 = DIRECTION('',(1.,0.,-2.2E-16));
#117 = ORIENTED_EDGE('',*,*,#118,.T.);
#118 = EDGE_CURVE('',#111,#119,#121,.T.);
#119 = VERTEX_POINT('',#120);
#120 = CARTESIAN_POINT('',(6.7,-5.3,87.934286835173));
#121 = LINE('',#122,#123);
#122 = CARTESIAN_POINT('',(6.7,-5.3,100.80148514851));
#123 = VECTOR('',#124,1.);
#124 = DIRECTION('',(-2.2E-16,-0.,-1.));
#125 = ORIENTED_EDGE('',*,*,#126,.F.);
#126 = EDGE_CURVE('',#62,#119,#127,.T.);
#127 = LINE('',#128,#129);
#128 = CARTESIAN_POINT('',(6.7,-5.3,87.934286835173));
#129 = VECTOR('',#130,1.);
#130 = DIRECTION('',(1.,0.,-2.2E-16));
#131 = PLANE('',#132);
#132 = AXIS2_PLACEMENT_3D('',#133,#134,#135);
#133 = CARTESIAN_POINT('',(16.54702970297,-5.3,99.10297029703));
#134 = DIRECTION('',(0.,1.,0.));
#135 = DIRECTION('',(2.2E-16,0.,1.));
#136 = ADVANCED_FACE('',(#137,#156,#167),#178,.T.);
#137 = FACE_BOUND('',#138,.F.);
#138 = EDGE_LOOP('',(#139,#140,#141,#150));
#139 = ORIENTED_EDGE('',*,*,#31,.F.);
#140 = ORIENTED_EDGE('',*,*,#61,.T.);
#141 = ORIENTED_EDGE('',*,*,#142,.T.);
#142 = EDGE_CURVE('',#62,#143,#145,.T.);
#143 = VERTEX_POINT('',#144);
#144 = CARTESIAN_POINT('',(4.5,-29.7,87.934286835174));
#145 = CIRCLE('',#146,19.);
#146 = AXIS2_PLACEMENT_3D('',#147,#148,#149);
#147 = CARTESIAN_POINT('',(4.5,-17.5,102.5));
#148 = DIRECTION('',(-1.,0.,2.2E-16));
#149 = DIRECTION('',(2.2E-16,0.,1.));
#150 = ORIENTED_EDGE('',*,*,#151,.F.);
#151 = EDGE_CURVE('',#32,#143,#152,.T.);
#152 = LINE('',#153,#154);
#153 = CARTESIAN_POINT('',(4.5,-29.7,114.2));
#154 = VECTOR('',#155,1.);
#155 = DIRECTION('',(2.2E-16,0.,1.));
#156 = FACE_BOUND('',#157,.F.);
#157 = EDGE_LOOP('',(#158));
#158 = ORIENTED_EDGE('',*,*,#159,.T.);
#159 = EDGE_CURVE('',#160,#160,#162,.T.);
#160 = VERTEX_POINT('',#161);
#161 = CARTESIAN_POINT('',(4.5,-25.5,78.85));
#162 = CIRCLE('',#163,1.15);
#163 = AXIS2_PLACEMENT_3D('',#164,#165,#166);
#164 = CARTESIAN_POINT('',(4.5,-25.5,80.));
#165 = DIRECTION('',(-1.,0.,2.2E-16));
#166 = DIRECTION('',(-2.2E-16,0.,-1.));
#167 = FACE_BOUND('',#168,.F.);
#168 = EDGE_LOOP('',(#169));
#169 = ORIENTED_EDGE('',*,*,#170,.T.);
#170 = EDGE_CURVE('',#171,#171,#173,.T.);
#171 = VERTEX_POINT('',#172);
#172 = CARTESIAN_POINT('',(4.5,-9.5,78.85));
#173 = CIRCLE('',#174,1.15);
#174 = AXIS2_PLACEMENT_3D('',#175,#176,#177);
#175 = CARTESIAN_POINT('',(4.5,-9.5,80.));
#176 = DIRECTION('',(-1.,0.,2.2E-16));
#177 = DIRECTION('',(-2.2E-16,0.,-1.));
#178 = PLANE('',#179);
#179 = AXIS2_PLACEMENT_3D('',#180,#181,#182);
#180 = CARTESIAN_POINT('',(4.5,-17.5,95.4));
#181 = DIRECTION('',(-1.,0.,-3.E-17));
#182 = DIRECTION('',(-3.E-17,0.,1.));
#183 = ADVANCED_FACE('',(#184),#250,.T.);
#184 = FACE_BOUND('',#185,.F.);
#185 = EDGE_LOOP('',(#186,#187,#188,#196,#204,#212,#220,#228,#236,#244)
  );
#186 = ORIENTED_EDGE('',*,*,#39,.F.);
#187 = ORIENTED_EDGE('',*,*,#151,.T.);
#188 = ORIENTED_EDGE('',*,*,#189,.T.);
#189 = EDGE_CURVE('',#143,#190,#192,.T.);
#190 = VERTEX_POINT('',#191);
#191 = CARTESIAN_POINT('',(6.7,-29.7,87.934286835174));
#192 = LINE('',#193,#194);
#193 = CARTESIAN_POINT('',(6.7,-29.7,87.934286835174));
#194 = VECTOR('',#195,1.);
#195 = DIRECTION('',(1.,0.,-2.2E-16));
#196 = ORIENTED_EDGE('',*,*,#197,.T.);
#197 = EDGE_CURVE('',#190,#198,#200,.T.);
#198 = VERTEX_POINT('',#199);
#199 = CARTESIAN_POINT('',(6.7,-29.7,115.));
#200 = LINE('',#201,#202);
#201 = CARTESIAN_POINT('',(6.7,-29.7,100.80148514851));
#202 = VECTOR('',#203,1.);
#203 = DIRECTION('',(2.2E-16,0.,1.));
#204 = ORIENTED_EDGE('',*,*,#205,.T.);
#205 = EDGE_CURVE('',#198,#206,#208,.T.);
#206 = VERTEX_POINT('',#207);
#207 = CARTESIAN_POINT('',(8.,-29.7,115.));
#208 = LINE('',#209,#210);
#209 = CARTESIAN_POINT('',(4.5,-29.7,115.));
#210 = VECTOR('',#211,1.);
#211 = DIRECTION('',(1.,0.,-2.2E-16));
#212 = ORIENTED_EDGE('',*,*,#213,.T.);
#213 = EDGE_CURVE('',#206,#214,#216,.T.);
#214 = VERTEX_POINT('',#215);
#215 = CARTESIAN_POINT('',(8.,-29.7,119.));
#216 = LINE('',#217,#218);
#217 = CARTESIAN_POINT('',(8.,-29.7,115.));
#218 = VECTOR('',#219,1.);
#219 = DIRECTION('',(2.2E-16,0.,1.));
#220 = ORIENTED_EDGE('',*,*,#221,.T.);
#221 = EDGE_CURVE('',#214,#222,#224,.T.);
#222 = VERTEX_POINT('',#223);
#223 = CARTESIAN_POINT('',(32.,-29.7,119.));
#224 = LINE('',#225,#226);
#225 = CARTESIAN_POINT('',(8.,-29.7,119.));
#226 = VECTOR('',#227,1.);
#227 = DIRECTION('',(1.,0.,-2.2E-16));
#228 = ORIENTED_EDGE('',*,*,#229,.F.);
#229 = EDGE_CURVE('',#230,#222,#232,.T.);
#230 = VERTEX_POINT('',#231);
#231 = CARTESIAN_POINT('',(32.,-29.7,115.));
#232 = LINE('',#233,#234);
#233 = CARTESIAN_POINT('',(32.,-29.7,115.));
#234 = VECTOR('',#235,1.);
#235 = DIRECTION('',(2.2E-16,0.,1.));
#236 = ORIENTED_EDGE('',*,*,#237,.F.);
#237 = EDGE_CURVE('',#238,#230,#240,.T.);
#238 = VERTEX_POINT('',#239);
#239 = CARTESIAN_POINT('',(25.5,-29.7,115.));
#240 = LINE('',#241,#242);
#241 = CARTESIAN_POINT('',(8.,-29.7,115.));
#242 = VECTOR('',#243,1.);
#243 = DIRECTION('',(1.,0.,-2.2E-16));
#244 = ORIENTED_EDGE('',*,*,#245,.F.);
#245 = EDGE_CURVE('',#40,#238,#246,.T.);
#246 = LINE('',#247,#248);
#247 = CARTESIAN_POINT('',(25.5,-29.7,114.2));
#248 = VECTOR('',#249,1.);
#249 = DIRECTION('',(2.2E-16,0.,1.));
#250 = PLANE('',#251);
#251 = AXIS2_PLACEMENT_3D('',#252,#253,#254);
#252 = CARTESIAN_POINT('',(16.54702970297,-29.7,99.10297029703));
#253 = DIRECTION('',(-0.,-1.,0.));
#254 = DIRECTION('',(-2.2E-16,0.,-1.));
#255 = ADVANCED_FACE('',(#256,#267),#301,.T.);
#256 = FACE_BOUND('',#257,.F.);
#257 = EDGE_LOOP('',(#258,#259,#260,#261));
#258 = ORIENTED_EDGE('',*,*,#70,.F.);
#259 = ORIENTED_EDGE('',*,*,#47,.T.);
#260 = ORIENTED_EDGE('',*,*,#245,.T.);
#261 = ORIENTED_EDGE('',*,*,#262,.F.);
#262 = EDGE_CURVE('',#71,#238,#263,.T.);
#263 = LINE('',#264,#265);
#264 = CARTESIAN_POINT('',(25.5,-5.3,115.));
#265 = VECTOR('',#266,1.);
#266 = DIRECTION('',(-0.,-1.,0.));
#267 = FACE_BOUND('',#268,.F.);
#268 = EDGE_LOOP('',(#269,#279,#287,#295));
#269 = ORIENTED_EDGE('',*,*,#270,.T.);
#270 = EDGE_CURVE('',#271,#273,#275,.T.);
#271 = VERTEX_POINT('',#272);
#272 = CARTESIAN_POINT('',(25.5,-7.3,112.2));
#273 = VERTEX_POINT('',#274);
#274 = CARTESIAN_POINT('',(25.5,-27.7,112.2));
#275 = LINE('',#276,#277);
#276 = CARTESIAN_POINT('',(25.5,-5.3,112.2));
#277 = VECTOR('',#278,1.);
#278 = DIRECTION('',(-0.,-1.,0.));
#279 = ORIENTED_EDGE('',*,*,#280,.F.);
#280 = EDGE_CURVE('',#281,#273,#283,.T.);
#281 = VERTEX_POINT('',#282);
#282 = CARTESIAN_POINT('',(25.5,-27.7,77.8));
#283 = LINE('',#284,#285);
#284 = CARTESIAN_POINT('',(25.5,-27.7,75.8));
#285 = VECTOR('',#286,1.);
#286 = DIRECTION('',(2.2E-16,0.,1.));
#287 = ORIENTED_EDGE('',*,*,#288,.F.);
#288 = EDGE_CURVE('',#289,#281,#291,.T.);
#289 = VERTEX_POINT('',#290);
#290 = CARTESIAN_POINT('',(25.5,-7.3,77.8));
#291 = LINE('',#292,#293);
#292 = CARTESIAN_POINT('',(25.5,-5.3,77.8));
#293 = VECTOR('',#294,1.);
#294 = DIRECTION('',(-0.,-1.,0.));
#295 = ORIENTED_EDGE('',*,*,#296,.T.);
#296 = EDGE_CURVE('',#289,#271,#297,.T.);
#297 = LINE('',#298,#299);
#298 = CARTESIAN_POINT('',(25.5,-7.3,75.8));
#299 = VECTOR('',#300,1.);
#300 = DIRECTION('',(2.2E-16,0.,1.));
#301 = PLANE('',#302);
#302 = AXIS2_PLACEMENT_3D('',#303,#304,#305);
#303 = CARTESIAN_POINT('',(25.5,-17.5,95.4));
#304 = DIRECTION('',(1.,0.,1.E-17));
#305 = DIRECTION('',(1.E-17,0.,-1.));
#306 = ADVANCED_FACE('',(#307),#353,.F.);
#307 = FACE_BOUND('',#308,.F.);
#308 = EDGE_LOOP('',(#309,#318,#319,#320,#321,#330,#338,#347));
#309 = ORIENTED_EDGE('',*,*,#310,.F.);
#310 = EDGE_CURVE('',#190,#311,#313,.T.);
#311 = VERTEX_POINT('',#312);
#312 = CARTESIAN_POINT('',(6.7,-27.7,86.470028072389));
#313 = CIRCLE('',#314,19.);
#314 = AXIS2_PLACEMENT_3D('',#315,#316,#317);
#315 = CARTESIAN_POINT('',(6.7,-17.5,102.5));
#316 = DIRECTION('',(1.,0.,-2.2E-16));
#317 = DIRECTION('',(2.2E-16,0.,1.));
#318 = ORIENTED_EDGE('',*,*,#189,.F.);
#319 = ORIENTED_EDGE('',*,*,#142,.F.);
#320 = ORIENTED_EDGE('',*,*,#126,.T.);
#321 = ORIENTED_EDGE('',*,*,#322,.F.);
#322 = EDGE_CURVE('',#323,#119,#325,.T.);
#323 = VERTEX_POINT('',#324);
#324 = CARTESIAN_POINT('',(6.7,-7.3,86.470028072389));
#325 = CIRCLE('',#326,19.);
#326 = AXIS2_PLACEMENT_3D('',#327,#328,#329);
#327 = CARTESIAN_POINT('',(6.7,-17.5,102.5));
#328 = DIRECTION('',(1.,0.,-2.2E-16));
#329 = DIRECTION('',(2.2E-16,0.,1.));
#330 = ORIENTED_EDGE('',*,*,#331,.F.);
#331 = EDGE_CURVE('',#332,#323,#334,.T.);
#332 = VERTEX_POINT('',#333);
#333 = CARTESIAN_POINT('',(6.3,-7.3,86.470028072389));
#334 = LINE('',#335,#336);
#335 = CARTESIAN_POINT('',(6.7,-7.3,86.470028072389));
#336 = VECTOR('',#337,1.);
#337 = DIRECTION('',(1.,0.,-2.2E-16));
#338 = ORIENTED_EDGE('',*,*,#339,.T.);
#339 = EDGE_CURVE('',#332,#340,#342,.T.);
#340 = VERTEX_POINT('',#341);
#341 = CARTESIAN_POINT('',(6.3,-27.7,86.470028072389));
#342 = CIRCLE('',#343,19.);
#343 = AXIS2_PLACEMENT_3D('',#344,#345,#346);
#344 = CARTESIAN_POINT('',(6.3,-17.5,102.5));
#345 = DIRECTION('',(-1.,0.,2.2E-16));
#346 = DIRECTION('',(2.2E-16,0.,1.));
#347 = ORIENTED_EDGE('',*,*,#348,.T.);
#348 = EDGE_CURVE('',#340,#311,#349,.T.);
#349 = LINE('',#350,#351);
#350 = CARTESIAN_POINT('',(6.7,-27.7,86.470028072389));
#351 = VECTOR('',#352,1.);
#352 = DIRECTION('',(1.,0.,-2.2E-16));
#353 = CYLINDRICAL_SURFACE('',#354,19.);
#354 = AXIS2_PLACEMENT_3D('',#355,#356,#357);
#355 = CARTESIAN_POINT('',(6.7,-17.5,102.5));
#356 = DIRECTION('',(1.,0.,-2.2E-16));
#357 = DIRECTION('',(2.2E-16,0.,1.));
#358 = ADVANCED_FACE('',(#359),#393,.T.);
#359 = FACE_BOUND('',#360,.F.);
#360 = EDGE_LOOP('',(#361,#362,#363,#371,#379,#385,#386,#387));
#361 = ORIENTED_EDGE('',*,*,#197,.F.);
#362 = ORIENTED_EDGE('',*,*,#310,.T.);
#363 = ORIENTED_EDGE('',*,*,#364,.T.);
#364 = EDGE_CURVE('',#311,#365,#367,.T.);
#365 = VERTEX_POINT('',#366);
#366 = CARTESIAN_POINT('',(6.7,-27.7,112.2));
#367 = LINE('',#368,#369);
#368 = CARTESIAN_POINT('',(6.7,-27.7,89.15));
#369 = VECTOR('',#370,1.);
#370 = DIRECTION('',(2.2E-16,0.,1.));
#371 = ORIENTED_EDGE('',*,*,#372,.T.);
#372 = EDGE_CURVE('',#365,#373,#375,.T.);
#373 = VERTEX_POINT('',#374);
#374 = CARTESIAN_POINT('',(6.7,-7.3,112.2));
#375 = LINE('',#376,#377);
#376 = CARTESIAN_POINT('',(6.7,-11.4,112.2));
#377 = VECTOR('',#378,1.);
#378 = DIRECTION('',(0.,1.,0.));
#379 = ORIENTED_EDGE('',*,*,#380,.F.);
#380 = EDGE_CURVE('',#323,#373,#381,.T.);
#381 = LINE('',#382,#383);
#382 = CARTESIAN_POINT('',(6.7,-7.3,89.15));
#383 = VECTOR('',#384,1.);
#384 = DIRECTION('',(2.2E-16,0.,1.));
#385 = ORIENTED_EDGE('',*,*,#322,.T.);
#386 = ORIENTED_EDGE('',*,*,#118,.F.);
#387 = ORIENTED_EDGE('',*,*,#388,.F.);
#388 = EDGE_CURVE('',#198,#111,#389,.T.);
#389 = LINE('',#390,#391);
#390 = CARTESIAN_POINT('',(6.7,-11.4,115.));
#391 = VECTOR('',#392,1.);
#392 = DIRECTION('',(0.,1.,0.));
#393 = PLANE('',#394);
#394 = AXIS2_PLACEMENT_3D('',#395,#396,#397);
#395 = CARTESIAN_POINT('',(6.7,-17.5,102.5));
#396 = DIRECTION('',(-1.,0.,2.2E-16));
#397 = DIRECTION('',(-2.2E-16,-0.,-1.));
#398 = ADVANCED_FACE('',(#399),#410,.T.);
#399 = FACE_BOUND('',#400,.F.);
#400 = EDGE_LOOP('',(#401,#402,#403,#404));
#401 = ORIENTED_EDGE('',*,*,#205,.F.);
#402 = ORIENTED_EDGE('',*,*,#388,.T.);
#403 = ORIENTED_EDGE('',*,*,#110,.T.);
#404 = ORIENTED_EDGE('',*,*,#405,.T.);
#405 = EDGE_CURVE('',#103,#206,#406,.T.);
#406 = LINE('',#407,#408);
#407 = CARTESIAN_POINT('',(8.,-5.3,115.));
#408 = VECTOR('',#409,1.);
#409 = DIRECTION('',(-0.,-1.,0.));
#410 = PLANE('',#411);
#411 = AXIS2_PLACEMENT_3D('',#412,#413,#414);
#412 = CARTESIAN_POINT('',(4.5,-5.3,115.));
#413 = DIRECTION('',(2.2E-16,0.,1.));
#414 = DIRECTION('',(-1.,-0.,2.2E-16));
#415 = ADVANCED_FACE('',(#416),#427,.F.);
#416 = FACE_BOUND('',#417,.F.);
#417 = EDGE_LOOP('',(#418,#419,#425,#426));
#418 = ORIENTED_EDGE('',*,*,#102,.T.);
#419 = ORIENTED_EDGE('',*,*,#420,.T.);
#420 = EDGE_CURVE('',#95,#214,#421,.T.);
#421 = LINE('',#422,#423);
#422 = CARTESIAN_POINT('',(8.,-5.3,119.));
#423 = VECTOR('',#424,1.);
#424 = DIRECTION('',(-0.,-1.,0.));
#425 = ORIENTED_EDGE('',*,*,#213,.F.);
#426 = ORIENTED_EDGE('',*,*,#405,.F.);
#427 = PLANE('',#428);
#428 = AXIS2_PLACEMENT_3D('',#429,#430,#431);
#429 = CARTESIAN_POINT('',(8.,-5.3,115.));
#430 = DIRECTION('',(1.,0.,-2.2E-16));
#431 = DIRECTION('',(-2.2E-16,0.,-1.));
#432 = ADVANCED_FACE('',(#433,#444),#455,.T.);
#433 = FACE_BOUND('',#434,.F.);
#434 = EDGE_LOOP('',(#435,#436,#442,#443));
#435 = ORIENTED_EDGE('',*,*,#94,.T.);
#436 = ORIENTED_EDGE('',*,*,#437,.T.);
#437 = EDGE_CURVE('',#87,#222,#438,.T.);
#438 = LINE('',#439,#440);
#439 = CARTESIAN_POINT('',(32.,-5.3,119.));
#440 = VECTOR('',#441,1.);
#441 = DIRECTION('',(-0.,-1.,0.));
#442 = ORIENTED_EDGE('',*,*,#221,.F.);
#443 = ORIENTED_EDGE('',*,*,#420,.F.);
#444 = FACE_BOUND('',#445,.F.);
#445 = EDGE_LOOP('',(#446));
#446 = ORIENTED_EDGE('',*,*,#447,.T.);
#447 = EDGE_CURVE('',#448,#448,#450,.T.);
#448 = VERTEX_POINT('',#449);
#449 = CARTESIAN_POINT('',(11.8,-17.5,119.));
#450 = CIRCLE('',#451,8.2);
#451 = AXIS2_PLACEMENT_3D('',#452,#453,#454);
#452 = CARTESIAN_POINT('',(20.,-17.5,119.));
#453 = DIRECTION('',(2.2E-16,0.,1.));
#454 = DIRECTION('',(-1.,0.,2.2E-16));
#455 = PLANE('',#456);
#456 = AXIS2_PLACEMENT_3D('',#457,#458,#459);
#457 = CARTESIAN_POINT('',(8.,-5.3,119.));
#458 = DIRECTION('',(2.2E-16,0.,1.));
#459 = DIRECTION('',(-1.,-0.,2.2E-16));
#460 = ADVANCED_FACE('',(#461),#472,.T.);
#461 = FACE_BOUND('',#462,.F.);
#462 = EDGE_LOOP('',(#463,#464,#470,#471));
#463 = ORIENTED_EDGE('',*,*,#86,.F.);
#464 = ORIENTED_EDGE('',*,*,#465,.T.);
#465 = EDGE_CURVE('',#79,#230,#466,.T.);
#466 = LINE('',#467,#468);
#467 = CARTESIAN_POINT('',(32.,-5.3,115.));
#468 = VECTOR('',#469,1.);
#469 = DIRECTION('',(-0.,-1.,0.));
#470 = ORIENTED_EDGE('',*,*,#229,.T.);
#471 = ORIENTED_EDGE('',*,*,#437,.F.);
#472 = PLANE('',#473);
#473 = AXIS2_PLACEMENT_3D('',#474,#475,#476);
#474 = CARTESIAN_POINT('',(32.,-5.3,115.));
#475 = DIRECTION('',(1.,0.,-2.2E-16));
#476 = DIRECTION('',(-2.2E-16,0.,-1.));
#477 = ADVANCED_FACE('',(#478),#484,.T.);
#478 = FACE_BOUND('',#479,.F.);
#479 = EDGE_LOOP('',(#480,#481,#482,#483));
#480 = ORIENTED_EDGE('',*,*,#262,.T.);
#481 = ORIENTED_EDGE('',*,*,#237,.T.);
#482 = ORIENTED_EDGE('',*,*,#465,.F.);
#483 = ORIENTED_EDGE('',*,*,#78,.F.);
#484 = PLANE('',#485);
#485 = AXIS2_PLACEMENT_3D('',#486,#487,#488);
#486 = CARTESIAN_POINT('',(28.75,-17.5,115.));
#487 = DIRECTION('',(-2.2E-16,0.,-1.));
#488 = DIRECTION('',(1.,0.,-2.2E-16));
#489 = ADVANCED_FACE('',(#490),#509,.F.);
#490 = FACE_BOUND('',#491,.F.);
#491 = EDGE_LOOP('',(#492,#493,#501,#508));
#492 = ORIENTED_EDGE('',*,*,#159,.F.);
#493 = ORIENTED_EDGE('',*,*,#494,.T.);
#494 = EDGE_CURVE('',#160,#495,#497,.T.);
#495 = VERTEX_POINT('',#496);
#496 = CARTESIAN_POINT('',(6.3,-25.5,78.85));
#497 = LINE('',#498,#499);
#498 = CARTESIAN_POINT('',(4.5,-25.5,78.85));
#499 = VECTOR('',#500,1.);
#500 = DIRECTION('',(1.,0.,-2.2E-16));
#501 = ORIENTED_EDGE('',*,*,#502,.F.);
#502 = EDGE_CURVE('',#495,#495,#503,.T.);
#503 = CIRCLE('',#504,1.15);
#504 = AXIS2_PLACEMENT_3D('',#505,#506,#507);
#505 = CARTESIAN_POINT('',(6.3,-25.5,80.));
#506 = DIRECTION('',(1.,0.,-2.2E-16));
#507 = DIRECTION('',(-2.2E-16,0.,-1.));
#508 = ORIENTED_EDGE('',*,*,#494,.F.);
#509 = CYLINDRICAL_SURFACE('',#510,1.15);
#510 = AXIS2_PLACEMENT_3D('',#511,#512,#513);
#511 = CARTESIAN_POINT('',(4.5,-25.5,80.));
#512 = DIRECTION('',(-1.,0.,2.2E-16));
#513 = DIRECTION('',(-2.2E-16,0.,-1.));
#514 = ADVANCED_FACE('',(#515),#534,.F.);
#515 = FACE_BOUND('',#516,.F.);
#516 = EDGE_LOOP('',(#517,#518,#526,#533));
#517 = ORIENTED_EDGE('',*,*,#170,.F.);
#518 = ORIENTED_EDGE('',*,*,#519,.T.);
#519 = EDGE_CURVE('',#171,#520,#522,.T.);
#520 = VERTEX_POINT('',#521);
#521 = CARTESIAN_POINT('',(6.3,-9.5,78.85));
#522 = LINE('',#523,#524);
#523 = CARTESIAN_POINT('',(4.5,-9.5,78.85));
#524 = VECTOR('',#525,1.);
#525 = DIRECTION('',(1.,0.,-2.2E-16));
#526 = ORIENTED_EDGE('',*,*,#527,.F.);
#527 = EDGE_CURVE('',#520,#520,#528,.T.);
#528 = CIRCLE('',#529,1.15);
#529 = AXIS2_PLACEMENT_3D('',#530,#531,#532);
#530 = CARTESIAN_POINT('',(6.3,-9.5,80.));
#531 = DIRECTION('',(1.,0.,-2.2E-16));
#532 = DIRECTION('',(-2.2E-16,0.,-1.));
#533 = ORIENTED_EDGE('',*,*,#519,.F.);
#534 = CYLINDRICAL_SURFACE('',#535,1.15);
#535 = AXIS2_PLACEMENT_3D('',#536,#537,#538);
#536 = CARTESIAN_POINT('',(4.5,-9.5,80.));
#537 = DIRECTION('',(-1.,0.,2.2E-16));
#538 = DIRECTION('',(-2.2E-16,0.,-1.));
#539 = ADVANCED_FACE('',(#540),#556,.F.);
#540 = FACE_BOUND('',#541,.T.);
#541 = EDGE_LOOP('',(#542,#543,#549,#550));
#542 = ORIENTED_EDGE('',*,*,#372,.T.);
#543 = ORIENTED_EDGE('',*,*,#544,.T.);
#544 = EDGE_CURVE('',#373,#271,#545,.T.);
#545 = LINE('',#546,#547);
#546 = CARTESIAN_POINT('',(4.5,-7.3,112.2));
#547 = VECTOR('',#548,1.);
#548 = DIRECTION('',(1.,0.,-2.2E-16));
#549 = ORIENTED_EDGE('',*,*,#270,.T.);
#550 = ORIENTED_EDGE('',*,*,#551,.F.);
#551 = EDGE_CURVE('',#365,#273,#552,.T.);
#552 = LINE('',#553,#554);
#553 = CARTESIAN_POINT('',(4.5,-27.7,112.2));
#554 = VECTOR('',#555,1.);
#555 = DIRECTION('',(1.,0.,-2.2E-16));
#556 = PLANE('',#557);
#557 = AXIS2_PLACEMENT_3D('',#558,#559,#560);
#558 = CARTESIAN_POINT('',(4.5,-5.3,112.2));
#559 = DIRECTION('',(2.2E-16,0.,1.));
#560 = DIRECTION('',(-1.,-0.,2.2E-16));
#561 = ADVANCED_FACE('',(#562),#582,.F.);
#562 = FACE_BOUND('',#563,.T.);
#563 = EDGE_LOOP('',(#564,#572,#578,#579,#580,#581));
#564 = ORIENTED_EDGE('',*,*,#565,.F.);
#565 = EDGE_CURVE('',#566,#281,#568,.T.);
#566 = VERTEX_POINT('',#567);
#567 = CARTESIAN_POINT('',(6.3,-27.7,77.8));
#568 = LINE('',#569,#570);
#569 = CARTESIAN_POINT('',(4.5,-27.7,77.8));
#570 = VECTOR('',#571,1.);
#571 = DIRECTION('',(1.,0.,-2.2E-16));
#572 = ORIENTED_EDGE('',*,*,#573,.T.);
#573 = EDGE_CURVE('',#566,#340,#574,.T.);
#574 = LINE('',#575,#576);
#575 = CARTESIAN_POINT('',(6.3,-27.7,75.8));
#576 = VECTOR('',#577,1.);
#577 = DIRECTION('',(2.2E-16,0.,1.));
#578 = ORIENTED_EDGE('',*,*,#348,.T.);
#579 = ORIENTED_EDGE('',*,*,#364,.T.);
#580 = ORIENTED_EDGE('',*,*,#551,.T.);
#581 = ORIENTED_EDGE('',*,*,#280,.F.);
#582 = PLANE('',#583);
#583 = AXIS2_PLACEMENT_3D('',#584,#585,#586);
#584 = CARTESIAN_POINT('',(4.5,-27.7,75.8));
#585 = DIRECTION('',(-0.,-1.,0.));
#586 = DIRECTION('',(-2.2E-16,0.,-1.));
#587 = ADVANCED_FACE('',(#588),#606,.T.);
#588 = FACE_BOUND('',#589,.F.);
#589 = EDGE_LOOP('',(#590,#598,#599,#600));
#590 = ORIENTED_EDGE('',*,*,#591,.T.);
#591 = EDGE_CURVE('',#592,#289,#594,.T.);
#592 = VERTEX_POINT('',#593);
#593 = CARTESIAN_POINT('',(6.3,-7.3,77.8));
#594 = LINE('',#595,#596);
#595 = CARTESIAN_POINT('',(4.5,-7.3,77.8));
#596 = VECTOR('',#597,1.);
#597 = DIRECTION('',(1.,0.,-2.2E-16));
#598 = ORIENTED_EDGE('',*,*,#288,.T.);
#599 = ORIENTED_EDGE('',*,*,#565,.F.);
#600 = ORIENTED_EDGE('',*,*,#601,.T.);
#601 = EDGE_CURVE('',#566,#592,#602,.T.);
#602 = LINE('',#603,#604);
#603 = CARTESIAN_POINT('',(6.3,-5.3,77.8));
#604 = VECTOR('',#605,1.);
#605 = DIRECTION('',(0.,1.,0.));
#606 = PLANE('',#607);
#607 = AXIS2_PLACEMENT_3D('',#608,#609,#610);
#608 = CARTESIAN_POINT('',(4.5,-5.3,77.8));
#609 = DIRECTION('',(2.2E-16,0.,1.));
#610 = DIRECTION('',(-1.,-0.,2.2E-16));
#611 = ADVANCED_FACE('',(#612),#625,.T.);
#612 = FACE_BOUND('',#613,.F.);
#613 = EDGE_LOOP('',(#614,#615,#621,#622,#623,#624));
#614 = ORIENTED_EDGE('',*,*,#591,.F.);
#615 = ORIENTED_EDGE('',*,*,#616,.T.);
#616 = EDGE_CURVE('',#592,#332,#617,.T.);
#617 = LINE('',#618,#619);
#618 = CARTESIAN_POINT('',(6.3,-7.3,75.8));
#619 = VECTOR('',#620,1.);
#620 = DIRECTION('',(2.2E-16,0.,1.));
#621 = ORIENTED_EDGE('',*,*,#331,.T.);
#622 = ORIENTED_EDGE('',*,*,#380,.T.);
#623 = ORIENTED_EDGE('',*,*,#544,.T.);
#624 = ORIENTED_EDGE('',*,*,#296,.F.);
#625 = PLANE('',#626);
#626 = AXIS2_PLACEMENT_3D('',#627,#628,#629);
#627 = CARTESIAN_POINT('',(4.5,-7.3,75.8));
#628 = DIRECTION('',(-0.,-1.,0.));
#629 = DIRECTION('',(-2.2E-16,0.,-1.));
#630 = ADVANCED_FACE('',(#631,#637,#640),#643,.T.);
#631 = FACE_BOUND('',#632,.F.);
#632 = EDGE_LOOP('',(#633,#634,#635,#636));
#633 = ORIENTED_EDGE('',*,*,#616,.F.);
#634 = ORIENTED_EDGE('',*,*,#601,.F.);
#635 = ORIENTED_EDGE('',*,*,#573,.T.);
#636 = ORIENTED_EDGE('',*,*,#339,.F.);
#637 = FACE_BOUND('',#638,.F.);
#638 = EDGE_LOOP('',(#639));
#639 = ORIENTED_EDGE('',*,*,#502,.T.);
#640 = FACE_BOUND('',#641,.F.);
#641 = EDGE_LOOP('',(#642));
#642 = ORIENTED_EDGE('',*,*,#527,.T.);
#643 = PLANE('',#644);
#644 = AXIS2_PLACEMENT_3D('',#645,#646,#647);
#645 = CARTESIAN_POINT('',(6.3,-5.3,75.8));
#646 = DIRECTION('',(1.,0.,-2.2E-16));
#647 = DIRECTION('',(-2.2E-16,0.,-1.));
#648 = ADVANCED_FACE('',(#649),#668,.F.);
#649 = FACE_BOUND('',#650,.F.);
#650 = EDGE_LOOP('',(#651,#659,#666,#667));
#651 = ORIENTED_EDGE('',*,*,#652,.T.);
#652 = EDGE_CURVE('',#448,#653,#655,.T.);
#653 = VERTEX_POINT('',#654);
#654 = CARTESIAN_POINT('',(11.8,-17.5,118.4));
#655 = LINE('',#656,#657);
#656 = CARTESIAN_POINT('',(11.8,-17.5,119.));
#657 = VECTOR('',#658,1.);
#658 = DIRECTION('',(-2.2E-16,0.,-1.));
#659 = ORIENTED_EDGE('',*,*,#660,.T.);
#660 = EDGE_CURVE('',#653,#653,#661,.T.);
#661 = CIRCLE('',#662,8.2);
#662 = AXIS2_PLACEMENT_3D('',#663,#664,#665);
#663 = CARTESIAN_POINT('',(20.,-17.5,118.4));
#664 = DIRECTION('',(2.2E-16,0.,1.));
#665 = DIRECTION('',(-1.,0.,2.2E-16));
#666 = ORIENTED_EDGE('',*,*,#652,.F.);
#667 = ORIENTED_EDGE('',*,*,#447,.F.);
#668 = CYLINDRICAL_SURFACE('',#669,8.2);
#669 = AXIS2_PLACEMENT_3D('',#670,#671,#672);
#670 = CARTESIAN_POINT('',(20.,-17.5,119.));
#671 = DIRECTION('',(2.2E-16,0.,1.));
#672 = DIRECTION('',(-1.,0.,2.2E-16));
#673 = ADVANCED_FACE('',(#674,#677,#688,#699,#710,#721),#732,.F.);
#674 = FACE_BOUND('',#675,.T.);
#675 = EDGE_LOOP('',(#676));
#676 = ORIENTED_EDGE('',*,*,#660,.T.);
#677 = FACE_BOUND('',#678,.T.);
#678 = EDGE_LOOP('',(#679));
#679 = ORIENTED_EDGE('',*,*,#680,.T.);
#680 = EDGE_CURVE('',#681,#681,#683,.T.);
#681 = VERTEX_POINT('',#682);
#682 = CARTESIAN_POINT('',(23.392640687119,-13.25735931288,118.4));
#683 = CIRCLE('',#684,0.85);
#684 = AXIS2_PLACEMENT_3D('',#685,#686,#687);
#685 = CARTESIAN_POINT('',(24.242640687119,-13.25735931288,118.4));
#686 = DIRECTION('',(-2.2E-16,0.,-1.));
#687 = DIRECTION('',(-1.,0.,2.2E-16));
#688 = FACE_BOUND('',#689,.T.);
#689 = EDGE_LOOP('',(#690));
#690 = ORIENTED_EDGE('',*,*,#691,.T.);
#691 = EDGE_CURVE('',#692,#692,#694,.T.);
#692 = VERTEX_POINT('',#693);
#693 = CARTESIAN_POINT('',(14.907359312881,-13.25735931288,118.4));
#694 = CIRCLE('',#695,0.85);
#695 = AXIS2_PLACEMENT_3D('',#696,#697,#698);
#696 = CARTESIAN_POINT('',(15.757359312881,-13.25735931288,118.4));
#697 = DIRECTION('',(-2.2E-16,0.,-1.));
#698 = DIRECTION('',(-1.,0.,2.2E-16));
#699 = FACE_BOUND('',#700,.T.);
#700 = EDGE_LOOP('',(#701));
#701 = ORIENTED_EDGE('',*,*,#702,.T.);
#702 = EDGE_CURVE('',#703,#703,#705,.T.);
#703 = VERTEX_POINT('',#704);
#704 = CARTESIAN_POINT('',(16.,-17.5,118.4));
#705 = CIRCLE('',#706,4.);
#706 = AXIS2_PLACEMENT_3D('',#707,#708,#709);
#707 = CARTESIAN_POINT('',(20.,-17.5,118.4));
#708 = DIRECTION('',(-2.2E-16,0.,-1.));
#709 = DIRECTION('',(-1.,0.,2.2E-16));
#710 = FACE_BOUND('',#711,.T.);
#711 = EDGE_LOOP('',(#712));
#712 = ORIENTED_EDGE('',*,*,#713,.T.);
#713 = EDGE_CURVE('',#714,#714,#716,.T.);
#714 = VERTEX_POINT('',#715);
#715 = CARTESIAN_POINT('',(23.392640687119,-21.74264068711,118.4));
#716 = CIRCLE('',#717,0.85);
#717 = AXIS2_PLACEMENT_3D('',#718,#719,#720);
#718 = CARTESIAN_POINT('',(24.242640687119,-21.74264068711,118.4));
#719 = DIRECTION('',(-2.2E-16,0.,-1.));
#720 = DIRECTION('',(-1.,0.,2.2E-16));
#721 = FACE_BOUND('',#722,.T.);
#722 = EDGE_LOOP('',(#723));
#723 = ORIENTED_EDGE('',*,*,#724,.T.);
#724 = EDGE_CURVE('',#725,#725,#727,.T.);
#725 = VERTEX_POINT('',#726);
#726 = CARTESIAN_POINT('',(14.907359312881,-21.74264068711,118.4));
#727 = CIRCLE('',#728,0.85);
#728 = AXIS2_PLACEMENT_3D('',#729,#730,#731);
#729 = CARTESIAN_POINT('',(15.757359312881,-21.74264068711,118.4));
#730 = DIRECTION('',(-2.2E-16,0.,-1.));
#731 = DIRECTION('',(-1.,0.,2.2E-16));
#732 = PLANE('',#733);
#733 = AXIS2_PLACEMENT_3D('',#734,#735,#736);
#734 = CARTESIAN_POINT('',(20.,-17.5,118.4));
#735 = DIRECTION('',(-2.2E-16,0.,-1.));
#736 = DIRECTION('',(1.,-0.,-2.2E-16));
#737 = ADVANCED_FACE('',(#738),#757,.F.);
#738 = FACE_BOUND('',#739,.F.);
#739 = EDGE_LOOP('',(#740,#741,#749,#756));
#740 = ORIENTED_EDGE('',*,*,#680,.T.);
#741 = ORIENTED_EDGE('',*,*,#742,.T.);
#742 = EDGE_CURVE('',#681,#743,#745,.T.);
#743 = VERTEX_POINT('',#744);
#744 = CARTESIAN_POINT('',(23.392640687119,-13.25735931288,115.));
#745 = LINE('',#746,#747);
#746 = CARTESIAN_POINT('',(23.392640687119,-13.25735931288,119.));
#747 = VECTOR('',#748,1.);
#748 = DIRECTION('',(-2.2E-16,0.,-1.));
#749 = ORIENTED_EDGE('',*,*,#750,.T.);
#750 = EDGE_CURVE('',#743,#743,#751,.T.);
#751 = CIRCLE('',#752,0.85);
#752 = AXIS2_PLACEMENT_3D('',#753,#754,#755);
#753 = CARTESIAN_POINT('',(24.242640687119,-13.25735931288,115.));
#754 = DIRECTION('',(2.2E-16,0.,1.));
#755 = DIRECTION('',(-1.,0.,2.2E-16));
#756 = ORIENTED_EDGE('',*,*,#742,.F.);
#757 = CYLINDRICAL_SURFACE('',#758,0.85);
#758 = AXIS2_PLACEMENT_3D('',#759,#760,#761);
#759 = CARTESIAN_POINT('',(24.242640687119,-13.25735931288,119.));
#760 = DIRECTION('',(2.2E-16,0.,1.));
#761 = DIRECTION('',(-1.,0.,2.2E-16));
#762 = ADVANCED_FACE('',(#763),#782,.F.);
#763 = FACE_BOUND('',#764,.F.);
#764 = EDGE_LOOP('',(#765,#766,#774,#781));
#765 = ORIENTED_EDGE('',*,*,#691,.T.);
#766 = ORIENTED_EDGE('',*,*,#767,.T.);
#767 = EDGE_CURVE('',#692,#768,#770,.T.);
#768 = VERTEX_POINT('',#769);
#769 = CARTESIAN_POINT('',(14.907359312881,-13.25735931288,115.));
#770 = LINE('',#771,#772);
#771 = CARTESIAN_POINT('',(14.907359312881,-13.25735931288,119.));
#772 = VECTOR('',#773,1.);
#773 = DIRECTION('',(-2.2E-16,0.,-1.));
#774 = ORIENTED_EDGE('',*,*,#775,.T.);
#775 = EDGE_CURVE('',#768,#768,#776,.T.);
#776 = CIRCLE('',#777,0.85);
#777 = AXIS2_PLACEMENT_3D('',#778,#779,#780);
#778 = CARTESIAN_POINT('',(15.757359312881,-13.25735931288,115.));
#779 = DIRECTION('',(2.2E-16,0.,1.));
#780 = DIRECTION('',(-1.,0.,2.2E-16));
#781 = ORIENTED_EDGE('',*,*,#767,.F.);
#782 = CYLINDRICAL_SURFACE('',#783,0.85);
#783 = AXIS2_PLACEMENT_3D('',#784,#785,#786);
#784 = CARTESIAN_POINT('',(15.757359312881,-13.25735931288,119.));
#785 = DIRECTION('',(2.2E-16,0.,1.));
#786 = DIRECTION('',(-1.,0.,2.2E-16));
#787 = ADVANCED_FACE('',(#788),#807,.F.);
#788 = FACE_BOUND('',#789,.F.);
#789 = EDGE_LOOP('',(#790,#791,#799,#806));
#790 = ORIENTED_EDGE('',*,*,#702,.T.);
#791 = ORIENTED_EDGE('',*,*,#792,.T.);
#792 = EDGE_CURVE('',#703,#793,#795,.T.);
#793 = VERTEX_POINT('',#794);
#794 = CARTESIAN_POINT('',(16.,-17.5,115.));
#795 = LINE('',#796,#797);
#796 = CARTESIAN_POINT('',(16.,-17.5,119.));
#797 = VECTOR('',#798,1.);
#798 = DIRECTION('',(-2.2E-16,0.,-1.));
#799 = ORIENTED_EDGE('',*,*,#800,.T.);
#800 = EDGE_CURVE('',#793,#793,#801,.T.);
#801 = CIRCLE('',#802,4.);
#802 = AXIS2_PLACEMENT_3D('',#803,#804,#805);
#803 = CARTESIAN_POINT('',(20.,-17.5,115.));
#804 = DIRECTION('',(2.2E-16,0.,1.));
#805 = DIRECTION('',(-1.,0.,2.2E-16));
#806 = ORIENTED_EDGE('',*,*,#792,.F.);
#807 = CYLINDRICAL_SURFACE('',#808,4.);
#808 = AXIS2_PLACEMENT_3D('',#809,#810,#811);
#809 = CARTESIAN_POINT('',(20.,-17.5,119.));
#810 = DIRECTION('',(2.2E-16,0.,1.));
#811 = DIRECTION('',(-1.,0.,2.2E-16));
#812 = ADVANCED_FACE('',(#813),#832,.F.);
#813 = FACE_BOUND('',#814,.F.);
#814 = EDGE_LOOP('',(#815,#816,#824,#831));
#815 = ORIENTED_EDGE('',*,*,#713,.T.);
#816 = ORIENTED_EDGE('',*,*,#817,.T.);
#817 = EDGE_CURVE('',#714,#818,#820,.T.);
#818 = VERTEX_POINT('',#819);
#819 = CARTESIAN_POINT('',(23.392640687119,-21.74264068711,115.));
#820 = LINE('',#821,#822);
#821 = CARTESIAN_POINT('',(23.392640687119,-21.74264068711,119.));
#822 = VECTOR('',#823,1.);
#823 = DIRECTION('',(-2.2E-16,0.,-1.));
#824 = ORIENTED_EDGE('',*,*,#825,.T.);
#825 = EDGE_CURVE('',#818,#818,#826,.T.);
#826 = CIRCLE('',#827,0.85);
#827 = AXIS2_PLACEMENT_3D('',#828,#829,#830);
#828 = CARTESIAN_POINT('',(24.242640687119,-21.74264068711,115.));
#829 = DIRECTION('',(2.2E-16,0.,1.));
#830 = DIRECTION('',(-1.,0.,2.2E-16));
#831 = ORIENTED_EDGE('',*,*,#817,.F.);
#832 = CYLINDRICAL_SURFACE('',#833,0.85);
#833 = AXIS2_PLACEMENT_3D('',#834,#835,#836);
#834 = CARTESIAN_POINT('',(24.242640687119,-21.74264068711,119.));
#835 = DIRECTION('',(2.2E-16,0.,1.));
#836 = DIRECTION('',(-1.,0.,2.2E-16));
#837 = ADVANCED_FACE('',(#838),#857,.F.);
#838 = FACE_BOUND('',#839,.F.);
#839 = EDGE_LOOP('',(#840,#841,#849,#856));
#840 = ORIENTED_EDGE('',*,*,#724,.T.);
#841 = ORIENTED_EDGE('',*,*,#842,.T.);
#842 = EDGE_CURVE('',#725,#843,#845,.T.);
#843 = VERTEX_POINT('',#844);
#844 = CARTESIAN_POINT('',(14.907359312881,-21.74264068711,115.));
#845 = LINE('',#846,#847);
#846 = CARTESIAN_POINT('',(14.907359312881,-21.74264068711,119.));
#847 = VECTOR('',#848,1.);
#848 = DIRECTION('',(-2.2E-16,0.,-1.));
#849 = ORIENTED_EDGE('',*,*,#850,.T.);
#850 = EDGE_CURVE('',#843,#843,#851,.T.);
#851 = CIRCLE('',#852,0.85);
#852 = AXIS2_PLACEMENT_3D('',#853,#854,#855);
#853 = CARTESIAN_POINT('',(15.757359312881,-21.74264068711,115.));
#854 = DIRECTION('',(2.2E-16,0.,1.));
#855 = DIRECTION('',(-1.,0.,2.2E-16));
#856 = ORIENTED_EDGE('',*,*,#842,.F.);
#857 = CYLINDRICAL_SURFACE('',#858,0.85);
#858 = AXIS2_PLACEMENT_3D('',#859,#860,#861);
#859 = CARTESIAN_POINT('',(15.757359312881,-21.74264068711,119.));
#860 = DIRECTION('',(2.2E-16,0.,1.));
#861 = DIRECTION('',(-1.,0.,2.2E-16));
#862 = ADVANCED_FACE('',(#863),#866,.F.);
#863 = FACE_BOUND('',#864,.F.);
#864 = EDGE_LOOP('',(#865));
#865 = ORIENTED_EDGE('',*,*,#750,.F.);
#866 = PLANE('',#867);
#867 = AXIS2_PLACEMENT_3D('',#868,#869,#870);
#868 = CARTESIAN_POINT('',(24.242640687119,-13.25735931288,115.));
#869 = DIRECTION('',(-2.2E-16,0.,-1.));
#870 = DIRECTION('',(1.,-0.,-2.2E-16));
#871 = ADVANCED_FACE('',(#872),#875,.F.);
#872 = FACE_BOUND('',#873,.F.);
#873 = EDGE_LOOP('',(#874));
#874 = ORIENTED_EDGE('',*,*,#775,.F.);
#875 = PLANE('',#876);
#876 = AXIS2_PLACEMENT_3D('',#877,#878,#879);
#877 = CARTESIAN_POINT('',(15.757359312881,-13.25735931288,115.));
#878 = DIRECTION('',(-2.2E-16,0.,-1.));
#879 = DIRECTION('',(1.,-0.,-2.2E-16));
#880 = ADVANCED_FACE('',(#881),#884,.F.);
#881 = FACE_BOUND('',#882,.F.);
#882 = EDGE_LOOP('',(#883));
#883 = ORIENTED_EDGE('',*,*,#800,.F.);
#884 = PLANE('',#885);
#885 = AXIS2_PLACEMENT_3D('',#886,#887,#888);
#886 = CARTESIAN_POINT('',(20.,-17.5,115.));
#887 = DIRECTION('',(-2.2E-16,0.,-1.));
#888 = DIRECTION('',(1.,-0.,-2.2E-16));
#889 = ADVANCED_FACE('',(#890),#893,.F.);
#890 = FACE_BOUND('',#891,.F.);
#891 = EDGE_LOOP('',(#892));
#892 = ORIENTED_EDGE('',*,*,#825,.F.);
#893 = PLANE('',#894);
#894 = AXIS2_PLACEMENT_3D('',#895,#896,#897);
#895 = CARTESIAN_POINT('',(24.242640687119,-21.74264068711,115.));
#896 = DIRECTION('',(-2.2E-16,0.,-1.));
#897 = DIRECTION('',(1.,-0.,-2.2E-16));
#898 = ADVANCED_FACE('',(#899),#902,.F.);
#899 = FACE_BOUND('',#900,.F.);
#900 = EDGE_LOOP('',(#901));
#901 = ORIENTED_EDGE('',*,*,#850,.F.);
#902 = PLANE('',#903);
#903 = AXIS2_PLACEMENT_3D('',#904,#905,#906);
#904 = CARTESIAN_POINT('',(15.757359312881,-21.74264068711,115.));
#905 = DIRECTION('',(-2.2E-16,0.,-1.));
#906 = DIRECTION('',(1.,-0.,-2.2E-16));
#907 = ( GEOMETRIC_REPRESENTATION_CONTEXT(3) 
GLOBAL_UNCERTAINTY_ASSIGNED_CONTEXT((#911)) GLOBAL_UNIT_ASSIGNED_CONTEXT
((#908,#909,#910)) REPRESENTATION_CONTEXT('Context #1',
  '3D Context with UNIT and UNCERTAINTY') );
#908 = ( LENGTH_UNIT() NAMED_UNIT(*) SI_UNIT(.MILLI.,.METRE.) );
#909 = ( NAMED_UNIT(*) PLANE_ANGLE_UNIT() SI_UNIT($,.RADIAN.) );
#910 = ( NAMED_UNIT(*) SI_UNIT($,.STERADIAN.) SOLID_ANGLE_UNIT() );
#911 = UNCERTAINTY_MEASURE_WITH_UNIT(LENGTH_MEASURE(1.E-05),#908,
  'distance_accuracy_value','confusion accuracy');
#912 = PRODUCT_RELATED_PRODUCT_CATEGORY('part',$,(#7));
ENDSEC;
END-ISO-10303-21;
