ISO-10303-21;
HEADER;
FILE_DESCRIPTION(('FreeCAD Model'),'2;1');
FILE_NAME('Open CASCADE Shape Model','2026-10-09T09:09:12',('FreeCAD'),(
    'FreeCAD'),'Open CASCADE STEP processor 7.8','FreeCAD','Unknown');
FILE_SCHEMA(('AUTOMOTIVE_DESIGN { 1 0 10303 214 1 1 1 1 }'));
ENDSEC;
DATA;
#1 = APPLICATION_PROTOCOL_DEFINITION('international standard',
  'automotive_design',2000,#2);
#2 = APPLICATION_CONTEXT(
  'core data for automotive mechanical design processes');
#3 = SHAPE_DEFINITION_REPRESENTATION(#4,#10);
#4 = PRODUCT_DEFINITION_SHAPE('','',#5);
#5 = PRODUCT_DEFINITION('design','',#6,#9);
#6 = PRODUCT_DEFINITION_FORMATION('','',#7);
#7 = PRODUCT('Open CASCADE STEP translator 7.8 14',
  'Open CASCADE STEP translator 7.8 14','',(#8));
#8 = PRODUCT_CONTEXT('',#2,'mechanical');
#9 = PRODUCT_DEFINITION_CONTEXT('part definition',#2,'design');
#10 = ADVANCED_BREP_SHAPE_REPRESENTATION('',(#11,#15),#1133);
#11 = AXIS2_PLACEMENT_3D('',#12,#13,#14);
#12 = CARTESIAN_POINT('',(0.,0.,0.));
#13 = DIRECTION('',(0.,0.,1.));
#14 = DIRECTION('',(1.,0.,-0.));
#15 = MANIFOLD_SOLID_BREP('',#16);
#16 = CLOSED_SHELL('',(#17,#57,#90,#225,#328,#353,#377,#415,#453,#505,
    #530,#554,#579,#603,#628,#652,#677,#701,#726,#750,#775,#820,#844,
    #869,#894,#911,#936,#953,#970,#995,#1013,#1031,#1067,#1091,#1115,
    #1124));
#17 = ADVANCED_FACE('',(#18),#52,.F.);
#18 = FACE_BOUND('',#19,.T.);
#19 = EDGE_LOOP('',(#20,#30,#38,#46));
#20 = ORIENTED_EDGE('',*,*,#21,.T.);
#21 = EDGE_CURVE('',#22,#24,#26,.T.);
#22 = VERTEX_POINT('',#23);
#23 = CARTESIAN_POINT('',(-38.75,-24.,5.));
#24 = VERTEX_POINT('',#25);
#25 = CARTESIAN_POINT('',(-38.75,-24.,13.));
#26 = LINE('',#27,#28);
#27 = CARTESIAN_POINT('',(-38.75,-24.,0.));
#28 = VECTOR('',#29,1.);
#29 = DIRECTION('',(0.,0.,1.));
#30 = ORIENTED_EDGE('',*,*,#31,.T.);
#31 = EDGE_CURVE('',#24,#32,#34,.T.);
#32 = VERTEX_POINT('',#33);
#33 = CARTESIAN_POINT('',(3.25,-24.,13.));
#34 = LINE('',#35,#36);
#35 = CARTESIAN_POINT('',(-38.75,-24.,13.));
#36 = VECTOR('',#37,1.);
#37 = DIRECTION('',(1.,0.,0.));
#38 = ORIENTED_EDGE('',*,*,#39,.F.);
#39 = EDGE_CURVE('',#40,#32,#42,.T.);
#40 = VERTEX_POINT('',#41);
#41 = CARTESIAN_POINT('',(3.25,-24.,5.));
#42 = LINE('',#43,#44);
#43 = CARTESIAN_POINT('',(3.25,-24.,0.));
#44 = VECTOR('',#45,1.);
#45 = DIRECTION('',(0.,0.,1.));
#46 = ORIENTED_EDGE('',*,*,#47,.F.);
#47 = EDGE_CURVE('',#22,#40,#48,.T.);
#48 = LINE('',#49,#50);
#49 = CARTESIAN_POINT('',(-38.75,-24.,5.));
#50 = VECTOR('',#51,1.);
#51 = DIRECTION('',(1.,0.,0.));
#52 = PLANE('',#53);
#53 = AXIS2_PLACEMENT_3D('',#54,#55,#56);
#54 = CARTESIAN_POINT('',(-38.75,-24.,0.));
#55 = DIRECTION('',(-0.,-1.,-0.));
#56 = DIRECTION('',(-1.,0.,0.));
#57 = ADVANCED_FACE('',(#58),#85,.T.);
#58 = FACE_BOUND('',#59,.T.);
#59 = EDGE_LOOP('',(#60,#70,#77,#78));
#60 = ORIENTED_EDGE('',*,*,#61,.T.);
#61 = EDGE_CURVE('',#62,#64,#66,.T.);
#62 = VERTEX_POINT('',#63);
#63 = CARTESIAN_POINT('',(-44.75,-30.,5.));
#64 = VERTEX_POINT('',#65);
#65 = CARTESIAN_POINT('',(-44.75,-30.,13.));
#66 = LINE('',#67,#68);
#67 = CARTESIAN_POINT('',(-44.75,-30.,0.));
#68 = VECTOR('',#69,1.);
#69 = DIRECTION('',(0.,0.,1.));
#70 = ORIENTED_EDGE('',*,*,#71,.T.);
#71 = EDGE_CURVE('',#64,#24,#72,.T.);
#72 = CIRCLE('',#73,6.);
#73 = AXIS2_PLACEMENT_3D('',#74,#75,#76);
#74 = CARTESIAN_POINT('',(-38.75,-30.,13.));
#75 = DIRECTION('',(0.,0.,-1.));
#76 = DIRECTION('',(-1.,5.9E-16,0.));
#77 = ORIENTED_EDGE('',*,*,#21,.F.);
#78 = ORIENTED_EDGE('',*,*,#79,.F.);
#79 = EDGE_CURVE('',#62,#22,#80,.T.);
#80 = CIRCLE('',#81,6.);
#81 = AXIS2_PLACEMENT_3D('',#82,#83,#84);
#82 = CARTESIAN_POINT('',(-38.75,-30.,5.));
#83 = DIRECTION('',(0.,0.,-1.));
#84 = DIRECTION('',(-1.,5.9E-16,0.));
#85 = CYLINDRICAL_SURFACE('',#86,6.);
#86 = AXIS2_PLACEMENT_3D('',#87,#88,#89);
#87 = CARTESIAN_POINT('',(-38.75,-30.,0.));
#88 = DIRECTION('',(0.,0.,-1.));
#89 = DIRECTION('',(-1.,5.9E-16,0.));
#90 = ADVANCED_FACE('',(#91),#220,.T.);
#91 = FACE_BOUND('',#92,.F.);
#92 = EDGE_LOOP('',(#93,#94,#103,#111,#120,#128,#137,#145,#154,#162,#171
    ,#179,#188,#196,#205,#213));
#93 = ORIENTED_EDGE('',*,*,#47,.F.);
#94 = ORIENTED_EDGE('',*,*,#95,.T.);
#95 = EDGE_CURVE('',#22,#96,#98,.T.);
#96 = VERTEX_POINT('',#97);
#97 = CARTESIAN_POINT('',(-38.75,-29.,-1.E-15));
#98 = CIRCLE('',#99,5.);
#99 = AXIS2_PLACEMENT_3D('',#100,#101,#102);
#100 = CARTESIAN_POINT('',(-38.75,-29.,5.));
#101 = DIRECTION('',(-1.,0.,0.));
#102 = DIRECTION('',(0.,1.,0.));
#103 = ORIENTED_EDGE('',*,*,#104,.T.);
#104 = EDGE_CURVE('',#96,#105,#107,.T.);
#105 = VERTEX_POINT('',#106);
#106 = CARTESIAN_POINT('',(-33.,-29.,-1.E-15));
#107 = LINE('',#108,#109);
#108 = CARTESIAN_POINT('',(-38.75,-29.,-8.9E-16));
#109 = VECTOR('',#110,1.);
#110 = DIRECTION('',(1.,0.,0.));
#111 = ORIENTED_EDGE('',*,*,#112,.F.);
#112 = EDGE_CURVE('',#113,#105,#115,.T.);
#113 = VERTEX_POINT('',#114);
#114 = CARTESIAN_POINT('',(-33.,-25.75038463814,1.2));
#115 = CIRCLE('',#116,5.);
#116 = AXIS2_PLACEMENT_3D('',#117,#118,#119);
#117 = CARTESIAN_POINT('',(-33.,-29.,5.));
#118 = DIRECTION('',(-1.,0.,0.));
#119 = DIRECTION('',(0.,1.,0.));
#120 = ORIENTED_EDGE('',*,*,#121,.T.);
#121 = EDGE_CURVE('',#113,#122,#124,.T.);
#122 = VERTEX_POINT('',#123);
#123 = CARTESIAN_POINT('',(-31.,-25.75038463814,1.2));
#124 = LINE('',#125,#126);
#125 = CARTESIAN_POINT('',(-38.75,-25.75038463814,1.2));
#126 = VECTOR('',#127,1.);
#127 = DIRECTION('',(1.,0.,0.));
#128 = ORIENTED_EDGE('',*,*,#129,.T.);
#129 = EDGE_CURVE('',#122,#130,#132,.T.);
#130 = VERTEX_POINT('',#131);
#131 = CARTESIAN_POINT('',(-31.,-29.,-1.E-15));
#132 = CIRCLE('',#133,5.);
#133 = AXIS2_PLACEMENT_3D('',#134,#135,#136);
#134 = CARTESIAN_POINT('',(-31.,-29.,5.));
#135 = DIRECTION('',(-1.,0.,0.));
#136 = DIRECTION('',(0.,1.,0.));
#137 = ORIENTED_EDGE('',*,*,#138,.T.);
#138 = EDGE_CURVE('',#130,#139,#141,.T.);
#139 = VERTEX_POINT('',#140);
#140 = CARTESIAN_POINT('',(-20.,-29.,-1.E-15));
#141 = LINE('',#142,#143);
#142 = CARTESIAN_POINT('',(-38.75,-29.,-8.9E-16));
#143 = VECTOR('',#144,1.);
#144 = DIRECTION('',(1.,0.,0.));
#145 = ORIENTED_EDGE('',*,*,#146,.F.);
#146 = EDGE_CURVE('',#147,#139,#149,.T.);
#147 = VERTEX_POINT('',#148);
#148 = CARTESIAN_POINT('',(-20.,-25.75038463814,1.2));
#149 = CIRCLE('',#150,5.);
#150 = AXIS2_PLACEMENT_3D('',#151,#152,#153);
#151 = CARTESIAN_POINT('',(-20.,-29.,5.));
#152 = DIRECTION('',(-1.,0.,0.));
#153 = DIRECTION('',(0.,1.,0.));
#154 = ORIENTED_EDGE('',*,*,#155,.T.);
#155 = EDGE_CURVE('',#147,#156,#158,.T.);
#156 = VERTEX_POINT('',#157);
#157 = CARTESIAN_POINT('',(-18.,-25.75038463814,1.2));
#158 = LINE('',#159,#160);
#159 = CARTESIAN_POINT('',(-38.75,-25.75038463814,1.2));
#160 = VECTOR('',#161,1.);
#161 = DIRECTION('',(1.,0.,0.));
#162 = ORIENTED_EDGE('',*,*,#163,.T.);
#163 = EDGE_CURVE('',#156,#164,#166,.T.);
#164 = VERTEX_POINT('',#165);
#165 = CARTESIAN_POINT('',(-18.,-29.,-1.E-15));
#166 = CIRCLE('',#167,5.);
#167 = AXIS2_PLACEMENT_3D('',#168,#169,#170);
#168 = CARTESIAN_POINT('',(-18.,-29.,5.));
#169 = DIRECTION('',(-1.,0.,0.));
#170 = DIRECTION('',(0.,1.,0.));
#171 = ORIENTED_EDGE('',*,*,#172,.T.);
#172 = EDGE_CURVE('',#164,#173,#175,.T.);
#173 = VERTEX_POINT('',#174);
#174 = CARTESIAN_POINT('',(-7.,-29.,-1.E-15));
#175 = LINE('',#176,#177);
#176 = CARTESIAN_POINT('',(-38.75,-29.,-8.9E-16));
#177 = VECTOR('',#178,1.);
#178 = DIRECTION('',(1.,0.,0.));
#179 = ORIENTED_EDGE('',*,*,#180,.F.);
#180 = EDGE_CURVE('',#181,#173,#183,.T.);
#181 = VERTEX_POINT('',#182);
#182 = CARTESIAN_POINT('',(-7.,-25.75038463814,1.2));
#183 = CIRCLE('',#184,5.);
#184 = AXIS2_PLACEMENT_3D('',#185,#186,#187);
#185 = CARTESIAN_POINT('',(-7.,-29.,5.));
#186 = DIRECTION('',(-1.,0.,0.));
#187 = DIRECTION('',(0.,1.,0.));
#188 = ORIENTED_EDGE('',*,*,#189,.T.);
#189 = EDGE_CURVE('',#181,#190,#192,.T.);
#190 = VERTEX_POINT('',#191);
#191 = CARTESIAN_POINT('',(-5.,-25.75038463814,1.2));
#192 = LINE('',#193,#194);
#193 = CARTESIAN_POINT('',(-38.75,-25.75038463814,1.2));
#194 = VECTOR('',#195,1.);
#195 = DIRECTION('',(1.,0.,0.));
#196 = ORIENTED_EDGE('',*,*,#197,.T.);
#197 = EDGE_CURVE('',#190,#198,#200,.T.);
#198 = VERTEX_POINT('',#199);
#199 = CARTESIAN_POINT('',(-5.,-29.,-1.E-15));
#200 = CIRCLE('',#201,5.);
#201 = AXIS2_PLACEMENT_3D('',#202,#203,#204);
#202 = CARTESIAN_POINT('',(-5.,-29.,5.));
#203 = DIRECTION('',(-1.,0.,0.));
#204 = DIRECTION('',(0.,1.,0.));
#205 = ORIENTED_EDGE('',*,*,#206,.T.);
#206 = EDGE_CURVE('',#198,#207,#209,.T.);
#207 = VERTEX_POINT('',#208);
#208 = CARTESIAN_POINT('',(3.25,-29.,-1.E-15));
#209 = LINE('',#210,#211);
#210 = CARTESIAN_POINT('',(-38.75,-29.,-8.9E-16));
#211 = VECTOR('',#212,1.);
#212 = DIRECTION('',(1.,0.,0.));
#213 = ORIENTED_EDGE('',*,*,#214,.F.);
#214 = EDGE_CURVE('',#40,#207,#215,.T.);
#215 = CIRCLE('',#216,5.);
#216 = AXIS2_PLACEMENT_3D('',#217,#218,#219);
#217 = CARTESIAN_POINT('',(3.25,-29.,5.));
#218 = DIRECTION('',(-1.,0.,0.));
#219 = DIRECTION('',(0.,1.,0.));
#220 = CYLINDRICAL_SURFACE('',#221,5.);
#221 = AXIS2_PLACEMENT_3D('',#222,#223,#224);
#222 = CARTESIAN_POINT('',(-38.75,-29.,5.));
#223 = DIRECTION('',(1.,0.,0.));
#224 = DIRECTION('',(0.,1.,0.));
#225 = ADVANCED_FACE('',(#226,#279,#290,#301,#312),#323,.T.);
#226 = FACE_BOUND('',#227,.F.);
#227 = EDGE_LOOP('',(#228,#229,#238,#246,#255,#263,#272,#278));
#228 = ORIENTED_EDGE('',*,*,#31,.T.);
#229 = ORIENTED_EDGE('',*,*,#230,.T.);
#230 = EDGE_CURVE('',#32,#231,#233,.T.);
#231 = VERTEX_POINT('',#232);
#232 = CARTESIAN_POINT('',(9.25,-30.,13.));
#233 = CIRCLE('',#234,6.);
#234 = AXIS2_PLACEMENT_3D('',#235,#236,#237);
#235 = CARTESIAN_POINT('',(3.25,-30.,13.));
#236 = DIRECTION('',(0.,0.,-1.));
#237 = DIRECTION('',(7.4E-16,1.,0.));
#238 = ORIENTED_EDGE('',*,*,#239,.T.);
#239 = EDGE_CURVE('',#231,#240,#242,.T.);
#240 = VERTEX_POINT('',#241);
#241 = CARTESIAN_POINT('',(9.25,-62.,13.));
#242 = LINE('',#243,#244);
#243 = CARTESIAN_POINT('',(9.25,-30.,13.));
#244 = VECTOR('',#245,1.);
#245 = DIRECTION('',(-0.,-1.,-0.));
#246 = ORIENTED_EDGE('',*,*,#247,.T.);
#247 = EDGE_CURVE('',#240,#248,#250,.T.);
#248 = VERTEX_POINT('',#249);
#249 = CARTESIAN_POINT('',(3.25,-68.,13.));
#250 = CIRCLE('',#251,6.);
#251 = AXIS2_PLACEMENT_3D('',#252,#253,#254);
#252 = CARTESIAN_POINT('',(3.25,-62.,13.));
#253 = DIRECTION('',(0.,0.,-1.));
#254 = DIRECTION('',(1.,2.37E-15,0.));
#255 = ORIENTED_EDGE('',*,*,#256,.T.);
#256 = EDGE_CURVE('',#248,#257,#259,.T.);
#257 = VERTEX_POINT('',#258);
#258 = CARTESIAN_POINT('',(-38.75,-68.,13.));
#259 = LINE('',#260,#261);
#260 = CARTESIAN_POINT('',(3.25,-68.,13.));
#261 = VECTOR('',#262,1.);
#262 = DIRECTION('',(-1.,-0.,-0.));
#263 = ORIENTED_EDGE('',*,*,#264,.T.);
#264 = EDGE_CURVE('',#257,#265,#267,.T.);
#265 = VERTEX_POINT('',#266);
#266 = CARTESIAN_POINT('',(-44.75,-62.,13.));
#267 = CIRCLE('',#268,6.);
#268 = AXIS2_PLACEMENT_3D('',#269,#270,#271);
#269 = CARTESIAN_POINT('',(-38.75,-62.,13.));
#270 = DIRECTION('',(0.,0.,-1.));
#271 = DIRECTION('',(2.37E-15,-1.,0.));
#272 = ORIENTED_EDGE('',*,*,#273,.T.);
#273 = EDGE_CURVE('',#265,#64,#274,.T.);
#274 = LINE('',#275,#276);
#275 = CARTESIAN_POINT('',(-44.75,-62.,13.));
#276 = VECTOR('',#277,1.);
#277 = DIRECTION('',(0.,1.,0.));
#278 = ORIENTED_EDGE('',*,*,#71,.T.);
#279 = FACE_BOUND('',#280,.F.);
#280 = EDGE_LOOP('',(#281));
#281 = ORIENTED_EDGE('',*,*,#282,.T.);
#282 = EDGE_CURVE('',#283,#283,#285,.T.);
#283 = VERTEX_POINT('',#284);
#284 = CARTESIAN_POINT('',(3.85,-33.,13.));
#285 = CIRCLE('',#286,0.85);
#286 = AXIS2_PLACEMENT_3D('',#287,#288,#289);
#287 = CARTESIAN_POINT('',(3.,-33.,13.));
#288 = DIRECTION('',(0.,0.,1.));
#289 = DIRECTION('',(1.,0.,0.));
#290 = FACE_BOUND('',#291,.F.);
#291 = EDGE_LOOP('',(#292));
#292 = ORIENTED_EDGE('',*,*,#293,.T.);
#293 = EDGE_CURVE('',#294,#294,#296,.T.);
#294 = VERTEX_POINT('',#295);
#295 = CARTESIAN_POINT('',(-34.35,-46.,13.));
#296 = CIRCLE('',#297,1.65);
#297 = AXIS2_PLACEMENT_3D('',#298,#299,#300);
#298 = CARTESIAN_POINT('',(-36.,-46.,13.));
#299 = DIRECTION('',(0.,0.,1.));
#300 = DIRECTION('',(1.,0.,0.));
#301 = FACE_BOUND('',#302,.F.);
#302 = EDGE_LOOP('',(#303));
#303 = ORIENTED_EDGE('',*,*,#304,.T.);
#304 = EDGE_CURVE('',#305,#305,#307,.T.);
#305 = VERTEX_POINT('',#306);
#306 = CARTESIAN_POINT('',(2.65,-46.,13.));
#307 = CIRCLE('',#308,1.65);
#308 = AXIS2_PLACEMENT_3D('',#309,#310,#311);
#309 = CARTESIAN_POINT('',(1.,-46.,13.));
#310 = DIRECTION('',(0.,0.,1.));
#311 = DIRECTION('',(1.,0.,0.));
#312 = FACE_BOUND('',#313,.F.);
#313 = EDGE_LOOP('',(#314));
#314 = ORIENTED_EDGE('',*,*,#315,.T.);
#315 = EDGE_CURVE('',#316,#316,#318,.T.);
#316 = VERTEX_POINT('',#317);
#317 = CARTESIAN_POINT('',(3.85,-59.,13.));
#318 = CIRCLE('',#319,0.85);
#319 = AXIS2_PLACEMENT_3D('',#320,#321,#322);
#320 = CARTESIAN_POINT('',(3.,-59.,13.));
#321 = DIRECTION('',(0.,0.,1.));
#322 = DIRECTION('',(1.,0.,0.));
#323 = PLANE('',#324);
#324 = AXIS2_PLACEMENT_3D('',#325,#326,#327);
#325 = CARTESIAN_POINT('',(-17.75,-46.,13.));
#326 = DIRECTION('',(0.,0.,1.));
#327 = DIRECTION('',(-1.,-0.,-0.));
#328 = ADVANCED_FACE('',(#329),#348,.T.);
#329 = FACE_BOUND('',#330,.T.);
#330 = EDGE_LOOP('',(#331,#332,#333,#341));
#331 = ORIENTED_EDGE('',*,*,#39,.T.);
#332 = ORIENTED_EDGE('',*,*,#230,.T.);
#333 = ORIENTED_EDGE('',*,*,#334,.F.);
#334 = EDGE_CURVE('',#335,#231,#337,.T.);
#335 = VERTEX_POINT('',#336);
#336 = CARTESIAN_POINT('',(9.25,-30.,5.));
#337 = LINE('',#338,#339);
#338 = CARTESIAN_POINT('',(9.25,-30.,0.));
#339 = VECTOR('',#340,1.);
#340 = DIRECTION('',(0.,0.,1.));
#341 = ORIENTED_EDGE('',*,*,#342,.F.);
#342 = EDGE_CURVE('',#40,#335,#343,.T.);
#343 = CIRCLE('',#344,6.);
#344 = AXIS2_PLACEMENT_3D('',#345,#346,#347);
#345 = CARTESIAN_POINT('',(3.25,-30.,5.));
#346 = DIRECTION('',(0.,0.,-1.));
#347 = DIRECTION('',(5.9E-16,1.,0.));
#348 = CYLINDRICAL_SURFACE('',#349,6.);
#349 = AXIS2_PLACEMENT_3D('',#350,#351,#352);
#350 = CARTESIAN_POINT('',(3.25,-30.,0.));
#351 = DIRECTION('',(0.,0.,-1.));
#352 = DIRECTION('',(7.4E-16,1.,0.));
#353 = ADVANCED_FACE('',(#354),#372,.F.);
#354 = FACE_BOUND('',#355,.T.);
#355 = EDGE_LOOP('',(#356,#364,#365,#366));
#356 = ORIENTED_EDGE('',*,*,#357,.T.);
#357 = EDGE_CURVE('',#358,#265,#360,.T.);
#358 = VERTEX_POINT('',#359);
#359 = CARTESIAN_POINT('',(-44.75,-62.,5.));
#360 = LINE('',#361,#362);
#361 = CARTESIAN_POINT('',(-44.75,-62.,0.));
#362 = VECTOR('',#363,1.);
#363 = DIRECTION('',(0.,0.,1.));
#364 = ORIENTED_EDGE('',*,*,#273,.T.);
#365 = ORIENTED_EDGE('',*,*,#61,.F.);
#366 = ORIENTED_EDGE('',*,*,#367,.F.);
#367 = EDGE_CURVE('',#358,#62,#368,.T.);
#368 = LINE('',#369,#370);
#369 = CARTESIAN_POINT('',(-44.75,-62.,5.));
#370 = VECTOR('',#371,1.);
#371 = DIRECTION('',(0.,1.,0.));
#372 = PLANE('',#373);
#373 = AXIS2_PLACEMENT_3D('',#374,#375,#376);
#374 = CARTESIAN_POINT('',(-44.75,-62.,0.));
#375 = DIRECTION('',(1.,0.,0.));
#376 = DIRECTION('',(-0.,-1.,-0.));
#377 = ADVANCED_FACE('',(#378),#398,.T.);
#378 = FACE_BOUND('',#379,.T.);
#379 = EDGE_LOOP('',(#380,#389,#390,#391));
#380 = ORIENTED_EDGE('',*,*,#381,.F.);
#381 = EDGE_CURVE('',#62,#382,#384,.T.);
#382 = VERTEX_POINT('',#383);
#383 = CARTESIAN_POINT('',(-39.75,-30.,-1.E-15));
#384 = CIRCLE('',#385,5.);
#385 = AXIS2_PLACEMENT_3D('',#386,#387,#388);
#386 = CARTESIAN_POINT('',(-39.75,-30.,5.));
#387 = DIRECTION('',(-0.,-1.,-0.));
#388 = DIRECTION('',(-1.,0.,0.));
#389 = ORIENTED_EDGE('',*,*,#79,.T.);
#390 = ORIENTED_EDGE('',*,*,#95,.T.);
#391 = ORIENTED_EDGE('',*,*,#392,.F.);
#392 = EDGE_CURVE('',#382,#96,#393,.T.);
#393 = CIRCLE('',#394,1.);
#394 = AXIS2_PLACEMENT_3D('',#395,#396,#397);
#395 = CARTESIAN_POINT('',(-38.75,-30.,0.));
#396 = DIRECTION('',(0.,0.,-1.));
#397 = DIRECTION('',(-1.,5.9E-16,0.));
#398 = SURFACE_OF_REVOLUTION('',#399,#412);
#399 = B_SPLINE_CURVE_WITH_KNOTS('',6,(#400,#401,#402,#403,#404,#405,
    #406,#407,#408,#409,#410,#411),.UNSPECIFIED.,.F.,.F.,(7,5,7),(0.,
    0.785398163397,1.570796326795),.UNSPECIFIED.);
#400 = CARTESIAN_POINT('',(-44.75,-30.,5.));
#401 = CARTESIAN_POINT('',(-44.75,-30.,4.345501530502));
#402 = CARTESIAN_POINT('',(-44.64719202409,-30.,3.691004154196));
#403 = CARTESIAN_POINT('',(-44.44157339395,-30.,3.056686671357));
#404 = CARTESIAN_POINT('',(-44.13843752812,-30.,2.462762150104));
#405 = CARTESIAN_POINT('',(-43.74833421199,-30.,1.927266400125));
#406 = CARTESIAN_POINT('',(-42.82273359987,-30.,1.001665788009));
#407 = CARTESIAN_POINT('',(-42.28723784989,-30.,0.611562471878));
#408 = CARTESIAN_POINT('',(-41.69331332864,-30.,0.30842660605));
#409 = CARTESIAN_POINT('',(-41.0589958458,-30.,0.102807975907));
#410 = CARTESIAN_POINT('',(-40.40449846949,-30.,-1.43522521894E-16));
#411 = CARTESIAN_POINT('',(-39.75,-30.,8.699863392092E-17));
#412 = AXIS1_PLACEMENT('',#413,#414);
#413 = CARTESIAN_POINT('',(-38.75,-30.,5.));
#414 = DIRECTION('',(0.,0.,-1.));
#415 = ADVANCED_FACE('',(#416),#436,.T.);
#416 = FACE_BOUND('',#417,.T.);
#417 = EDGE_LOOP('',(#418,#419,#420,#429));
#418 = ORIENTED_EDGE('',*,*,#214,.F.);
#419 = ORIENTED_EDGE('',*,*,#342,.T.);
#420 = ORIENTED_EDGE('',*,*,#421,.T.);
#421 = EDGE_CURVE('',#335,#422,#424,.T.);
#422 = VERTEX_POINT('',#423);
#423 = CARTESIAN_POINT('',(4.25,-30.,0.));
#424 = CIRCLE('',#425,5.);
#425 = AXIS2_PLACEMENT_3D('',#426,#427,#428);
#426 = CARTESIAN_POINT('',(4.25,-30.,5.));
#427 = DIRECTION('',(-8.E-16,1.,0.));
#428 = DIRECTION('',(1.,8.E-16,0.));
#429 = ORIENTED_EDGE('',*,*,#430,.F.);
#430 = EDGE_CURVE('',#207,#422,#431,.T.);
#431 = CIRCLE('',#432,1.);
#432 = AXIS2_PLACEMENT_3D('',#433,#434,#435);
#433 = CARTESIAN_POINT('',(3.25,-30.,0.));
#434 = DIRECTION('',(0.,0.,-1.));
#435 = DIRECTION('',(5.9E-16,1.,0.));
#436 = SURFACE_OF_REVOLUTION('',#437,#450);
#437 = B_SPLINE_CURVE_WITH_KNOTS('',6,(#438,#439,#440,#441,#442,#443,
    #444,#445,#446,#447,#448,#449),.UNSPECIFIED.,.F.,.F.,(7,5,7),(0.,
    0.785398163397,1.570796326795),.UNSPECIFIED.);
#438 = CARTESIAN_POINT('',(3.25,-24.,5.));
#439 = CARTESIAN_POINT('',(3.25,-24.,4.345501530502));
#440 = CARTESIAN_POINT('',(3.25,-24.1028079759,3.691004154196));
#441 = CARTESIAN_POINT('',(3.25,-24.30842660605,3.056686671357));
#442 = CARTESIAN_POINT('',(3.25,-24.61156247187,2.462762150104));
#443 = CARTESIAN_POINT('',(3.25,-25.001665788,1.927266400125));
#444 = CARTESIAN_POINT('',(3.25,-25.92726640012,1.001665788009));
#445 = CARTESIAN_POINT('',(3.25,-26.4627621501,0.611562471878));
#446 = CARTESIAN_POINT('',(3.25,-27.05668667135,0.30842660605));
#447 = CARTESIAN_POINT('',(3.25,-27.69100415419,0.102807975907));
#448 = CARTESIAN_POINT('',(3.25,-28.3455015305,-1.43522521894E-16));
#449 = CARTESIAN_POINT('',(3.25,-29.,8.699863392092E-17));
#450 = AXIS1_PLACEMENT('',#451,#452);
#451 = CARTESIAN_POINT('',(3.25,-30.,5.));
#452 = DIRECTION('',(0.,0.,-1.));
#453 = ADVANCED_FACE('',(#454,#489),#500,.F.);
#454 = FACE_BOUND('',#455,.T.);
#455 = EDGE_LOOP('',(#456,#464,#465,#466,#474,#483));
#456 = ORIENTED_EDGE('',*,*,#457,.F.);
#457 = EDGE_CURVE('',#198,#458,#460,.T.);
#458 = VERTEX_POINT('',#459);
#459 = CARTESIAN_POINT('',(-5.,-63.,-1.E-15));
#460 = LINE('',#461,#462);
#461 = CARTESIAN_POINT('',(-5.,-34.5,-3.6E-16));
#462 = VECTOR('',#463,1.);
#463 = DIRECTION('',(-0.,-1.,-0.));
#464 = ORIENTED_EDGE('',*,*,#206,.T.);
#465 = ORIENTED_EDGE('',*,*,#430,.T.);
#466 = ORIENTED_EDGE('',*,*,#467,.T.);
#467 = EDGE_CURVE('',#422,#468,#470,.T.);
#468 = VERTEX_POINT('',#469);
#469 = CARTESIAN_POINT('',(4.25,-62.,-1.E-15));
#470 = LINE('',#471,#472);
#471 = CARTESIAN_POINT('',(4.25,-30.,-8.9E-16));
#472 = VECTOR('',#473,1.);
#473 = DIRECTION('',(-0.,-1.,-0.));
#474 = ORIENTED_EDGE('',*,*,#475,.T.);
#475 = EDGE_CURVE('',#468,#476,#478,.T.);
#476 = VERTEX_POINT('',#477);
#477 = CARTESIAN_POINT('',(3.25,-63.,0.));
#478 = CIRCLE('',#479,1.);
#479 = AXIS2_PLACEMENT_3D('',#480,#481,#482);
#480 = CARTESIAN_POINT('',(3.25,-62.,0.));
#481 = DIRECTION('',(0.,0.,-1.));
#482 = DIRECTION('',(1.,2.37E-15,0.));
#483 = ORIENTED_EDGE('',*,*,#484,.T.);
#484 = EDGE_CURVE('',#476,#458,#485,.T.);
#485 = LINE('',#486,#487);
#486 = CARTESIAN_POINT('',(3.25,-63.,-8.9E-16));
#487 = VECTOR('',#488,1.);
#488 = DIRECTION('',(-1.,-0.,-0.));
#489 = FACE_BOUND('',#490,.T.);
#490 = EDGE_LOOP('',(#491));
#491 = ORIENTED_EDGE('',*,*,#492,.T.);
#492 = EDGE_CURVE('',#493,#493,#495,.T.);
#493 = VERTEX_POINT('',#494);
#494 = CARTESIAN_POINT('',(2.65,-46.,0.));
#495 = CIRCLE('',#496,1.65);
#496 = AXIS2_PLACEMENT_3D('',#497,#498,#499);
#497 = CARTESIAN_POINT('',(1.,-46.,-3.608224830032E-16));
#498 = DIRECTION('',(0.,0.,1.));
#499 = DIRECTION('',(1.,0.,0.));
#500 = PLANE('',#501);
#501 = AXIS2_PLACEMENT_3D('',#502,#503,#504);
#502 = CARTESIAN_POINT('',(-17.75,-46.,0.));
#503 = DIRECTION('',(0.,0.,1.));
#504 = DIRECTION('',(-1.,-0.,-0.));
#505 = ADVANCED_FACE('',(#506),#525,.F.);
#506 = FACE_BOUND('',#507,.T.);
#507 = EDGE_LOOP('',(#508,#516,#517,#518));
#508 = ORIENTED_EDGE('',*,*,#509,.F.);
#509 = EDGE_CURVE('',#190,#510,#512,.T.);
#510 = VERTEX_POINT('',#511);
#511 = CARTESIAN_POINT('',(-5.,-66.24961536185,1.2));
#512 = LINE('',#513,#514);
#513 = CARTESIAN_POINT('',(-5.,-23.,1.2));
#514 = VECTOR('',#515,1.);
#515 = DIRECTION('',(-0.,-1.,-0.));
#516 = ORIENTED_EDGE('',*,*,#197,.T.);
#517 = ORIENTED_EDGE('',*,*,#457,.T.);
#518 = ORIENTED_EDGE('',*,*,#519,.F.);
#519 = EDGE_CURVE('',#510,#458,#520,.T.);
#520 = CIRCLE('',#521,5.);
#521 = AXIS2_PLACEMENT_3D('',#522,#523,#524);
#522 = CARTESIAN_POINT('',(-5.,-63.,5.));
#523 = DIRECTION('',(1.,0.,0.));
#524 = DIRECTION('',(0.,-1.,0.));
#525 = PLANE('',#526);
#526 = AXIS2_PLACEMENT_3D('',#527,#528,#529);
#527 = CARTESIAN_POINT('',(-5.,-23.,-0.1));
#528 = DIRECTION('',(1.,0.,0.));
#529 = DIRECTION('',(0.,0.,-1.));
#530 = ADVANCED_FACE('',(#531),#549,.F.);
#531 = FACE_BOUND('',#532,.T.);
#532 = EDGE_LOOP('',(#533,#541,#542,#543));
#533 = ORIENTED_EDGE('',*,*,#534,.F.);
#534 = EDGE_CURVE('',#181,#535,#537,.T.);
#535 = VERTEX_POINT('',#536);
#536 = CARTESIAN_POINT('',(-7.,-66.24961536185,1.2));
#537 = LINE('',#538,#539);
#538 = CARTESIAN_POINT('',(-7.,-23.,1.2));
#539 = VECTOR('',#540,1.);
#540 = DIRECTION('',(-0.,-1.,-0.));
#541 = ORIENTED_EDGE('',*,*,#189,.T.);
#542 = ORIENTED_EDGE('',*,*,#509,.T.);
#543 = ORIENTED_EDGE('',*,*,#544,.T.);
#544 = EDGE_CURVE('',#510,#535,#545,.T.);
#545 = LINE('',#546,#547);
#546 = CARTESIAN_POINT('',(3.25,-66.24961536185,1.2));
#547 = VECTOR('',#548,1.);
#548 = DIRECTION('',(-1.,-0.,-0.));
#549 = PLANE('',#550);
#550 = AXIS2_PLACEMENT_3D('',#551,#552,#553);
#551 = CARTESIAN_POINT('',(-7.,-23.,1.2));
#552 = DIRECTION('',(0.,0.,1.));
#553 = DIRECTION('',(-1.,-0.,-0.));
#554 = ADVANCED_FACE('',(#555),#574,.T.);
#555 = FACE_BOUND('',#556,.F.);
#556 = EDGE_LOOP('',(#557,#558,#559,#567));
#557 = ORIENTED_EDGE('',*,*,#534,.F.);
#558 = ORIENTED_EDGE('',*,*,#180,.T.);
#559 = ORIENTED_EDGE('',*,*,#560,.T.);
#560 = EDGE_CURVE('',#173,#561,#563,.T.);
#561 = VERTEX_POINT('',#562);
#562 = CARTESIAN_POINT('',(-7.,-63.,-1.E-15));
#563 = LINE('',#564,#565);
#564 = CARTESIAN_POINT('',(-7.,-34.5,-3.6E-16));
#565 = VECTOR('',#566,1.);
#566 = DIRECTION('',(-0.,-1.,-0.));
#567 = ORIENTED_EDGE('',*,*,#568,.F.);
#568 = EDGE_CURVE('',#535,#561,#569,.T.);
#569 = CIRCLE('',#570,5.);
#570 = AXIS2_PLACEMENT_3D('',#571,#572,#573);
#571 = CARTESIAN_POINT('',(-7.,-63.,5.));
#572 = DIRECTION('',(1.,0.,0.));
#573 = DIRECTION('',(0.,-1.,0.));
#574 = PLANE('',#575);
#575 = AXIS2_PLACEMENT_3D('',#576,#577,#578);
#576 = CARTESIAN_POINT('',(-7.,-23.,-0.1));
#577 = DIRECTION('',(1.,0.,0.));
#578 = DIRECTION('',(0.,0.,-1.));
#579 = ADVANCED_FACE('',(#580),#598,.F.);
#580 = FACE_BOUND('',#581,.T.);
#581 = EDGE_LOOP('',(#582,#590,#591,#592));
#582 = ORIENTED_EDGE('',*,*,#583,.F.);
#583 = EDGE_CURVE('',#164,#584,#586,.T.);
#584 = VERTEX_POINT('',#585);
#585 = CARTESIAN_POINT('',(-18.,-63.,-1.E-15));
#586 = LINE('',#587,#588);
#587 = CARTESIAN_POINT('',(-18.,-34.5,-3.6E-16));
#588 = VECTOR('',#589,1.);
#589 = DIRECTION('',(-0.,-1.,-0.));
#590 = ORIENTED_EDGE('',*,*,#172,.T.);
#591 = ORIENTED_EDGE('',*,*,#560,.T.);
#592 = ORIENTED_EDGE('',*,*,#593,.T.);
#593 = EDGE_CURVE('',#561,#584,#594,.T.);
#594 = LINE('',#595,#596);
#595 = CARTESIAN_POINT('',(3.25,-63.,-8.9E-16));
#596 = VECTOR('',#597,1.);
#597 = DIRECTION('',(-1.,-0.,-0.));
#598 = PLANE('',#599);
#599 = AXIS2_PLACEMENT_3D('',#600,#601,#602);
#600 = CARTESIAN_POINT('',(-17.75,-46.,0.));
#601 = DIRECTION('',(0.,0.,1.));
#602 = DIRECTION('',(-1.,-0.,-0.));
#603 = ADVANCED_FACE('',(#604),#623,.F.);
#604 = FACE_BOUND('',#605,.T.);
#605 = EDGE_LOOP('',(#606,#614,#615,#616));
#606 = ORIENTED_EDGE('',*,*,#607,.F.);
#607 = EDGE_CURVE('',#156,#608,#610,.T.);
#608 = VERTEX_POINT('',#609);
#609 = CARTESIAN_POINT('',(-18.,-66.24961536185,1.2));
#610 = LINE('',#611,#612);
#611 = CARTESIAN_POINT('',(-18.,-23.,1.2));
#612 = VECTOR('',#613,1.);
#613 = DIRECTION('',(-0.,-1.,-0.));
#614 = ORIENTED_EDGE('',*,*,#163,.T.);
#615 = ORIENTED_EDGE('',*,*,#583,.T.);
#616 = ORIENTED_EDGE('',*,*,#617,.F.);
#617 = EDGE_CURVE('',#608,#584,#618,.T.);
#618 = CIRCLE('',#619,5.);
#619 = AXIS2_PLACEMENT_3D('',#620,#621,#622);
#620 = CARTESIAN_POINT('',(-18.,-63.,5.));
#621 = DIRECTION('',(1.,0.,0.));
#622 = DIRECTION('',(0.,-1.,0.));
#623 = PLANE('',#624);
#624 = AXIS2_PLACEMENT_3D('',#625,#626,#627);
#625 = CARTESIAN_POINT('',(-18.,-23.,-0.1));
#626 = DIRECTION('',(1.,0.,0.));
#627 = DIRECTION('',(0.,0.,-1.));
#628 = ADVANCED_FACE('',(#629),#647,.F.);
#629 = FACE_BOUND('',#630,.T.);
#630 = EDGE_LOOP('',(#631,#639,#640,#641));
#631 = ORIENTED_EDGE('',*,*,#632,.F.);
#632 = EDGE_CURVE('',#147,#633,#635,.T.);
#633 = VERTEX_POINT('',#634);
#634 = CARTESIAN_POINT('',(-20.,-66.24961536185,1.2));
#635 = LINE('',#636,#637);
#636 = CARTESIAN_POINT('',(-20.,-23.,1.2));
#637 = VECTOR('',#638,1.);
#638 = DIRECTION('',(-0.,-1.,-0.));
#639 = ORIENTED_EDGE('',*,*,#155,.T.);
#640 = ORIENTED_EDGE('',*,*,#607,.T.);
#641 = ORIENTED_EDGE('',*,*,#642,.T.);
#642 = EDGE_CURVE('',#608,#633,#643,.T.);
#643 = LINE('',#644,#645);
#644 = CARTESIAN_POINT('',(3.25,-66.24961536185,1.2));
#645 = VECTOR('',#646,1.);
#646 = DIRECTION('',(-1.,-0.,-0.));
#647 = PLANE('',#648);
#648 = AXIS2_PLACEMENT_3D('',#649,#650,#651);
#649 = CARTESIAN_POINT('',(-20.,-23.,1.2));
#650 = DIRECTION('',(0.,0.,1.));
#651 = DIRECTION('',(-1.,-0.,-0.));
#652 = ADVANCED_FACE('',(#653),#672,.T.);
#653 = FACE_BOUND('',#654,.F.);
#654 = EDGE_LOOP('',(#655,#656,#657,#665));
#655 = ORIENTED_EDGE('',*,*,#632,.F.);
#656 = ORIENTED_EDGE('',*,*,#146,.T.);
#657 = ORIENTED_EDGE('',*,*,#658,.T.);
#658 = EDGE_CURVE('',#139,#659,#661,.T.);
#659 = VERTEX_POINT('',#660);
#660 = CARTESIAN_POINT('',(-20.,-63.,-1.E-15));
#661 = LINE('',#662,#663);
#662 = CARTESIAN_POINT('',(-20.,-34.5,-3.6E-16));
#663 = VECTOR('',#664,1.);
#664 = DIRECTION('',(-0.,-1.,-0.));
#665 = ORIENTED_EDGE('',*,*,#666,.F.);
#666 = EDGE_CURVE('',#633,#659,#667,.T.);
#667 = CIRCLE('',#668,5.);
#668 = AXIS2_PLACEMENT_3D('',#669,#670,#671);
#669 = CARTESIAN_POINT('',(-20.,-63.,5.));
#670 = DIRECTION('',(1.,0.,0.));
#671 = DIRECTION('',(0.,-1.,0.));
#672 = PLANE('',#673);
#673 = AXIS2_PLACEMENT_3D('',#674,#675,#676);
#674 = CARTESIAN_POINT('',(-20.,-23.,-0.1));
#675 = DIRECTION('',(1.,0.,0.));
#676 = DIRECTION('',(0.,0.,-1.));
#677 = ADVANCED_FACE('',(#678),#696,.F.);
#678 = FACE_BOUND('',#679,.T.);
#679 = EDGE_LOOP('',(#680,#688,#689,#690));
#680 = ORIENTED_EDGE('',*,*,#681,.F.);
#681 = EDGE_CURVE('',#130,#682,#684,.T.);
#682 = VERTEX_POINT('',#683);
#683 = CARTESIAN_POINT('',(-31.,-63.,-1.E-15));
#684 = LINE('',#685,#686);
#685 = CARTESIAN_POINT('',(-31.,-34.5,-3.6E-16));
#686 = VECTOR('',#687,1.);
#687 = DIRECTION('',(-0.,-1.,-0.));
#688 = ORIENTED_EDGE('',*,*,#138,.T.);
#689 = ORIENTED_EDGE('',*,*,#658,.T.);
#690 = ORIENTED_EDGE('',*,*,#691,.T.);
#691 = EDGE_CURVE('',#659,#682,#692,.T.);
#692 = LINE('',#693,#694);
#693 = CARTESIAN_POINT('',(3.25,-63.,-8.9E-16));
#694 = VECTOR('',#695,1.);
#695 = DIRECTION('',(-1.,-0.,-0.));
#696 = PLANE('',#697);
#697 = AXIS2_PLACEMENT_3D('',#698,#699,#700);
#698 = CARTESIAN_POINT('',(-17.75,-46.,0.));
#699 = DIRECTION('',(0.,0.,1.));
#700 = DIRECTION('',(-1.,-0.,-0.));
#701 = ADVANCED_FACE('',(#702),#721,.F.);
#702 = FACE_BOUND('',#703,.T.);
#703 = EDGE_LOOP('',(#704,#712,#713,#714));
#704 = ORIENTED_EDGE('',*,*,#705,.F.);
#705 = EDGE_CURVE('',#122,#706,#708,.T.);
#706 = VERTEX_POINT('',#707);
#707 = CARTESIAN_POINT('',(-31.,-66.24961536185,1.2));
#708 = LINE('',#709,#710);
#709 = CARTESIAN_POINT('',(-31.,-23.,1.2));
#710 = VECTOR('',#711,1.);
#711 = DIRECTION('',(-0.,-1.,-0.));
#712 = ORIENTED_EDGE('',*,*,#129,.T.);
#713 = ORIENTED_EDGE('',*,*,#681,.T.);
#714 = ORIENTED_EDGE('',*,*,#715,.F.);
#715 = EDGE_CURVE('',#706,#682,#716,.T.);
#716 = CIRCLE('',#717,5.);
#717 = AXIS2_PLACEMENT_3D('',#718,#719,#720);
#718 = CARTESIAN_POINT('',(-31.,-63.,5.));
#719 = DIRECTION('',(1.,0.,0.));
#720 = DIRECTION('',(0.,-1.,0.));
#721 = PLANE('',#722);
#722 = AXIS2_PLACEMENT_3D('',#723,#724,#725);
#723 = CARTESIAN_POINT('',(-31.,-23.,-0.1));
#724 = DIRECTION('',(1.,0.,0.));
#725 = DIRECTION('',(0.,0.,-1.));
#726 = ADVANCED_FACE('',(#727),#745,.F.);
#727 = FACE_BOUND('',#728,.T.);
#728 = EDGE_LOOP('',(#729,#737,#738,#739));
#729 = ORIENTED_EDGE('',*,*,#730,.F.);
#730 = EDGE_CURVE('',#113,#731,#733,.T.);
#731 = VERTEX_POINT('',#732);
#732 = CARTESIAN_POINT('',(-33.,-66.24961536185,1.2));
#733 = LINE('',#734,#735);
#734 = CARTESIAN_POINT('',(-33.,-23.,1.2));
#735 = VECTOR('',#736,1.);
#736 = DIRECTION('',(-0.,-1.,-0.));
#737 = ORIENTED_EDGE('',*,*,#121,.T.);
#738 = ORIENTED_EDGE('',*,*,#705,.T.);
#739 = ORIENTED_EDGE('',*,*,#740,.T.);
#740 = EDGE_CURVE('',#706,#731,#741,.T.);
#741 = LINE('',#742,#743);
#742 = CARTESIAN_POINT('',(3.25,-66.24961536185,1.2));
#743 = VECTOR('',#744,1.);
#744 = DIRECTION('',(-1.,-0.,-0.));
#745 = PLANE('',#746);
#746 = AXIS2_PLACEMENT_3D('',#747,#748,#749);
#747 = CARTESIAN_POINT('',(-33.,-23.,1.2));
#748 = DIRECTION('',(0.,0.,1.));
#749 = DIRECTION('',(-1.,-0.,-0.));
#750 = ADVANCED_FACE('',(#751),#770,.T.);
#751 = FACE_BOUND('',#752,.F.);
#752 = EDGE_LOOP('',(#753,#754,#755,#763));
#753 = ORIENTED_EDGE('',*,*,#730,.F.);
#754 = ORIENTED_EDGE('',*,*,#112,.T.);
#755 = ORIENTED_EDGE('',*,*,#756,.T.);
#756 = EDGE_CURVE('',#105,#757,#759,.T.);
#757 = VERTEX_POINT('',#758);
#758 = CARTESIAN_POINT('',(-33.,-63.,-1.E-15));
#759 = LINE('',#760,#761);
#760 = CARTESIAN_POINT('',(-33.,-34.5,-3.6E-16));
#761 = VECTOR('',#762,1.);
#762 = DIRECTION('',(-0.,-1.,-0.));
#763 = ORIENTED_EDGE('',*,*,#764,.F.);
#764 = EDGE_CURVE('',#731,#757,#765,.T.);
#765 = CIRCLE('',#766,5.);
#766 = AXIS2_PLACEMENT_3D('',#767,#768,#769);
#767 = CARTESIAN_POINT('',(-33.,-63.,5.));
#768 = DIRECTION('',(1.,0.,0.));
#769 = DIRECTION('',(0.,-1.,0.));
#770 = PLANE('',#771);
#771 = AXIS2_PLACEMENT_3D('',#772,#773,#774);
#772 = CARTESIAN_POINT('',(-33.,-23.,-0.1));
#773 = DIRECTION('',(1.,0.,0.));
#774 = DIRECTION('',(0.,0.,-1.));
#775 = ADVANCED_FACE('',(#776,#804),#815,.F.);
#776 = FACE_BOUND('',#777,.T.);
#777 = EDGE_LOOP('',(#778,#779,#780,#781,#789,#798));
#778 = ORIENTED_EDGE('',*,*,#392,.T.);
#779 = ORIENTED_EDGE('',*,*,#104,.T.);
#780 = ORIENTED_EDGE('',*,*,#756,.T.);
#781 = ORIENTED_EDGE('',*,*,#782,.T.);
#782 = EDGE_CURVE('',#757,#783,#785,.T.);
#783 = VERTEX_POINT('',#784);
#784 = CARTESIAN_POINT('',(-38.75,-63.,-1.E-15));
#785 = LINE('',#786,#787);
#786 = CARTESIAN_POINT('',(3.25,-63.,-8.9E-16));
#787 = VECTOR('',#788,1.);
#788 = DIRECTION('',(-1.,-0.,-0.));
#789 = ORIENTED_EDGE('',*,*,#790,.T.);
#790 = EDGE_CURVE('',#783,#791,#793,.T.);
#791 = VERTEX_POINT('',#792);
#792 = CARTESIAN_POINT('',(-39.75,-62.,0.));
#793 = CIRCLE('',#794,1.);
#794 = AXIS2_PLACEMENT_3D('',#795,#796,#797);
#795 = CARTESIAN_POINT('',(-38.75,-62.,0.));
#796 = DIRECTION('',(0.,0.,-1.));
#797 = DIRECTION('',(2.37E-15,-1.,0.));
#798 = ORIENTED_EDGE('',*,*,#799,.T.);
#799 = EDGE_CURVE('',#791,#382,#800,.T.);
#800 = LINE('',#801,#802);
#801 = CARTESIAN_POINT('',(-39.75,-62.,-8.9E-16));
#802 = VECTOR('',#803,1.);
#803 = DIRECTION('',(0.,1.,0.));
#804 = FACE_BOUND('',#805,.T.);
#805 = EDGE_LOOP('',(#806));
#806 = ORIENTED_EDGE('',*,*,#807,.T.);
#807 = EDGE_CURVE('',#808,#808,#810,.T.);
#808 = VERTEX_POINT('',#809);
#809 = CARTESIAN_POINT('',(-34.35,-46.,0.));
#810 = CIRCLE('',#811,1.65);
#811 = AXIS2_PLACEMENT_3D('',#812,#813,#814);
#812 = CARTESIAN_POINT('',(-36.,-46.,-3.608224830032E-16));
#813 = DIRECTION('',(0.,0.,1.));
#814 = DIRECTION('',(1.,0.,0.));
#815 = PLANE('',#816);
#816 = AXIS2_PLACEMENT_3D('',#817,#818,#819);
#817 = CARTESIAN_POINT('',(-17.75,-46.,0.));
#818 = DIRECTION('',(0.,0.,1.));
#819 = DIRECTION('',(-1.,-0.,-0.));
#820 = ADVANCED_FACE('',(#821),#839,.F.);
#821 = FACE_BOUND('',#822,.T.);
#822 = EDGE_LOOP('',(#823,#824,#825,#833));
#823 = ORIENTED_EDGE('',*,*,#334,.T.);
#824 = ORIENTED_EDGE('',*,*,#239,.T.);
#825 = ORIENTED_EDGE('',*,*,#826,.F.);
#826 = EDGE_CURVE('',#827,#240,#829,.T.);
#827 = VERTEX_POINT('',#828);
#828 = CARTESIAN_POINT('',(9.25,-62.,5.));
#829 = LINE('',#830,#831);
#830 = CARTESIAN_POINT('',(9.25,-62.,0.));
#831 = VECTOR('',#832,1.);
#832 = DIRECTION('',(0.,0.,1.));
#833 = ORIENTED_EDGE('',*,*,#834,.F.);
#834 = EDGE_CURVE('',#335,#827,#835,.T.);
#835 = LINE('',#836,#837);
#836 = CARTESIAN_POINT('',(9.25,-30.,5.));
#837 = VECTOR('',#838,1.);
#838 = DIRECTION('',(-0.,-1.,-0.));
#839 = PLANE('',#840);
#840 = AXIS2_PLACEMENT_3D('',#841,#842,#843);
#841 = CARTESIAN_POINT('',(9.25,-30.,0.));
#842 = DIRECTION('',(-1.,-0.,-0.));
#843 = DIRECTION('',(0.,1.,0.));
#844 = ADVANCED_FACE('',(#845),#864,.T.);
#845 = FACE_BOUND('',#846,.T.);
#846 = EDGE_LOOP('',(#847,#855,#856,#857));
#847 = ORIENTED_EDGE('',*,*,#848,.T.);
#848 = EDGE_CURVE('',#849,#257,#851,.T.);
#849 = VERTEX_POINT('',#850);
#850 = CARTESIAN_POINT('',(-38.75,-68.,5.));
#851 = LINE('',#852,#853);
#852 = CARTESIAN_POINT('',(-38.75,-68.,0.));
#853 = VECTOR('',#854,1.);
#854 = DIRECTION('',(0.,0.,1.));
#855 = ORIENTED_EDGE('',*,*,#264,.T.);
#856 = ORIENTED_EDGE('',*,*,#357,.F.);
#857 = ORIENTED_EDGE('',*,*,#858,.F.);
#858 = EDGE_CURVE('',#849,#358,#859,.T.);
#859 = CIRCLE('',#860,6.);
#860 = AXIS2_PLACEMENT_3D('',#861,#862,#863);
#861 = CARTESIAN_POINT('',(-38.75,-62.,5.));
#862 = DIRECTION('',(0.,0.,-1.));
#863 = DIRECTION('',(2.37E-15,-1.,0.));
#864 = CYLINDRICAL_SURFACE('',#865,6.);
#865 = AXIS2_PLACEMENT_3D('',#866,#867,#868);
#866 = CARTESIAN_POINT('',(-38.75,-62.,0.));
#867 = DIRECTION('',(-0.,-0.,-1.));
#868 = DIRECTION('',(2.37E-15,-1.,0.));
#869 = ADVANCED_FACE('',(#870),#889,.T.);
#870 = FACE_BOUND('',#871,.T.);
#871 = EDGE_LOOP('',(#872,#873,#874,#882));
#872 = ORIENTED_EDGE('',*,*,#826,.T.);
#873 = ORIENTED_EDGE('',*,*,#247,.T.);
#874 = ORIENTED_EDGE('',*,*,#875,.F.);
#875 = EDGE_CURVE('',#876,#248,#878,.T.);
#876 = VERTEX_POINT('',#877);
#877 = CARTESIAN_POINT('',(3.25,-68.,5.));
#878 = LINE('',#879,#880);
#879 = CARTESIAN_POINT('',(3.25,-68.,0.));
#880 = VECTOR('',#881,1.);
#881 = DIRECTION('',(0.,0.,1.));
#882 = ORIENTED_EDGE('',*,*,#883,.F.);
#883 = EDGE_CURVE('',#827,#876,#884,.T.);
#884 = CIRCLE('',#885,6.);
#885 = AXIS2_PLACEMENT_3D('',#886,#887,#888);
#886 = CARTESIAN_POINT('',(3.25,-62.,5.));
#887 = DIRECTION('',(0.,0.,-1.));
#888 = DIRECTION('',(1.,2.37E-15,0.));
#889 = CYLINDRICAL_SURFACE('',#890,6.);
#890 = AXIS2_PLACEMENT_3D('',#891,#892,#893);
#891 = CARTESIAN_POINT('',(3.25,-62.,0.));
#892 = DIRECTION('',(0.,0.,-1.));
#893 = DIRECTION('',(1.,2.37E-15,0.));
#894 = ADVANCED_FACE('',(#895),#906,.F.);
#895 = FACE_BOUND('',#896,.T.);
#896 = EDGE_LOOP('',(#897,#898,#899,#900));
#897 = ORIENTED_EDGE('',*,*,#875,.T.);
#898 = ORIENTED_EDGE('',*,*,#256,.T.);
#899 = ORIENTED_EDGE('',*,*,#848,.F.);
#900 = ORIENTED_EDGE('',*,*,#901,.F.);
#901 = EDGE_CURVE('',#876,#849,#902,.T.);
#902 = LINE('',#903,#904);
#903 = CARTESIAN_POINT('',(3.25,-68.,5.));
#904 = VECTOR('',#905,1.);
#905 = DIRECTION('',(-1.,-0.,-0.));
#906 = PLANE('',#907);
#907 = AXIS2_PLACEMENT_3D('',#908,#909,#910);
#908 = CARTESIAN_POINT('',(3.25,-68.,0.));
#909 = DIRECTION('',(0.,1.,0.));
#910 = DIRECTION('',(1.,0.,0.));
#911 = ADVANCED_FACE('',(#912),#931,.F.);
#912 = FACE_BOUND('',#913,.F.);
#913 = EDGE_LOOP('',(#914,#923,#929,#930));
#914 = ORIENTED_EDGE('',*,*,#915,.F.);
#915 = EDGE_CURVE('',#916,#916,#918,.T.);
#916 = VERTEX_POINT('',#917);
#917 = CARTESIAN_POINT('',(3.85,-33.,9.));
#918 = CIRCLE('',#919,0.85);
#919 = AXIS2_PLACEMENT_3D('',#920,#921,#922);
#920 = CARTESIAN_POINT('',(3.,-33.,9.));
#921 = DIRECTION('',(0.,0.,-1.));
#922 = DIRECTION('',(1.,0.,0.));
#923 = ORIENTED_EDGE('',*,*,#924,.T.);
#924 = EDGE_CURVE('',#916,#283,#925,.T.);
#925 = LINE('',#926,#927);
#926 = CARTESIAN_POINT('',(3.85,-33.,9.));
#927 = VECTOR('',#928,1.);
#928 = DIRECTION('',(0.,0.,1.));
#929 = ORIENTED_EDGE('',*,*,#282,.F.);
#930 = ORIENTED_EDGE('',*,*,#924,.F.);
#931 = CYLINDRICAL_SURFACE('',#932,0.85);
#932 = AXIS2_PLACEMENT_3D('',#933,#934,#935);
#933 = CARTESIAN_POINT('',(3.,-33.,9.));
#934 = DIRECTION('',(0.,0.,-1.));
#935 = DIRECTION('',(1.,0.,0.));
#936 = ADVANCED_FACE('',(#937),#948,.F.);
#937 = FACE_BOUND('',#938,.F.);
#938 = EDGE_LOOP('',(#939,#940,#946,#947));
#939 = ORIENTED_EDGE('',*,*,#807,.T.);
#940 = ORIENTED_EDGE('',*,*,#941,.T.);
#941 = EDGE_CURVE('',#808,#294,#942,.T.);
#942 = LINE('',#943,#944);
#943 = CARTESIAN_POINT('',(-34.35,-46.,-0.1));
#944 = VECTOR('',#945,1.);
#945 = DIRECTION('',(0.,0.,1.));
#946 = ORIENTED_EDGE('',*,*,#293,.F.);
#947 = ORIENTED_EDGE('',*,*,#941,.F.);
#948 = CYLINDRICAL_SURFACE('',#949,1.65);
#949 = AXIS2_PLACEMENT_3D('',#950,#951,#952);
#950 = CARTESIAN_POINT('',(-36.,-46.,-0.1));
#951 = DIRECTION('',(0.,0.,-1.));
#952 = DIRECTION('',(1.,0.,0.));
#953 = ADVANCED_FACE('',(#954),#965,.F.);
#954 = FACE_BOUND('',#955,.F.);
#955 = EDGE_LOOP('',(#956,#957,#963,#964));
#956 = ORIENTED_EDGE('',*,*,#492,.T.);
#957 = ORIENTED_EDGE('',*,*,#958,.T.);
#958 = EDGE_CURVE('',#493,#305,#959,.T.);
#959 = LINE('',#960,#961);
#960 = CARTESIAN_POINT('',(2.65,-46.,-0.1));
#961 = VECTOR('',#962,1.);
#962 = DIRECTION('',(0.,0.,1.));
#963 = ORIENTED_EDGE('',*,*,#304,.F.);
#964 = ORIENTED_EDGE('',*,*,#958,.F.);
#965 = CYLINDRICAL_SURFACE('',#966,1.65);
#966 = AXIS2_PLACEMENT_3D('',#967,#968,#969);
#967 = CARTESIAN_POINT('',(1.,-46.,-0.1));
#968 = DIRECTION('',(0.,0.,-1.));
#969 = DIRECTION('',(1.,0.,0.));
#970 = ADVANCED_FACE('',(#971),#990,.F.);
#971 = FACE_BOUND('',#972,.F.);
#972 = EDGE_LOOP('',(#973,#982,#988,#989));
#973 = ORIENTED_EDGE('',*,*,#974,.F.);
#974 = EDGE_CURVE('',#975,#975,#977,.T.);
#975 = VERTEX_POINT('',#976);
#976 = CARTESIAN_POINT('',(3.85,-59.,9.));
#977 = CIRCLE('',#978,0.85);
#978 = AXIS2_PLACEMENT_3D('',#979,#980,#981);
#979 = CARTESIAN_POINT('',(3.,-59.,9.));
#980 = DIRECTION('',(0.,0.,-1.));
#981 = DIRECTION('',(1.,0.,0.));
#982 = ORIENTED_EDGE('',*,*,#983,.T.);
#983 = EDGE_CURVE('',#975,#316,#984,.T.);
#984 = LINE('',#985,#986);
#985 = CARTESIAN_POINT('',(3.85,-59.,9.));
#986 = VECTOR('',#987,1.);
#987 = DIRECTION('',(0.,0.,1.));
#988 = ORIENTED_EDGE('',*,*,#315,.F.);
#989 = ORIENTED_EDGE('',*,*,#983,.F.);
#990 = CYLINDRICAL_SURFACE('',#991,0.85);
#991 = AXIS2_PLACEMENT_3D('',#992,#993,#994);
#992 = CARTESIAN_POINT('',(3.,-59.,9.));
#993 = DIRECTION('',(0.,0.,-1.));
#994 = DIRECTION('',(1.,0.,0.));
#995 = ADVANCED_FACE('',(#996),#1008,.T.);
#996 = FACE_BOUND('',#997,.F.);
#997 = EDGE_LOOP('',(#998,#1005,#1006,#1007));
#998 = ORIENTED_EDGE('',*,*,#999,.T.);
#999 = EDGE_CURVE('',#358,#791,#1000,.T.);
#1000 = CIRCLE('',#1001,5.);
#1001 = AXIS2_PLACEMENT_3D('',#1002,#1003,#1004);
#1002 = CARTESIAN_POINT('',(-39.75,-62.,5.));
#1003 = DIRECTION('',(-9.E-16,-1.,-0.));
#1004 = DIRECTION('',(-1.,9.E-16,0.));
#1005 = ORIENTED_EDGE('',*,*,#799,.T.);
#1006 = ORIENTED_EDGE('',*,*,#381,.F.);
#1007 = ORIENTED_EDGE('',*,*,#367,.F.);
#1008 = CYLINDRICAL_SURFACE('',#1009,5.);
#1009 = AXIS2_PLACEMENT_3D('',#1010,#1011,#1012);
#1010 = CARTESIAN_POINT('',(-39.75,-62.,5.));
#1011 = DIRECTION('',(0.,1.,0.));
#1012 = DIRECTION('',(-1.,0.,0.));
#1013 = ADVANCED_FACE('',(#1014),#1026,.T.);
#1014 = FACE_BOUND('',#1015,.F.);
#1015 = EDGE_LOOP('',(#1016,#1017,#1018,#1025));
#1016 = ORIENTED_EDGE('',*,*,#421,.T.);
#1017 = ORIENTED_EDGE('',*,*,#467,.T.);
#1018 = ORIENTED_EDGE('',*,*,#1019,.F.);
#1019 = EDGE_CURVE('',#827,#468,#1020,.T.);
#1020 = CIRCLE('',#1021,5.);
#1021 = AXIS2_PLACEMENT_3D('',#1022,#1023,#1024);
#1022 = CARTESIAN_POINT('',(4.25,-62.,5.));
#1023 = DIRECTION('',(-0.,1.,0.));
#1024 = DIRECTION('',(1.,0.,0.));
#1025 = ORIENTED_EDGE('',*,*,#834,.F.);
#1026 = CYLINDRICAL_SURFACE('',#1027,5.);
#1027 = AXIS2_PLACEMENT_3D('',#1028,#1029,#1030);
#1028 = CARTESIAN_POINT('',(4.25,-30.,5.));
#1029 = DIRECTION('',(-0.,-1.,-0.));
#1030 = DIRECTION('',(1.,0.,0.));
#1031 = ADVANCED_FACE('',(#1032),#1062,.T.);
#1032 = FACE_BOUND('',#1033,.F.);
#1033 = EDGE_LOOP('',(#1034,#1035,#1042,#1043,#1044,#1045,#1046,#1047,
    #1048,#1049,#1050,#1051,#1052,#1053,#1054,#1055));
#1034 = ORIENTED_EDGE('',*,*,#901,.F.);
#1035 = ORIENTED_EDGE('',*,*,#1036,.T.);
#1036 = EDGE_CURVE('',#876,#476,#1037,.T.);
#1037 = CIRCLE('',#1038,5.);
#1038 = AXIS2_PLACEMENT_3D('',#1039,#1040,#1041);
#1039 = CARTESIAN_POINT('',(3.25,-63.,5.));
#1040 = DIRECTION('',(1.,-1.79E-15,0.));
#1041 = DIRECTION('',(-1.79E-15,-1.,0.));
#1042 = ORIENTED_EDGE('',*,*,#484,.T.);
#1043 = ORIENTED_EDGE('',*,*,#519,.F.);
#1044 = ORIENTED_EDGE('',*,*,#544,.T.);
#1045 = ORIENTED_EDGE('',*,*,#568,.T.);
#1046 = ORIENTED_EDGE('',*,*,#593,.T.);
#1047 = ORIENTED_EDGE('',*,*,#617,.F.);
#1048 = ORIENTED_EDGE('',*,*,#642,.T.);
#1049 = ORIENTED_EDGE('',*,*,#666,.T.);
#1050 = ORIENTED_EDGE('',*,*,#691,.T.);
#1051 = ORIENTED_EDGE('',*,*,#715,.F.);
#1052 = ORIENTED_EDGE('',*,*,#740,.T.);
#1053 = ORIENTED_EDGE('',*,*,#764,.T.);
#1054 = ORIENTED_EDGE('',*,*,#782,.T.);
#1055 = ORIENTED_EDGE('',*,*,#1056,.F.);
#1056 = EDGE_CURVE('',#849,#783,#1057,.T.);
#1057 = CIRCLE('',#1058,5.);
#1058 = AXIS2_PLACEMENT_3D('',#1059,#1060,#1061);
#1059 = CARTESIAN_POINT('',(-38.75,-63.,5.));
#1060 = DIRECTION('',(1.,0.,0.));
#1061 = DIRECTION('',(0.,-1.,0.));
#1062 = CYLINDRICAL_SURFACE('',#1063,5.);
#1063 = AXIS2_PLACEMENT_3D('',#1064,#1065,#1066);
#1064 = CARTESIAN_POINT('',(3.25,-63.,5.));
#1065 = DIRECTION('',(-1.,-0.,-0.));
#1066 = DIRECTION('',(0.,-1.,0.));
#1067 = ADVANCED_FACE('',(#1068),#1074,.T.);
#1068 = FACE_BOUND('',#1069,.T.);
#1069 = EDGE_LOOP('',(#1070,#1071,#1072,#1073));
#1070 = ORIENTED_EDGE('',*,*,#1019,.F.);
#1071 = ORIENTED_EDGE('',*,*,#883,.T.);
#1072 = ORIENTED_EDGE('',*,*,#1036,.T.);
#1073 = ORIENTED_EDGE('',*,*,#475,.F.);
#1074 = SURFACE_OF_REVOLUTION('',#1075,#1088);
#1075 = B_SPLINE_CURVE_WITH_KNOTS('',6,(#1076,#1077,#1078,#1079,#1080,
    #1081,#1082,#1083,#1084,#1085,#1086,#1087),.UNSPECIFIED.,.F.,.F.,(7,
    5,7),(0.,0.785398163397,1.570796326795),.UNSPECIFIED.);
#1076 = CARTESIAN_POINT('',(9.25,-62.,5.));
#1077 = CARTESIAN_POINT('',(9.25,-62.,4.345501530502));
#1078 = CARTESIAN_POINT('',(9.147192024093,-62.,3.691004154196));
#1079 = CARTESIAN_POINT('',(8.94157339395,-62.,3.056686671357));
#1080 = CARTESIAN_POINT('',(8.638437528121,-62.,2.462762150104));
#1081 = CARTESIAN_POINT('',(8.248334211991,-62.,1.927266400125));
#1082 = CARTESIAN_POINT('',(7.322733599875,-62.,1.001665788009));
#1083 = CARTESIAN_POINT('',(6.787237849896,-62.,0.611562471878));
#1084 = CARTESIAN_POINT('',(6.193313328643,-62.,0.30842660605));
#1085 = CARTESIAN_POINT('',(5.558995845804,-62.,0.102807975907));
#1086 = CARTESIAN_POINT('',(4.904498469498,-62.,-1.43522521894E-16));
#1087 = CARTESIAN_POINT('',(4.25,-62.,8.699863392092E-17));
#1088 = AXIS1_PLACEMENT('',#1089,#1090);
#1089 = CARTESIAN_POINT('',(3.25,-62.,5.));
#1090 = DIRECTION('',(0.,0.,-1.));
#1091 = ADVANCED_FACE('',(#1092),#1098,.T.);
#1092 = FACE_BOUND('',#1093,.T.);
#1093 = EDGE_LOOP('',(#1094,#1095,#1096,#1097));
#1094 = ORIENTED_EDGE('',*,*,#1056,.F.);
#1095 = ORIENTED_EDGE('',*,*,#858,.T.);
#1096 = ORIENTED_EDGE('',*,*,#999,.T.);
#1097 = ORIENTED_EDGE('',*,*,#790,.F.);
#1098 = SURFACE_OF_REVOLUTION('',#1099,#1112);
#1099 = B_SPLINE_CURVE_WITH_KNOTS('',6,(#1100,#1101,#1102,#1103,#1104,
    #1105,#1106,#1107,#1108,#1109,#1110,#1111),.UNSPECIFIED.,.F.,.F.,(7,
    5,7),(0.,0.785398163397,1.570796326795),.UNSPECIFIED.);
#1100 = CARTESIAN_POINT('',(-38.75,-68.,5.));
#1101 = CARTESIAN_POINT('',(-38.75,-68.,4.345501530502));
#1102 = CARTESIAN_POINT('',(-38.75,-67.89719202409,3.691004154196));
#1103 = CARTESIAN_POINT('',(-38.75,-67.69157339395,3.056686671357));
#1104 = CARTESIAN_POINT('',(-38.75,-67.38843752812,2.462762150104));
#1105 = CARTESIAN_POINT('',(-38.75,-66.99833421199,1.927266400125));
#1106 = CARTESIAN_POINT('',(-38.75,-66.07273359987,1.001665788009));
#1107 = CARTESIAN_POINT('',(-38.75,-65.53723784989,0.611562471878));
#1108 = CARTESIAN_POINT('',(-38.75,-64.94331332864,0.30842660605));
#1109 = CARTESIAN_POINT('',(-38.75,-64.3089958458,0.102807975907));
#1110 = CARTESIAN_POINT('',(-38.75,-63.65449846949,-1.43522521894E-16));
#1111 = CARTESIAN_POINT('',(-38.75,-63.,8.699863392092E-17));
#1112 = AXIS1_PLACEMENT('',#1113,#1114);
#1113 = CARTESIAN_POINT('',(-38.75,-62.,5.));
#1114 = DIRECTION('',(0.,0.,-1.));
#1115 = ADVANCED_FACE('',(#1116),#1119,.T.);
#1116 = FACE_BOUND('',#1117,.T.);
#1117 = EDGE_LOOP('',(#1118));
#1118 = ORIENTED_EDGE('',*,*,#915,.F.);
#1119 = PLANE('',#1120);
#1120 = AXIS2_PLACEMENT_3D('',#1121,#1122,#1123);
#1121 = CARTESIAN_POINT('',(3.,-33.,9.));
#1122 = DIRECTION('',(0.,0.,1.));
#1123 = DIRECTION('',(-1.,-0.,-0.));
#1124 = ADVANCED_FACE('',(#1125),#1128,.T.);
#1125 = FACE_BOUND('',#1126,.T.);
#1126 = EDGE_LOOP('',(#1127));
#1127 = ORIENTED_EDGE('',*,*,#974,.F.);
#1128 = PLANE('',#1129);
#1129 = AXIS2_PLACEMENT_3D('',#1130,#1131,#1132);
#1130 = CARTESIAN_POINT('',(3.,-59.,9.));
#1131 = DIRECTION('',(0.,0.,1.));
#1132 = DIRECTION('',(-1.,-0.,-0.));
#1133 = ( GEOMETRIC_REPRESENTATION_CONTEXT(3) 
GLOBAL_UNCERTAINTY_ASSIGNED_CONTEXT((#1137)) 
GLOBAL_UNIT_ASSIGNED_CONTEXT((#1134,#1135,#1136)) REPRESENTATION_CONTEXT
('Context #1','3D Context with UNIT and UNCERTAINTY') );
#1134 = ( LENGTH_UNIT() NAMED_UNIT(*) SI_UNIT(.MILLI.,.METRE.) );
#1135 = ( NAMED_UNIT(*) PLANE_ANGLE_UNIT() SI_UNIT($,.RADIAN.) );
#1136 = ( NAMED_UNIT(*) SI_UNIT($,.STERADIAN.) SOLID_ANGLE_UNIT() );
#1137 = UNCERTAINTY_MEASURE_WITH_UNIT(LENGTH_MEASURE(5.E-06),#1134,
  'distance_accuracy_value','confusion accuracy');
#1138 = PRODUCT_RELATED_PRODUCT_CATEGORY('part',$,(#7));
ENDSEC;
END-ISO-10303-21;
