ISO-10303-21;
HEADER;
FILE_DESCRIPTION(('FreeCAD Model'),'2;1');
FILE_NAME('Open CASCADE Shape Model','2026-10-09T09:09:14',('FreeCAD'),(
    'FreeCAD'),'Open CASCADE STEP processor 7.8','FreeCAD','Unknown');
FILE_SCHEMA(('AUTOMOTIVE_DESIGN { 1 0 10303 214 1 1 1 1 }'));
ENDSEC;
DATA;
#1 = APPLICATION_PROTOCOL_DEFINITION('international standard',
  'automotive_design',2000,#2);
#2 = APPLICATION_CONTEXT(
  'core data for automotive mechanical design processes');
#3 = SHAPE_DEFINITION_REPRESENTATION(#4,#10);
#4 = PRODUCT_DEFINITION_SHAPE('','',#5);
#5 = PRODUCT_DEFINITION('design','',#6,#9);
#6 = PRODUCT_DEFINITION_FORMATION('','',#7);
#7 = PRODUCT('Open CASCADE STEP translator 7.8 28',
  'Open CASCADE STEP translator 7.8 28','',(#8));
#8 = PRODUCT_CONTEXT('',#2,'mechanical');
#9 = PRODUCT_DEFINITION_CONTEXT('part definition',#2,'design');
#10 = ADVANCED_BREP_SHAPE_REPRESENTATION('',(#11,#15),#360);
#11 = AXIS2_PLACEMENT_3D('',#12,#13,#14);
#12 = CARTESIAN_POINT('',(0.,0.,0.));
#13 = DIRECTION('',(0.,0.,1.));
#14 = DIRECTION('',(1.,0.,-0.));
#15 = MANIFOLD_SOLID_BREP('',#16);
#16 = CLOSED_SHELL('',(#17,#50,#70,#90,#115,#140,#199,#258,#280,#297,
    #314,#331,#348));
#17 = ADVANCED_FACE('',(#18),#45,.T.);
#18 = FACE_BOUND('',#19,.F.);
#19 = EDGE_LOOP('',(#20,#30,#37,#38));
#20 = ORIENTED_EDGE('',*,*,#21,.T.);
#21 = EDGE_CURVE('',#22,#24,#26,.T.);
#22 = VERTEX_POINT('',#23);
#23 = CARTESIAN_POINT('',(45.799997711182,-40.3,238.84999923706));
#24 = VERTEX_POINT('',#25);
#25 = CARTESIAN_POINT('',(45.799997711182,-31.8,238.84999923706));
#26 = LINE('',#27,#28);
#27 = CARTESIAN_POINT('',(45.799997711182,-40.3,238.84999923706));
#28 = VECTOR('',#29,1.);
#29 = DIRECTION('',(0.,1.,0.));
#30 = ORIENTED_EDGE('',*,*,#31,.T.);
#31 = EDGE_CURVE('',#24,#24,#32,.T.);
#32 = CIRCLE('',#33,4.9);
#33 = AXIS2_PLACEMENT_3D('',#34,#35,#36);
#34 = CARTESIAN_POINT('',(40.899997711182,-31.8,238.84999923706));
#35 = DIRECTION('',(-0.,1.,0.));
#36 = DIRECTION('',(1.,0.,0.));
#37 = ORIENTED_EDGE('',*,*,#21,.F.);
#38 = ORIENTED_EDGE('',*,*,#39,.F.);
#39 = EDGE_CURVE('',#22,#22,#40,.T.);
#40 = CIRCLE('',#41,4.9);
#41 = AXIS2_PLACEMENT_3D('',#42,#43,#44);
#42 = CARTESIAN_POINT('',(40.899997711182,-40.3,238.84999923706));
#43 = DIRECTION('',(-0.,1.,0.));
#44 = DIRECTION('',(1.,0.,0.));
#45 = CYLINDRICAL_SURFACE('',#46,4.9);
#46 = AXIS2_PLACEMENT_3D('',#47,#48,#49);
#47 = CARTESIAN_POINT('',(40.899997711182,-40.3,238.84999923706));
#48 = DIRECTION('',(-0.,-1.,0.));
#49 = DIRECTION('',(1.,0.,0.));
#50 = ADVANCED_FACE('',(#51,#54),#65,.F.);
#51 = FACE_BOUND('',#52,.F.);
#52 = EDGE_LOOP('',(#53));
#53 = ORIENTED_EDGE('',*,*,#39,.T.);
#54 = FACE_BOUND('',#55,.F.);
#55 = EDGE_LOOP('',(#56));
#56 = ORIENTED_EDGE('',*,*,#57,.T.);
#57 = EDGE_CURVE('',#58,#58,#60,.T.);
#58 = VERTEX_POINT('',#59);
#59 = CARTESIAN_POINT('',(42.499997711182,-40.3,238.84999923706));
#60 = CIRCLE('',#61,1.6);
#61 = AXIS2_PLACEMENT_3D('',#62,#63,#64);
#62 = CARTESIAN_POINT('',(40.899997711182,-40.3,238.84999923706));
#63 = DIRECTION('',(0.,-1.,-2.2E-16));
#64 = DIRECTION('',(1.,0.,0.));
#65 = PLANE('',#66);
#66 = AXIS2_PLACEMENT_3D('',#67,#68,#69);
#67 = CARTESIAN_POINT('',(40.899997711182,-40.3,238.84999923706));
#68 = DIRECTION('',(0.,1.,0.));
#69 = DIRECTION('',(1.,0.,0.));
#70 = ADVANCED_FACE('',(#71,#82),#85,.F.);
#71 = FACE_BOUND('',#72,.F.);
#72 = EDGE_LOOP('',(#73));
#73 = ORIENTED_EDGE('',*,*,#74,.T.);
#74 = EDGE_CURVE('',#75,#75,#77,.T.);
#75 = VERTEX_POINT('',#76);
#76 = CARTESIAN_POINT('',(49.799997711182,-31.8,238.84999923706));
#77 = CIRCLE('',#78,8.9);
#78 = AXIS2_PLACEMENT_3D('',#79,#80,#81);
#79 = CARTESIAN_POINT('',(40.899997711182,-31.8,238.84999923706));
#80 = DIRECTION('',(-0.,1.,0.));
#81 = DIRECTION('',(1.,0.,0.));
#82 = FACE_BOUND('',#83,.F.);
#83 = EDGE_LOOP('',(#84));
#84 = ORIENTED_EDGE('',*,*,#31,.F.);
#85 = PLANE('',#86);
#86 = AXIS2_PLACEMENT_3D('',#87,#88,#89);
#87 = CARTESIAN_POINT('',(40.899997711182,-31.8,238.84999923706));
#88 = DIRECTION('',(0.,1.,0.));
#89 = DIRECTION('',(1.,0.,0.));
#90 = ADVANCED_FACE('',(#91),#110,.F.);
#91 = FACE_BOUND('',#92,.T.);
#92 = EDGE_LOOP('',(#93,#101,#102,#103));
#93 = ORIENTED_EDGE('',*,*,#94,.F.);
#94 = EDGE_CURVE('',#58,#95,#97,.T.);
#95 = VERTEX_POINT('',#96);
#96 = CARTESIAN_POINT('',(42.499997711182,-31.9,238.84999923706));
#97 = LINE('',#98,#99);
#98 = CARTESIAN_POINT('',(42.499997711182,-40.4,238.84999923706));
#99 = VECTOR('',#100,1.);
#100 = DIRECTION('',(0.,1.,0.));
#101 = ORIENTED_EDGE('',*,*,#57,.T.);
#102 = ORIENTED_EDGE('',*,*,#94,.T.);
#103 = ORIENTED_EDGE('',*,*,#104,.F.);
#104 = EDGE_CURVE('',#95,#95,#105,.T.);
#105 = CIRCLE('',#106,1.6);
#106 = AXIS2_PLACEMENT_3D('',#107,#108,#109);
#107 = CARTESIAN_POINT('',(40.899997711182,-31.9,238.84999923706));
#108 = DIRECTION('',(0.,-1.,-2.2E-16));
#109 = DIRECTION('',(1.,0.,0.));
#110 = CYLINDRICAL_SURFACE('',#111,1.6);
#111 = AXIS2_PLACEMENT_3D('',#112,#113,#114);
#112 = CARTESIAN_POINT('',(40.899997711182,-40.4,238.84999923706));
#113 = DIRECTION('',(-0.,-1.,0.));
#114 = DIRECTION('',(1.,0.,0.));
#115 = ADVANCED_FACE('',(#116),#135,.T.);
#116 = FACE_BOUND('',#117,.F.);
#117 = EDGE_LOOP('',(#118,#126,#133,#134));
#118 = ORIENTED_EDGE('',*,*,#119,.T.);
#119 = EDGE_CURVE('',#75,#120,#122,.T.);
#120 = VERTEX_POINT('',#121);
#121 = CARTESIAN_POINT('',(49.799997711182,-29.3,238.84999923706));
#122 = LINE('',#123,#124);
#123 = CARTESIAN_POINT('',(49.799997711182,-31.8,238.84999923706));
#124 = VECTOR('',#125,1.);
#125 = DIRECTION('',(0.,1.,0.));
#126 = ORIENTED_EDGE('',*,*,#127,.T.);
#127 = EDGE_CURVE('',#120,#120,#128,.T.);
#128 = CIRCLE('',#129,8.9);
#129 = AXIS2_PLACEMENT_3D('',#130,#131,#132);
#130 = CARTESIAN_POINT('',(40.899997711182,-29.3,238.84999923706));
#131 = DIRECTION('',(-0.,1.,0.));
#132 = DIRECTION('',(1.,0.,0.));
#133 = ORIENTED_EDGE('',*,*,#119,.F.);
#134 = ORIENTED_EDGE('',*,*,#74,.F.);
#135 = CYLINDRICAL_SURFACE('',#136,8.9);
#136 = AXIS2_PLACEMENT_3D('',#137,#138,#139);
#137 = CARTESIAN_POINT('',(40.899997711182,-31.8,238.84999923706));
#138 = DIRECTION('',(-0.,-1.,0.));
#139 = DIRECTION('',(1.,0.,0.));
#140 = ADVANCED_FACE('',(#141,#191),#194,.T.);
#141 = FACE_BOUND('',#142,.T.);
#142 = EDGE_LOOP('',(#143,#153,#161,#169,#177,#185));
#143 = ORIENTED_EDGE('',*,*,#144,.T.);
#144 = EDGE_CURVE('',#145,#147,#149,.T.);
#145 = VERTEX_POINT('',#146);
#146 = CARTESIAN_POINT('',(44.133159218643,-31.9,238.84999923706));
#147 = VERTEX_POINT('',#148);
#148 = CARTESIAN_POINT('',(42.516578464913,-31.9,236.04999923706));
#149 = LINE('',#150,#151);
#150 = CARTESIAN_POINT('',(44.133159218643,-31.9,238.84999923706));
#151 = VECTOR('',#152,1.);
#152 = DIRECTION('',(-0.5,0.,-0.866025403784));
#153 = ORIENTED_EDGE('',*,*,#154,.T.);
#154 = EDGE_CURVE('',#147,#155,#157,.T.);
#155 = VERTEX_POINT('',#156);
#156 = CARTESIAN_POINT('',(39.283416957451,-31.9,236.04999923706));
#157 = LINE('',#158,#159);
#158 = CARTESIAN_POINT('',(42.516578464913,-31.9,236.04999923706));
#159 = VECTOR('',#160,1.);
#160 = DIRECTION('',(-1.,0.,-2.7E-16));
#161 = ORIENTED_EDGE('',*,*,#162,.T.);
#162 = EDGE_CURVE('',#155,#163,#165,.T.);
#163 = VERTEX_POINT('',#164);
#164 = CARTESIAN_POINT('',(37.66683620372,-31.9,238.84999923706));
#165 = LINE('',#166,#167);
#166 = CARTESIAN_POINT('',(39.283416957451,-31.9,236.04999923706));
#167 = VECTOR('',#168,1.);
#168 = DIRECTION('',(-0.5,0.,0.866025403784));
#169 = ORIENTED_EDGE('',*,*,#170,.T.);
#170 = EDGE_CURVE('',#163,#171,#173,.T.);
#171 = VERTEX_POINT('',#172);
#172 = CARTESIAN_POINT('',(39.283416957451,-31.9,241.64999923706));
#173 = LINE('',#174,#175);
#174 = CARTESIAN_POINT('',(37.66683620372,-31.9,238.84999923706));
#175 = VECTOR('',#176,1.);
#176 = DIRECTION('',(0.5,0.,0.866025403784));
#177 = ORIENTED_EDGE('',*,*,#178,.T.);
#178 = EDGE_CURVE('',#171,#179,#181,.T.);
#179 = VERTEX_POINT('',#180);
#180 = CARTESIAN_POINT('',(42.516578464913,-31.9,241.64999923706));
#181 = LINE('',#182,#183);
#182 = CARTESIAN_POINT('',(39.283416957451,-31.9,241.64999923706));
#183 = VECTOR('',#184,1.);
#184 = DIRECTION('',(1.,0.,5.5E-16));
#185 = ORIENTED_EDGE('',*,*,#186,.T.);
#186 = EDGE_CURVE('',#179,#145,#187,.T.);
#187 = LINE('',#188,#189);
#188 = CARTESIAN_POINT('',(42.516578464913,-31.9,241.64999923706));
#189 = VECTOR('',#190,1.);
#190 = DIRECTION('',(0.5,0.,-0.866025403784));
#191 = FACE_BOUND('',#192,.T.);
#192 = EDGE_LOOP('',(#193));
#193 = ORIENTED_EDGE('',*,*,#104,.T.);
#194 = PLANE('',#195);
#195 = AXIS2_PLACEMENT_3D('',#196,#197,#198);
#196 = CARTESIAN_POINT('',(40.899997711182,-31.9,238.84999923706));
#197 = DIRECTION('',(0.,1.,0.));
#198 = DIRECTION('',(1.,0.,0.));
#199 = ADVANCED_FACE('',(#200,#203),#253,.T.);
#200 = FACE_BOUND('',#201,.T.);
#201 = EDGE_LOOP('',(#202));
#202 = ORIENTED_EDGE('',*,*,#127,.T.);
#203 = FACE_BOUND('',#204,.T.);
#204 = EDGE_LOOP('',(#205,#215,#223,#231,#239,#247));
#205 = ORIENTED_EDGE('',*,*,#206,.F.);
#206 = EDGE_CURVE('',#207,#209,#211,.T.);
#207 = VERTEX_POINT('',#208);
#208 = CARTESIAN_POINT('',(44.133159218643,-29.3,238.84999923706));
#209 = VERTEX_POINT('',#210);
#210 = CARTESIAN_POINT('',(42.516578464913,-29.3,236.04999923706));
#211 = LINE('',#212,#213);
#212 = CARTESIAN_POINT('',(44.133159218643,-29.3,238.84999923706));
#213 = VECTOR('',#214,1.);
#214 = DIRECTION('',(-0.5,0.,-0.866025403784));
#215 = ORIENTED_EDGE('',*,*,#216,.F.);
#216 = EDGE_CURVE('',#217,#207,#219,.T.);
#217 = VERTEX_POINT('',#218);
#218 = CARTESIAN_POINT('',(42.516578464913,-29.3,241.64999923706));
#219 = LINE('',#220,#221);
#220 = CARTESIAN_POINT('',(42.516578464913,-29.3,241.64999923706));
#221 = VECTOR('',#222,1.);
#222 = DIRECTION('',(0.5,0.,-0.866025403784));
#223 = ORIENTED_EDGE('',*,*,#224,.F.);
#224 = EDGE_CURVE('',#225,#217,#227,.T.);
#225 = VERTEX_POINT('',#226);
#226 = CARTESIAN_POINT('',(39.283416957451,-29.3,241.64999923706));
#227 = LINE('',#228,#229);
#228 = CARTESIAN_POINT('',(39.283416957451,-29.3,241.64999923706));
#229 = VECTOR('',#230,1.);
#230 = DIRECTION('',(1.,0.,5.5E-16));
#231 = ORIENTED_EDGE('',*,*,#232,.F.);
#232 = EDGE_CURVE('',#233,#225,#235,.T.);
#233 = VERTEX_POINT('',#234);
#234 = CARTESIAN_POINT('',(37.66683620372,-29.3,238.84999923706));
#235 = LINE('',#236,#237);
#236 = CARTESIAN_POINT('',(37.66683620372,-29.3,238.84999923706));
#237 = VECTOR('',#238,1.);
#238 = DIRECTION('',(0.5,0.,0.866025403784));
#239 = ORIENTED_EDGE('',*,*,#240,.F.);
#240 = EDGE_CURVE('',#241,#233,#243,.T.);
#241 = VERTEX_POINT('',#242);
#242 = CARTESIAN_POINT('',(39.283416957451,-29.3,236.04999923706));
#243 = LINE('',#244,#245);
#244 = CARTESIAN_POINT('',(39.283416957451,-29.3,236.04999923706));
#245 = VECTOR('',#246,1.);
#246 = DIRECTION('',(-0.5,0.,0.866025403784));
#247 = ORIENTED_EDGE('',*,*,#248,.F.);
#248 = EDGE_CURVE('',#209,#241,#249,.T.);
#249 = LINE('',#250,#251);
#250 = CARTESIAN_POINT('',(42.516578464913,-29.3,236.04999923706));
#251 = VECTOR('',#252,1.);
#252 = DIRECTION('',(-1.,0.,-2.7E-16));
#253 = PLANE('',#254);
#254 = AXIS2_PLACEMENT_3D('',#255,#256,#257);
#255 = CARTESIAN_POINT('',(40.899997711182,-29.3,238.84999923706));
#256 = DIRECTION('',(0.,1.,0.));
#257 = DIRECTION('',(1.,0.,0.));
#258 = ADVANCED_FACE('',(#259),#275,.T.);
#259 = FACE_BOUND('',#260,.T.);
#260 = EDGE_LOOP('',(#261,#267,#268,#274));
#261 = ORIENTED_EDGE('',*,*,#262,.T.);
#262 = EDGE_CURVE('',#145,#207,#263,.T.);
#263 = LINE('',#264,#265);
#264 = CARTESIAN_POINT('',(44.133159218643,-31.9,238.84999923706));
#265 = VECTOR('',#266,1.);
#266 = DIRECTION('',(0.,1.,0.));
#267 = ORIENTED_EDGE('',*,*,#206,.T.);
#268 = ORIENTED_EDGE('',*,*,#269,.F.);
#269 = EDGE_CURVE('',#147,#209,#270,.T.);
#270 = LINE('',#271,#272);
#271 = CARTESIAN_POINT('',(42.516578464913,-31.9,236.04999923706));
#272 = VECTOR('',#273,1.);
#273 = DIRECTION('',(0.,1.,0.));
#274 = ORIENTED_EDGE('',*,*,#144,.F.);
#275 = PLANE('',#276);
#276 = AXIS2_PLACEMENT_3D('',#277,#278,#279);
#277 = CARTESIAN_POINT('',(44.133159218643,-31.9,238.84999923706));
#278 = DIRECTION('',(-0.866025403784,0.,0.5));
#279 = DIRECTION('',(-0.5,0.,-0.866025403784));
#280 = ADVANCED_FACE('',(#281),#292,.T.);
#281 = FACE_BOUND('',#282,.T.);
#282 = EDGE_LOOP('',(#283,#289,#290,#291));
#283 = ORIENTED_EDGE('',*,*,#284,.T.);
#284 = EDGE_CURVE('',#179,#217,#285,.T.);
#285 = LINE('',#286,#287);
#286 = CARTESIAN_POINT('',(42.516578464913,-31.9,241.64999923706));
#287 = VECTOR('',#288,1.);
#288 = DIRECTION('',(0.,1.,0.));
#289 = ORIENTED_EDGE('',*,*,#216,.T.);
#290 = ORIENTED_EDGE('',*,*,#262,.F.);
#291 = ORIENTED_EDGE('',*,*,#186,.F.);
#292 = PLANE('',#293);
#293 = AXIS2_PLACEMENT_3D('',#294,#295,#296);
#294 = CARTESIAN_POINT('',(42.516578464913,-31.9,241.64999923706));
#295 = DIRECTION('',(-0.866025403784,0.,-0.5));
#296 = DIRECTION('',(0.5,0.,-0.866025403784));
#297 = ADVANCED_FACE('',(#298),#309,.T.);
#298 = FACE_BOUND('',#299,.T.);
#299 = EDGE_LOOP('',(#300,#301,#302,#308));
#300 = ORIENTED_EDGE('',*,*,#269,.T.);
#301 = ORIENTED_EDGE('',*,*,#248,.T.);
#302 = ORIENTED_EDGE('',*,*,#303,.F.);
#303 = EDGE_CURVE('',#155,#241,#304,.T.);
#304 = LINE('',#305,#306);
#305 = CARTESIAN_POINT('',(39.283416957451,-31.9,236.04999923706));
#306 = VECTOR('',#307,1.);
#307 = DIRECTION('',(0.,1.,0.));
#308 = ORIENTED_EDGE('',*,*,#154,.F.);
#309 = PLANE('',#310);
#310 = AXIS2_PLACEMENT_3D('',#311,#312,#313);
#311 = CARTESIAN_POINT('',(42.516578464913,-31.9,236.04999923706));
#312 = DIRECTION('',(-2.7E-16,0.,1.));
#313 = DIRECTION('',(-1.,0.,-2.7E-16));
#314 = ADVANCED_FACE('',(#315),#326,.T.);
#315 = FACE_BOUND('',#316,.T.);
#316 = EDGE_LOOP('',(#317,#323,#324,#325));
#317 = ORIENTED_EDGE('',*,*,#318,.T.);
#318 = EDGE_CURVE('',#171,#225,#319,.T.);
#319 = LINE('',#320,#321);
#320 = CARTESIAN_POINT('',(39.283416957451,-31.9,241.64999923706));
#321 = VECTOR('',#322,1.);
#322 = DIRECTION('',(0.,1.,0.));
#323 = ORIENTED_EDGE('',*,*,#224,.T.);
#324 = ORIENTED_EDGE('',*,*,#284,.F.);
#325 = ORIENTED_EDGE('',*,*,#178,.F.);
#326 = PLANE('',#327);
#327 = AXIS2_PLACEMENT_3D('',#328,#329,#330);
#328 = CARTESIAN_POINT('',(39.283416957451,-31.9,241.64999923706));
#329 = DIRECTION('',(5.5E-16,0.,-1.));
#330 = DIRECTION('',(1.,0.,5.5E-16));
#331 = ADVANCED_FACE('',(#332),#343,.T.);
#332 = FACE_BOUND('',#333,.T.);
#333 = EDGE_LOOP('',(#334,#335,#336,#342));
#334 = ORIENTED_EDGE('',*,*,#303,.T.);
#335 = ORIENTED_EDGE('',*,*,#240,.T.);
#336 = ORIENTED_EDGE('',*,*,#337,.F.);
#337 = EDGE_CURVE('',#163,#233,#338,.T.);
#338 = LINE('',#339,#340);
#339 = CARTESIAN_POINT('',(37.66683620372,-31.9,238.84999923706));
#340 = VECTOR('',#341,1.);
#341 = DIRECTION('',(0.,1.,0.));
#342 = ORIENTED_EDGE('',*,*,#162,.F.);
#343 = PLANE('',#344);
#344 = AXIS2_PLACEMENT_3D('',#345,#346,#347);
#345 = CARTESIAN_POINT('',(39.283416957451,-31.9,236.04999923706));
#346 = DIRECTION('',(0.866025403784,0.,0.5));
#347 = DIRECTION('',(-0.5,0.,0.866025403784));
#348 = ADVANCED_FACE('',(#349),#355,.T.);
#349 = FACE_BOUND('',#350,.T.);
#350 = EDGE_LOOP('',(#351,#352,#353,#354));
#351 = ORIENTED_EDGE('',*,*,#337,.T.);
#352 = ORIENTED_EDGE('',*,*,#232,.T.);
#353 = ORIENTED_EDGE('',*,*,#318,.F.);
#354 = ORIENTED_EDGE('',*,*,#170,.F.);
#355 = PLANE('',#356);
#356 = AXIS2_PLACEMENT_3D('',#357,#358,#359);
#357 = CARTESIAN_POINT('',(37.66683620372,-31.9,238.84999923706));
#358 = DIRECTION('',(0.866025403784,0.,-0.5));
#359 = DIRECTION('',(0.5,0.,0.866025403784));
#360 = ( GEOMETRIC_REPRESENTATION_CONTEXT(3) 
GLOBAL_UNCERTAINTY_ASSIGNED_CONTEXT((#364)) GLOBAL_UNIT_ASSIGNED_CONTEXT
((#361,#362,#363)) REPRESENTATION_CONTEXT('Context #1',
  '3D Context with UNIT and UNCERTAINTY') );
#361 = ( LENGTH_UNIT() NAMED_UNIT(*) SI_UNIT(.MILLI.,.METRE.) );
#362 = ( NAMED_UNIT(*) PLANE_ANGLE_UNIT() SI_UNIT($,.RADIAN.) );
#363 = ( NAMED_UNIT(*) SI_UNIT($,.STERADIAN.) SOLID_ANGLE_UNIT() );
#364 = UNCERTAINTY_MEASURE_WITH_UNIT(LENGTH_MEASURE(1.E-07),#361,
  'distance_accuracy_value','confusion accuracy');
#365 = PRODUCT_RELATED_PRODUCT_CATEGORY('part',$,(#7));
ENDSEC;
END-ISO-10303-21;
