ISO-10303-21;
HEADER;
FILE_DESCRIPTION(('FreeCAD Model'),'2;1');
FILE_NAME('Open CASCADE Shape Model','2026-10-09T09:09:14',('FreeCAD'),(
    'FreeCAD'),'Open CASCADE STEP processor 7.8','FreeCAD','Unknown');
FILE_SCHEMA(('AUTOMOTIVE_DESIGN { 1 0 10303 214 1 1 1 1 }'));
ENDSEC;
DATA;
#1 = APPLICATION_PROTOCOL_DEFINITION('international standard',
  'automotive_design',2000,#2);
#2 = APPLICATION_CONTEXT(
  'core data for automotive mechanical design processes');
#3 = SHAPE_DEFINITION_REPRESENTATION(#4,#10);
#4 = PRODUCT_DEFINITION_SHAPE('','',#5);
#5 = PRODUCT_DEFINITION('design','',#6,#9);
#6 = PRODUCT_DEFINITION_FORMATION('','',#7);
#7 = PRODUCT('Open CASCADE STEP translator 7.8 25',
  'Open CASCADE STEP translator 7.8 25','',(#8));
#8 = PRODUCT_CONTEXT('',#2,'mechanical');
#9 = PRODUCT_DEFINITION_CONTEXT('part definition',#2,'design');
#10 = ADVANCED_BREP_SHAPE_REPRESENTATION('',(#11,#15),#278);
#11 = AXIS2_PLACEMENT_3D('',#12,#13,#14);
#12 = CARTESIAN_POINT('',(0.,0.,0.));
#13 = DIRECTION('',(0.,0.,1.));
#14 = DIRECTION('',(1.,0.,-0.));
#15 = MANIFOLD_SOLID_BREP('',#16);
#16 = CLOSED_SHELL('',(#17,#66,#97,#122,#168,#214,#231,#244,#261));
#17 = ADVANCED_FACE('',(#18),#61,.F.);
#18 = FACE_BOUND('',#19,.F.);
#19 = EDGE_LOOP('',(#20,#30,#38,#46,#54));
#20 = ORIENTED_EDGE('',*,*,#21,.F.);
#21 = EDGE_CURVE('',#22,#24,#26,.T.);
#22 = VERTEX_POINT('',#23);
#23 = CARTESIAN_POINT('',(59.6,37.6,248.1));
#24 = VERTEX_POINT('',#25);
#25 = CARTESIAN_POINT('',(59.6,39.,248.1));
#26 = LINE('',#27,#28);
#27 = CARTESIAN_POINT('',(59.6,37.6,248.1));
#28 = VECTOR('',#29,1.);
#29 = DIRECTION('',(0.,1.,2.2E-16));
#30 = ORIENTED_EDGE('',*,*,#31,.F.);
#31 = EDGE_CURVE('',#32,#22,#34,.T.);
#32 = VERTEX_POINT('',#33);
#33 = CARTESIAN_POINT('',(59.6,37.6,231.));
#34 = LINE('',#35,#36);
#35 = CARTESIAN_POINT('',(59.6,37.6,231.));
#36 = VECTOR('',#37,1.);
#37 = DIRECTION('',(0.,-2.2E-16,1.));
#38 = ORIENTED_EDGE('',*,*,#39,.T.);
#39 = EDGE_CURVE('',#32,#40,#42,.T.);
#40 = VERTEX_POINT('',#41);
#41 = CARTESIAN_POINT('',(59.6,39.6,231.));
#42 = LINE('',#43,#44);
#43 = CARTESIAN_POINT('',(59.6,37.6,231.));
#44 = VECTOR('',#45,1.);
#45 = DIRECTION('',(0.,1.,2.2E-16));
#46 = ORIENTED_EDGE('',*,*,#47,.T.);
#47 = EDGE_CURVE('',#40,#48,#50,.T.);
#48 = VERTEX_POINT('',#49);
#49 = CARTESIAN_POINT('',(59.6,39.6,247.5));
#50 = LINE('',#51,#52);
#51 = CARTESIAN_POINT('',(59.6,39.6,231.));
#52 = VECTOR('',#53,1.);
#53 = DIRECTION('',(0.,-2.2E-16,1.));
#54 = ORIENTED_EDGE('',*,*,#55,.F.);
#55 = EDGE_CURVE('',#24,#48,#56,.T.);
#56 = CIRCLE('',#57,0.6);
#57 = AXIS2_PLACEMENT_3D('',#58,#59,#60);
#58 = CARTESIAN_POINT('',(59.6,39.,247.5));
#59 = DIRECTION('',(-1.,0.,0.));
#60 = DIRECTION('',(0.,1.,2.2E-16));
#61 = PLANE('',#62);
#62 = AXIS2_PLACEMENT_3D('',#63,#64,#65);
#63 = CARTESIAN_POINT('',(59.6,37.6,231.));
#64 = DIRECTION('',(1.,0.,0.));
#65 = DIRECTION('',(0.,-2.2E-16,1.));
#66 = ADVANCED_FACE('',(#67),#92,.T.);
#67 = FACE_BOUND('',#68,.T.);
#68 = EDGE_LOOP('',(#69,#70,#78,#86));
#69 = ORIENTED_EDGE('',*,*,#21,.F.);
#70 = ORIENTED_EDGE('',*,*,#71,.T.);
#71 = EDGE_CURVE('',#22,#72,#74,.T.);
#72 = VERTEX_POINT('',#73);
#73 = CARTESIAN_POINT('',(72.6,37.6,248.1));
#74 = LINE('',#75,#76);
#75 = CARTESIAN_POINT('',(59.6,37.6,248.1));
#76 = VECTOR('',#77,1.);
#77 = DIRECTION('',(1.,0.,0.));
#78 = ORIENTED_EDGE('',*,*,#79,.T.);
#79 = EDGE_CURVE('',#72,#80,#82,.T.);
#80 = VERTEX_POINT('',#81);
#81 = CARTESIAN_POINT('',(72.6,39.,248.1));
#82 = LINE('',#83,#84);
#83 = CARTESIAN_POINT('',(72.6,37.6,248.1));
#84 = VECTOR('',#85,1.);
#85 = DIRECTION('',(0.,1.,2.2E-16));
#86 = ORIENTED_EDGE('',*,*,#87,.F.);
#87 = EDGE_CURVE('',#24,#80,#88,.T.);
#88 = LINE('',#89,#90);
#89 = CARTESIAN_POINT('',(59.6,39.,248.1));
#90 = VECTOR('',#91,1.);
#91 = DIRECTION('',(1.,0.,0.));
#92 = PLANE('',#93);
#93 = AXIS2_PLACEMENT_3D('',#94,#95,#96);
#94 = CARTESIAN_POINT('',(59.6,37.6,248.1));
#95 = DIRECTION('',(0.,-2.2E-16,1.));
#96 = DIRECTION('',(1.,0.,0.));
#97 = ADVANCED_FACE('',(#98),#117,.T.);
#98 = FACE_BOUND('',#99,.F.);
#99 = EDGE_LOOP('',(#100,#101,#109,#116));
#100 = ORIENTED_EDGE('',*,*,#55,.T.);
#101 = ORIENTED_EDGE('',*,*,#102,.T.);
#102 = EDGE_CURVE('',#48,#103,#105,.T.);
#103 = VERTEX_POINT('',#104);
#104 = CARTESIAN_POINT('',(72.6,39.6,247.5));
#105 = LINE('',#106,#107);
#106 = CARTESIAN_POINT('',(59.6,39.6,247.5));
#107 = VECTOR('',#108,1.);
#108 = DIRECTION('',(1.,0.,0.));
#109 = ORIENTED_EDGE('',*,*,#110,.F.);
#110 = EDGE_CURVE('',#80,#103,#111,.T.);
#111 = CIRCLE('',#112,0.6);
#112 = AXIS2_PLACEMENT_3D('',#113,#114,#115);
#113 = CARTESIAN_POINT('',(72.6,39.,247.5));
#114 = DIRECTION('',(-1.,0.,0.));
#115 = DIRECTION('',(0.,1.,2.2E-16));
#116 = ORIENTED_EDGE('',*,*,#87,.F.);
#117 = CYLINDRICAL_SURFACE('',#118,0.6);
#118 = AXIS2_PLACEMENT_3D('',#119,#120,#121);
#119 = CARTESIAN_POINT('',(59.6,39.,247.5));
#120 = DIRECTION('',(1.,0.,0.));
#121 = DIRECTION('',(0.,-2.2E-16,1.));
#122 = ADVANCED_FACE('',(#123,#141,#152),#163,.F.);
#123 = FACE_BOUND('',#124,.F.);
#124 = EDGE_LOOP('',(#125,#133,#134,#135));
#125 = ORIENTED_EDGE('',*,*,#126,.F.);
#126 = EDGE_CURVE('',#32,#127,#129,.T.);
#127 = VERTEX_POINT('',#128);
#128 = CARTESIAN_POINT('',(72.6,37.6,231.));
#129 = LINE('',#130,#131);
#130 = CARTESIAN_POINT('',(59.6,37.6,231.));
#131 = VECTOR('',#132,1.);
#132 = DIRECTION('',(1.,0.,0.));
#133 = ORIENTED_EDGE('',*,*,#31,.T.);
#134 = ORIENTED_EDGE('',*,*,#71,.T.);
#135 = ORIENTED_EDGE('',*,*,#136,.F.);
#136 = EDGE_CURVE('',#127,#72,#137,.T.);
#137 = LINE('',#138,#139);
#138 = CARTESIAN_POINT('',(72.6,37.6,231.));
#139 = VECTOR('',#140,1.);
#140 = DIRECTION('',(0.,-2.2E-16,1.));
#141 = FACE_BOUND('',#142,.F.);
#142 = EDGE_LOOP('',(#143));
#143 = ORIENTED_EDGE('',*,*,#144,.T.);
#144 = EDGE_CURVE('',#145,#145,#147,.T.);
#145 = VERTEX_POINT('',#146);
#146 = CARTESIAN_POINT('',(70.6,37.6,237.));
#147 = CIRCLE('',#148,1.1);
#148 = AXIS2_PLACEMENT_3D('',#149,#150,#151);
#149 = CARTESIAN_POINT('',(69.5,37.6,237.));
#150 = DIRECTION('',(0.,-1.,-2.2E-16));
#151 = DIRECTION('',(1.,0.,0.));
#152 = FACE_BOUND('',#153,.F.);
#153 = EDGE_LOOP('',(#154));
#154 = ORIENTED_EDGE('',*,*,#155,.T.);
#155 = EDGE_CURVE('',#156,#156,#158,.T.);
#156 = VERTEX_POINT('',#157);
#157 = CARTESIAN_POINT('',(70.6,37.6,245.));
#158 = CIRCLE('',#159,1.1);
#159 = AXIS2_PLACEMENT_3D('',#160,#161,#162);
#160 = CARTESIAN_POINT('',(69.5,37.6,245.));
#161 = DIRECTION('',(0.,-1.,-2.2E-16));
#162 = DIRECTION('',(1.,0.,0.));
#163 = PLANE('',#164);
#164 = AXIS2_PLACEMENT_3D('',#165,#166,#167);
#165 = CARTESIAN_POINT('',(59.6,37.6,231.));
#166 = DIRECTION('',(0.,1.,2.2E-16));
#167 = DIRECTION('',(0.,-2.2E-16,1.));
#168 = ADVANCED_FACE('',(#169,#187,#198),#209,.T.);
#169 = FACE_BOUND('',#170,.T.);
#170 = EDGE_LOOP('',(#171,#179,#185,#186));
#171 = ORIENTED_EDGE('',*,*,#172,.F.);
#172 = EDGE_CURVE('',#173,#103,#175,.T.);
#173 = VERTEX_POINT('',#174);
#174 = CARTESIAN_POINT('',(72.6,39.6,231.));
#175 = LINE('',#176,#177);
#176 = CARTESIAN_POINT('',(72.6,39.6,231.));
#177 = VECTOR('',#178,1.);
#178 = DIRECTION('',(0.,-2.2E-16,1.));
#179 = ORIENTED_EDGE('',*,*,#180,.F.);
#180 = EDGE_CURVE('',#40,#173,#181,.T.);
#181 = LINE('',#182,#183);
#182 = CARTESIAN_POINT('',(59.6,39.6,231.));
#183 = VECTOR('',#184,1.);
#184 = DIRECTION('',(1.,0.,0.));
#185 = ORIENTED_EDGE('',*,*,#47,.T.);
#186 = ORIENTED_EDGE('',*,*,#102,.T.);
#187 = FACE_BOUND('',#188,.T.);
#188 = EDGE_LOOP('',(#189));
#189 = ORIENTED_EDGE('',*,*,#190,.T.);
#190 = EDGE_CURVE('',#191,#191,#193,.T.);
#191 = VERTEX_POINT('',#192);
#192 = CARTESIAN_POINT('',(70.6,39.6,237.));
#193 = CIRCLE('',#194,1.1);
#194 = AXIS2_PLACEMENT_3D('',#195,#196,#197);
#195 = CARTESIAN_POINT('',(69.5,39.6,237.));
#196 = DIRECTION('',(0.,-1.,-2.2E-16));
#197 = DIRECTION('',(1.,0.,0.));
#198 = FACE_BOUND('',#199,.T.);
#199 = EDGE_LOOP('',(#200));
#200 = ORIENTED_EDGE('',*,*,#201,.T.);
#201 = EDGE_CURVE('',#202,#202,#204,.T.);
#202 = VERTEX_POINT('',#203);
#203 = CARTESIAN_POINT('',(70.6,39.6,245.));
#204 = CIRCLE('',#205,1.1);
#205 = AXIS2_PLACEMENT_3D('',#206,#207,#208);
#206 = CARTESIAN_POINT('',(69.5,39.6,245.));
#207 = DIRECTION('',(0.,-1.,-2.2E-16));
#208 = DIRECTION('',(1.,0.,0.));
#209 = PLANE('',#210);
#210 = AXIS2_PLACEMENT_3D('',#211,#212,#213);
#211 = CARTESIAN_POINT('',(59.6,39.6,231.));
#212 = DIRECTION('',(0.,1.,2.2E-16));
#213 = DIRECTION('',(0.,-2.2E-16,1.));
#214 = ADVANCED_FACE('',(#215),#226,.F.);
#215 = FACE_BOUND('',#216,.F.);
#216 = EDGE_LOOP('',(#217,#218,#219,#225));
#217 = ORIENTED_EDGE('',*,*,#39,.F.);
#218 = ORIENTED_EDGE('',*,*,#126,.T.);
#219 = ORIENTED_EDGE('',*,*,#220,.T.);
#220 = EDGE_CURVE('',#127,#173,#221,.T.);
#221 = LINE('',#222,#223);
#222 = CARTESIAN_POINT('',(72.6,37.6,231.));
#223 = VECTOR('',#224,1.);
#224 = DIRECTION('',(0.,1.,2.2E-16));
#225 = ORIENTED_EDGE('',*,*,#180,.F.);
#226 = PLANE('',#227);
#227 = AXIS2_PLACEMENT_3D('',#228,#229,#230);
#228 = CARTESIAN_POINT('',(59.6,37.6,231.));
#229 = DIRECTION('',(0.,-2.2E-16,1.));
#230 = DIRECTION('',(1.,0.,0.));
#231 = ADVANCED_FACE('',(#232),#239,.T.);
#232 = FACE_BOUND('',#233,.T.);
#233 = EDGE_LOOP('',(#234,#235,#236,#237,#238));
#234 = ORIENTED_EDGE('',*,*,#79,.F.);
#235 = ORIENTED_EDGE('',*,*,#136,.F.);
#236 = ORIENTED_EDGE('',*,*,#220,.T.);
#237 = ORIENTED_EDGE('',*,*,#172,.T.);
#238 = ORIENTED_EDGE('',*,*,#110,.F.);
#239 = PLANE('',#240);
#240 = AXIS2_PLACEMENT_3D('',#241,#242,#243);
#241 = CARTESIAN_POINT('',(72.6,37.6,231.));
#242 = DIRECTION('',(1.,0.,0.));
#243 = DIRECTION('',(0.,-2.2E-16,1.));
#244 = ADVANCED_FACE('',(#245),#256,.F.);
#245 = FACE_BOUND('',#246,.T.);
#246 = EDGE_LOOP('',(#247,#248,#254,#255));
#247 = ORIENTED_EDGE('',*,*,#144,.T.);
#248 = ORIENTED_EDGE('',*,*,#249,.T.);
#249 = EDGE_CURVE('',#145,#191,#250,.T.);
#250 = LINE('',#251,#252);
#251 = CARTESIAN_POINT('',(70.6,37.4,237.));
#252 = VECTOR('',#253,1.);
#253 = DIRECTION('',(0.,1.,2.2E-16));
#254 = ORIENTED_EDGE('',*,*,#190,.F.);
#255 = ORIENTED_EDGE('',*,*,#249,.F.);
#256 = CYLINDRICAL_SURFACE('',#257,1.1);
#257 = AXIS2_PLACEMENT_3D('',#258,#259,#260);
#258 = CARTESIAN_POINT('',(69.5,37.4,237.));
#259 = DIRECTION('',(-0.,-1.,-2.2E-16));
#260 = DIRECTION('',(1.,0.,0.));
#261 = ADVANCED_FACE('',(#262),#273,.F.);
#262 = FACE_BOUND('',#263,.T.);
#263 = EDGE_LOOP('',(#264,#265,#271,#272));
#264 = ORIENTED_EDGE('',*,*,#155,.T.);
#265 = ORIENTED_EDGE('',*,*,#266,.T.);
#266 = EDGE_CURVE('',#156,#202,#267,.T.);
#267 = LINE('',#268,#269);
#268 = CARTESIAN_POINT('',(70.6,37.4,245.));
#269 = VECTOR('',#270,1.);
#270 = DIRECTION('',(0.,1.,2.2E-16));
#271 = ORIENTED_EDGE('',*,*,#201,.F.);
#272 = ORIENTED_EDGE('',*,*,#266,.F.);
#273 = CYLINDRICAL_SURFACE('',#274,1.1);
#274 = AXIS2_PLACEMENT_3D('',#275,#276,#277);
#275 = CARTESIAN_POINT('',(69.5,37.4,245.));
#276 = DIRECTION('',(-0.,-1.,-2.2E-16));
#277 = DIRECTION('',(1.,0.,0.));
#278 = ( GEOMETRIC_REPRESENTATION_CONTEXT(3) 
GLOBAL_UNCERTAINTY_ASSIGNED_CONTEXT((#282)) GLOBAL_UNIT_ASSIGNED_CONTEXT
((#279,#280,#281)) REPRESENTATION_CONTEXT('Context #1',
  '3D Context with UNIT and UNCERTAINTY') );
#279 = ( LENGTH_UNIT() NAMED_UNIT(*) SI_UNIT(.MILLI.,.METRE.) );
#280 = ( NAMED_UNIT(*) PLANE_ANGLE_UNIT() SI_UNIT($,.RADIAN.) );
#281 = ( NAMED_UNIT(*) SI_UNIT($,.STERADIAN.) SOLID_ANGLE_UNIT() );
#282 = UNCERTAINTY_MEASURE_WITH_UNIT(LENGTH_MEASURE(1.E-07),#279,
  'distance_accuracy_value','confusion accuracy');
#283 = PRODUCT_RELATED_PRODUCT_CATEGORY('part',$,(#7));
ENDSEC;
END-ISO-10303-21;
