ISO-10303-21;
HEADER;
FILE_DESCRIPTION(('FreeCAD Model'),'2;1');
FILE_NAME('Open CASCADE Shape Model','2026-10-09T09:08:59',('FreeCAD'),(
    'FreeCAD'),'Open CASCADE STEP processor 7.8','FreeCAD','Unknown');
FILE_SCHEMA(('AUTOMOTIVE_DESIGN { 1 0 10303 214 1 1 1 1 }'));
ENDSEC;
DATA;
#1 = APPLICATION_PROTOCOL_DEFINITION('international standard',
  'automotive_design',2000,#2);
#2 = APPLICATION_CONTEXT(
  'core data for automotive mechanical design processes');
#3 = SHAPE_DEFINITION_REPRESENTATION(#4,#10);
#4 = PRODUCT_DEFINITION_SHAPE('','',#5);
#5 = PRODUCT_DEFINITION('design','',#6,#9);
#6 = PRODUCT_DEFINITION_FORMATION('','',#7);
#7 = PRODUCT('Open CASCADE STEP translator 7.8 4',
  'Open CASCADE STEP translator 7.8 4','',(#8));
#8 = PRODUCT_CONTEXT('',#2,'mechanical');
#9 = PRODUCT_DEFINITION_CONTEXT('part definition',#2,'design');
#10 = ADVANCED_BREP_SHAPE_REPRESENTATION('',(#11,#15),#578);
#11 = AXIS2_PLACEMENT_3D('',#12,#13,#14);
#12 = CARTESIAN_POINT('',(0.,0.,0.));
#13 = DIRECTION('',(0.,0.,1.));
#14 = DIRECTION('',(1.,0.,-0.));
#15 = MANIFOLD_SOLID_BREP('',#16);
#16 = CLOSED_SHELL('',(#17,#57,#90,#123,#251,#379,#396,#413,#430,#447,
    #459,#476,#493,#510,#527,#544,#561));
#17 = ADVANCED_FACE('',(#18),#52,.T.);
#18 = FACE_BOUND('',#19,.T.);
#19 = EDGE_LOOP('',(#20,#30,#38,#46));
#20 = ORIENTED_EDGE('',*,*,#21,.T.);
#21 = EDGE_CURVE('',#22,#24,#26,.T.);
#22 = VERTEX_POINT('',#23);
#23 = CARTESIAN_POINT('',(-24.,75.,67.));
#24 = VERTEX_POINT('',#25);
#25 = CARTESIAN_POINT('',(-24.,77.,67.));
#26 = LINE('',#27,#28);
#27 = CARTESIAN_POINT('',(-24.,75.,67.));
#28 = VECTOR('',#29,1.);
#29 = DIRECTION('',(-0.,1.,1.1E-16));
#30 = ORIENTED_EDGE('',*,*,#31,.T.);
#31 = EDGE_CURVE('',#24,#32,#34,.T.);
#32 = VERTEX_POINT('',#33);
#33 = CARTESIAN_POINT('',(24.,77.,67.));
#34 = LINE('',#35,#36);
#35 = CARTESIAN_POINT('',(-24.,77.,67.));
#36 = VECTOR('',#37,1.);
#37 = DIRECTION('',(1.,0.,0.));
#38 = ORIENTED_EDGE('',*,*,#39,.F.);
#39 = EDGE_CURVE('',#40,#32,#42,.T.);
#40 = VERTEX_POINT('',#41);
#41 = CARTESIAN_POINT('',(24.,75.,67.));
#42 = LINE('',#43,#44);
#43 = CARTESIAN_POINT('',(24.,75.,67.));
#44 = VECTOR('',#45,1.);
#45 = DIRECTION('',(-0.,1.,1.1E-16));
#46 = ORIENTED_EDGE('',*,*,#47,.F.);
#47 = EDGE_CURVE('',#22,#40,#48,.T.);
#48 = LINE('',#49,#50);
#49 = CARTESIAN_POINT('',(-24.,75.,67.));
#50 = VECTOR('',#51,1.);
#51 = DIRECTION('',(1.,0.,0.));
#52 = PLANE('',#53);
#53 = AXIS2_PLACEMENT_3D('',#54,#55,#56);
#54 = CARTESIAN_POINT('',(-24.,75.,67.));
#55 = DIRECTION('',(0.,1.1E-16,-1.));
#56 = DIRECTION('',(1.,0.,0.));
#57 = ADVANCED_FACE('',(#58),#85,.T.);
#58 = FACE_BOUND('',#59,.T.);
#59 = EDGE_LOOP('',(#60,#70,#77,#78));
#60 = ORIENTED_EDGE('',*,*,#61,.T.);
#61 = EDGE_CURVE('',#62,#64,#66,.T.);
#62 = VERTEX_POINT('',#63);
#63 = CARTESIAN_POINT('',(-32.,75.,75.));
#64 = VERTEX_POINT('',#65);
#65 = CARTESIAN_POINT('',(-32.,77.,75.));
#66 = LINE('',#67,#68);
#67 = CARTESIAN_POINT('',(-32.,75.,75.));
#68 = VECTOR('',#69,1.);
#69 = DIRECTION('',(-0.,1.,1.1E-16));
#70 = ORIENTED_EDGE('',*,*,#71,.T.);
#71 = EDGE_CURVE('',#64,#24,#72,.T.);
#72 = CIRCLE('',#73,8.);
#73 = AXIS2_PLACEMENT_3D('',#74,#75,#76);
#74 = CARTESIAN_POINT('',(-24.,77.,75.));
#75 = DIRECTION('',(0.,-1.,-2.2E-16));
#76 = DIRECTION('',(-1.,2.64E-32,-1.2E-16));
#77 = ORIENTED_EDGE('',*,*,#21,.F.);
#78 = ORIENTED_EDGE('',*,*,#79,.F.);
#79 = EDGE_CURVE('',#62,#22,#80,.T.);
#80 = CIRCLE('',#81,8.);
#81 = AXIS2_PLACEMENT_3D('',#82,#83,#84);
#82 = CARTESIAN_POINT('',(-24.,75.,75.));
#83 = DIRECTION('',(0.,-1.,-2.2E-16));
#84 = DIRECTION('',(-1.,2.64E-32,-1.2E-16));
#85 = CYLINDRICAL_SURFACE('',#86,8.);
#86 = AXIS2_PLACEMENT_3D('',#87,#88,#89);
#87 = CARTESIAN_POINT('',(-24.,75.,75.));
#88 = DIRECTION('',(0.,-1.,-1.1E-16));
#89 = DIRECTION('',(-1.,1.32E-32,-1.2E-16));
#90 = ADVANCED_FACE('',(#91),#118,.T.);
#91 = FACE_BOUND('',#92,.T.);
#92 = EDGE_LOOP('',(#93,#94,#103,#111));
#93 = ORIENTED_EDGE('',*,*,#39,.T.);
#94 = ORIENTED_EDGE('',*,*,#95,.T.);
#95 = EDGE_CURVE('',#32,#96,#98,.T.);
#96 = VERTEX_POINT('',#97);
#97 = CARTESIAN_POINT('',(32.,77.,75.));
#98 = CIRCLE('',#99,8.);
#99 = AXIS2_PLACEMENT_3D('',#100,#101,#102);
#100 = CARTESIAN_POINT('',(24.,77.,75.));
#101 = DIRECTION('',(2.200402353122E-48,-1.,-2.2E-16));
#102 = DIRECTION('',(-8.9E-16,2.2E-16,-1.));
#103 = ORIENTED_EDGE('',*,*,#104,.F.);
#104 = EDGE_CURVE('',#105,#96,#107,.T.);
#105 = VERTEX_POINT('',#106);
#106 = CARTESIAN_POINT('',(32.,75.,75.));
#107 = LINE('',#108,#109);
#108 = CARTESIAN_POINT('',(32.,75.,75.));
#109 = VECTOR('',#110,1.);
#110 = DIRECTION('',(-0.,1.,1.1E-16));
#111 = ORIENTED_EDGE('',*,*,#112,.F.);
#112 = EDGE_CURVE('',#40,#105,#113,.T.);
#113 = CIRCLE('',#114,8.);
#114 = AXIS2_PLACEMENT_3D('',#115,#116,#117);
#115 = CARTESIAN_POINT('',(24.,75.,75.));
#116 = DIRECTION('',(2.200402353122E-48,-1.,-2.2E-16));
#117 = DIRECTION('',(-8.9E-16,2.2E-16,-1.));
#118 = CYLINDRICAL_SURFACE('',#119,8.);
#119 = AXIS2_PLACEMENT_3D('',#120,#121,#122);
#120 = CARTESIAN_POINT('',(24.,75.,75.));
#121 = DIRECTION('',(0.,-1.,-1.1E-16));
#122 = DIRECTION('',(-8.9E-16,1.1E-16,-1.));
#123 = ADVANCED_FACE('',(#124,#169,#180,#191,#202,#213,#224,#235),#246,
  .F.);
#124 = FACE_BOUND('',#125,.F.);
#125 = EDGE_LOOP('',(#126,#127,#128,#136,#145,#153,#162,#168));
#126 = ORIENTED_EDGE('',*,*,#47,.F.);
#127 = ORIENTED_EDGE('',*,*,#79,.F.);
#128 = ORIENTED_EDGE('',*,*,#129,.F.);
#129 = EDGE_CURVE('',#130,#62,#132,.T.);
#130 = VERTEX_POINT('',#131);
#131 = CARTESIAN_POINT('',(-32.,75.,109.));
#132 = LINE('',#133,#134);
#133 = CARTESIAN_POINT('',(-32.,75.,109.));
#134 = VECTOR('',#135,1.);
#135 = DIRECTION('',(0.,2.2E-16,-1.));
#136 = ORIENTED_EDGE('',*,*,#137,.F.);
#137 = EDGE_CURVE('',#138,#130,#140,.T.);
#138 = VERTEX_POINT('',#139);
#139 = CARTESIAN_POINT('',(-24.,75.,117.));
#140 = CIRCLE('',#141,8.);
#141 = AXIS2_PLACEMENT_3D('',#142,#143,#144);
#142 = CARTESIAN_POINT('',(-24.,75.,109.));
#143 = DIRECTION('',(-7.851184578146E-48,-1.,-2.2E-16));
#144 = DIRECTION('',(1.E-15,-2.2E-16,1.));
#145 = ORIENTED_EDGE('',*,*,#146,.F.);
#146 = EDGE_CURVE('',#147,#138,#149,.T.);
#147 = VERTEX_POINT('',#148);
#148 = CARTESIAN_POINT('',(24.,75.,117.));
#149 = LINE('',#150,#151);
#150 = CARTESIAN_POINT('',(24.,75.,117.));
#151 = VECTOR('',#152,1.);
#152 = DIRECTION('',(-1.,0.,0.));
#153 = ORIENTED_EDGE('',*,*,#154,.F.);
#154 = EDGE_CURVE('',#155,#147,#157,.T.);
#155 = VERTEX_POINT('',#156);
#156 = CARTESIAN_POINT('',(32.,75.,109.));
#157 = CIRCLE('',#158,8.);
#158 = AXIS2_PLACEMENT_3D('',#159,#160,#161);
#159 = CARTESIAN_POINT('',(24.,75.,109.));
#160 = DIRECTION('',(0.,-1.,-2.2E-16));
#161 = DIRECTION('',(1.,0.,0.));
#162 = ORIENTED_EDGE('',*,*,#163,.F.);
#163 = EDGE_CURVE('',#105,#155,#164,.T.);
#164 = LINE('',#165,#166);
#165 = CARTESIAN_POINT('',(32.,75.,75.));
#166 = VECTOR('',#167,1.);
#167 = DIRECTION('',(0.,-2.2E-16,1.));
#168 = ORIENTED_EDGE('',*,*,#112,.F.);
#169 = FACE_BOUND('',#170,.F.);
#170 = EDGE_LOOP('',(#171));
#171 = ORIENTED_EDGE('',*,*,#172,.T.);
#172 = EDGE_CURVE('',#173,#173,#175,.T.);
#173 = VERTEX_POINT('',#174);
#174 = CARTESIAN_POINT('',(-24.6,75.,73.));
#175 = CIRCLE('',#176,1.15);
#176 = AXIS2_PLACEMENT_3D('',#177,#178,#179);
#177 = CARTESIAN_POINT('',(-25.75,75.,73.));
#178 = DIRECTION('',(0.,-1.,-2.2E-16));
#179 = DIRECTION('',(1.,0.,0.));
#180 = FACE_BOUND('',#181,.F.);
#181 = EDGE_LOOP('',(#182));
#182 = ORIENTED_EDGE('',*,*,#183,.T.);
#183 = EDGE_CURVE('',#184,#184,#186,.T.);
#184 = VERTEX_POINT('',#185);
#185 = CARTESIAN_POINT('',(-8.6,75.,73.));
#186 = CIRCLE('',#187,1.15);
#187 = AXIS2_PLACEMENT_3D('',#188,#189,#190);
#188 = CARTESIAN_POINT('',(-9.75,75.,73.));
#189 = DIRECTION('',(0.,-1.,-2.2E-16));
#190 = DIRECTION('',(1.,0.,0.));
#191 = FACE_BOUND('',#192,.F.);
#192 = EDGE_LOOP('',(#193));
#193 = ORIENTED_EDGE('',*,*,#194,.T.);
#194 = EDGE_CURVE('',#195,#195,#197,.T.);
#195 = VERTEX_POINT('',#196);
#196 = CARTESIAN_POINT('',(-24.6,75.,103.));
#197 = CIRCLE('',#198,1.15);
#198 = AXIS2_PLACEMENT_3D('',#199,#200,#201);
#199 = CARTESIAN_POINT('',(-25.75,75.,103.));
#200 = DIRECTION('',(0.,-1.,-2.2E-16));
#201 = DIRECTION('',(1.,0.,0.));
#202 = FACE_BOUND('',#203,.F.);
#203 = EDGE_LOOP('',(#204));
#204 = ORIENTED_EDGE('',*,*,#205,.T.);
#205 = EDGE_CURVE('',#206,#206,#208,.T.);
#206 = VERTEX_POINT('',#207);
#207 = CARTESIAN_POINT('',(-3.35,75.,94.5));
#208 = CIRCLE('',#209,1.15);
#209 = AXIS2_PLACEMENT_3D('',#210,#211,#212);
#210 = CARTESIAN_POINT('',(-4.5,75.,94.5));
#211 = DIRECTION('',(0.,-1.,-2.2E-16));
#212 = DIRECTION('',(1.,0.,0.));
#213 = FACE_BOUND('',#214,.F.);
#214 = EDGE_LOOP('',(#215));
#215 = ORIENTED_EDGE('',*,*,#216,.T.);
#216 = EDGE_CURVE('',#217,#217,#219,.T.);
#217 = VERTEX_POINT('',#218);
#218 = CARTESIAN_POINT('',(-3.35,75.,110.5));
#219 = CIRCLE('',#220,1.15);
#220 = AXIS2_PLACEMENT_3D('',#221,#222,#223);
#221 = CARTESIAN_POINT('',(-4.5,75.,110.5));
#222 = DIRECTION('',(0.,-1.,-2.2E-16));
#223 = DIRECTION('',(1.,0.,0.));
#224 = FACE_BOUND('',#225,.F.);
#225 = EDGE_LOOP('',(#226));
#226 = ORIENTED_EDGE('',*,*,#227,.T.);
#227 = EDGE_CURVE('',#228,#228,#230,.T.);
#228 = VERTEX_POINT('',#229);
#229 = CARTESIAN_POINT('',(26.65,75.,94.5));
#230 = CIRCLE('',#231,1.15);
#231 = AXIS2_PLACEMENT_3D('',#232,#233,#234);
#232 = CARTESIAN_POINT('',(25.5,75.,94.5));
#233 = DIRECTION('',(0.,-1.,-2.2E-16));
#234 = DIRECTION('',(1.,0.,0.));
#235 = FACE_BOUND('',#236,.F.);
#236 = EDGE_LOOP('',(#237));
#237 = ORIENTED_EDGE('',*,*,#238,.T.);
#238 = EDGE_CURVE('',#239,#239,#241,.T.);
#239 = VERTEX_POINT('',#240);
#240 = CARTESIAN_POINT('',(26.65,75.,110.5));
#241 = CIRCLE('',#242,1.15);
#242 = AXIS2_PLACEMENT_3D('',#243,#244,#245);
#243 = CARTESIAN_POINT('',(25.5,75.,110.5));
#244 = DIRECTION('',(0.,-1.,-2.2E-16));
#245 = DIRECTION('',(1.,0.,0.));
#246 = PLANE('',#247);
#247 = AXIS2_PLACEMENT_3D('',#248,#249,#250);
#248 = CARTESIAN_POINT('',(8.881784197001E-16,75.,92.));
#249 = DIRECTION('',(0.,1.,-1.E-16));
#250 = DIRECTION('',(0.,1.E-16,1.));
#251 = ADVANCED_FACE('',(#252,#297,#308,#319,#330,#341,#352,#363),#374,
  .T.);
#252 = FACE_BOUND('',#253,.T.);
#253 = EDGE_LOOP('',(#254,#255,#256,#264,#273,#281,#290,#296));
#254 = ORIENTED_EDGE('',*,*,#31,.F.);
#255 = ORIENTED_EDGE('',*,*,#71,.F.);
#256 = ORIENTED_EDGE('',*,*,#257,.F.);
#257 = EDGE_CURVE('',#258,#64,#260,.T.);
#258 = VERTEX_POINT('',#259);
#259 = CARTESIAN_POINT('',(-32.,77.,109.));
#260 = LINE('',#261,#262);
#261 = CARTESIAN_POINT('',(-32.,77.,109.));
#262 = VECTOR('',#263,1.);
#263 = DIRECTION('',(0.,2.2E-16,-1.));
#264 = ORIENTED_EDGE('',*,*,#265,.F.);
#265 = EDGE_CURVE('',#266,#258,#268,.T.);
#266 = VERTEX_POINT('',#267);
#267 = CARTESIAN_POINT('',(-24.,77.,117.));
#268 = CIRCLE('',#269,8.);
#269 = AXIS2_PLACEMENT_3D('',#270,#271,#272);
#270 = CARTESIAN_POINT('',(-24.,77.,109.));
#271 = DIRECTION('',(-7.851184578146E-48,-1.,-2.2E-16));
#272 = DIRECTION('',(1.E-15,-2.2E-16,1.));
#273 = ORIENTED_EDGE('',*,*,#274,.F.);
#274 = EDGE_CURVE('',#275,#266,#277,.T.);
#275 = VERTEX_POINT('',#276);
#276 = CARTESIAN_POINT('',(24.,77.,117.));
#277 = LINE('',#278,#279);
#278 = CARTESIAN_POINT('',(24.,77.,117.));
#279 = VECTOR('',#280,1.);
#280 = DIRECTION('',(-1.,0.,0.));
#281 = ORIENTED_EDGE('',*,*,#282,.F.);
#282 = EDGE_CURVE('',#283,#275,#285,.T.);
#283 = VERTEX_POINT('',#284);
#284 = CARTESIAN_POINT('',(32.,77.,109.));
#285 = CIRCLE('',#286,8.);
#286 = AXIS2_PLACEMENT_3D('',#287,#288,#289);
#287 = CARTESIAN_POINT('',(24.,77.,109.));
#288 = DIRECTION('',(0.,-1.,-2.2E-16));
#289 = DIRECTION('',(1.,0.,0.));
#290 = ORIENTED_EDGE('',*,*,#291,.F.);
#291 = EDGE_CURVE('',#96,#283,#292,.T.);
#292 = LINE('',#293,#294);
#293 = CARTESIAN_POINT('',(32.,77.,75.));
#294 = VECTOR('',#295,1.);
#295 = DIRECTION('',(0.,-2.2E-16,1.));
#296 = ORIENTED_EDGE('',*,*,#95,.F.);
#297 = FACE_BOUND('',#298,.T.);
#298 = EDGE_LOOP('',(#299));
#299 = ORIENTED_EDGE('',*,*,#300,.T.);
#300 = EDGE_CURVE('',#301,#301,#303,.T.);
#301 = VERTEX_POINT('',#302);
#302 = CARTESIAN_POINT('',(-24.6,77.,73.));
#303 = CIRCLE('',#304,1.15);
#304 = AXIS2_PLACEMENT_3D('',#305,#306,#307);
#305 = CARTESIAN_POINT('',(-25.75,77.,73.));
#306 = DIRECTION('',(0.,-1.,-2.2E-16));
#307 = DIRECTION('',(1.,0.,0.));
#308 = FACE_BOUND('',#309,.T.);
#309 = EDGE_LOOP('',(#310));
#310 = ORIENTED_EDGE('',*,*,#311,.T.);
#311 = EDGE_CURVE('',#312,#312,#314,.T.);
#312 = VERTEX_POINT('',#313);
#313 = CARTESIAN_POINT('',(-8.6,77.,73.));
#314 = CIRCLE('',#315,1.15);
#315 = AXIS2_PLACEMENT_3D('',#316,#317,#318);
#316 = CARTESIAN_POINT('',(-9.75,77.,73.));
#317 = DIRECTION('',(0.,-1.,-2.2E-16));
#318 = DIRECTION('',(1.,0.,0.));
#319 = FACE_BOUND('',#320,.T.);
#320 = EDGE_LOOP('',(#321));
#321 = ORIENTED_EDGE('',*,*,#322,.T.);
#322 = EDGE_CURVE('',#323,#323,#325,.T.);
#323 = VERTEX_POINT('',#324);
#324 = CARTESIAN_POINT('',(-24.6,77.,103.));
#325 = CIRCLE('',#326,1.15);
#326 = AXIS2_PLACEMENT_3D('',#327,#328,#329);
#327 = CARTESIAN_POINT('',(-25.75,77.,103.));
#328 = DIRECTION('',(0.,-1.,-2.2E-16));
#329 = DIRECTION('',(1.,0.,0.));
#330 = FACE_BOUND('',#331,.T.);
#331 = EDGE_LOOP('',(#332));
#332 = ORIENTED_EDGE('',*,*,#333,.T.);
#333 = EDGE_CURVE('',#334,#334,#336,.T.);
#334 = VERTEX_POINT('',#335);
#335 = CARTESIAN_POINT('',(-3.35,77.,94.5));
#336 = CIRCLE('',#337,1.15);
#337 = AXIS2_PLACEMENT_3D('',#338,#339,#340);
#338 = CARTESIAN_POINT('',(-4.5,77.,94.5));
#339 = DIRECTION('',(0.,-1.,-2.2E-16));
#340 = DIRECTION('',(1.,0.,0.));
#341 = FACE_BOUND('',#342,.T.);
#342 = EDGE_LOOP('',(#343));
#343 = ORIENTED_EDGE('',*,*,#344,.T.);
#344 = EDGE_CURVE('',#345,#345,#347,.T.);
#345 = VERTEX_POINT('',#346);
#346 = CARTESIAN_POINT('',(-3.35,77.,110.5));
#347 = CIRCLE('',#348,1.15);
#348 = AXIS2_PLACEMENT_3D('',#349,#350,#351);
#349 = CARTESIAN_POINT('',(-4.5,77.,110.5));
#350 = DIRECTION('',(0.,-1.,-2.2E-16));
#351 = DIRECTION('',(1.,0.,0.));
#352 = FACE_BOUND('',#353,.T.);
#353 = EDGE_LOOP('',(#354));
#354 = ORIENTED_EDGE('',*,*,#355,.T.);
#355 = EDGE_CURVE('',#356,#356,#358,.T.);
#356 = VERTEX_POINT('',#357);
#357 = CARTESIAN_POINT('',(26.65,77.,94.5));
#358 = CIRCLE('',#359,1.15);
#359 = AXIS2_PLACEMENT_3D('',#360,#361,#362);
#360 = CARTESIAN_POINT('',(25.5,77.,94.5));
#361 = DIRECTION('',(0.,-1.,-2.2E-16));
#362 = DIRECTION('',(1.,0.,0.));
#363 = FACE_BOUND('',#364,.T.);
#364 = EDGE_LOOP('',(#365));
#365 = ORIENTED_EDGE('',*,*,#366,.T.);
#366 = EDGE_CURVE('',#367,#367,#369,.T.);
#367 = VERTEX_POINT('',#368);
#368 = CARTESIAN_POINT('',(26.65,77.,110.5));
#369 = CIRCLE('',#370,1.15);
#370 = AXIS2_PLACEMENT_3D('',#371,#372,#373);
#371 = CARTESIAN_POINT('',(25.5,77.,110.5));
#372 = DIRECTION('',(0.,-1.,-2.2E-16));
#373 = DIRECTION('',(1.,0.,0.));
#374 = PLANE('',#375);
#375 = AXIS2_PLACEMENT_3D('',#376,#377,#378);
#376 = CARTESIAN_POINT('',(8.881784197001E-16,77.,92.));
#377 = DIRECTION('',(0.,1.,-1.E-16));
#378 = DIRECTION('',(0.,1.E-16,1.));
#379 = ADVANCED_FACE('',(#380),#391,.T.);
#380 = FACE_BOUND('',#381,.T.);
#381 = EDGE_LOOP('',(#382,#388,#389,#390));
#382 = ORIENTED_EDGE('',*,*,#383,.T.);
#383 = EDGE_CURVE('',#130,#258,#384,.T.);
#384 = LINE('',#385,#386);
#385 = CARTESIAN_POINT('',(-32.,75.,109.));
#386 = VECTOR('',#387,1.);
#387 = DIRECTION('',(-0.,1.,1.1E-16));
#388 = ORIENTED_EDGE('',*,*,#257,.T.);
#389 = ORIENTED_EDGE('',*,*,#61,.F.);
#390 = ORIENTED_EDGE('',*,*,#129,.F.);
#391 = PLANE('',#392);
#392 = AXIS2_PLACEMENT_3D('',#393,#394,#395);
#393 = CARTESIAN_POINT('',(-32.,75.,109.));
#394 = DIRECTION('',(-1.,0.,0.));
#395 = DIRECTION('',(0.,1.1E-16,-1.));
#396 = ADVANCED_FACE('',(#397),#408,.T.);
#397 = FACE_BOUND('',#398,.T.);
#398 = EDGE_LOOP('',(#399,#400,#401,#407));
#399 = ORIENTED_EDGE('',*,*,#104,.T.);
#400 = ORIENTED_EDGE('',*,*,#291,.T.);
#401 = ORIENTED_EDGE('',*,*,#402,.F.);
#402 = EDGE_CURVE('',#155,#283,#403,.T.);
#403 = LINE('',#404,#405);
#404 = CARTESIAN_POINT('',(32.,75.,109.));
#405 = VECTOR('',#406,1.);
#406 = DIRECTION('',(-0.,1.,1.1E-16));
#407 = ORIENTED_EDGE('',*,*,#163,.F.);
#408 = PLANE('',#409);
#409 = AXIS2_PLACEMENT_3D('',#410,#411,#412);
#410 = CARTESIAN_POINT('',(32.,75.,75.));
#411 = DIRECTION('',(1.,0.,0.));
#412 = DIRECTION('',(0.,-1.1E-16,1.));
#413 = ADVANCED_FACE('',(#414),#425,.T.);
#414 = FACE_BOUND('',#415,.T.);
#415 = EDGE_LOOP('',(#416,#422,#423,#424));
#416 = ORIENTED_EDGE('',*,*,#417,.T.);
#417 = EDGE_CURVE('',#138,#266,#418,.T.);
#418 = LINE('',#419,#420);
#419 = CARTESIAN_POINT('',(-24.,75.,117.));
#420 = VECTOR('',#421,1.);
#421 = DIRECTION('',(-0.,1.,1.1E-16));
#422 = ORIENTED_EDGE('',*,*,#265,.T.);
#423 = ORIENTED_EDGE('',*,*,#383,.F.);
#424 = ORIENTED_EDGE('',*,*,#137,.F.);
#425 = CYLINDRICAL_SURFACE('',#426,8.);
#426 = AXIS2_PLACEMENT_3D('',#427,#428,#429);
#427 = CARTESIAN_POINT('',(-24.,75.,109.));
#428 = DIRECTION('',(0.,-1.,-1.1E-16));
#429 = DIRECTION('',(1.E-15,-1.1E-16,1.));
#430 = ADVANCED_FACE('',(#431),#442,.T.);
#431 = FACE_BOUND('',#432,.T.);
#432 = EDGE_LOOP('',(#433,#434,#435,#441));
#433 = ORIENTED_EDGE('',*,*,#402,.T.);
#434 = ORIENTED_EDGE('',*,*,#282,.T.);
#435 = ORIENTED_EDGE('',*,*,#436,.F.);
#436 = EDGE_CURVE('',#147,#275,#437,.T.);
#437 = LINE('',#438,#439);
#438 = CARTESIAN_POINT('',(24.,75.,117.));
#439 = VECTOR('',#440,1.);
#440 = DIRECTION('',(-0.,1.,1.1E-16));
#441 = ORIENTED_EDGE('',*,*,#154,.F.);
#442 = CYLINDRICAL_SURFACE('',#443,8.);
#443 = AXIS2_PLACEMENT_3D('',#444,#445,#446);
#444 = CARTESIAN_POINT('',(24.,75.,109.));
#445 = DIRECTION('',(0.,-1.,-1.1E-16));
#446 = DIRECTION('',(1.,0.,0.));
#447 = ADVANCED_FACE('',(#448),#454,.T.);
#448 = FACE_BOUND('',#449,.T.);
#449 = EDGE_LOOP('',(#450,#451,#452,#453));
#450 = ORIENTED_EDGE('',*,*,#436,.T.);
#451 = ORIENTED_EDGE('',*,*,#274,.T.);
#452 = ORIENTED_EDGE('',*,*,#417,.F.);
#453 = ORIENTED_EDGE('',*,*,#146,.F.);
#454 = PLANE('',#455);
#455 = AXIS2_PLACEMENT_3D('',#456,#457,#458);
#456 = CARTESIAN_POINT('',(24.,75.,117.));
#457 = DIRECTION('',(0.,-1.1E-16,1.));
#458 = DIRECTION('',(-1.,0.,0.));
#459 = ADVANCED_FACE('',(#460),#471,.F.);
#460 = FACE_BOUND('',#461,.T.);
#461 = EDGE_LOOP('',(#462,#463,#469,#470));
#462 = ORIENTED_EDGE('',*,*,#172,.T.);
#463 = ORIENTED_EDGE('',*,*,#464,.T.);
#464 = EDGE_CURVE('',#173,#301,#465,.T.);
#465 = LINE('',#466,#467);
#466 = CARTESIAN_POINT('',(-24.6,74.9,73.));
#467 = VECTOR('',#468,1.);
#468 = DIRECTION('',(0.,1.,2.2E-16));
#469 = ORIENTED_EDGE('',*,*,#300,.F.);
#470 = ORIENTED_EDGE('',*,*,#464,.F.);
#471 = CYLINDRICAL_SURFACE('',#472,1.15);
#472 = AXIS2_PLACEMENT_3D('',#473,#474,#475);
#473 = CARTESIAN_POINT('',(-25.75,74.9,73.));
#474 = DIRECTION('',(-0.,-1.,-2.2E-16));
#475 = DIRECTION('',(1.,0.,0.));
#476 = ADVANCED_FACE('',(#477),#488,.F.);
#477 = FACE_BOUND('',#478,.T.);
#478 = EDGE_LOOP('',(#479,#480,#486,#487));
#479 = ORIENTED_EDGE('',*,*,#183,.T.);
#480 = ORIENTED_EDGE('',*,*,#481,.T.);
#481 = EDGE_CURVE('',#184,#312,#482,.T.);
#482 = LINE('',#483,#484);
#483 = CARTESIAN_POINT('',(-8.6,74.9,73.));
#484 = VECTOR('',#485,1.);
#485 = DIRECTION('',(0.,1.,2.2E-16));
#486 = ORIENTED_EDGE('',*,*,#311,.F.);
#487 = ORIENTED_EDGE('',*,*,#481,.F.);
#488 = CYLINDRICAL_SURFACE('',#489,1.15);
#489 = AXIS2_PLACEMENT_3D('',#490,#491,#492);
#490 = CARTESIAN_POINT('',(-9.75,74.9,73.));
#491 = DIRECTION('',(-0.,-1.,-2.2E-16));
#492 = DIRECTION('',(1.,0.,0.));
#493 = ADVANCED_FACE('',(#494),#505,.F.);
#494 = FACE_BOUND('',#495,.T.);
#495 = EDGE_LOOP('',(#496,#497,#503,#504));
#496 = ORIENTED_EDGE('',*,*,#194,.T.);
#497 = ORIENTED_EDGE('',*,*,#498,.T.);
#498 = EDGE_CURVE('',#195,#323,#499,.T.);
#499 = LINE('',#500,#501);
#500 = CARTESIAN_POINT('',(-24.6,74.9,103.));
#501 = VECTOR('',#502,1.);
#502 = DIRECTION('',(0.,1.,2.2E-16));
#503 = ORIENTED_EDGE('',*,*,#322,.F.);
#504 = ORIENTED_EDGE('',*,*,#498,.F.);
#505 = CYLINDRICAL_SURFACE('',#506,1.15);
#506 = AXIS2_PLACEMENT_3D('',#507,#508,#509);
#507 = CARTESIAN_POINT('',(-25.75,74.9,103.));
#508 = DIRECTION('',(-0.,-1.,-2.2E-16));
#509 = DIRECTION('',(1.,0.,0.));
#510 = ADVANCED_FACE('',(#511),#522,.F.);
#511 = FACE_BOUND('',#512,.T.);
#512 = EDGE_LOOP('',(#513,#514,#520,#521));
#513 = ORIENTED_EDGE('',*,*,#205,.T.);
#514 = ORIENTED_EDGE('',*,*,#515,.T.);
#515 = EDGE_CURVE('',#206,#334,#516,.T.);
#516 = LINE('',#517,#518);
#517 = CARTESIAN_POINT('',(-3.35,74.9,94.5));
#518 = VECTOR('',#519,1.);
#519 = DIRECTION('',(0.,1.,2.2E-16));
#520 = ORIENTED_EDGE('',*,*,#333,.F.);
#521 = ORIENTED_EDGE('',*,*,#515,.F.);
#522 = CYLINDRICAL_SURFACE('',#523,1.15);
#523 = AXIS2_PLACEMENT_3D('',#524,#525,#526);
#524 = CARTESIAN_POINT('',(-4.5,74.9,94.5));
#525 = DIRECTION('',(-0.,-1.,-2.2E-16));
#526 = DIRECTION('',(1.,0.,0.));
#527 = ADVANCED_FACE('',(#528),#539,.F.);
#528 = FACE_BOUND('',#529,.T.);
#529 = EDGE_LOOP('',(#530,#531,#537,#538));
#530 = ORIENTED_EDGE('',*,*,#216,.T.);
#531 = ORIENTED_EDGE('',*,*,#532,.T.);
#532 = EDGE_CURVE('',#217,#345,#533,.T.);
#533 = LINE('',#534,#535);
#534 = CARTESIAN_POINT('',(-3.35,74.9,110.5));
#535 = VECTOR('',#536,1.);
#536 = DIRECTION('',(0.,1.,2.2E-16));
#537 = ORIENTED_EDGE('',*,*,#344,.F.);
#538 = ORIENTED_EDGE('',*,*,#532,.F.);
#539 = CYLINDRICAL_SURFACE('',#540,1.15);
#540 = AXIS2_PLACEMENT_3D('',#541,#542,#543);
#541 = CARTESIAN_POINT('',(-4.5,74.9,110.5));
#542 = DIRECTION('',(-0.,-1.,-2.2E-16));
#543 = DIRECTION('',(1.,0.,0.));
#544 = ADVANCED_FACE('',(#545),#556,.F.);
#545 = FACE_BOUND('',#546,.T.);
#546 = EDGE_LOOP('',(#547,#548,#554,#555));
#547 = ORIENTED_EDGE('',*,*,#227,.T.);
#548 = ORIENTED_EDGE('',*,*,#549,.T.);
#549 = EDGE_CURVE('',#228,#356,#550,.T.);
#550 = LINE('',#551,#552);
#551 = CARTESIAN_POINT('',(26.65,74.9,94.5));
#552 = VECTOR('',#553,1.);
#553 = DIRECTION('',(0.,1.,2.2E-16));
#554 = ORIENTED_EDGE('',*,*,#355,.F.);
#555 = ORIENTED_EDGE('',*,*,#549,.F.);
#556 = CYLINDRICAL_SURFACE('',#557,1.15);
#557 = AXIS2_PLACEMENT_3D('',#558,#559,#560);
#558 = CARTESIAN_POINT('',(25.5,74.9,94.5));
#559 = DIRECTION('',(-0.,-1.,-2.2E-16));
#560 = DIRECTION('',(1.,0.,0.));
#561 = ADVANCED_FACE('',(#562),#573,.F.);
#562 = FACE_BOUND('',#563,.T.);
#563 = EDGE_LOOP('',(#564,#565,#571,#572));
#564 = ORIENTED_EDGE('',*,*,#238,.T.);
#565 = ORIENTED_EDGE('',*,*,#566,.T.);
#566 = EDGE_CURVE('',#239,#367,#567,.T.);
#567 = LINE('',#568,#569);
#568 = CARTESIAN_POINT('',(26.65,74.9,110.5));
#569 = VECTOR('',#570,1.);
#570 = DIRECTION('',(0.,1.,2.2E-16));
#571 = ORIENTED_EDGE('',*,*,#366,.F.);
#572 = ORIENTED_EDGE('',*,*,#566,.F.);
#573 = CYLINDRICAL_SURFACE('',#574,1.15);
#574 = AXIS2_PLACEMENT_3D('',#575,#576,#577);
#575 = CARTESIAN_POINT('',(25.5,74.9,110.5));
#576 = DIRECTION('',(-0.,-1.,-2.2E-16));
#577 = DIRECTION('',(1.,0.,0.));
#578 = ( GEOMETRIC_REPRESENTATION_CONTEXT(3) 
GLOBAL_UNCERTAINTY_ASSIGNED_CONTEXT((#582)) GLOBAL_UNIT_ASSIGNED_CONTEXT
((#579,#580,#581)) REPRESENTATION_CONTEXT('Context #1',
  '3D Context with UNIT and UNCERTAINTY') );
#579 = ( LENGTH_UNIT() NAMED_UNIT(*) SI_UNIT(.MILLI.,.METRE.) );
#580 = ( NAMED_UNIT(*) PLANE_ANGLE_UNIT() SI_UNIT($,.RADIAN.) );
#581 = ( NAMED_UNIT(*) SI_UNIT($,.STERADIAN.) SOLID_ANGLE_UNIT() );
#582 = UNCERTAINTY_MEASURE_WITH_UNIT(LENGTH_MEASURE(1.E-07),#579,
  'distance_accuracy_value','confusion accuracy');
#583 = PRODUCT_RELATED_PRODUCT_CATEGORY('part',$,(#7));
ENDSEC;
END-ISO-10303-21;
