ISO-10303-21;
HEADER;
FILE_DESCRIPTION(('FreeCAD Model'),'2;1');
FILE_NAME('Open CASCADE Shape Model','2026-10-09T09:09:14',('FreeCAD'),(
    'FreeCAD'),'Open CASCADE STEP processor 7.8','FreeCAD','Unknown');
FILE_SCHEMA(('AUTOMOTIVE_DESIGN { 1 0 10303 214 1 1 1 1 }'));
ENDSEC;
DATA;
#1 = APPLICATION_PROTOCOL_DEFINITION('international standard',
  'automotive_design',2000,#2);
#2 = APPLICATION_CONTEXT(
  'core data for automotive mechanical design processes');
#3 = SHAPE_DEFINITION_REPRESENTATION(#4,#10);
#4 = PRODUCT_DEFINITION_SHAPE('','',#5);
#5 = PRODUCT_DEFINITION('design','',#6,#9);
#6 = PRODUCT_DEFINITION_FORMATION('','',#7);
#7 = PRODUCT('Open CASCADE STEP translator 7.8 30',
  'Open CASCADE STEP translator 7.8 30','',(#8));
#8 = PRODUCT_CONTEXT('',#2,'mechanical');
#9 = PRODUCT_DEFINITION_CONTEXT('part definition',#2,'design');
#10 = ADVANCED_BREP_SHAPE_REPRESENTATION('',(#11,#15),#370);
#11 = AXIS2_PLACEMENT_3D('',#12,#13,#14);
#12 = CARTESIAN_POINT('',(0.,0.,0.));
#13 = DIRECTION('',(0.,0.,1.));
#14 = DIRECTION('',(1.,0.,-0.));
#15 = MANIFOLD_SOLID_BREP('',#16);
#16 = CLOSED_SHELL('',(#17,#57,#147,#171,#254,#271,#288,#305,#319,#336,
    #353));
#17 = ADVANCED_FACE('',(#18),#52,.F.);
#18 = FACE_BOUND('',#19,.F.);
#19 = EDGE_LOOP('',(#20,#30,#38,#46));
#20 = ORIENTED_EDGE('',*,*,#21,.F.);
#21 = EDGE_CURVE('',#22,#24,#26,.T.);
#22 = VERTEX_POINT('',#23);
#23 = CARTESIAN_POINT('',(33.,-27.7,140.5));
#24 = VERTEX_POINT('',#25);
#25 = CARTESIAN_POINT('',(33.,-27.7,149.5));
#26 = LINE('',#27,#28);
#27 = CARTESIAN_POINT('',(33.,-27.7,140.5));
#28 = VECTOR('',#29,1.);
#29 = DIRECTION('',(0.,-2.2E-16,1.));
#30 = ORIENTED_EDGE('',*,*,#31,.T.);
#31 = EDGE_CURVE('',#22,#32,#34,.T.);
#32 = VERTEX_POINT('',#33);
#33 = CARTESIAN_POINT('',(33.,-25.7,140.5));
#34 = LINE('',#35,#36);
#35 = CARTESIAN_POINT('',(33.,-27.7,140.5));
#36 = VECTOR('',#37,1.);
#37 = DIRECTION('',(0.,1.,2.2E-16));
#38 = ORIENTED_EDGE('',*,*,#39,.T.);
#39 = EDGE_CURVE('',#32,#40,#42,.T.);
#40 = VERTEX_POINT('',#41);
#41 = CARTESIAN_POINT('',(33.,-25.7,149.5));
#42 = LINE('',#43,#44);
#43 = CARTESIAN_POINT('',(33.,-25.7,140.5));
#44 = VECTOR('',#45,1.);
#45 = DIRECTION('',(0.,-2.2E-16,1.));
#46 = ORIENTED_EDGE('',*,*,#47,.F.);
#47 = EDGE_CURVE('',#24,#40,#48,.T.);
#48 = LINE('',#49,#50);
#49 = CARTESIAN_POINT('',(33.,-27.7,149.5));
#50 = VECTOR('',#51,1.);
#51 = DIRECTION('',(0.,1.,2.2E-16));
#52 = PLANE('',#53);
#53 = AXIS2_PLACEMENT_3D('',#54,#55,#56);
#54 = CARTESIAN_POINT('',(33.,-27.7,140.5));
#55 = DIRECTION('',(1.,0.,0.));
#56 = DIRECTION('',(0.,-2.2E-16,1.));
#57 = ADVANCED_FACE('',(#58,#109,#120,#131),#142,.T.);
#58 = FACE_BOUND('',#59,.T.);
#59 = EDGE_LOOP('',(#60,#70,#78,#87,#96,#102,#103));
#60 = ORIENTED_EDGE('',*,*,#61,.T.);
#61 = EDGE_CURVE('',#62,#64,#66,.T.);
#62 = VERTEX_POINT('',#63);
#63 = CARTESIAN_POINT('',(49.,-27.7,140.5));
#64 = VERTEX_POINT('',#65);
#65 = CARTESIAN_POINT('',(49.,-27.7,149.5));
#66 = LINE('',#67,#68);
#67 = CARTESIAN_POINT('',(49.,-27.7,140.5));
#68 = VECTOR('',#69,1.);
#69 = DIRECTION('',(0.,-2.2E-16,1.));
#70 = ORIENTED_EDGE('',*,*,#71,.F.);
#71 = EDGE_CURVE('',#72,#64,#74,.T.);
#72 = VERTEX_POINT('',#73);
#73 = CARTESIAN_POINT('',(45.846648326421,-27.7,149.5));
#74 = LINE('',#75,#76);
#75 = CARTESIAN_POINT('',(33.,-27.7,149.5));
#76 = VECTOR('',#77,1.);
#77 = DIRECTION('',(1.,0.,0.));
#78 = ORIENTED_EDGE('',*,*,#79,.F.);
#79 = EDGE_CURVE('',#80,#72,#82,.T.);
#80 = VERTEX_POINT('',#81);
#81 = CARTESIAN_POINT('',(46.7,-27.7,152.5));
#82 = CIRCLE('',#83,5.7);
#83 = AXIS2_PLACEMENT_3D('',#84,#85,#86);
#84 = CARTESIAN_POINT('',(41.,-27.7,152.5));
#85 = DIRECTION('',(-0.,1.,2.2E-16));
#86 = DIRECTION('',(1.,0.,0.));
#87 = ORIENTED_EDGE('',*,*,#88,.F.);
#88 = EDGE_CURVE('',#89,#80,#91,.T.);
#89 = VERTEX_POINT('',#90);
#90 = CARTESIAN_POINT('',(36.153351673579,-27.7,149.5));
#91 = CIRCLE('',#92,5.7);
#92 = AXIS2_PLACEMENT_3D('',#93,#94,#95);
#93 = CARTESIAN_POINT('',(41.,-27.7,152.5));
#94 = DIRECTION('',(-0.,1.,2.2E-16));
#95 = DIRECTION('',(1.,0.,0.));
#96 = ORIENTED_EDGE('',*,*,#97,.F.);
#97 = EDGE_CURVE('',#24,#89,#98,.T.);
#98 = LINE('',#99,#100);
#99 = CARTESIAN_POINT('',(33.,-27.7,149.5));
#100 = VECTOR('',#101,1.);
#101 = DIRECTION('',(1.,0.,0.));
#102 = ORIENTED_EDGE('',*,*,#21,.F.);
#103 = ORIENTED_EDGE('',*,*,#104,.T.);
#104 = EDGE_CURVE('',#22,#62,#105,.T.);
#105 = LINE('',#106,#107);
#106 = CARTESIAN_POINT('',(33.,-27.7,140.5));
#107 = VECTOR('',#108,1.);
#108 = DIRECTION('',(1.,0.,0.));
#109 = FACE_BOUND('',#110,.T.);
#110 = EDGE_LOOP('',(#111));
#111 = ORIENTED_EDGE('',*,*,#112,.F.);
#112 = EDGE_CURVE('',#113,#113,#115,.T.);
#113 = VERTEX_POINT('',#114);
#114 = CARTESIAN_POINT('',(43.25,-27.7,152.5));
#115 = CIRCLE('',#116,2.25);
#116 = AXIS2_PLACEMENT_3D('',#117,#118,#119);
#117 = CARTESIAN_POINT('',(41.,-27.7,152.5));
#118 = DIRECTION('',(0.,-1.,-2.2E-16));
#119 = DIRECTION('',(1.,0.,0.));
#120 = FACE_BOUND('',#121,.T.);
#121 = EDGE_LOOP('',(#122));
#122 = ORIENTED_EDGE('',*,*,#123,.F.);
#123 = EDGE_CURVE('',#124,#124,#126,.T.);
#124 = VERTEX_POINT('',#125);
#125 = CARTESIAN_POINT('',(46.15,-27.7,144.5));
#126 = CIRCLE('',#127,1.15);
#127 = AXIS2_PLACEMENT_3D('',#128,#129,#130);
#128 = CARTESIAN_POINT('',(45.,-27.7,144.5));
#129 = DIRECTION('',(0.,-1.,-2.2E-16));
#130 = DIRECTION('',(1.,0.,0.));
#131 = FACE_BOUND('',#132,.T.);
#132 = EDGE_LOOP('',(#133));
#133 = ORIENTED_EDGE('',*,*,#134,.F.);
#134 = EDGE_CURVE('',#135,#135,#137,.T.);
#135 = VERTEX_POINT('',#136);
#136 = CARTESIAN_POINT('',(38.15,-27.7,144.5));
#137 = CIRCLE('',#138,1.15);
#138 = AXIS2_PLACEMENT_3D('',#139,#140,#141);
#139 = CARTESIAN_POINT('',(37.,-27.7,144.5));
#140 = DIRECTION('',(0.,-1.,-2.2E-16));
#141 = DIRECTION('',(1.,0.,0.));
#142 = PLANE('',#143);
#143 = AXIS2_PLACEMENT_3D('',#144,#145,#146);
#144 = CARTESIAN_POINT('',(41.048558403197,-27.7,147.72789025006));
#145 = DIRECTION('',(-0.,-1.,-2.2E-16));
#146 = DIRECTION('',(-1.,0.,0.));
#147 = ADVANCED_FACE('',(#148),#166,.T.);
#148 = FACE_BOUND('',#149,.T.);
#149 = EDGE_LOOP('',(#150,#158,#159,#160));
#150 = ORIENTED_EDGE('',*,*,#151,.F.);
#151 = EDGE_CURVE('',#40,#152,#154,.T.);
#152 = VERTEX_POINT('',#153);
#153 = CARTESIAN_POINT('',(36.153351673579,-25.7,149.5));
#154 = LINE('',#155,#156);
#155 = CARTESIAN_POINT('',(33.,-25.7,149.5));
#156 = VECTOR('',#157,1.);
#157 = DIRECTION('',(1.,0.,0.));
#158 = ORIENTED_EDGE('',*,*,#47,.F.);
#159 = ORIENTED_EDGE('',*,*,#97,.T.);
#160 = ORIENTED_EDGE('',*,*,#161,.F.);
#161 = EDGE_CURVE('',#152,#89,#162,.T.);
#162 = LINE('',#163,#164);
#163 = CARTESIAN_POINT('',(36.153351673579,-27.7,149.5));
#164 = VECTOR('',#165,1.);
#165 = DIRECTION('',(-0.,-1.,-2.2E-16));
#166 = PLANE('',#167);
#167 = AXIS2_PLACEMENT_3D('',#168,#169,#170);
#168 = CARTESIAN_POINT('',(33.,-27.7,149.5));
#169 = DIRECTION('',(0.,-2.2E-16,1.));
#170 = DIRECTION('',(1.,0.,0.));
#171 = ADVANCED_FACE('',(#172,#216,#227,#238),#249,.T.);
#172 = FACE_BOUND('',#173,.T.);
#173 = EDGE_LOOP('',(#174,#184,#190,#191,#192,#201,#210));
#174 = ORIENTED_EDGE('',*,*,#175,.F.);
#175 = EDGE_CURVE('',#176,#178,#180,.T.);
#176 = VERTEX_POINT('',#177);
#177 = CARTESIAN_POINT('',(49.,-25.7,140.5));
#178 = VERTEX_POINT('',#179);
#179 = CARTESIAN_POINT('',(49.,-25.7,149.5));
#180 = LINE('',#181,#182);
#181 = CARTESIAN_POINT('',(49.,-25.7,140.5));
#182 = VECTOR('',#183,1.);
#183 = DIRECTION('',(0.,-2.2E-16,1.));
#184 = ORIENTED_EDGE('',*,*,#185,.F.);
#185 = EDGE_CURVE('',#32,#176,#186,.T.);
#186 = LINE('',#187,#188);
#187 = CARTESIAN_POINT('',(33.,-25.7,140.5));
#188 = VECTOR('',#189,1.);
#189 = DIRECTION('',(1.,0.,0.));
#190 = ORIENTED_EDGE('',*,*,#39,.T.);
#191 = ORIENTED_EDGE('',*,*,#151,.T.);
#192 = ORIENTED_EDGE('',*,*,#193,.T.);
#193 = EDGE_CURVE('',#152,#194,#196,.T.);
#194 = VERTEX_POINT('',#195);
#195 = CARTESIAN_POINT('',(46.7,-25.7,152.5));
#196 = CIRCLE('',#197,5.7);
#197 = AXIS2_PLACEMENT_3D('',#198,#199,#200);
#198 = CARTESIAN_POINT('',(41.,-25.7,152.5));
#199 = DIRECTION('',(-0.,1.,2.2E-16));
#200 = DIRECTION('',(1.,0.,0.));
#201 = ORIENTED_EDGE('',*,*,#202,.T.);
#202 = EDGE_CURVE('',#194,#203,#205,.T.);
#203 = VERTEX_POINT('',#204);
#204 = CARTESIAN_POINT('',(45.846648326421,-25.7,149.5));
#205 = CIRCLE('',#206,5.7);
#206 = AXIS2_PLACEMENT_3D('',#207,#208,#209);
#207 = CARTESIAN_POINT('',(41.,-25.7,152.5));
#208 = DIRECTION('',(-0.,1.,2.2E-16));
#209 = DIRECTION('',(1.,0.,0.));
#210 = ORIENTED_EDGE('',*,*,#211,.T.);
#211 = EDGE_CURVE('',#203,#178,#212,.T.);
#212 = LINE('',#213,#214);
#213 = CARTESIAN_POINT('',(33.,-25.7,149.5));
#214 = VECTOR('',#215,1.);
#215 = DIRECTION('',(1.,0.,0.));
#216 = FACE_BOUND('',#217,.T.);
#217 = EDGE_LOOP('',(#218));
#218 = ORIENTED_EDGE('',*,*,#219,.T.);
#219 = EDGE_CURVE('',#220,#220,#222,.T.);
#220 = VERTEX_POINT('',#221);
#221 = CARTESIAN_POINT('',(43.25,-25.7,152.5));
#222 = CIRCLE('',#223,2.25);
#223 = AXIS2_PLACEMENT_3D('',#224,#225,#226);
#224 = CARTESIAN_POINT('',(41.,-25.7,152.5));
#225 = DIRECTION('',(0.,-1.,-2.2E-16));
#226 = DIRECTION('',(1.,0.,0.));
#227 = FACE_BOUND('',#228,.T.);
#228 = EDGE_LOOP('',(#229));
#229 = ORIENTED_EDGE('',*,*,#230,.T.);
#230 = EDGE_CURVE('',#231,#231,#233,.T.);
#231 = VERTEX_POINT('',#232);
#232 = CARTESIAN_POINT('',(38.15,-25.7,144.5));
#233 = CIRCLE('',#234,1.15);
#234 = AXIS2_PLACEMENT_3D('',#235,#236,#237);
#235 = CARTESIAN_POINT('',(37.,-25.7,144.5));
#236 = DIRECTION('',(0.,-1.,-2.2E-16));
#237 = DIRECTION('',(1.,0.,0.));
#238 = FACE_BOUND('',#239,.T.);
#239 = EDGE_LOOP('',(#240));
#240 = ORIENTED_EDGE('',*,*,#241,.T.);
#241 = EDGE_CURVE('',#242,#242,#244,.T.);
#242 = VERTEX_POINT('',#243);
#243 = CARTESIAN_POINT('',(46.15,-25.7,144.5));
#244 = CIRCLE('',#245,1.15);
#245 = AXIS2_PLACEMENT_3D('',#246,#247,#248);
#246 = CARTESIAN_POINT('',(45.,-25.7,144.5));
#247 = DIRECTION('',(0.,-1.,-2.2E-16));
#248 = DIRECTION('',(1.,0.,0.));
#249 = PLANE('',#250);
#250 = AXIS2_PLACEMENT_3D('',#251,#252,#253);
#251 = CARTESIAN_POINT('',(41.048558403197,-25.7,147.72789025006));
#252 = DIRECTION('',(0.,1.,2.2E-16));
#253 = DIRECTION('',(1.,0.,0.));
#254 = ADVANCED_FACE('',(#255),#266,.F.);
#255 = FACE_BOUND('',#256,.F.);
#256 = EDGE_LOOP('',(#257,#258,#259,#265));
#257 = ORIENTED_EDGE('',*,*,#31,.F.);
#258 = ORIENTED_EDGE('',*,*,#104,.T.);
#259 = ORIENTED_EDGE('',*,*,#260,.T.);
#260 = EDGE_CURVE('',#62,#176,#261,.T.);
#261 = LINE('',#262,#263);
#262 = CARTESIAN_POINT('',(49.,-27.7,140.5));
#263 = VECTOR('',#264,1.);
#264 = DIRECTION('',(0.,1.,2.2E-16));
#265 = ORIENTED_EDGE('',*,*,#185,.F.);
#266 = PLANE('',#267);
#267 = AXIS2_PLACEMENT_3D('',#268,#269,#270);
#268 = CARTESIAN_POINT('',(33.,-27.7,140.5));
#269 = DIRECTION('',(0.,-2.2E-16,1.));
#270 = DIRECTION('',(1.,0.,0.));
#271 = ADVANCED_FACE('',(#272),#283,.T.);
#272 = FACE_BOUND('',#273,.T.);
#273 = EDGE_LOOP('',(#274,#275,#276,#277));
#274 = ORIENTED_EDGE('',*,*,#61,.F.);
#275 = ORIENTED_EDGE('',*,*,#260,.T.);
#276 = ORIENTED_EDGE('',*,*,#175,.T.);
#277 = ORIENTED_EDGE('',*,*,#278,.F.);
#278 = EDGE_CURVE('',#64,#178,#279,.T.);
#279 = LINE('',#280,#281);
#280 = CARTESIAN_POINT('',(49.,-27.7,149.5));
#281 = VECTOR('',#282,1.);
#282 = DIRECTION('',(0.,1.,2.2E-16));
#283 = PLANE('',#284);
#284 = AXIS2_PLACEMENT_3D('',#285,#286,#287);
#285 = CARTESIAN_POINT('',(49.,-27.7,140.5));
#286 = DIRECTION('',(1.,0.,0.));
#287 = DIRECTION('',(0.,-2.2E-16,1.));
#288 = ADVANCED_FACE('',(#289),#300,.T.);
#289 = FACE_BOUND('',#290,.T.);
#290 = EDGE_LOOP('',(#291,#292,#298,#299));
#291 = ORIENTED_EDGE('',*,*,#211,.F.);
#292 = ORIENTED_EDGE('',*,*,#293,.T.);
#293 = EDGE_CURVE('',#203,#72,#294,.T.);
#294 = LINE('',#295,#296);
#295 = CARTESIAN_POINT('',(45.846648326421,-27.7,149.5));
#296 = VECTOR('',#297,1.);
#297 = DIRECTION('',(-0.,-1.,-2.2E-16));
#298 = ORIENTED_EDGE('',*,*,#71,.T.);
#299 = ORIENTED_EDGE('',*,*,#278,.T.);
#300 = PLANE('',#301);
#301 = AXIS2_PLACEMENT_3D('',#302,#303,#304);
#302 = CARTESIAN_POINT('',(33.,-27.7,149.5));
#303 = DIRECTION('',(0.,-2.2E-16,1.));
#304 = DIRECTION('',(1.,0.,0.));
#305 = ADVANCED_FACE('',(#306),#314,.T.);
#306 = FACE_BOUND('',#307,.F.);
#307 = EDGE_LOOP('',(#308,#309,#310,#311,#312,#313));
#308 = ORIENTED_EDGE('',*,*,#293,.T.);
#309 = ORIENTED_EDGE('',*,*,#79,.F.);
#310 = ORIENTED_EDGE('',*,*,#88,.F.);
#311 = ORIENTED_EDGE('',*,*,#161,.F.);
#312 = ORIENTED_EDGE('',*,*,#193,.T.);
#313 = ORIENTED_EDGE('',*,*,#202,.T.);
#314 = CYLINDRICAL_SURFACE('',#315,5.7);
#315 = AXIS2_PLACEMENT_3D('',#316,#317,#318);
#316 = CARTESIAN_POINT('',(41.,-27.7,152.5));
#317 = DIRECTION('',(-0.,-1.,-2.2E-16));
#318 = DIRECTION('',(1.,0.,0.));
#319 = ADVANCED_FACE('',(#320),#331,.F.);
#320 = FACE_BOUND('',#321,.T.);
#321 = EDGE_LOOP('',(#322,#323,#329,#330));
#322 = ORIENTED_EDGE('',*,*,#112,.T.);
#323 = ORIENTED_EDGE('',*,*,#324,.T.);
#324 = EDGE_CURVE('',#113,#220,#325,.T.);
#325 = LINE('',#326,#327);
#326 = CARTESIAN_POINT('',(43.25,-27.8,152.5));
#327 = VECTOR('',#328,1.);
#328 = DIRECTION('',(0.,1.,2.2E-16));
#329 = ORIENTED_EDGE('',*,*,#219,.F.);
#330 = ORIENTED_EDGE('',*,*,#324,.F.);
#331 = CYLINDRICAL_SURFACE('',#332,2.25);
#332 = AXIS2_PLACEMENT_3D('',#333,#334,#335);
#333 = CARTESIAN_POINT('',(41.,-27.8,152.5));
#334 = DIRECTION('',(-0.,-1.,-2.2E-16));
#335 = DIRECTION('',(1.,0.,0.));
#336 = ADVANCED_FACE('',(#337),#348,.F.);
#337 = FACE_BOUND('',#338,.T.);
#338 = EDGE_LOOP('',(#339,#340,#346,#347));
#339 = ORIENTED_EDGE('',*,*,#123,.T.);
#340 = ORIENTED_EDGE('',*,*,#341,.T.);
#341 = EDGE_CURVE('',#124,#242,#342,.T.);
#342 = LINE('',#343,#344);
#343 = CARTESIAN_POINT('',(46.15,-27.8,144.5));
#344 = VECTOR('',#345,1.);
#345 = DIRECTION('',(0.,1.,2.2E-16));
#346 = ORIENTED_EDGE('',*,*,#241,.F.);
#347 = ORIENTED_EDGE('',*,*,#341,.F.);
#348 = CYLINDRICAL_SURFACE('',#349,1.15);
#349 = AXIS2_PLACEMENT_3D('',#350,#351,#352);
#350 = CARTESIAN_POINT('',(45.,-27.8,144.5));
#351 = DIRECTION('',(-0.,-1.,-2.2E-16));
#352 = DIRECTION('',(1.,0.,0.));
#353 = ADVANCED_FACE('',(#354),#365,.F.);
#354 = FACE_BOUND('',#355,.T.);
#355 = EDGE_LOOP('',(#356,#357,#363,#364));
#356 = ORIENTED_EDGE('',*,*,#134,.T.);
#357 = ORIENTED_EDGE('',*,*,#358,.T.);
#358 = EDGE_CURVE('',#135,#231,#359,.T.);
#359 = LINE('',#360,#361);
#360 = CARTESIAN_POINT('',(38.15,-27.8,144.5));
#361 = VECTOR('',#362,1.);
#362 = DIRECTION('',(0.,1.,2.2E-16));
#363 = ORIENTED_EDGE('',*,*,#230,.F.);
#364 = ORIENTED_EDGE('',*,*,#358,.F.);
#365 = CYLINDRICAL_SURFACE('',#366,1.15);
#366 = AXIS2_PLACEMENT_3D('',#367,#368,#369);
#367 = CARTESIAN_POINT('',(37.,-27.8,144.5));
#368 = DIRECTION('',(-0.,-1.,-2.2E-16));
#369 = DIRECTION('',(1.,0.,0.));
#370 = ( GEOMETRIC_REPRESENTATION_CONTEXT(3) 
GLOBAL_UNCERTAINTY_ASSIGNED_CONTEXT((#374)) GLOBAL_UNIT_ASSIGNED_CONTEXT
((#371,#372,#373)) REPRESENTATION_CONTEXT('Context #1',
  '3D Context with UNIT and UNCERTAINTY') );
#371 = ( LENGTH_UNIT() NAMED_UNIT(*) SI_UNIT(.MILLI.,.METRE.) );
#372 = ( NAMED_UNIT(*) PLANE_ANGLE_UNIT() SI_UNIT($,.RADIAN.) );
#373 = ( NAMED_UNIT(*) SI_UNIT($,.STERADIAN.) SOLID_ANGLE_UNIT() );
#374 = UNCERTAINTY_MEASURE_WITH_UNIT(LENGTH_MEASURE(1.E-07),#371,
  'distance_accuracy_value','confusion accuracy');
#375 = PRODUCT_RELATED_PRODUCT_CATEGORY('part',$,(#7));
ENDSEC;
END-ISO-10303-21;
