ISO-10303-21;
HEADER;
FILE_DESCRIPTION(('FreeCAD Model'),'2;1');
FILE_NAME('Open CASCADE Shape Model','2026-10-09T09:05:22',('FreeCAD'),(
    'FreeCAD'),'Open CASCADE STEP processor 7.8','FreeCAD','Unknown');
FILE_SCHEMA(('AUTOMOTIVE_DESIGN { 1 0 10303 214 1 1 1 1 }'));
ENDSEC;
DATA;
#1 = APPLICATION_PROTOCOL_DEFINITION('international standard',
  'automotive_design',2000,#2);
#2 = APPLICATION_CONTEXT(
  'core data for automotive mechanical design processes');
#3 = SHAPE_DEFINITION_REPRESENTATION(#4,#10);
#4 = PRODUCT_DEFINITION_SHAPE('','',#5);
#5 = PRODUCT_DEFINITION('design','',#6,#9);
#6 = PRODUCT_DEFINITION_FORMATION('','',#7);
#7 = PRODUCT('Open CASCADE STEP translator 7.8 4',
  'Open CASCADE STEP translator 7.8 4','',(#8));
#8 = PRODUCT_CONTEXT('',#2,'mechanical');
#9 = PRODUCT_DEFINITION_CONTEXT('part definition',#2,'design');
#10 = ADVANCED_BREP_SHAPE_REPRESENTATION('',(#11,#15),#1297);
#11 = AXIS2_PLACEMENT_3D('',#12,#13,#14);
#12 = CARTESIAN_POINT('',(0.,0.,0.));
#13 = DIRECTION('',(0.,0.,1.));
#14 = DIRECTION('',(1.,0.,-0.));
#15 = MANIFOLD_SOLID_BREP('',#16);
#16 = CLOSED_SHELL('',(#17,#65,#96,#260,#316,#347,#478,#495,#521,#538,
    #555,#572,#589,#606,#631,#655,#679,#726,#738,#763,#788,#813,#838,
    #884,#907,#926,#966,#983,#1000,#1012,#1030,#1047,#1114,#1123,#1132,
    #1156,#1180,#1204,#1228,#1252,#1261,#1270,#1279,#1288));
#17 = ADVANCED_FACE('',(#18),#60,.T.);
#18 = FACE_BOUND('',#19,.T.);
#19 = EDGE_LOOP('',(#20,#30,#38,#46,#54));
#20 = ORIENTED_EDGE('',*,*,#21,.F.);
#21 = EDGE_CURVE('',#22,#24,#26,.T.);
#22 = VERTEX_POINT('',#23);
#23 = CARTESIAN_POINT('',(53.2,-12.,230.75));
#24 = VERTEX_POINT('',#25);
#25 = CARTESIAN_POINT('',(53.2,-12.,251.95));
#26 = LINE('',#27,#28);
#27 = CARTESIAN_POINT('',(53.2,-12.,236.05));
#28 = VECTOR('',#29,1.);
#29 = DIRECTION('',(-2.2E-16,0.,1.));
#30 = ORIENTED_EDGE('',*,*,#31,.T.);
#31 = EDGE_CURVE('',#22,#32,#34,.T.);
#32 = VERTEX_POINT('',#33);
#33 = CARTESIAN_POINT('',(53.2,11.7,230.75));
#34 = LINE('',#35,#36);
#35 = CARTESIAN_POINT('',(53.2,-26.7,230.75));
#36 = VECTOR('',#37,1.);
#37 = DIRECTION('',(0.,1.,0.));
#38 = ORIENTED_EDGE('',*,*,#39,.T.);
#39 = EDGE_CURVE('',#32,#40,#42,.T.);
#40 = VERTEX_POINT('',#41);
#41 = CARTESIAN_POINT('',(53.2,11.7,244.52271135248));
#42 = LINE('',#43,#44);
#43 = CARTESIAN_POINT('',(53.2,11.7,249.95));
#44 = VECTOR('',#45,1.);
#45 = DIRECTION('',(-2.2E-16,0.,1.));
#46 = ORIENTED_EDGE('',*,*,#47,.T.);
#47 = EDGE_CURVE('',#40,#48,#50,.T.);
#48 = VERTEX_POINT('',#49);
#49 = CARTESIAN_POINT('',(53.2,8.236598424338,251.95));
#50 = LINE('',#51,#52);
#51 = CARTESIAN_POINT('',(53.2,12.801802195494,242.15988891921));
#52 = VECTOR('',#53,1.);
#53 = DIRECTION('',(-6.E-16,-0.422618261741,0.906307787037));
#54 = ORIENTED_EDGE('',*,*,#55,.F.);
#55 = EDGE_CURVE('',#24,#48,#56,.T.);
#56 = LINE('',#57,#58);
#57 = CARTESIAN_POINT('',(53.2,-26.7,251.95));
#58 = VECTOR('',#59,1.);
#59 = DIRECTION('',(0.,1.,0.));
#60 = PLANE('',#61);
#61 = AXIS2_PLACEMENT_3D('',#62,#63,#64);
#62 = CARTESIAN_POINT('',(53.2,-7.5,241.35));
#63 = DIRECTION('',(1.,0.,2.2E-16));
#64 = DIRECTION('',(-2.2E-16,0.,1.));
#65 = ADVANCED_FACE('',(#66),#91,.T.);
#66 = FACE_BOUND('',#67,.T.);
#67 = EDGE_LOOP('',(#68,#76,#77,#85));
#68 = ORIENTED_EDGE('',*,*,#69,.F.);
#69 = EDGE_CURVE('',#22,#70,#72,.T.);
#70 = VERTEX_POINT('',#71);
#71 = CARTESIAN_POINT('',(57.1,-12.,230.75));
#72 = LINE('',#73,#74);
#73 = CARTESIAN_POINT('',(51.2,-12.,230.75));
#74 = VECTOR('',#75,1.);
#75 = DIRECTION('',(1.,0.,2.2E-16));
#76 = ORIENTED_EDGE('',*,*,#21,.T.);
#77 = ORIENTED_EDGE('',*,*,#78,.T.);
#78 = EDGE_CURVE('',#24,#79,#81,.T.);
#79 = VERTEX_POINT('',#80);
#80 = CARTESIAN_POINT('',(57.1,-12.,251.95));
#81 = LINE('',#82,#83);
#82 = CARTESIAN_POINT('',(51.2,-12.,251.95));
#83 = VECTOR('',#84,1.);
#84 = DIRECTION('',(1.,0.,2.2E-16));
#85 = ORIENTED_EDGE('',*,*,#86,.F.);
#86 = EDGE_CURVE('',#70,#79,#87,.T.);
#87 = LINE('',#88,#89);
#88 = CARTESIAN_POINT('',(57.1,-12.,230.75));
#89 = VECTOR('',#90,1.);
#90 = DIRECTION('',(-2.2E-16,0.,1.));
#91 = PLANE('',#92);
#92 = AXIS2_PLACEMENT_3D('',#93,#94,#95);
#93 = CARTESIAN_POINT('',(51.2,-12.,230.75));
#94 = DIRECTION('',(0.,1.,0.));
#95 = DIRECTION('',(-2.2E-16,0.,1.));
#96 = ADVANCED_FACE('',(#97,#211,#222,#233,#244),#255,.T.);
#97 = FACE_BOUND('',#98,.T.);
#98 = EDGE_LOOP('',(#99,#109,#117,#125,#133,#141,#149,#157,#165,#173,
    #181,#189,#195,#196,#197,#205));
#99 = ORIENTED_EDGE('',*,*,#100,.F.);
#100 = EDGE_CURVE('',#101,#103,#105,.T.);
#101 = VERTEX_POINT('',#102);
#102 = CARTESIAN_POINT('',(30.8,11.7,251.95));
#103 = VERTEX_POINT('',#104);
#104 = CARTESIAN_POINT('',(30.899997711182,11.7,251.95));
#105 = LINE('',#106,#107);
#106 = CARTESIAN_POINT('',(28.8,11.7,251.95));
#107 = VECTOR('',#108,1.);
#108 = DIRECTION('',(1.,0.,2.2E-16));
#109 = ORIENTED_EDGE('',*,*,#110,.T.);
#110 = EDGE_CURVE('',#101,#111,#113,.T.);
#111 = VERTEX_POINT('',#112);
#112 = CARTESIAN_POINT('',(30.8,12.,251.95));
#113 = LINE('',#114,#115);
#114 = CARTESIAN_POINT('',(30.8,-12.,251.95));
#115 = VECTOR('',#116,1.);
#116 = DIRECTION('',(0.,1.,0.));
#117 = ORIENTED_EDGE('',*,*,#118,.F.);
#118 = EDGE_CURVE('',#119,#111,#121,.T.);
#119 = VERTEX_POINT('',#120);
#120 = CARTESIAN_POINT('',(25.09,12.,251.95));
#121 = LINE('',#122,#123);
#122 = CARTESIAN_POINT('',(25.09,12.,251.95));
#123 = VECTOR('',#124,1.);
#124 = DIRECTION('',(1.,0.,2.2E-16));
#125 = ORIENTED_EDGE('',*,*,#126,.F.);
#126 = EDGE_CURVE('',#127,#119,#129,.T.);
#127 = VERTEX_POINT('',#128);
#128 = CARTESIAN_POINT('',(25.09,-12.,251.95));
#129 = LINE('',#130,#131);
#130 = CARTESIAN_POINT('',(25.09,-12.,251.95));
#131 = VECTOR('',#132,1.);
#132 = DIRECTION('',(0.,1.,0.));
#133 = ORIENTED_EDGE('',*,*,#134,.F.);
#134 = EDGE_CURVE('',#135,#127,#137,.T.);
#135 = VERTEX_POINT('',#136);
#136 = CARTESIAN_POINT('',(24.9,-12.,251.95));
#137 = LINE('',#138,#139);
#138 = CARTESIAN_POINT('',(24.9,-12.,251.95));
#139 = VECTOR('',#140,1.);
#140 = DIRECTION('',(1.,0.,2.2E-16));
#141 = ORIENTED_EDGE('',*,*,#142,.F.);
#142 = EDGE_CURVE('',#143,#135,#145,.T.);
#143 = VERTEX_POINT('',#144);
#144 = CARTESIAN_POINT('',(24.9,-18.,251.95));
#145 = LINE('',#146,#147);
#146 = CARTESIAN_POINT('',(24.9,-18.,251.95));
#147 = VECTOR('',#148,1.);
#148 = DIRECTION('',(0.,1.,0.));
#149 = ORIENTED_EDGE('',*,*,#150,.T.);
#150 = EDGE_CURVE('',#143,#151,#153,.T.);
#151 = VERTEX_POINT('',#152);
#152 = CARTESIAN_POINT('',(28.8,-18.,251.95));
#153 = LINE('',#154,#155);
#154 = CARTESIAN_POINT('',(24.9,-18.,251.95));
#155 = VECTOR('',#156,1.);
#156 = DIRECTION('',(1.,0.,2.2E-16));
#157 = ORIENTED_EDGE('',*,*,#158,.F.);
#158 = EDGE_CURVE('',#159,#151,#161,.T.);
#159 = VERTEX_POINT('',#160);
#160 = CARTESIAN_POINT('',(28.8,-26.7,251.95));
#161 = LINE('',#162,#163);
#162 = CARTESIAN_POINT('',(28.8,-26.7,251.95));
#163 = VECTOR('',#164,1.);
#164 = DIRECTION('',(0.,1.,0.));
#165 = ORIENTED_EDGE('',*,*,#166,.T.);
#166 = EDGE_CURVE('',#159,#167,#169,.T.);
#167 = VERTEX_POINT('',#168);
#168 = CARTESIAN_POINT('',(53.2,-26.7,251.95));
#169 = LINE('',#170,#171);
#170 = CARTESIAN_POINT('',(28.8,-26.7,251.95));
#171 = VECTOR('',#172,1.);
#172 = DIRECTION('',(1.,0.,2.2E-16));
#173 = ORIENTED_EDGE('',*,*,#174,.T.);
#174 = EDGE_CURVE('',#167,#175,#177,.T.);
#175 = VERTEX_POINT('',#176);
#176 = CARTESIAN_POINT('',(53.2,-18.,251.95));
#177 = LINE('',#178,#179);
#178 = CARTESIAN_POINT('',(53.2,-26.7,251.95));
#179 = VECTOR('',#180,1.);
#180 = DIRECTION('',(0.,1.,0.));
#181 = ORIENTED_EDGE('',*,*,#182,.T.);
#182 = EDGE_CURVE('',#175,#183,#185,.T.);
#183 = VERTEX_POINT('',#184);
#184 = CARTESIAN_POINT('',(57.1,-18.,251.95));
#185 = LINE('',#186,#187);
#186 = CARTESIAN_POINT('',(51.2,-18.,251.95));
#187 = VECTOR('',#188,1.);
#188 = DIRECTION('',(1.,0.,2.2E-16));
#189 = ORIENTED_EDGE('',*,*,#190,.T.);
#190 = EDGE_CURVE('',#183,#79,#191,.T.);
#191 = LINE('',#192,#193);
#192 = CARTESIAN_POINT('',(57.1,-18.,251.95));
#193 = VECTOR('',#194,1.);
#194 = DIRECTION('',(0.,1.,0.));
#195 = ORIENTED_EDGE('',*,*,#78,.F.);
#196 = ORIENTED_EDGE('',*,*,#55,.T.);
#197 = ORIENTED_EDGE('',*,*,#198,.T.);
#198 = EDGE_CURVE('',#48,#199,#201,.T.);
#199 = VERTEX_POINT('',#200);
#200 = CARTESIAN_POINT('',(30.899997711182,8.236598424338,251.95));
#201 = LINE('',#202,#203);
#202 = CARTESIAN_POINT('',(35.612340181402,8.236598424338,251.95));
#203 = VECTOR('',#204,1.);
#204 = DIRECTION('',(-1.,3.1E-16,-6.7E-16));
#205 = ORIENTED_EDGE('',*,*,#206,.F.);
#206 = EDGE_CURVE('',#103,#199,#207,.T.);
#207 = LINE('',#208,#209);
#208 = CARTESIAN_POINT('',(30.899997711182,8.749567890567,251.95));
#209 = VECTOR('',#210,1.);
#210 = DIRECTION('',(0.,-1.,0.));
#211 = FACE_BOUND('',#212,.T.);
#212 = EDGE_LOOP('',(#213));
#213 = ORIENTED_EDGE('',*,*,#214,.F.);
#214 = EDGE_CURVE('',#215,#215,#217,.T.);
#215 = VERTEX_POINT('',#216);
#216 = CARTESIAN_POINT('',(34.15,-22.5,251.95));
#217 = CIRCLE('',#218,1.15);
#218 = AXIS2_PLACEMENT_3D('',#219,#220,#221);
#219 = CARTESIAN_POINT('',(33.,-22.5,251.95));
#220 = DIRECTION('',(-2.2E-16,0.,1.));
#221 = DIRECTION('',(1.,0.,2.2E-16));
#222 = FACE_BOUND('',#223,.T.);
#223 = EDGE_LOOP('',(#224));
#224 = ORIENTED_EDGE('',*,*,#225,.F.);
#225 = EDGE_CURVE('',#226,#226,#228,.T.);
#226 = VERTEX_POINT('',#227);
#227 = CARTESIAN_POINT('',(50.15,-22.5,251.95));
#228 = CIRCLE('',#229,1.15);
#229 = AXIS2_PLACEMENT_3D('',#230,#231,#232);
#230 = CARTESIAN_POINT('',(49.,-22.5,251.95));
#231 = DIRECTION('',(-2.2E-16,0.,1.));
#232 = DIRECTION('',(1.,0.,2.2E-16));
#233 = FACE_BOUND('',#234,.T.);
#234 = EDGE_LOOP('',(#235));
#235 = ORIENTED_EDGE('',*,*,#236,.F.);
#236 = EDGE_CURVE('',#237,#237,#239,.T.);
#237 = VERTEX_POINT('',#238);
#238 = CARTESIAN_POINT('',(28.7,-15.,251.95));
#239 = CIRCLE('',#240,0.85);
#240 = AXIS2_PLACEMENT_3D('',#241,#242,#243);
#241 = CARTESIAN_POINT('',(27.85,-15.,251.95));
#242 = DIRECTION('',(-2.2E-16,0.,1.));
#243 = DIRECTION('',(1.,0.,2.2E-16));
#244 = FACE_BOUND('',#245,.T.);
#245 = EDGE_LOOP('',(#246));
#246 = ORIENTED_EDGE('',*,*,#247,.F.);
#247 = EDGE_CURVE('',#248,#248,#250,.T.);
#248 = VERTEX_POINT('',#249);
#249 = CARTESIAN_POINT('',(55.,-15.,251.95));
#250 = CIRCLE('',#251,0.85);
#251 = AXIS2_PLACEMENT_3D('',#252,#253,#254);
#252 = CARTESIAN_POINT('',(54.15,-15.,251.95));
#253 = DIRECTION('',(-2.2E-16,0.,1.));
#254 = DIRECTION('',(1.,0.,2.2E-16));
#255 = PLANE('',#256);
#256 = AXIS2_PLACEMENT_3D('',#257,#258,#259);
#257 = CARTESIAN_POINT('',(40.324682651622,-7.611071932299,251.95));
#258 = DIRECTION('',(-2.2E-16,0.,1.));
#259 = DIRECTION('',(1.,0.,2.2E-16));
#260 = ADVANCED_FACE('',(#261),#311,.T.);
#261 = FACE_BOUND('',#262,.T.);
#262 = EDGE_LOOP('',(#263,#271,#279,#287,#295,#303,#309,#310));
#263 = ORIENTED_EDGE('',*,*,#264,.F.);
#264 = EDGE_CURVE('',#265,#40,#267,.T.);
#265 = VERTEX_POINT('',#266);
#266 = CARTESIAN_POINT('',(30.899997711182,11.7,244.52271135248));
#267 = LINE('',#268,#269);
#268 = CARTESIAN_POINT('',(35.949998855591,11.7,244.52271135248));
#269 = VECTOR('',#270,1.);
#270 = DIRECTION('',(1.,0.,0.));
#271 = ORIENTED_EDGE('',*,*,#272,.T.);
#272 = EDGE_CURVE('',#265,#273,#275,.T.);
#273 = VERTEX_POINT('',#274);
#274 = CARTESIAN_POINT('',(30.899997711182,9.7,248.8117251935));
#275 = LINE('',#276,#277);
#276 = CARTESIAN_POINT('',(30.899997711182,16.117624387401,
    235.04908528149));
#277 = VECTOR('',#278,1.);
#278 = DIRECTION('',(0.,-0.422618261741,0.906307787037));
#279 = ORIENTED_EDGE('',*,*,#280,.T.);
#280 = EDGE_CURVE('',#273,#281,#283,.T.);
#281 = VERTEX_POINT('',#282);
#282 = CARTESIAN_POINT('',(51.2,9.7,248.8117251935));
#283 = LINE('',#284,#285);
#284 = CARTESIAN_POINT('',(29.849998855591,9.7,248.8117251935));
#285 = VECTOR('',#286,1.);
#286 = DIRECTION('',(1.,0.,0.));
#287 = ORIENTED_EDGE('',*,*,#288,.T.);
#288 = EDGE_CURVE('',#281,#289,#291,.T.);
#289 = VERTEX_POINT('',#290);
#290 = CARTESIAN_POINT('',(51.2,9.169213740648,249.95));
#291 = LINE('',#292,#293);
#292 = CARTESIAN_POINT('',(51.2,13.117200496255,241.48351508052));
#293 = VECTOR('',#294,1.);
#294 = DIRECTION('',(-6.E-16,-0.422618261741,0.906307787037));
#295 = ORIENTED_EDGE('',*,*,#296,.F.);
#296 = EDGE_CURVE('',#297,#289,#299,.T.);
#297 = VERTEX_POINT('',#298);
#298 = CARTESIAN_POINT('',(30.899997711182,9.169213740648,249.95));
#299 = LINE('',#300,#301);
#300 = CARTESIAN_POINT('',(35.949998855591,9.169213740648,249.95));
#301 = VECTOR('',#302,1.);
#302 = DIRECTION('',(1.,-4.6E-16,9.9E-16));
#303 = ORIENTED_EDGE('',*,*,#304,.T.);
#304 = EDGE_CURVE('',#297,#199,#305,.T.);
#305 = LINE('',#306,#307);
#306 = CARTESIAN_POINT('',(30.899997711182,16.117624387401,
    235.04908528149));
#307 = VECTOR('',#308,1.);
#308 = DIRECTION('',(0.,-0.422618261741,0.906307787037));
#309 = ORIENTED_EDGE('',*,*,#198,.F.);
#310 = ORIENTED_EDGE('',*,*,#47,.F.);
#311 = PLANE('',#312);
#312 = AXIS2_PLACEMENT_3D('',#313,#314,#315);
#313 = CARTESIAN_POINT('',(30.899997711182,16.117624387401,
    235.04908528149));
#314 = DIRECTION('',(0.,0.906307787037,0.422618261741));
#315 = DIRECTION('',(0.,-0.422618261741,0.906307787037));
#316 = ADVANCED_FACE('',(#317),#342,.T.);
#317 = FACE_BOUND('',#318,.T.);
#318 = EDGE_LOOP('',(#319,#327,#333,#334,#340,#341));
#319 = ORIENTED_EDGE('',*,*,#320,.F.);
#320 = EDGE_CURVE('',#321,#32,#323,.T.);
#321 = VERTEX_POINT('',#322);
#322 = CARTESIAN_POINT('',(30.8,11.7,230.75));
#323 = LINE('',#324,#325);
#324 = CARTESIAN_POINT('',(28.8,11.7,230.75));
#325 = VECTOR('',#326,1.);
#326 = DIRECTION('',(1.,0.,2.2E-16));
#327 = ORIENTED_EDGE('',*,*,#328,.F.);
#328 = EDGE_CURVE('',#101,#321,#329,.T.);
#329 = LINE('',#330,#331);
#330 = CARTESIAN_POINT('',(30.8,11.7,236.05));
#331 = VECTOR('',#332,1.);
#332 = DIRECTION('',(2.2E-16,0.,-1.));
#333 = ORIENTED_EDGE('',*,*,#100,.T.);
#334 = ORIENTED_EDGE('',*,*,#335,.F.);
#335 = EDGE_CURVE('',#265,#103,#336,.T.);
#336 = LINE('',#337,#338);
#337 = CARTESIAN_POINT('',(30.899997711182,11.7,240.16389915582));
#338 = VECTOR('',#339,1.);
#339 = DIRECTION('',(0.,0.,1.));
#340 = ORIENTED_EDGE('',*,*,#264,.T.);
#341 = ORIENTED_EDGE('',*,*,#39,.F.);
#342 = PLANE('',#343);
#343 = AXIS2_PLACEMENT_3D('',#344,#345,#346);
#344 = CARTESIAN_POINT('',(41.,11.7,241.35));
#345 = DIRECTION('',(0.,1.,0.));
#346 = DIRECTION('',(-2.2E-16,0.,1.));
#347 = ADVANCED_FACE('',(#348,#439),#473,.T.);
#348 = FACE_BOUND('',#349,.T.);
#349 = EDGE_LOOP('',(#350,#360,#368,#376,#384,#392,#398,#399,#400,#401,
    #409,#417,#425,#433));
#350 = ORIENTED_EDGE('',*,*,#351,.F.);
#351 = EDGE_CURVE('',#352,#354,#356,.T.);
#352 = VERTEX_POINT('',#353);
#353 = CARTESIAN_POINT('',(24.9,-18.,230.75));
#354 = VERTEX_POINT('',#355);
#355 = CARTESIAN_POINT('',(28.8,-18.,230.75));
#356 = LINE('',#357,#358);
#357 = CARTESIAN_POINT('',(24.9,-18.,230.75));
#358 = VECTOR('',#359,1.);
#359 = DIRECTION('',(1.,0.,2.2E-16));
#360 = ORIENTED_EDGE('',*,*,#361,.T.);
#361 = EDGE_CURVE('',#352,#362,#364,.T.);
#362 = VERTEX_POINT('',#363);
#363 = CARTESIAN_POINT('',(24.9,-12.,230.75));
#364 = LINE('',#365,#366);
#365 = CARTESIAN_POINT('',(24.9,-18.,230.75));
#366 = VECTOR('',#367,1.);
#367 = DIRECTION('',(0.,1.,0.));
#368 = ORIENTED_EDGE('',*,*,#369,.T.);
#369 = EDGE_CURVE('',#362,#370,#372,.T.);
#370 = VERTEX_POINT('',#371);
#371 = CARTESIAN_POINT('',(25.1,-12.,230.75));
#372 = LINE('',#373,#374);
#373 = CARTESIAN_POINT('',(24.9,-12.,230.75));
#374 = VECTOR('',#375,1.);
#375 = DIRECTION('',(1.,0.,2.2E-16));
#376 = ORIENTED_EDGE('',*,*,#377,.F.);
#377 = EDGE_CURVE('',#378,#370,#380,.T.);
#378 = VERTEX_POINT('',#379);
#379 = CARTESIAN_POINT('',(25.1,12.,230.75));
#380 = LINE('',#381,#382);
#381 = CARTESIAN_POINT('',(25.1,-12.,230.75));
#382 = VECTOR('',#383,1.);
#383 = DIRECTION('',(0.,-1.,0.));
#384 = ORIENTED_EDGE('',*,*,#385,.T.);
#385 = EDGE_CURVE('',#378,#386,#388,.T.);
#386 = VERTEX_POINT('',#387);
#387 = CARTESIAN_POINT('',(30.8,12.,230.75));
#388 = LINE('',#389,#390);
#389 = CARTESIAN_POINT('',(25.09,12.,230.75));
#390 = VECTOR('',#391,1.);
#391 = DIRECTION('',(1.,0.,2.2E-16));
#392 = ORIENTED_EDGE('',*,*,#393,.F.);
#393 = EDGE_CURVE('',#321,#386,#394,.T.);
#394 = LINE('',#395,#396);
#395 = CARTESIAN_POINT('',(30.8,-12.,230.75));
#396 = VECTOR('',#397,1.);
#397 = DIRECTION('',(0.,1.,0.));
#398 = ORIENTED_EDGE('',*,*,#320,.T.);
#399 = ORIENTED_EDGE('',*,*,#31,.F.);
#400 = ORIENTED_EDGE('',*,*,#69,.T.);
#401 = ORIENTED_EDGE('',*,*,#402,.F.);
#402 = EDGE_CURVE('',#403,#70,#405,.T.);
#403 = VERTEX_POINT('',#404);
#404 = CARTESIAN_POINT('',(57.1,-18.,230.75));
#405 = LINE('',#406,#407);
#406 = CARTESIAN_POINT('',(57.1,-18.,230.75));
#407 = VECTOR('',#408,1.);
#408 = DIRECTION('',(0.,1.,0.));
#409 = ORIENTED_EDGE('',*,*,#410,.F.);
#410 = EDGE_CURVE('',#411,#403,#413,.T.);
#411 = VERTEX_POINT('',#412);
#412 = CARTESIAN_POINT('',(53.2,-18.,230.75));
#413 = LINE('',#414,#415);
#414 = CARTESIAN_POINT('',(51.2,-18.,230.75));
#415 = VECTOR('',#416,1.);
#416 = DIRECTION('',(1.,0.,2.2E-16));
#417 = ORIENTED_EDGE('',*,*,#418,.F.);
#418 = EDGE_CURVE('',#419,#411,#421,.T.);
#419 = VERTEX_POINT('',#420);
#420 = CARTESIAN_POINT('',(53.2,-26.7,230.75));
#421 = LINE('',#422,#423);
#422 = CARTESIAN_POINT('',(53.2,-26.7,230.75));
#423 = VECTOR('',#424,1.);
#424 = DIRECTION('',(0.,1.,0.));
#425 = ORIENTED_EDGE('',*,*,#426,.F.);
#426 = EDGE_CURVE('',#427,#419,#429,.T.);
#427 = VERTEX_POINT('',#428);
#428 = CARTESIAN_POINT('',(28.8,-26.7,230.75));
#429 = LINE('',#430,#431);
#430 = CARTESIAN_POINT('',(51.2,-26.7,230.75));
#431 = VECTOR('',#432,1.);
#432 = DIRECTION('',(1.,0.,2.2E-16));
#433 = ORIENTED_EDGE('',*,*,#434,.T.);
#434 = EDGE_CURVE('',#427,#354,#435,.T.);
#435 = LINE('',#436,#437);
#436 = CARTESIAN_POINT('',(28.8,-26.7,230.75));
#437 = VECTOR('',#438,1.);
#438 = DIRECTION('',(0.,1.,0.));
#439 = FACE_BOUND('',#440,.T.);
#440 = EDGE_LOOP('',(#441,#451,#459,#467));
#441 = ORIENTED_EDGE('',*,*,#442,.T.);
#442 = EDGE_CURVE('',#443,#445,#447,.T.);
#443 = VERTEX_POINT('',#444);
#444 = CARTESIAN_POINT('',(51.2,-24.7,230.75));
#445 = VERTEX_POINT('',#446);
#446 = CARTESIAN_POINT('',(51.2,9.7,230.75));
#447 = LINE('',#448,#449);
#448 = CARTESIAN_POINT('',(51.2,-26.7,230.75));
#449 = VECTOR('',#450,1.);
#450 = DIRECTION('',(0.,1.,0.));
#451 = ORIENTED_EDGE('',*,*,#452,.F.);
#452 = EDGE_CURVE('',#453,#445,#455,.T.);
#453 = VERTEX_POINT('',#454);
#454 = CARTESIAN_POINT('',(30.8,9.7,230.75));
#455 = LINE('',#456,#457);
#456 = CARTESIAN_POINT('',(28.8,9.7,230.75));
#457 = VECTOR('',#458,1.);
#458 = DIRECTION('',(1.,0.,2.2E-16));
#459 = ORIENTED_EDGE('',*,*,#460,.F.);
#460 = EDGE_CURVE('',#461,#453,#463,.T.);
#461 = VERTEX_POINT('',#462);
#462 = CARTESIAN_POINT('',(30.8,-24.7,230.75));
#463 = LINE('',#464,#465);
#464 = CARTESIAN_POINT('',(30.8,-26.7,230.75));
#465 = VECTOR('',#466,1.);
#466 = DIRECTION('',(0.,1.,0.));
#467 = ORIENTED_EDGE('',*,*,#468,.T.);
#468 = EDGE_CURVE('',#461,#443,#469,.T.);
#469 = LINE('',#470,#471);
#470 = CARTESIAN_POINT('',(28.8,-24.7,230.75));
#471 = VECTOR('',#472,1.);
#472 = DIRECTION('',(1.,0.,2.2E-16));
#473 = PLANE('',#474);
#474 = AXIS2_PLACEMENT_3D('',#475,#476,#477);
#475 = CARTESIAN_POINT('',(40.326375176305,-7.612764456982,230.75));
#476 = DIRECTION('',(2.2E-16,-0.,-1.));
#477 = DIRECTION('',(-1.,0.,-2.2E-16));
#478 = ADVANCED_FACE('',(#479),#490,.T.);
#479 = FACE_BOUND('',#480,.T.);
#480 = EDGE_LOOP('',(#481,#487,#488,#489));
#481 = ORIENTED_EDGE('',*,*,#482,.F.);
#482 = EDGE_CURVE('',#403,#183,#483,.T.);
#483 = LINE('',#484,#485);
#484 = CARTESIAN_POINT('',(57.1,-18.,230.75));
#485 = VECTOR('',#486,1.);
#486 = DIRECTION('',(-2.2E-16,0.,1.));
#487 = ORIENTED_EDGE('',*,*,#402,.T.);
#488 = ORIENTED_EDGE('',*,*,#86,.T.);
#489 = ORIENTED_EDGE('',*,*,#190,.F.);
#490 = PLANE('',#491);
#491 = AXIS2_PLACEMENT_3D('',#492,#493,#494);
#492 = CARTESIAN_POINT('',(57.1,-18.,230.75));
#493 = DIRECTION('',(1.,0.,2.2E-16));
#494 = DIRECTION('',(-2.2E-16,0.,1.));
#495 = ADVANCED_FACE('',(#496),#516,.F.);
#496 = FACE_BOUND('',#497,.F.);
#497 = EDGE_LOOP('',(#498,#499,#500,#508,#514,#515));
#498 = ORIENTED_EDGE('',*,*,#335,.F.);
#499 = ORIENTED_EDGE('',*,*,#272,.T.);
#500 = ORIENTED_EDGE('',*,*,#501,.T.);
#501 = EDGE_CURVE('',#273,#502,#504,.T.);
#502 = VERTEX_POINT('',#503);
#503 = CARTESIAN_POINT('',(30.899997711182,9.7,249.95));
#504 = LINE('',#505,#506);
#505 = CARTESIAN_POINT('',(30.899997711182,9.7,234.86389915582));
#506 = VECTOR('',#507,1.);
#507 = DIRECTION('',(0.,0.,1.));
#508 = ORIENTED_EDGE('',*,*,#509,.F.);
#509 = EDGE_CURVE('',#297,#502,#510,.T.);
#510 = LINE('',#511,#512);
#511 = CARTESIAN_POINT('',(30.899997711182,8.805103856717,249.95));
#512 = VECTOR('',#513,1.);
#513 = DIRECTION('',(0.,1.,0.));
#514 = ORIENTED_EDGE('',*,*,#304,.T.);
#515 = ORIENTED_EDGE('',*,*,#206,.F.);
#516 = PLANE('',#517);
#517 = AXIS2_PLACEMENT_3D('',#518,#519,#520);
#518 = CARTESIAN_POINT('',(30.899997711182,25.110207713433,
    238.97779831165));
#519 = DIRECTION('',(-1.,-0.,-0.));
#520 = DIRECTION('',(0.,0.,-1.));
#521 = ADVANCED_FACE('',(#522),#533,.F.);
#522 = FACE_BOUND('',#523,.F.);
#523 = EDGE_LOOP('',(#524,#525,#531,#532));
#524 = ORIENTED_EDGE('',*,*,#410,.F.);
#525 = ORIENTED_EDGE('',*,*,#526,.T.);
#526 = EDGE_CURVE('',#411,#175,#527,.T.);
#527 = LINE('',#528,#529);
#528 = CARTESIAN_POINT('',(53.2,-18.,236.05));
#529 = VECTOR('',#530,1.);
#530 = DIRECTION('',(-2.2E-16,0.,1.));
#531 = ORIENTED_EDGE('',*,*,#182,.T.);
#532 = ORIENTED_EDGE('',*,*,#482,.F.);
#533 = PLANE('',#534);
#534 = AXIS2_PLACEMENT_3D('',#535,#536,#537);
#535 = CARTESIAN_POINT('',(51.2,-18.,230.75));
#536 = DIRECTION('',(0.,1.,0.));
#537 = DIRECTION('',(-2.2E-16,0.,1.));
#538 = ADVANCED_FACE('',(#539),#550,.T.);
#539 = FACE_BOUND('',#540,.T.);
#540 = EDGE_LOOP('',(#541,#547,#548,#549));
#541 = ORIENTED_EDGE('',*,*,#542,.F.);
#542 = EDGE_CURVE('',#419,#167,#543,.T.);
#543 = LINE('',#544,#545);
#544 = CARTESIAN_POINT('',(53.2,-26.7,249.95));
#545 = VECTOR('',#546,1.);
#546 = DIRECTION('',(-2.2E-16,0.,1.));
#547 = ORIENTED_EDGE('',*,*,#418,.T.);
#548 = ORIENTED_EDGE('',*,*,#526,.T.);
#549 = ORIENTED_EDGE('',*,*,#174,.F.);
#550 = PLANE('',#551);
#551 = AXIS2_PLACEMENT_3D('',#552,#553,#554);
#552 = CARTESIAN_POINT('',(53.2,-7.5,241.35));
#553 = DIRECTION('',(1.,0.,2.2E-16));
#554 = DIRECTION('',(-2.2E-16,0.,1.));
#555 = ADVANCED_FACE('',(#556),#567,.T.);
#556 = FACE_BOUND('',#557,.T.);
#557 = EDGE_LOOP('',(#558,#564,#565,#566));
#558 = ORIENTED_EDGE('',*,*,#559,.F.);
#559 = EDGE_CURVE('',#427,#159,#560,.T.);
#560 = LINE('',#561,#562);
#561 = CARTESIAN_POINT('',(28.8,-26.7,230.75));
#562 = VECTOR('',#563,1.);
#563 = DIRECTION('',(-2.2E-16,0.,1.));
#564 = ORIENTED_EDGE('',*,*,#426,.T.);
#565 = ORIENTED_EDGE('',*,*,#542,.T.);
#566 = ORIENTED_EDGE('',*,*,#166,.F.);
#567 = PLANE('',#568);
#568 = AXIS2_PLACEMENT_3D('',#569,#570,#571);
#569 = CARTESIAN_POINT('',(41.,-26.7,241.35));
#570 = DIRECTION('',(-0.,-1.,0.));
#571 = DIRECTION('',(2.2E-16,0.,-1.));
#572 = ADVANCED_FACE('',(#573),#584,.T.);
#573 = FACE_BOUND('',#574,.T.);
#574 = EDGE_LOOP('',(#575,#576,#577,#578));
#575 = ORIENTED_EDGE('',*,*,#434,.F.);
#576 = ORIENTED_EDGE('',*,*,#559,.T.);
#577 = ORIENTED_EDGE('',*,*,#158,.T.);
#578 = ORIENTED_EDGE('',*,*,#579,.T.);
#579 = EDGE_CURVE('',#151,#354,#580,.T.);
#580 = LINE('',#581,#582);
#581 = CARTESIAN_POINT('',(28.8,-18.,236.05));
#582 = VECTOR('',#583,1.);
#583 = DIRECTION('',(2.2E-16,0.,-1.));
#584 = PLANE('',#585);
#585 = AXIS2_PLACEMENT_3D('',#586,#587,#588);
#586 = CARTESIAN_POINT('',(28.8,-7.5,241.35));
#587 = DIRECTION('',(-1.,0.,-2.2E-16));
#588 = DIRECTION('',(2.2E-16,0.,-1.));
#589 = ADVANCED_FACE('',(#590),#601,.F.);
#590 = FACE_BOUND('',#591,.F.);
#591 = EDGE_LOOP('',(#592,#593,#599,#600));
#592 = ORIENTED_EDGE('',*,*,#351,.F.);
#593 = ORIENTED_EDGE('',*,*,#594,.T.);
#594 = EDGE_CURVE('',#352,#143,#595,.T.);
#595 = LINE('',#596,#597);
#596 = CARTESIAN_POINT('',(24.9,-18.,230.75));
#597 = VECTOR('',#598,1.);
#598 = DIRECTION('',(-2.2E-16,0.,1.));
#599 = ORIENTED_EDGE('',*,*,#150,.T.);
#600 = ORIENTED_EDGE('',*,*,#579,.T.);
#601 = PLANE('',#602);
#602 = AXIS2_PLACEMENT_3D('',#603,#604,#605);
#603 = CARTESIAN_POINT('',(24.9,-18.,230.75));
#604 = DIRECTION('',(0.,1.,0.));
#605 = DIRECTION('',(-2.2E-16,0.,1.));
#606 = ADVANCED_FACE('',(#607),#626,.F.);
#607 = FACE_BOUND('',#608,.F.);
#608 = EDGE_LOOP('',(#609,#610,#611,#619,#625));
#609 = ORIENTED_EDGE('',*,*,#594,.F.);
#610 = ORIENTED_EDGE('',*,*,#361,.T.);
#611 = ORIENTED_EDGE('',*,*,#612,.T.);
#612 = EDGE_CURVE('',#362,#613,#615,.T.);
#613 = VERTEX_POINT('',#614);
#614 = CARTESIAN_POINT('',(24.9,-12.,248.25));
#615 = LINE('',#616,#617);
#616 = CARTESIAN_POINT('',(24.9,-12.,230.75));
#617 = VECTOR('',#618,1.);
#618 = DIRECTION('',(-2.2E-16,0.,1.));
#619 = ORIENTED_EDGE('',*,*,#620,.T.);
#620 = EDGE_CURVE('',#613,#135,#621,.T.);
#621 = LINE('',#622,#623);
#622 = CARTESIAN_POINT('',(24.9,-12.,230.75));
#623 = VECTOR('',#624,1.);
#624 = DIRECTION('',(-2.2E-16,0.,1.));
#625 = ORIENTED_EDGE('',*,*,#142,.F.);
#626 = PLANE('',#627);
#627 = AXIS2_PLACEMENT_3D('',#628,#629,#630);
#628 = CARTESIAN_POINT('',(24.9,-18.,230.75));
#629 = DIRECTION('',(1.,0.,2.2E-16));
#630 = DIRECTION('',(-2.2E-16,0.,1.));
#631 = ADVANCED_FACE('',(#632),#650,.T.);
#632 = FACE_BOUND('',#633,.T.);
#633 = EDGE_LOOP('',(#634,#642,#643,#644));
#634 = ORIENTED_EDGE('',*,*,#635,.F.);
#635 = EDGE_CURVE('',#613,#636,#638,.T.);
#636 = VERTEX_POINT('',#637);
#637 = CARTESIAN_POINT('',(25.09,-12.,248.25));
#638 = LINE('',#639,#640);
#639 = CARTESIAN_POINT('',(21.1,-12.,248.25));
#640 = VECTOR('',#641,1.);
#641 = DIRECTION('',(1.,0.,2.2E-16));
#642 = ORIENTED_EDGE('',*,*,#620,.T.);
#643 = ORIENTED_EDGE('',*,*,#134,.T.);
#644 = ORIENTED_EDGE('',*,*,#645,.F.);
#645 = EDGE_CURVE('',#636,#127,#646,.T.);
#646 = LINE('',#647,#648);
#647 = CARTESIAN_POINT('',(25.09,-12.,230.75));
#648 = VECTOR('',#649,1.);
#649 = DIRECTION('',(-2.2E-16,0.,1.));
#650 = PLANE('',#651);
#651 = AXIS2_PLACEMENT_3D('',#652,#653,#654);
#652 = CARTESIAN_POINT('',(24.9,-12.,230.75));
#653 = DIRECTION('',(0.,1.,0.));
#654 = DIRECTION('',(-2.2E-16,0.,1.));
#655 = ADVANCED_FACE('',(#656),#674,.F.);
#656 = FACE_BOUND('',#657,.F.);
#657 = EDGE_LOOP('',(#658,#659,#667,#673));
#658 = ORIENTED_EDGE('',*,*,#645,.F.);
#659 = ORIENTED_EDGE('',*,*,#660,.T.);
#660 = EDGE_CURVE('',#636,#661,#663,.T.);
#661 = VERTEX_POINT('',#662);
#662 = CARTESIAN_POINT('',(25.09,12.,248.25));
#663 = LINE('',#664,#665);
#664 = CARTESIAN_POINT('',(25.09,-12.,248.25));
#665 = VECTOR('',#666,1.);
#666 = DIRECTION('',(0.,1.,0.));
#667 = ORIENTED_EDGE('',*,*,#668,.T.);
#668 = EDGE_CURVE('',#661,#119,#669,.T.);
#669 = LINE('',#670,#671);
#670 = CARTESIAN_POINT('',(25.09,12.,230.75));
#671 = VECTOR('',#672,1.);
#672 = DIRECTION('',(-2.2E-16,0.,1.));
#673 = ORIENTED_EDGE('',*,*,#126,.F.);
#674 = PLANE('',#675);
#675 = AXIS2_PLACEMENT_3D('',#676,#677,#678);
#676 = CARTESIAN_POINT('',(25.09,-12.,230.75));
#677 = DIRECTION('',(1.,0.,2.2E-16));
#678 = DIRECTION('',(-2.2E-16,0.,1.));
#679 = ADVANCED_FACE('',(#680),#721,.T.);
#680 = FACE_BOUND('',#681,.T.);
#681 = EDGE_LOOP('',(#682,#690,#698,#706,#712,#713,#714,#720));
#682 = ORIENTED_EDGE('',*,*,#683,.F.);
#683 = EDGE_CURVE('',#684,#378,#686,.T.);
#684 = VERTEX_POINT('',#685);
#685 = CARTESIAN_POINT('',(25.1,12.,224.25));
#686 = LINE('',#687,#688);
#687 = CARTESIAN_POINT('',(25.1,12.,224.25));
#688 = VECTOR('',#689,1.);
#689 = DIRECTION('',(-1.1E-16,0.,1.));
#690 = ORIENTED_EDGE('',*,*,#691,.F.);
#691 = EDGE_CURVE('',#692,#684,#694,.T.);
#692 = VERTEX_POINT('',#693);
#693 = CARTESIAN_POINT('',(21.1,12.,224.25));
#694 = LINE('',#695,#696);
#695 = CARTESIAN_POINT('',(21.1,12.,224.25));
#696 = VECTOR('',#697,1.);
#697 = DIRECTION('',(1.,0.,2.2E-16));
#698 = ORIENTED_EDGE('',*,*,#699,.T.);
#699 = EDGE_CURVE('',#692,#700,#702,.T.);
#700 = VERTEX_POINT('',#701);
#701 = CARTESIAN_POINT('',(21.1,12.,248.25));
#702 = LINE('',#703,#704);
#703 = CARTESIAN_POINT('',(21.1,12.,224.25));
#704 = VECTOR('',#705,1.);
#705 = DIRECTION('',(-1.1E-16,0.,1.));
#706 = ORIENTED_EDGE('',*,*,#707,.T.);
#707 = EDGE_CURVE('',#700,#661,#708,.T.);
#708 = LINE('',#709,#710);
#709 = CARTESIAN_POINT('',(21.1,12.,248.25));
#710 = VECTOR('',#711,1.);
#711 = DIRECTION('',(1.,0.,2.2E-16));
#712 = ORIENTED_EDGE('',*,*,#668,.T.);
#713 = ORIENTED_EDGE('',*,*,#118,.T.);
#714 = ORIENTED_EDGE('',*,*,#715,.F.);
#715 = EDGE_CURVE('',#386,#111,#716,.T.);
#716 = LINE('',#717,#718);
#717 = CARTESIAN_POINT('',(30.8,12.,230.75));
#718 = VECTOR('',#719,1.);
#719 = DIRECTION('',(-2.2E-16,0.,1.));
#720 = ORIENTED_EDGE('',*,*,#385,.F.);
#721 = PLANE('',#722);
#722 = AXIS2_PLACEMENT_3D('',#723,#724,#725);
#723 = CARTESIAN_POINT('',(25.652045454546,12.,238.39795454545));
#724 = DIRECTION('',(0.,1.,0.));
#725 = DIRECTION('',(-2.2E-16,0.,1.));
#726 = ADVANCED_FACE('',(#727),#733,.T.);
#727 = FACE_BOUND('',#728,.T.);
#728 = EDGE_LOOP('',(#729,#730,#731,#732));
#729 = ORIENTED_EDGE('',*,*,#328,.T.);
#730 = ORIENTED_EDGE('',*,*,#393,.T.);
#731 = ORIENTED_EDGE('',*,*,#715,.T.);
#732 = ORIENTED_EDGE('',*,*,#110,.F.);
#733 = PLANE('',#734);
#734 = AXIS2_PLACEMENT_3D('',#735,#736,#737);
#735 = CARTESIAN_POINT('',(30.8,-12.,230.75));
#736 = DIRECTION('',(1.,0.,2.2E-16));
#737 = DIRECTION('',(-2.2E-16,0.,1.));
#738 = ADVANCED_FACE('',(#739),#758,.F.);
#739 = FACE_BOUND('',#740,.T.);
#740 = EDGE_LOOP('',(#741,#749,#750,#751));
#741 = ORIENTED_EDGE('',*,*,#742,.T.);
#742 = EDGE_CURVE('',#743,#215,#745,.T.);
#743 = VERTEX_POINT('',#744);
#744 = CARTESIAN_POINT('',(34.15,-22.5,249.95));
#745 = LINE('',#746,#747);
#746 = CARTESIAN_POINT('',(34.15,-22.5,249.95));
#747 = VECTOR('',#748,1.);
#748 = DIRECTION('',(-2.2E-16,0.,1.));
#749 = ORIENTED_EDGE('',*,*,#214,.T.);
#750 = ORIENTED_EDGE('',*,*,#742,.F.);
#751 = ORIENTED_EDGE('',*,*,#752,.F.);
#752 = EDGE_CURVE('',#743,#743,#753,.T.);
#753 = CIRCLE('',#754,1.15);
#754 = AXIS2_PLACEMENT_3D('',#755,#756,#757);
#755 = CARTESIAN_POINT('',(33.,-22.5,249.95));
#756 = DIRECTION('',(-2.2E-16,0.,1.));
#757 = DIRECTION('',(1.,0.,2.2E-16));
#758 = CYLINDRICAL_SURFACE('',#759,1.15);
#759 = AXIS2_PLACEMENT_3D('',#760,#761,#762);
#760 = CARTESIAN_POINT('',(33.,-22.5,249.95));
#761 = DIRECTION('',(2.2E-16,-0.,-1.));
#762 = DIRECTION('',(1.,0.,2.2E-16));
#763 = ADVANCED_FACE('',(#764),#783,.F.);
#764 = FACE_BOUND('',#765,.T.);
#765 = EDGE_LOOP('',(#766,#774,#775,#776));
#766 = ORIENTED_EDGE('',*,*,#767,.T.);
#767 = EDGE_CURVE('',#768,#226,#770,.T.);
#768 = VERTEX_POINT('',#769);
#769 = CARTESIAN_POINT('',(50.15,-22.5,249.95));
#770 = LINE('',#771,#772);
#771 = CARTESIAN_POINT('',(50.15,-22.5,249.95));
#772 = VECTOR('',#773,1.);
#773 = DIRECTION('',(-2.2E-16,0.,1.));
#774 = ORIENTED_EDGE('',*,*,#225,.T.);
#775 = ORIENTED_EDGE('',*,*,#767,.F.);
#776 = ORIENTED_EDGE('',*,*,#777,.F.);
#777 = EDGE_CURVE('',#768,#768,#778,.T.);
#778 = CIRCLE('',#779,1.15);
#779 = AXIS2_PLACEMENT_3D('',#780,#781,#782);
#780 = CARTESIAN_POINT('',(49.,-22.5,249.95));
#781 = DIRECTION('',(-2.2E-16,0.,1.));
#782 = DIRECTION('',(1.,0.,2.2E-16));
#783 = CYLINDRICAL_SURFACE('',#784,1.15);
#784 = AXIS2_PLACEMENT_3D('',#785,#786,#787);
#785 = CARTESIAN_POINT('',(49.,-22.5,249.95));
#786 = DIRECTION('',(2.2E-16,-0.,-1.));
#787 = DIRECTION('',(1.,0.,2.2E-16));
#788 = ADVANCED_FACE('',(#789),#808,.F.);
#789 = FACE_BOUND('',#790,.T.);
#790 = EDGE_LOOP('',(#791,#799,#800,#801));
#791 = ORIENTED_EDGE('',*,*,#792,.T.);
#792 = EDGE_CURVE('',#793,#237,#795,.T.);
#793 = VERTEX_POINT('',#794);
#794 = CARTESIAN_POINT('',(28.7,-15.,245.95));
#795 = LINE('',#796,#797);
#796 = CARTESIAN_POINT('',(28.7,-15.,245.95));
#797 = VECTOR('',#798,1.);
#798 = DIRECTION('',(-2.2E-16,0.,1.));
#799 = ORIENTED_EDGE('',*,*,#236,.T.);
#800 = ORIENTED_EDGE('',*,*,#792,.F.);
#801 = ORIENTED_EDGE('',*,*,#802,.F.);
#802 = EDGE_CURVE('',#793,#793,#803,.T.);
#803 = CIRCLE('',#804,0.85);
#804 = AXIS2_PLACEMENT_3D('',#805,#806,#807);
#805 = CARTESIAN_POINT('',(27.85,-15.,245.95));
#806 = DIRECTION('',(-2.2E-16,0.,1.));
#807 = DIRECTION('',(1.,0.,2.2E-16));
#808 = CYLINDRICAL_SURFACE('',#809,0.85);
#809 = AXIS2_PLACEMENT_3D('',#810,#811,#812);
#810 = CARTESIAN_POINT('',(27.85,-15.,245.95));
#811 = DIRECTION('',(2.2E-16,-0.,-1.));
#812 = DIRECTION('',(1.,0.,2.2E-16));
#813 = ADVANCED_FACE('',(#814),#833,.F.);
#814 = FACE_BOUND('',#815,.T.);
#815 = EDGE_LOOP('',(#816,#824,#825,#826));
#816 = ORIENTED_EDGE('',*,*,#817,.T.);
#817 = EDGE_CURVE('',#818,#248,#820,.T.);
#818 = VERTEX_POINT('',#819);
#819 = CARTESIAN_POINT('',(55.,-15.,245.95));
#820 = LINE('',#821,#822);
#821 = CARTESIAN_POINT('',(55.,-15.,245.95));
#822 = VECTOR('',#823,1.);
#823 = DIRECTION('',(-2.2E-16,0.,1.));
#824 = ORIENTED_EDGE('',*,*,#247,.T.);
#825 = ORIENTED_EDGE('',*,*,#817,.F.);
#826 = ORIENTED_EDGE('',*,*,#827,.F.);
#827 = EDGE_CURVE('',#818,#818,#828,.T.);
#828 = CIRCLE('',#829,0.85);
#829 = AXIS2_PLACEMENT_3D('',#830,#831,#832);
#830 = CARTESIAN_POINT('',(54.15,-15.,245.95));
#831 = DIRECTION('',(-2.2E-16,0.,1.));
#832 = DIRECTION('',(1.,0.,2.2E-16));
#833 = CYLINDRICAL_SURFACE('',#834,0.85);
#834 = AXIS2_PLACEMENT_3D('',#835,#836,#837);
#835 = CARTESIAN_POINT('',(54.15,-15.,245.95));
#836 = DIRECTION('',(2.2E-16,-0.,-1.));
#837 = DIRECTION('',(1.,0.,2.2E-16));
#838 = ADVANCED_FACE('',(#839,#873,#876),#879,.T.);
#839 = FACE_BOUND('',#840,.T.);
#840 = EDGE_LOOP('',(#841,#851,#859,#865,#866,#867));
#841 = ORIENTED_EDGE('',*,*,#842,.F.);
#842 = EDGE_CURVE('',#843,#845,#847,.T.);
#843 = VERTEX_POINT('',#844);
#844 = CARTESIAN_POINT('',(30.8,-24.7,249.95));
#845 = VERTEX_POINT('',#846);
#846 = CARTESIAN_POINT('',(51.2,-24.7,249.95));
#847 = LINE('',#848,#849);
#848 = CARTESIAN_POINT('',(28.8,-24.7,249.95));
#849 = VECTOR('',#850,1.);
#850 = DIRECTION('',(1.,0.,2.2E-16));
#851 = ORIENTED_EDGE('',*,*,#852,.T.);
#852 = EDGE_CURVE('',#843,#853,#855,.T.);
#853 = VERTEX_POINT('',#854);
#854 = CARTESIAN_POINT('',(30.8,9.7,249.95));
#855 = LINE('',#856,#857);
#856 = CARTESIAN_POINT('',(30.8,-26.7,249.95));
#857 = VECTOR('',#858,1.);
#858 = DIRECTION('',(0.,1.,0.));
#859 = ORIENTED_EDGE('',*,*,#860,.T.);
#860 = EDGE_CURVE('',#853,#502,#861,.T.);
#861 = LINE('',#862,#863);
#862 = CARTESIAN_POINT('',(28.8,9.7,249.95));
#863 = VECTOR('',#864,1.);
#864 = DIRECTION('',(1.,0.,2.2E-16));
#865 = ORIENTED_EDGE('',*,*,#509,.F.);
#866 = ORIENTED_EDGE('',*,*,#296,.T.);
#867 = ORIENTED_EDGE('',*,*,#868,.F.);
#868 = EDGE_CURVE('',#845,#289,#869,.T.);
#869 = LINE('',#870,#871);
#870 = CARTESIAN_POINT('',(51.2,-26.7,249.95));
#871 = VECTOR('',#872,1.);
#872 = DIRECTION('',(0.,1.,0.));
#873 = FACE_BOUND('',#874,.T.);
#874 = EDGE_LOOP('',(#875));
#875 = ORIENTED_EDGE('',*,*,#777,.T.);
#876 = FACE_BOUND('',#877,.T.);
#877 = EDGE_LOOP('',(#878));
#878 = ORIENTED_EDGE('',*,*,#752,.T.);
#879 = PLANE('',#880);
#880 = AXIS2_PLACEMENT_3D('',#881,#882,#883);
#881 = CARTESIAN_POINT('',(41.,-7.5,249.95));
#882 = DIRECTION('',(5.4E-16,0.,-1.));
#883 = DIRECTION('',(-1.,0.,-5.4E-16));
#884 = ADVANCED_FACE('',(#885),#902,.F.);
#885 = FACE_BOUND('',#886,.F.);
#886 = EDGE_LOOP('',(#887,#893,#894,#900,#901));
#887 = ORIENTED_EDGE('',*,*,#888,.F.);
#888 = EDGE_CURVE('',#443,#845,#889,.T.);
#889 = LINE('',#890,#891);
#890 = CARTESIAN_POINT('',(51.2,-24.7,230.75));
#891 = VECTOR('',#892,1.);
#892 = DIRECTION('',(-2.2E-16,0.,1.));
#893 = ORIENTED_EDGE('',*,*,#442,.T.);
#894 = ORIENTED_EDGE('',*,*,#895,.T.);
#895 = EDGE_CURVE('',#445,#281,#896,.T.);
#896 = LINE('',#897,#898);
#897 = CARTESIAN_POINT('',(51.2,9.7,230.75));
#898 = VECTOR('',#899,1.);
#899 = DIRECTION('',(-2.2E-16,0.,1.));
#900 = ORIENTED_EDGE('',*,*,#288,.T.);
#901 = ORIENTED_EDGE('',*,*,#868,.F.);
#902 = PLANE('',#903);
#903 = AXIS2_PLACEMENT_3D('',#904,#905,#906);
#904 = CARTESIAN_POINT('',(51.2,-26.7,230.75));
#905 = DIRECTION('',(1.,0.,2.2E-16));
#906 = DIRECTION('',(-2.2E-16,0.,1.));
#907 = ADVANCED_FACE('',(#908),#921,.F.);
#908 = FACE_BOUND('',#909,.F.);
#909 = EDGE_LOOP('',(#910,#911,#917,#918,#919,#920));
#910 = ORIENTED_EDGE('',*,*,#452,.F.);
#911 = ORIENTED_EDGE('',*,*,#912,.T.);
#912 = EDGE_CURVE('',#453,#853,#913,.T.);
#913 = LINE('',#914,#915);
#914 = CARTESIAN_POINT('',(30.8,9.7,230.75));
#915 = VECTOR('',#916,1.);
#916 = DIRECTION('',(-2.2E-16,0.,1.));
#917 = ORIENTED_EDGE('',*,*,#860,.T.);
#918 = ORIENTED_EDGE('',*,*,#501,.F.);
#919 = ORIENTED_EDGE('',*,*,#280,.T.);
#920 = ORIENTED_EDGE('',*,*,#895,.F.);
#921 = PLANE('',#922);
#922 = AXIS2_PLACEMENT_3D('',#923,#924,#925);
#923 = CARTESIAN_POINT('',(28.8,9.7,230.75));
#924 = DIRECTION('',(0.,1.,0.));
#925 = DIRECTION('',(-2.2E-16,0.,1.));
#926 = ADVANCED_FACE('',(#927),#961,.T.);
#927 = FACE_BOUND('',#928,.T.);
#928 = EDGE_LOOP('',(#929,#939,#945,#946,#947,#955));
#929 = ORIENTED_EDGE('',*,*,#930,.T.);
#930 = EDGE_CURVE('',#931,#933,#935,.T.);
#931 = VERTEX_POINT('',#932);
#932 = CARTESIAN_POINT('',(21.1,-12.,224.25));
#933 = VERTEX_POINT('',#934);
#934 = CARTESIAN_POINT('',(25.1,-12.,224.25));
#935 = LINE('',#936,#937);
#936 = CARTESIAN_POINT('',(21.1,-12.,224.25));
#937 = VECTOR('',#938,1.);
#938 = DIRECTION('',(1.,0.,2.2E-16));
#939 = ORIENTED_EDGE('',*,*,#940,.T.);
#940 = EDGE_CURVE('',#933,#370,#941,.T.);
#941 = LINE('',#942,#943);
#942 = CARTESIAN_POINT('',(25.1,-12.,224.25));
#943 = VECTOR('',#944,1.);
#944 = DIRECTION('',(-1.1E-16,0.,1.));
#945 = ORIENTED_EDGE('',*,*,#369,.F.);
#946 = ORIENTED_EDGE('',*,*,#612,.T.);
#947 = ORIENTED_EDGE('',*,*,#948,.F.);
#948 = EDGE_CURVE('',#949,#613,#951,.T.);
#949 = VERTEX_POINT('',#950);
#950 = CARTESIAN_POINT('',(21.1,-12.,248.25));
#951 = LINE('',#952,#953);
#952 = CARTESIAN_POINT('',(21.1,-12.,248.25));
#953 = VECTOR('',#954,1.);
#954 = DIRECTION('',(1.,0.,2.2E-16));
#955 = ORIENTED_EDGE('',*,*,#956,.F.);
#956 = EDGE_CURVE('',#931,#949,#957,.T.);
#957 = LINE('',#958,#959);
#958 = CARTESIAN_POINT('',(21.1,-12.,224.25));
#959 = VECTOR('',#960,1.);
#960 = DIRECTION('',(-1.1E-16,0.,1.));
#961 = PLANE('',#962);
#962 = AXIS2_PLACEMENT_3D('',#963,#964,#965);
#963 = CARTESIAN_POINT('',(24.818827683616,-12.,238.23117231638));
#964 = DIRECTION('',(-0.,-1.,0.));
#965 = DIRECTION('',(2.2E-16,0.,-1.));
#966 = ADVANCED_FACE('',(#967),#978,.T.);
#967 = FACE_BOUND('',#968,.T.);
#968 = EDGE_LOOP('',(#969,#970,#976,#977));
#969 = ORIENTED_EDGE('',*,*,#940,.F.);
#970 = ORIENTED_EDGE('',*,*,#971,.T.);
#971 = EDGE_CURVE('',#933,#684,#972,.T.);
#972 = LINE('',#973,#974);
#973 = CARTESIAN_POINT('',(25.1,-12.,224.25));
#974 = VECTOR('',#975,1.);
#975 = DIRECTION('',(0.,1.,0.));
#976 = ORIENTED_EDGE('',*,*,#683,.T.);
#977 = ORIENTED_EDGE('',*,*,#377,.T.);
#978 = PLANE('',#979);
#979 = AXIS2_PLACEMENT_3D('',#980,#981,#982);
#980 = CARTESIAN_POINT('',(25.1,-12.,224.25));
#981 = DIRECTION('',(1.,0.,2.2E-16));
#982 = DIRECTION('',(-2.2E-16,0.,1.));
#983 = ADVANCED_FACE('',(#984),#995,.T.);
#984 = FACE_BOUND('',#985,.T.);
#985 = EDGE_LOOP('',(#986,#987,#993,#994));
#986 = ORIENTED_EDGE('',*,*,#852,.F.);
#987 = ORIENTED_EDGE('',*,*,#988,.F.);
#988 = EDGE_CURVE('',#461,#843,#989,.T.);
#989 = LINE('',#990,#991);
#990 = CARTESIAN_POINT('',(30.8,-24.7,230.75));
#991 = VECTOR('',#992,1.);
#992 = DIRECTION('',(-2.2E-16,0.,1.));
#993 = ORIENTED_EDGE('',*,*,#460,.T.);
#994 = ORIENTED_EDGE('',*,*,#912,.T.);
#995 = PLANE('',#996);
#996 = AXIS2_PLACEMENT_3D('',#997,#998,#999);
#997 = CARTESIAN_POINT('',(30.8,-26.7,230.75));
#998 = DIRECTION('',(1.,0.,2.2E-16));
#999 = DIRECTION('',(-2.2E-16,0.,1.));
#1000 = ADVANCED_FACE('',(#1001),#1007,.T.);
#1001 = FACE_BOUND('',#1002,.T.);
#1002 = EDGE_LOOP('',(#1003,#1004,#1005,#1006));
#1003 = ORIENTED_EDGE('',*,*,#468,.F.);
#1004 = ORIENTED_EDGE('',*,*,#988,.T.);
#1005 = ORIENTED_EDGE('',*,*,#842,.T.);
#1006 = ORIENTED_EDGE('',*,*,#888,.F.);
#1007 = PLANE('',#1008);
#1008 = AXIS2_PLACEMENT_3D('',#1009,#1010,#1011);
#1009 = CARTESIAN_POINT('',(28.8,-24.7,230.75));
#1010 = DIRECTION('',(0.,1.,0.));
#1011 = DIRECTION('',(-2.2E-16,0.,1.));
#1012 = ADVANCED_FACE('',(#1013),#1025,.T.);
#1013 = FACE_BOUND('',#1014,.T.);
#1014 = EDGE_LOOP('',(#1015,#1021,#1022,#1023,#1024));
#1015 = ORIENTED_EDGE('',*,*,#1016,.F.);
#1016 = EDGE_CURVE('',#949,#700,#1017,.T.);
#1017 = LINE('',#1018,#1019);
#1018 = CARTESIAN_POINT('',(21.1,-12.,248.25));
#1019 = VECTOR('',#1020,1.);
#1020 = DIRECTION('',(0.,1.,0.));
#1021 = ORIENTED_EDGE('',*,*,#948,.T.);
#1022 = ORIENTED_EDGE('',*,*,#635,.T.);
#1023 = ORIENTED_EDGE('',*,*,#660,.T.);
#1024 = ORIENTED_EDGE('',*,*,#707,.F.);
#1025 = PLANE('',#1026);
#1026 = AXIS2_PLACEMENT_3D('',#1027,#1028,#1029);
#1027 = CARTESIAN_POINT('',(21.1,-12.,248.25));
#1028 = DIRECTION('',(-2.2E-16,0.,1.));
#1029 = DIRECTION('',(1.,0.,2.2E-16));
#1030 = ADVANCED_FACE('',(#1031),#1042,.F.);
#1031 = FACE_BOUND('',#1032,.T.);
#1032 = EDGE_LOOP('',(#1033,#1039,#1040,#1041));
#1033 = ORIENTED_EDGE('',*,*,#1034,.T.);
#1034 = EDGE_CURVE('',#931,#692,#1035,.T.);
#1035 = LINE('',#1036,#1037);
#1036 = CARTESIAN_POINT('',(21.1,-12.,224.25));
#1037 = VECTOR('',#1038,1.);
#1038 = DIRECTION('',(0.,1.,0.));
#1039 = ORIENTED_EDGE('',*,*,#691,.T.);
#1040 = ORIENTED_EDGE('',*,*,#971,.F.);
#1041 = ORIENTED_EDGE('',*,*,#930,.F.);
#1042 = PLANE('',#1043);
#1043 = AXIS2_PLACEMENT_3D('',#1044,#1045,#1046);
#1044 = CARTESIAN_POINT('',(21.1,-12.,224.25));
#1045 = DIRECTION('',(-2.2E-16,0.,1.));
#1046 = DIRECTION('',(1.,0.,2.2E-16));
#1047 = ADVANCED_FACE('',(#1048,#1054,#1065,#1076,#1087,#1098),#1109,.F.
  );
#1048 = FACE_BOUND('',#1049,.F.);
#1049 = EDGE_LOOP('',(#1050,#1051,#1052,#1053));
#1050 = ORIENTED_EDGE('',*,*,#956,.F.);
#1051 = ORIENTED_EDGE('',*,*,#1034,.T.);
#1052 = ORIENTED_EDGE('',*,*,#699,.T.);
#1053 = ORIENTED_EDGE('',*,*,#1016,.F.);
#1054 = FACE_BOUND('',#1055,.F.);
#1055 = EDGE_LOOP('',(#1056));
#1056 = ORIENTED_EDGE('',*,*,#1057,.T.);
#1057 = EDGE_CURVE('',#1058,#1058,#1060,.T.);
#1058 = VERTEX_POINT('',#1059);
#1059 = CARTESIAN_POINT('',(21.1,4.242640687119,231.15735931288));
#1060 = CIRCLE('',#1061,0.85);
#1061 = AXIS2_PLACEMENT_3D('',#1062,#1063,#1064);
#1062 = CARTESIAN_POINT('',(21.1,4.242640687119,232.00735931288));
#1063 = DIRECTION('',(-1.,-0.,-2.2E-16));
#1064 = DIRECTION('',(2.2E-16,0.,-1.));
#1065 = FACE_BOUND('',#1066,.F.);
#1066 = EDGE_LOOP('',(#1067));
#1067 = ORIENTED_EDGE('',*,*,#1068,.T.);
#1068 = EDGE_CURVE('',#1069,#1069,#1071,.T.);
#1069 = VERTEX_POINT('',#1070);
#1070 = CARTESIAN_POINT('',(21.1,4.242640687119,239.64264068711));
#1071 = CIRCLE('',#1072,0.85);
#1072 = AXIS2_PLACEMENT_3D('',#1073,#1074,#1075);
#1073 = CARTESIAN_POINT('',(21.1,4.242640687119,240.49264068711));
#1074 = DIRECTION('',(-1.,-0.,-2.2E-16));
#1075 = DIRECTION('',(2.2E-16,0.,-1.));
#1076 = FACE_BOUND('',#1077,.F.);
#1077 = EDGE_LOOP('',(#1078));
#1078 = ORIENTED_EDGE('',*,*,#1079,.T.);
#1079 = EDGE_CURVE('',#1080,#1080,#1082,.T.);
#1080 = VERTEX_POINT('',#1081);
#1081 = CARTESIAN_POINT('',(21.1,-8.881784197001E-16,232.25));
#1082 = CIRCLE('',#1083,4.);
#1083 = AXIS2_PLACEMENT_3D('',#1084,#1085,#1086);
#1084 = CARTESIAN_POINT('',(21.1,8.881784197001E-16,236.25));
#1085 = DIRECTION('',(-1.,-0.,-2.2E-16));
#1086 = DIRECTION('',(2.2E-16,0.,-1.));
#1087 = FACE_BOUND('',#1088,.F.);
#1088 = EDGE_LOOP('',(#1089));
#1089 = ORIENTED_EDGE('',*,*,#1090,.T.);
#1090 = EDGE_CURVE('',#1091,#1091,#1093,.T.);
#1091 = VERTEX_POINT('',#1092);
#1092 = CARTESIAN_POINT('',(21.1,-4.242640687119,231.15735931288));
#1093 = CIRCLE('',#1094,0.85);
#1094 = AXIS2_PLACEMENT_3D('',#1095,#1096,#1097);
#1095 = CARTESIAN_POINT('',(21.1,-4.242640687119,232.00735931288));
#1096 = DIRECTION('',(-1.,-0.,-2.2E-16));
#1097 = DIRECTION('',(2.2E-16,0.,-1.));
#1098 = FACE_BOUND('',#1099,.F.);
#1099 = EDGE_LOOP('',(#1100));
#1100 = ORIENTED_EDGE('',*,*,#1101,.T.);
#1101 = EDGE_CURVE('',#1102,#1102,#1104,.T.);
#1102 = VERTEX_POINT('',#1103);
#1103 = CARTESIAN_POINT('',(21.1,-4.242640687119,239.64264068711));
#1104 = CIRCLE('',#1105,0.85);
#1105 = AXIS2_PLACEMENT_3D('',#1106,#1107,#1108);
#1106 = CARTESIAN_POINT('',(21.1,-4.242640687119,240.49264068711));
#1107 = DIRECTION('',(-1.,-0.,-2.2E-16));
#1108 = DIRECTION('',(2.2E-16,0.,-1.));
#1109 = PLANE('',#1110);
#1110 = AXIS2_PLACEMENT_3D('',#1111,#1112,#1113);
#1111 = CARTESIAN_POINT('',(21.1,-12.,224.25));
#1112 = DIRECTION('',(1.,0.,2.2E-16));
#1113 = DIRECTION('',(-2.2E-16,0.,1.));
#1114 = ADVANCED_FACE('',(#1115),#1118,.T.);
#1115 = FACE_BOUND('',#1116,.F.);
#1116 = EDGE_LOOP('',(#1117));
#1117 = ORIENTED_EDGE('',*,*,#802,.F.);
#1118 = PLANE('',#1119);
#1119 = AXIS2_PLACEMENT_3D('',#1120,#1121,#1122);
#1120 = CARTESIAN_POINT('',(27.85,-15.,245.95));
#1121 = DIRECTION('',(-2.2E-16,0.,1.));
#1122 = DIRECTION('',(1.,0.,2.2E-16));
#1123 = ADVANCED_FACE('',(#1124),#1127,.T.);
#1124 = FACE_BOUND('',#1125,.F.);
#1125 = EDGE_LOOP('',(#1126));
#1126 = ORIENTED_EDGE('',*,*,#827,.F.);
#1127 = PLANE('',#1128);
#1128 = AXIS2_PLACEMENT_3D('',#1129,#1130,#1131);
#1129 = CARTESIAN_POINT('',(54.15,-15.,245.95));
#1130 = DIRECTION('',(-2.2E-16,0.,1.));
#1131 = DIRECTION('',(1.,0.,2.2E-16));
#1132 = ADVANCED_FACE('',(#1133),#1151,.F.);
#1133 = FACE_BOUND('',#1134,.T.);
#1134 = EDGE_LOOP('',(#1135,#1136,#1143,#1150));
#1135 = ORIENTED_EDGE('',*,*,#1057,.T.);
#1136 = ORIENTED_EDGE('',*,*,#1137,.F.);
#1137 = EDGE_CURVE('',#1138,#1058,#1140,.T.);
#1138 = VERTEX_POINT('',#1139);
#1139 = CARTESIAN_POINT('',(25.2,4.242640687119,231.15735931288));
#1140 = B_SPLINE_CURVE_WITH_KNOTS('',1,(#1141,#1142),.UNSPECIFIED.,.F.,
  .F.,(2,2),(-4.2,-0.1),.PIECEWISE_BEZIER_KNOTS.);
#1141 = CARTESIAN_POINT('',(25.2,4.242640687119,231.15735931288));
#1142 = CARTESIAN_POINT('',(21.1,4.242640687119,231.15735931288));
#1143 = ORIENTED_EDGE('',*,*,#1144,.T.);
#1144 = EDGE_CURVE('',#1138,#1138,#1145,.T.);
#1145 = CIRCLE('',#1146,0.85);
#1146 = AXIS2_PLACEMENT_3D('',#1147,#1148,#1149);
#1147 = CARTESIAN_POINT('',(25.2,4.242640687119,232.00735931288));
#1148 = DIRECTION('',(1.,-0.,2.2E-16));
#1149 = DIRECTION('',(2.2E-16,0.,-1.));
#1150 = ORIENTED_EDGE('',*,*,#1137,.T.);
#1151 = CYLINDRICAL_SURFACE('',#1152,0.85);
#1152 = AXIS2_PLACEMENT_3D('',#1153,#1154,#1155);
#1153 = CARTESIAN_POINT('',(21.,4.242640687119,232.00735931288));
#1154 = DIRECTION('',(-1.,-0.,-2.2E-16));
#1155 = DIRECTION('',(2.2E-16,0.,-1.));
#1156 = ADVANCED_FACE('',(#1157),#1175,.F.);
#1157 = FACE_BOUND('',#1158,.T.);
#1158 = EDGE_LOOP('',(#1159,#1160,#1167,#1174));
#1159 = ORIENTED_EDGE('',*,*,#1068,.T.);
#1160 = ORIENTED_EDGE('',*,*,#1161,.F.);
#1161 = EDGE_CURVE('',#1162,#1069,#1164,.T.);
#1162 = VERTEX_POINT('',#1163);
#1163 = CARTESIAN_POINT('',(25.2,4.242640687119,239.64264068711));
#1164 = B_SPLINE_CURVE_WITH_KNOTS('',1,(#1165,#1166),.UNSPECIFIED.,.F.,
  .F.,(2,2),(-4.2,-1.E-01),.PIECEWISE_BEZIER_KNOTS.);
#1165 = CARTESIAN_POINT('',(25.2,4.242640687119,239.64264068711));
#1166 = CARTESIAN_POINT('',(21.1,4.242640687119,239.64264068711));
#1167 = ORIENTED_EDGE('',*,*,#1168,.T.);
#1168 = EDGE_CURVE('',#1162,#1162,#1169,.T.);
#1169 = CIRCLE('',#1170,0.85);
#1170 = AXIS2_PLACEMENT_3D('',#1171,#1172,#1173);
#1171 = CARTESIAN_POINT('',(25.2,4.242640687119,240.49264068711));
#1172 = DIRECTION('',(1.,-0.,2.2E-16));
#1173 = DIRECTION('',(2.2E-16,0.,-1.));
#1174 = ORIENTED_EDGE('',*,*,#1161,.T.);
#1175 = CYLINDRICAL_SURFACE('',#1176,0.85);
#1176 = AXIS2_PLACEMENT_3D('',#1177,#1178,#1179);
#1177 = CARTESIAN_POINT('',(21.,4.242640687119,240.49264068711));
#1178 = DIRECTION('',(-1.,-0.,-2.2E-16));
#1179 = DIRECTION('',(2.2E-16,0.,-1.));
#1180 = ADVANCED_FACE('',(#1181),#1199,.F.);
#1181 = FACE_BOUND('',#1182,.T.);
#1182 = EDGE_LOOP('',(#1183,#1184,#1191,#1198));
#1183 = ORIENTED_EDGE('',*,*,#1079,.T.);
#1184 = ORIENTED_EDGE('',*,*,#1185,.F.);
#1185 = EDGE_CURVE('',#1186,#1080,#1188,.T.);
#1186 = VERTEX_POINT('',#1187);
#1187 = CARTESIAN_POINT('',(25.2,-8.881784197001E-16,232.25));
#1188 = B_SPLINE_CURVE_WITH_KNOTS('',1,(#1189,#1190),.UNSPECIFIED.,.F.,
  .F.,(2,2),(-4.2,-0.1),.PIECEWISE_BEZIER_KNOTS.);
#1189 = CARTESIAN_POINT('',(25.2,0.,232.25));
#1190 = CARTESIAN_POINT('',(21.1,0.,232.25));
#1191 = ORIENTED_EDGE('',*,*,#1192,.T.);
#1192 = EDGE_CURVE('',#1186,#1186,#1193,.T.);
#1193 = CIRCLE('',#1194,4.);
#1194 = AXIS2_PLACEMENT_3D('',#1195,#1196,#1197);
#1195 = CARTESIAN_POINT('',(25.2,8.881784197001E-16,236.25));
#1196 = DIRECTION('',(1.,-0.,2.2E-16));
#1197 = DIRECTION('',(2.2E-16,0.,-1.));
#1198 = ORIENTED_EDGE('',*,*,#1185,.T.);
#1199 = CYLINDRICAL_SURFACE('',#1200,4.);
#1200 = AXIS2_PLACEMENT_3D('',#1201,#1202,#1203);
#1201 = CARTESIAN_POINT('',(21.,8.881784197001E-16,236.25));
#1202 = DIRECTION('',(-1.,-0.,-2.2E-16));
#1203 = DIRECTION('',(2.2E-16,0.,-1.));
#1204 = ADVANCED_FACE('',(#1205),#1223,.F.);
#1205 = FACE_BOUND('',#1206,.T.);
#1206 = EDGE_LOOP('',(#1207,#1208,#1215,#1222));
#1207 = ORIENTED_EDGE('',*,*,#1090,.T.);
#1208 = ORIENTED_EDGE('',*,*,#1209,.F.);
#1209 = EDGE_CURVE('',#1210,#1091,#1212,.T.);
#1210 = VERTEX_POINT('',#1211);
#1211 = CARTESIAN_POINT('',(25.2,-4.242640687119,231.15735931288));
#1212 = B_SPLINE_CURVE_WITH_KNOTS('',1,(#1213,#1214),.UNSPECIFIED.,.F.,
  .F.,(2,2),(-4.2,-0.1),.PIECEWISE_BEZIER_KNOTS.);
#1213 = CARTESIAN_POINT('',(25.2,-4.242640687119,231.15735931288));
#1214 = CARTESIAN_POINT('',(21.1,-4.242640687119,231.15735931288));
#1215 = ORIENTED_EDGE('',*,*,#1216,.T.);
#1216 = EDGE_CURVE('',#1210,#1210,#1217,.T.);
#1217 = CIRCLE('',#1218,0.85);
#1218 = AXIS2_PLACEMENT_3D('',#1219,#1220,#1221);
#1219 = CARTESIAN_POINT('',(25.2,-4.242640687119,232.00735931288));
#1220 = DIRECTION('',(1.,-0.,2.2E-16));
#1221 = DIRECTION('',(2.2E-16,0.,-1.));
#1222 = ORIENTED_EDGE('',*,*,#1209,.T.);
#1223 = CYLINDRICAL_SURFACE('',#1224,0.85);
#1224 = AXIS2_PLACEMENT_3D('',#1225,#1226,#1227);
#1225 = CARTESIAN_POINT('',(21.,-4.242640687119,232.00735931288));
#1226 = DIRECTION('',(-1.,-0.,-2.2E-16));
#1227 = DIRECTION('',(2.2E-16,0.,-1.));
#1228 = ADVANCED_FACE('',(#1229),#1247,.F.);
#1229 = FACE_BOUND('',#1230,.T.);
#1230 = EDGE_LOOP('',(#1231,#1232,#1239,#1246));
#1231 = ORIENTED_EDGE('',*,*,#1101,.T.);
#1232 = ORIENTED_EDGE('',*,*,#1233,.F.);
#1233 = EDGE_CURVE('',#1234,#1102,#1236,.T.);
#1234 = VERTEX_POINT('',#1235);
#1235 = CARTESIAN_POINT('',(25.2,-4.242640687119,239.64264068711));
#1236 = B_SPLINE_CURVE_WITH_KNOTS('',1,(#1237,#1238),.UNSPECIFIED.,.F.,
  .F.,(2,2),(-4.2,-0.1),.PIECEWISE_BEZIER_KNOTS.);
#1237 = CARTESIAN_POINT('',(25.2,-4.242640687119,239.64264068711));
#1238 = CARTESIAN_POINT('',(21.1,-4.242640687119,239.64264068711));
#1239 = ORIENTED_EDGE('',*,*,#1240,.T.);
#1240 = EDGE_CURVE('',#1234,#1234,#1241,.T.);
#1241 = CIRCLE('',#1242,0.85);
#1242 = AXIS2_PLACEMENT_3D('',#1243,#1244,#1245);
#1243 = CARTESIAN_POINT('',(25.2,-4.242640687119,240.49264068711));
#1244 = DIRECTION('',(1.,-0.,2.2E-16));
#1245 = DIRECTION('',(2.2E-16,0.,-1.));
#1246 = ORIENTED_EDGE('',*,*,#1233,.T.);
#1247 = CYLINDRICAL_SURFACE('',#1248,0.85);
#1248 = AXIS2_PLACEMENT_3D('',#1249,#1250,#1251);
#1249 = CARTESIAN_POINT('',(21.,-4.242640687119,240.49264068711));
#1250 = DIRECTION('',(-1.,-0.,-2.2E-16));
#1251 = DIRECTION('',(2.2E-16,0.,-1.));
#1252 = ADVANCED_FACE('',(#1253),#1256,.F.);
#1253 = FACE_BOUND('',#1254,.T.);
#1254 = EDGE_LOOP('',(#1255));
#1255 = ORIENTED_EDGE('',*,*,#1144,.F.);
#1256 = PLANE('',#1257);
#1257 = AXIS2_PLACEMENT_3D('',#1258,#1259,#1260);
#1258 = CARTESIAN_POINT('',(25.2,4.242640687119,232.00735931288));
#1259 = DIRECTION('',(1.,0.,2.2E-16));
#1260 = DIRECTION('',(2.2E-16,0.,-1.));
#1261 = ADVANCED_FACE('',(#1262),#1265,.F.);
#1262 = FACE_BOUND('',#1263,.T.);
#1263 = EDGE_LOOP('',(#1264));
#1264 = ORIENTED_EDGE('',*,*,#1168,.F.);
#1265 = PLANE('',#1266);
#1266 = AXIS2_PLACEMENT_3D('',#1267,#1268,#1269);
#1267 = CARTESIAN_POINT('',(25.2,4.242640687119,240.49264068711));
#1268 = DIRECTION('',(1.,0.,2.2E-16));
#1269 = DIRECTION('',(2.2E-16,0.,-1.));
#1270 = ADVANCED_FACE('',(#1271),#1274,.F.);
#1271 = FACE_BOUND('',#1272,.T.);
#1272 = EDGE_LOOP('',(#1273));
#1273 = ORIENTED_EDGE('',*,*,#1192,.F.);
#1274 = PLANE('',#1275);
#1275 = AXIS2_PLACEMENT_3D('',#1276,#1277,#1278);
#1276 = CARTESIAN_POINT('',(25.2,8.881784197001E-16,236.25));
#1277 = DIRECTION('',(1.,0.,2.2E-16));
#1278 = DIRECTION('',(2.2E-16,0.,-1.));
#1279 = ADVANCED_FACE('',(#1280),#1283,.F.);
#1280 = FACE_BOUND('',#1281,.T.);
#1281 = EDGE_LOOP('',(#1282));
#1282 = ORIENTED_EDGE('',*,*,#1216,.F.);
#1283 = PLANE('',#1284);
#1284 = AXIS2_PLACEMENT_3D('',#1285,#1286,#1287);
#1285 = CARTESIAN_POINT('',(25.2,-4.242640687119,232.00735931288));
#1286 = DIRECTION('',(1.,0.,2.2E-16));
#1287 = DIRECTION('',(2.2E-16,0.,-1.));
#1288 = ADVANCED_FACE('',(#1289),#1292,.F.);
#1289 = FACE_BOUND('',#1290,.T.);
#1290 = EDGE_LOOP('',(#1291));
#1291 = ORIENTED_EDGE('',*,*,#1240,.F.);
#1292 = PLANE('',#1293);
#1293 = AXIS2_PLACEMENT_3D('',#1294,#1295,#1296);
#1294 = CARTESIAN_POINT('',(25.2,-4.242640687119,240.49264068711));
#1295 = DIRECTION('',(1.,0.,2.2E-16));
#1296 = DIRECTION('',(2.2E-16,0.,-1.));
#1297 = ( GEOMETRIC_REPRESENTATION_CONTEXT(3) 
GLOBAL_UNCERTAINTY_ASSIGNED_CONTEXT((#1301)) 
GLOBAL_UNIT_ASSIGNED_CONTEXT((#1298,#1299,#1300)) REPRESENTATION_CONTEXT
('Context #1','3D Context with UNIT and UNCERTAINTY') );
#1298 = ( LENGTH_UNIT() NAMED_UNIT(*) SI_UNIT(.MILLI.,.METRE.) );
#1299 = ( NAMED_UNIT(*) PLANE_ANGLE_UNIT() SI_UNIT($,.RADIAN.) );
#1300 = ( NAMED_UNIT(*) SI_UNIT($,.STERADIAN.) SOLID_ANGLE_UNIT() );
#1301 = UNCERTAINTY_MEASURE_WITH_UNIT(LENGTH_MEASURE(2.E-05),#1298,
  'distance_accuracy_value','confusion accuracy');
#1302 = PRODUCT_RELATED_PRODUCT_CATEGORY('part',$,(#7));
ENDSEC;
END-ISO-10303-21;
